<svg width="226" height="529" viewBox="0 0 226 529" fill="none" xmlns="http://www.w3.org/2000/svg">
<path d="M211.967 42.4747H22.861V382.196H211.967V42.4747Z" fill="#EBEBEB"/>
<path d="M202.459 52.329H30.4163V372.074H202.459V52.329Z" fill="#FAFAFA"/>
<path d="M219.969 385.265L211.967 382.196V36.7162H219.969V385.265Z" fill="#E0E0E0"/>
<path d="M72.6011 258.867L117.241 217.341C122.91 212.073 130.309 206.404 137.586 209.004C141.09 210.254 143.724 213.245 147.161 214.673C154.024 217.53 161.859 213.401 167.126 208.167C172.394 202.933 176.568 196.382 182.962 192.543C189.357 188.704 199.278 189.195 202.437 195.958V241.156L137.496 268.956L72.6011 258.867Z" fill="#F5F5F5"/>
<path d="M30.4163 232.887C46.8884 226.191 63.316 231.882 75.0563 245.163C77.5338 247.964 79.7993 251.2 83.2031 252.751C87.8233 254.838 93.1466 253.276 98.191 252.751C105.107 252.065 112.078 253.307 118.331 256.338C124.585 259.37 129.878 264.073 133.624 269.927L78.6498 296.967L30.3716 296.61L30.4163 232.887Z" fill="#E0E0E0"/>
<path d="M202.47 233.121C191.622 227.876 182.081 234.237 172.07 240.933C162.06 247.629 152.808 256.222 141.034 258.923C133.222 260.72 124.796 259.726 117.208 262.427C101.762 267.918 92.8341 287.537 76.4736 288.475C67.5456 288.977 59.6108 283.587 51.6761 279.547C43.7413 275.507 37.4917 271.668 30.4721 277.08V372.074H202.47V233.121Z" fill="#EBEBEB"/>
<path d="M206.197 144.31H30.4163V147.714H206.197V144.31Z" fill="#E0E0E0"/>
<path d="M206.197 220.454H30.4163V223.858H206.197V220.454Z" fill="#E0E0E0"/>
<path d="M206.197 296.599H30.4163V300.003H206.197V296.599Z" fill="#E0E0E0"/>
<path d="M112.096 146.017L112.096 381.147H120.79L120.79 146.017H112.096Z" fill="#E0E0E0"/>
<path d="M67.4898 52.329H63.5503V146.017H67.4898V52.329Z" fill="#E0E0E0"/>
<path d="M101.45 52.329H97.5102V146.017H101.45V52.329Z" fill="#E0E0E0"/>
<path d="M135.421 52.329H131.481V146.017H135.421V52.329Z" fill="#E0E0E0"/>
<path d="M169.381 52.329H165.441V146.017H169.381V52.329Z" fill="#E0E0E0"/>
<path d="M22.8721 36.7162H14.8704V384.306H22.8721V36.7162Z" fill="#E0E0E0"/>
<path d="M219.98 33.2119H14.8704V42.4859H219.98V33.2119Z" fill="#E0E0E0"/>
<path d="M225.381 386.404H9.18997V395.041H225.381V386.404Z" fill="#E0E0E0"/>
<path d="M211.967 382.196L225.381 386.404H9.18997L22.861 382.196H211.967Z" fill="#EBEBEB"/>
<path d="M180.128 404.326C175.987 400.833 172.784 398.01 169.146 394.584C163.701 389.457 156.606 386.438 149.136 386.069L86.1159 382.91H74.8442C68.4496 382.91 33.9763 407.574 29.2668 412.708L60.7268 441.255L64.644 439.168L64.1864 448.855L155.955 448.643L156.781 435.139L173.822 446.098L196.142 419.616C196.142 419.616 187.092 410.152 180.128 404.326Z" fill="url(#paint0_linear_2_2)"/>
<path d="M157.439 391.258C156.356 392.16 155.324 393.121 154.348 394.137C152.104 396.689 150.525 399.756 149.75 403.065C149.011 406.382 148.901 409.808 149.426 413.165C149.806 415.754 150.286 417.305 150.197 417.339C150 416.99 149.857 416.614 149.772 416.223C149.458 415.227 149.205 414.214 149.014 413.187C148.358 409.779 148.415 406.272 149.181 402.887C149.974 399.492 151.653 396.369 154.047 393.836C154.77 393.075 155.571 392.39 156.435 391.794C156.742 391.567 157.08 391.386 157.439 391.258Z" fill="#263238"/>
<path d="M114.507 438.242C114.095 438.139 113.694 437.993 113.313 437.806C112.554 437.505 111.471 436.992 110.177 436.311C103.386 432.717 97.4989 427.631 92.9569 421.435C92.0976 420.252 91.4391 419.258 91.0262 418.544C90.7807 418.198 90.5784 417.823 90.4236 417.428C90.5129 417.428 91.5396 418.89 93.2805 421.189C95.6231 424.164 98.2384 426.914 101.093 429.403C103.97 431.875 107.075 434.068 110.367 435.954C112.9 437.393 114.552 438.152 114.507 438.242Z" fill="#263238"/>
<path d="M71.2172 409.248C70.9982 409.4 70.7453 409.496 70.4807 409.527C69.7681 409.689 69.0283 409.689 68.3156 409.527C67.248 409.266 66.2813 408.695 65.5368 407.886C64.6316 406.873 64.1138 405.573 64.0748 404.215C64.0295 402.863 64.4208 401.532 65.1908 400.42C65.8173 399.53 66.6477 398.803 67.6126 398.3C68.2565 397.97 68.9502 397.747 69.666 397.642C70.1682 397.563 70.4472 397.642 70.4472 397.642C69.5358 397.895 68.6531 398.243 67.8134 398.679C66.9447 399.194 66.2014 399.895 65.6372 400.733C64.963 401.761 64.6274 402.975 64.6775 404.204C64.6991 405.32 65.0767 406.401 65.7551 407.288C66.4336 408.175 67.3776 408.823 68.4496 409.136C69.3576 409.342 70.2956 409.38 71.2172 409.248Z" fill="#FAFAFA"/>
<path d="M89.3969 389.651C89.3969 389.651 89.2964 389.952 88.9728 390.388C88.4932 390.997 87.9071 391.515 87.243 391.916C86.2616 392.527 85.1555 392.908 84.0066 393.032C82.5797 393.226 81.1276 392.981 79.8437 392.329C78.5598 391.677 77.5049 390.65 76.8196 389.383C76.2401 388.356 75.9005 387.212 75.8263 386.035C75.7593 385.262 75.835 384.482 76.0495 383.736C76.2058 383.212 76.3508 382.955 76.3843 382.966C76.2028 383.963 76.1502 384.98 76.2281 385.99C76.3852 387.079 76.7651 388.124 77.3441 389.059C77.9998 390.221 78.9875 391.16 80.1805 391.757C81.3735 392.353 82.7174 392.58 84.0401 392.407C85.1254 392.31 86.1784 391.987 87.1314 391.459C87.9558 390.949 88.7164 390.342 89.3969 389.651V389.651Z" fill="#FAFAFA"/>
<path d="M86.5399 406.012C86.6583 405.994 86.7786 405.994 86.897 406.012C87.2291 406.09 87.5511 406.206 87.8568 406.358C88.993 406.934 89.9128 407.861 90.4794 409.002C90.8768 409.795 91.0796 410.671 91.0709 411.558C91.0514 412.579 90.7709 413.578 90.2562 414.46C89.6887 415.44 88.8676 416.25 87.8791 416.803C86.8073 417.392 85.5789 417.634 84.3637 417.495C83.1496 417.373 81.9919 416.922 81.0157 416.189C80.1195 415.497 79.432 414.57 79.0292 413.511C78.688 412.624 78.5394 411.675 78.5932 410.726C78.6471 409.778 78.9022 408.852 79.3417 408.009C79.6315 407.439 80.0406 406.937 80.5412 406.539C81.0419 406.14 81.6223 405.854 82.2433 405.699C82.5821 405.631 82.9312 405.631 83.27 405.699C83.4932 405.755 83.6048 405.8 83.6048 405.822C83.1633 405.788 82.7192 405.822 82.2879 405.922C81.7309 406.106 81.2155 406.398 80.7713 406.781C80.327 407.164 79.9626 407.63 79.6988 408.154C79.3228 408.949 79.113 409.813 79.0823 410.691C79.0516 411.57 79.2006 412.446 79.5203 413.266C79.8968 414.247 80.5429 415.102 81.384 415.732C82.2742 416.394 83.327 416.803 84.4307 416.915C85.5273 417.037 86.6355 416.827 87.6113 416.312C88.5086 415.807 89.2587 415.076 89.7875 414.192C90.2505 413.448 90.5215 412.6 90.576 411.726C90.6306 410.851 90.467 409.977 90.0999 409.181C89.5981 408.086 88.7774 407.168 87.7452 406.547C86.964 406.179 86.5287 406.067 86.5399 406.012Z" fill="#FAFAFA"/>
<path d="M86.406 443.81C86.406 443.755 86.8301 443.933 87.589 444C88.6591 444.083 89.7302 443.851 90.6691 443.331C91.3603 442.964 91.9613 442.449 92.4285 441.822C92.8956 441.194 93.2172 440.471 93.3698 439.704C93.535 438.757 93.4885 437.786 93.2338 436.86C92.9791 435.934 92.5225 435.076 91.8967 434.347C91.2512 433.634 90.4715 433.055 89.6022 432.643C88.7328 432.231 87.7908 431.995 86.8301 431.947C85.2392 431.824 83.6473 432.173 82.2545 432.952C81.3091 433.486 80.5173 434.255 79.9555 435.184C79.5649 435.842 79.4645 436.3 79.4199 436.3C79.4312 435.884 79.5463 435.477 79.7547 435.117C80.2596 434.115 81.0322 433.273 81.9867 432.684C83.4366 431.81 85.118 431.397 86.8078 431.501C87.8459 431.543 88.8653 431.792 89.8062 432.232C90.747 432.673 91.5906 433.297 92.2873 434.068C92.9686 434.859 93.4621 435.794 93.7307 436.803C93.9994 437.812 94.0362 438.868 93.8386 439.893C93.6654 440.732 93.3015 441.519 92.7751 442.195C92.2487 442.87 91.5739 443.415 90.803 443.788C89.774 444.323 88.5984 444.507 87.4551 444.313C87.1498 444.273 86.8524 444.186 86.5734 444.056C86.4953 443.889 86.406 443.833 86.406 443.81Z" fill="#FAFAFA"/>
<path d="M109.284 432.081C109.284 432.081 109.563 431.869 109.998 431.456C110.609 430.869 111.058 430.135 111.304 429.325C111.677 428.133 111.597 426.846 111.081 425.709C110.409 424.336 109.258 423.256 107.844 422.673C106.431 422.082 104.862 421.972 103.38 422.361C102.163 422.683 101.036 423.283 100.088 424.113C99.2374 424.924 98.5216 425.866 97.9678 426.903C98.0025 426.578 98.1011 426.263 98.2579 425.977C98.6227 425.157 99.1505 424.421 99.8092 423.812C100.771 422.883 101.948 422.208 103.235 421.848C104.836 421.39 106.544 421.492 108.079 422.138C109.62 422.779 110.865 423.973 111.572 425.486C112.122 426.737 112.166 428.153 111.695 429.436C111.398 430.296 110.86 431.052 110.143 431.613C109.899 431.835 109.604 431.996 109.284 432.081V432.081Z" fill="#FAFAFA"/>
<path d="M133.97 427.003C134.151 427.033 134.327 427.086 134.494 427.16C134.988 427.336 135.46 427.568 135.901 427.852C137.538 428.908 138.806 430.449 139.528 432.26C140.033 433.512 140.239 434.865 140.13 436.21C139.985 437.763 139.447 439.253 138.568 440.541C137.6 441.969 136.261 443.107 134.695 443.833C132.996 444.587 131.102 444.786 129.283 444.402C125.566 443.665 122.587 440.652 122.163 437.304C122.061 435.728 122.519 434.167 123.457 432.896C124.195 431.798 124.996 430.743 125.857 429.738C127.053 428.199 128.705 427.078 130.577 426.535C131.087 426.405 131.614 426.356 132.14 426.39C132.323 426.375 132.507 426.406 132.675 426.479C131.985 426.484 131.299 426.578 130.633 426.758C128.849 427.36 127.291 428.493 126.169 430.006C125.421 430.921 124.629 431.992 123.859 433.153C123.018 434.345 122.623 435.794 122.743 437.248C123.1 440.306 125.946 443.141 129.439 443.833C131.141 444.193 132.913 444.01 134.506 443.308C135.985 442.637 137.251 441.571 138.166 440.228C139.012 439.026 139.538 437.628 139.695 436.166C139.816 434.89 139.644 433.604 139.193 432.405C138.528 430.654 137.364 429.137 135.845 428.041C134.673 427.282 133.948 427.059 133.97 427.003Z" fill="#FAFAFA"/>
<path d="M139.293 406.012C139.293 406.012 139.438 406.012 139.706 406.012C140.088 406.04 140.464 406.123 140.822 406.257C142.195 406.755 143.331 407.751 144.003 409.047C144.475 410.025 144.689 411.108 144.625 412.192C144.561 413.276 144.22 414.326 143.634 415.241C142.908 416.354 141.896 417.251 140.705 417.84C139.513 418.429 138.186 418.687 136.86 418.589C135.476 418.545 134.137 418.082 133.021 417.261C132.501 416.858 132.069 416.353 131.75 415.777C131.432 415.202 131.234 414.567 131.169 413.913C131.049 412.773 131.132 411.62 131.414 410.509C131.633 409.536 132.039 408.615 132.608 407.797C133.009 407.191 133.539 406.681 134.16 406.304C134.782 405.928 135.479 405.694 136.202 405.621C136.595 405.584 136.991 405.614 137.374 405.71C137.63 405.788 137.753 405.844 137.742 405.866C137.242 405.8 136.735 405.8 136.235 405.866C135.564 405.977 134.924 406.228 134.357 406.603C133.79 406.978 133.308 407.469 132.943 408.043C131.889 409.791 131.453 411.842 131.704 413.868C131.766 414.444 131.945 415 132.231 415.504C132.517 416.007 132.904 416.445 133.367 416.792C134.396 417.536 135.624 417.956 136.894 417.997C138.119 418.088 139.346 417.851 140.45 417.312C141.554 416.773 142.495 415.95 143.177 414.928C143.729 414.09 144.061 413.125 144.141 412.125C144.221 411.124 144.047 410.119 143.634 409.203C143.033 407.965 142.007 406.983 140.744 406.436C140.271 406.26 139.786 406.119 139.293 406.012Z" fill="#FAFAFA"/>
<path d="M152.06 397.284C151.184 397.561 150.268 397.693 149.348 397.675C147.088 397.792 144.849 397.198 142.943 395.979C141.894 395.281 141.044 394.324 140.476 393.2C140.023 392.278 139.804 391.258 139.84 390.231C139.867 389.544 140.03 388.869 140.32 388.245C140.543 387.81 140.722 387.62 140.755 387.631C140.45 388.465 140.281 389.343 140.253 390.231C140.279 391.18 140.519 392.111 140.956 392.954C141.511 393.979 142.308 394.853 143.277 395.499C145.093 396.651 147.198 397.262 149.348 397.262C151.011 397.307 152.049 397.184 152.06 397.284Z" fill="#FAFAFA"/>
<path d="M162.104 401.603C162.563 401.529 163.03 401.529 163.488 401.603C164.773 401.655 166.023 402.04 167.115 402.719C167.875 403.23 168.468 403.951 168.823 404.795C169.216 405.768 169.313 406.836 169.102 407.864C168.818 409.026 168.222 410.088 167.378 410.936C166.534 411.784 165.475 412.385 164.314 412.674C163.124 413.01 161.865 413.01 160.676 412.674C159.576 412.323 158.597 411.67 157.852 410.788C157.207 410.057 156.764 409.169 156.568 408.214C156.372 407.258 156.43 406.268 156.736 405.342C157.157 404.109 158.009 403.071 159.136 402.418C159.437 402.247 159.76 402.115 160.095 402.027C160.33 401.972 160.453 401.96 160.464 402.027C160.475 402.094 159.984 402.184 159.258 402.664C158.24 403.344 157.484 404.352 157.116 405.52C156.862 406.373 156.831 407.276 157.026 408.144C157.222 409.012 157.637 409.814 158.232 410.475C158.918 411.274 159.815 411.862 160.821 412.172C161.915 412.483 163.075 412.483 164.169 412.172C165.228 411.912 166.198 411.37 166.974 410.604C167.75 409.838 168.304 408.875 168.577 407.819C168.778 406.893 168.708 405.928 168.376 405.041C168.07 404.272 167.552 403.606 166.881 403.121C165.857 402.442 164.687 402.013 163.466 401.871C163.006 401.814 162.551 401.725 162.104 401.603V401.603Z" fill="#FAFAFA"/>
<path d="M163.176 437.148C163.537 437.026 163.912 436.947 164.292 436.914C165.312 436.78 166.318 436.548 167.294 436.222C168.715 435.765 169.911 434.789 170.642 433.487C170.984 432.658 171.114 431.755 171.018 430.862C170.923 429.969 170.605 429.115 170.095 428.376C169.609 427.611 168.965 426.959 168.207 426.462C167.449 425.966 166.593 425.637 165.698 425.497C164.963 425.412 164.218 425.473 163.508 425.678C162.797 425.883 162.134 426.227 161.557 426.691C160.759 427.318 160.136 428.141 159.75 429.079C159.493 429.749 159.448 430.195 159.392 430.195C159.354 429.817 159.403 429.435 159.537 429.079C159.85 428.048 160.459 427.132 161.29 426.445C161.897 425.916 162.607 425.518 163.375 425.276C164.143 425.034 164.953 424.954 165.754 425.039C166.732 425.17 167.669 425.514 168.5 426.046C169.331 426.578 170.036 427.286 170.564 428.119C171.13 428.94 171.478 429.891 171.574 430.883C171.67 431.875 171.51 432.876 171.11 433.789C170.307 435.205 168.974 436.244 167.405 436.679C166.396 436.982 165.355 437.162 164.303 437.215C163.926 437.241 163.547 437.219 163.176 437.148Z" fill="#FAFAFA"/>
<path d="M188.241 425.542C187.897 425.639 187.537 425.673 187.181 425.642C186.208 425.628 185.242 425.474 184.313 425.184C182.919 424.748 181.628 424.035 180.518 423.086C179.162 421.911 178.115 420.42 177.472 418.745C176.801 417.071 176.596 415.247 176.88 413.466C177.105 411.998 177.803 410.642 178.867 409.605C179.575 408.914 180.459 408.428 181.422 408.199C181.784 408.089 182.166 408.066 182.538 408.132C182.21 408.246 181.874 408.339 181.534 408.411C180.649 408.712 179.849 409.221 179.201 409.895C178.251 410.902 177.642 412.183 177.46 413.556C177.221 415.239 177.429 416.956 178.063 418.533C178.675 420.123 179.654 421.545 180.92 422.685C181.963 423.606 183.171 424.321 184.48 424.794C185.702 425.181 186.964 425.432 188.241 425.542V425.542Z" fill="#FAFAFA"/>
<path d="M50.6047 400.967C50.8305 401.275 51.0109 401.613 51.1404 401.972C51.5571 402.922 51.875 403.913 52.089 404.929C52.4201 406.445 52.5254 408.002 52.4015 409.549C52.2579 411.458 51.7101 413.314 50.7945 414.995C49.8439 416.67 48.4993 418.087 46.8773 419.125C45.5691 419.981 44.0927 420.548 42.5472 420.787C41.514 420.974 40.4557 420.974 39.4224 420.787C39.034 420.734 38.6569 420.617 38.3064 420.441C39.6782 420.656 41.075 420.656 42.4468 420.441C44.0774 420.107 45.6177 419.428 46.9649 418.45C48.3121 417.473 49.4351 416.219 50.2588 414.772C51.8102 411.787 52.3058 408.365 51.665 405.063C51.252 402.474 50.4931 401.012 50.6047 400.967Z" fill="#FAFAFA"/>
<path d="M61.4969 425.307C61.4969 425.307 61.787 425.173 62.3339 425.017C63.0926 424.824 63.8211 424.527 64.4989 424.135C64.9807 423.87 65.379 423.476 65.6491 422.997C65.9192 422.518 66.0503 421.973 66.0278 421.423C65.9045 420.761 65.5958 420.147 65.1374 419.653C64.6791 419.16 64.0901 418.806 63.4387 418.633C62.0675 418.365 60.6459 418.561 59.3988 419.191C58.3327 419.633 57.3765 420.304 56.5976 421.156C56.1126 421.749 55.8624 422.499 55.8946 423.265C55.8946 423.812 56.1066 424.08 56.0619 424.102C56.0173 424.124 55.7941 423.879 55.6713 423.298C55.6067 422.88 55.6267 422.453 55.7302 422.043C55.8338 421.633 56.0187 421.248 56.274 420.91C57.0452 419.941 58.0412 419.175 59.1756 418.678C60.5411 417.944 62.1232 417.718 63.6396 418.042C64.4035 418.238 65.0926 418.654 65.6207 419.24C66.1487 419.826 66.4922 420.554 66.6082 421.334C66.6684 422.033 66.4743 422.731 66.0613 423.298C65.718 423.762 65.2758 424.143 64.7667 424.414C64.0386 424.799 63.2496 425.056 62.4343 425.173C62.1312 425.269 61.8145 425.314 61.4969 425.307V425.307Z" fill="#FAFAFA"/>
<g opacity="0.3">
<path opacity="0.3" d="M153.388 445.239C152.326 444.521 151.065 444.158 149.784 444.201C139.606 443.598 129.405 444.993 119.205 445.217C109.005 445.44 98.4253 444.402 89.5531 439.346C86.7631 437.762 84.0736 435.998 81.2055 434.592C76.1946 432.081 69.108 433.175 64.9453 436.367L64.2311 448.855C92.6556 449.078 123.256 448.732 151.681 448.944C152.354 449.009 153.031 448.869 153.623 448.542C154.649 447.795 154.359 446.054 153.388 445.239Z" fill="black"/>
</g>
<path d="M71.9873 417.026C71.8869 417.026 72.2105 415.576 72.5118 413.243C73.3191 407.157 72.9401 400.972 71.3958 395.03C70.8155 392.798 70.2798 391.37 70.4138 391.336C70.6154 391.618 70.7699 391.931 70.8713 392.262C71.128 392.876 71.4516 393.78 71.7976 394.918C72.683 397.89 73.226 400.953 73.4158 404.047C73.61 407.144 73.4415 410.253 72.9136 413.31C72.7127 414.426 72.5007 415.408 72.3221 416.056C72.2564 416.393 72.1437 416.72 71.9873 417.026V417.026Z" fill="#263238"/>
<path d="M68.3603 459.646L31.5323 495.783H116.65C116.65 495.783 121.114 488.573 129.372 489.176C137.63 489.778 174.67 500.046 185.83 498.215L176.065 458.14C176.065 458.14 146.581 449.591 129.796 452.839C125.162 453.75 120.894 455.996 117.52 459.301L68.3603 459.646Z" fill="#FAFAFA"/>
<path d="M68.3603 459.646H68.8737H70.4137L76.4067 459.568L99.0615 459.334L115.121 459.189H117.353H117.598C117.33 459.301 117.598 459.189 117.487 459.189L117.699 458.999L118.1 458.609L118.96 457.861C120.154 456.867 121.439 455.989 122.799 455.238C125.661 453.643 128.822 452.655 132.084 452.337C135.516 451.926 138.979 451.826 142.429 452.035C146.065 452.226 149.689 452.598 153.288 453.151C161.011 454.283 168.656 455.897 176.177 457.984H176.322V458.14C179.369 470.583 182.672 484.109 186.109 498.193L186.188 498.517H185.875C184.702 498.662 183.52 498.729 182.337 498.718H180.563L178.788 498.584C177.606 498.506 176.411 498.372 175.228 498.215C174.045 498.059 172.84 497.925 171.646 497.736C166.87 497.01 162.048 496.106 157.205 495.102C149.851 493.606 142.63 491.932 135.521 490.515C131.983 489.89 128.39 488.941 125.008 489.957C121.691 490.973 118.826 493.101 116.895 495.983L116.795 496.117H116.65L31.4877 496.039H30.9855L31.3426 495.693L58.4391 469.278L65.7823 462.146L67.7019 460.316C68.1259 459.903 68.3603 459.702 68.3603 459.702L67.7242 460.372L65.827 462.258L58.5395 469.478L31.6216 495.928L31.4877 495.582L116.65 495.504L116.415 495.637C118.436 492.633 121.438 490.424 124.908 489.388C126.67 488.905 128.512 488.787 130.321 489.042C132.129 489.243 133.903 489.6 135.689 489.935C142.82 491.352 150.029 493.026 157.384 494.521C162.216 495.515 167.037 496.43 171.791 497.144C172.974 497.345 174.168 497.501 175.351 497.635C176.534 497.769 177.717 497.925 178.889 497.992L180.652 498.137H182.393C183.545 498.157 184.698 498.097 185.842 497.959L185.607 498.305C182.181 484.221 178.911 470.695 175.865 458.24L176.043 458.43C168.551 456.341 160.936 454.72 153.243 453.575C149.56 453.04 145.956 452.638 142.429 452.459C139.005 452.248 135.569 452.341 132.162 452.738C128.954 453.041 125.842 454.002 123.022 455.562C121.687 456.298 120.424 457.157 119.25 458.129C118.949 458.363 118.681 458.62 118.402 458.865L117.989 459.245L117.788 459.434C117.721 459.434 117.911 459.434 117.632 459.513H115.188L99.1619 459.591L76.5183 459.669H68.8848L68.3603 459.646Z" fill="#263238"/>
<path d="M116.65 495.783C116.493 495.783 116.65 487.569 116.906 477.458C117.163 467.347 117.587 459.133 117.754 459.144C117.922 459.155 117.754 467.347 117.487 477.469C117.219 487.591 116.806 495.783 116.65 495.783Z" fill="#263238"/>
<path d="M107.655 488.038C107.462 488.061 107.267 488.061 107.074 488.038L105.4 488.093L99.24 488.272L78.9958 488.328L58.7515 488.238L52.6135 488.16H50.9507C50.7576 488.175 50.5635 488.175 50.3704 488.16C51.1074 488.035 51.855 487.982 52.6024 488.004C54.0532 488.004 56.1513 487.926 58.7404 487.892C63.9186 487.826 71.0833 487.803 78.9846 487.803C86.8859 487.803 94.0506 487.803 99.24 487.926L105.367 488.026L107.041 488.093C107.241 488.04 107.448 488.022 107.655 488.038V488.038Z" fill="#263238"/>
<path d="M108.659 482.971C108.48 483.013 108.296 483.032 108.112 483.027H106.527H100.724L81.5737 482.826L62.412 482.502L56.6088 482.346L55.0352 482.29C54.8532 482.303 54.6705 482.303 54.4884 482.29C55.189 482.175 55.8997 482.134 56.6088 482.167C57.9815 482.167 59.9568 482.167 62.412 482.167C67.3224 482.167 74.0854 482.234 81.5737 482.346C89.0621 482.457 95.8139 482.591 100.713 482.725L106.516 482.904L108.101 482.982C108.285 482.949 108.474 482.945 108.659 482.971Z" fill="#263238"/>
<path d="M178.398 488.651C178.202 488.677 178.003 488.677 177.806 488.651H176.11C174.637 488.651 172.505 488.551 169.883 488.339C163.042 487.765 156.273 486.528 149.672 484.645C145.8 483.529 142.217 482.201 138.903 481.219C135.991 480.284 132.964 479.755 129.908 479.645C127.839 479.593 125.775 479.868 123.792 480.46C122.397 480.906 121.672 481.286 121.649 481.241C121.627 481.196 121.817 481.107 122.163 480.929C122.667 480.666 123.189 480.439 123.725 480.248C125.707 479.567 127.79 479.232 129.885 479.255C132.986 479.311 136.064 479.807 139.025 480.728C142.373 481.687 145.967 483.038 149.817 484.076C156.387 485.947 163.109 487.236 169.905 487.926C172.505 488.183 174.626 488.317 176.099 488.406L177.784 488.506C177.995 488.525 178.201 488.574 178.398 488.651V488.651Z" fill="#263238"/>
<path d="M178.476 481.676C178.28 481.71 178.08 481.71 177.885 481.676C177.505 481.676 176.936 481.676 176.199 481.676C174.726 481.676 172.595 481.587 169.972 481.375C163.131 480.803 156.362 479.565 149.761 477.681C145.889 476.565 142.306 475.237 138.992 474.255C136.075 473.322 133.046 472.788 129.986 472.67C127.929 472.615 125.876 472.887 123.904 473.474C122.509 473.909 121.783 474.3 121.761 474.244C121.916 474.124 122.085 474.023 122.263 473.942C122.768 473.68 123.29 473.452 123.825 473.262C125.81 472.577 127.898 472.241 129.997 472.268C133.081 472.328 136.141 472.831 139.081 473.764C142.429 474.724 146.012 476.074 149.862 477.112C156.433 478.974 163.155 480.259 169.95 480.951C172.561 481.219 174.682 481.353 176.144 481.442L177.84 481.542C178.057 481.561 178.27 481.606 178.476 481.676V481.676Z" fill="#263238"/>
<path d="M178.476 474.712C178.28 474.739 178.081 474.739 177.885 474.712C177.494 474.712 176.925 474.712 176.188 474.712C174.715 474.712 172.595 474.623 169.972 474.4C163.131 473.833 156.362 472.6 149.761 470.717C145.878 469.601 142.295 468.262 138.981 467.291C136.071 466.347 133.043 465.814 129.986 465.706C127.925 465.646 125.867 465.917 123.892 466.51C122.497 466.945 121.783 467.325 121.761 467.28C121.739 467.235 121.917 467.157 122.263 466.967C122.77 466.709 123.292 466.482 123.825 466.287C125.809 465.612 127.891 465.276 129.986 465.293C133.091 465.349 136.173 465.849 139.137 466.778C142.485 467.737 146.067 469.077 149.918 470.126C156.489 471.988 163.211 473.273 170.006 473.965C172.617 474.233 174.737 474.355 176.199 474.456L177.885 474.556C178.088 474.578 178.288 474.631 178.476 474.712V474.712Z" fill="#263238"/>
<path d="M164.872 463.073C164.872 463.073 164.727 463.14 164.448 463.195C164.039 463.289 163.626 463.36 163.209 463.407C161.685 463.602 160.147 463.669 158.611 463.608C154.694 463.541 149.404 462.492 143.657 461.131C140.957 460.519 138.226 460.049 135.477 459.725C133.235 459.471 130.974 459.429 128.725 459.602C126.658 459.823 124.616 460.227 122.62 460.807C122.62 460.807 122.743 460.718 123.011 460.606C123.279 460.495 123.658 460.316 124.127 460.16C125.578 459.684 127.074 459.359 128.591 459.189C130.865 458.954 133.158 458.954 135.432 459.189C138.206 459.478 140.96 459.933 143.679 460.55C149.449 461.856 154.672 463.017 158.522 463.184C160.042 463.282 161.566 463.282 163.086 463.184C163.679 463.109 164.275 463.072 164.872 463.073Z" fill="#263238"/>
<path d="M221.542 443.922C218.406 440.63 194.881 421.156 194.881 421.156L176.813 442.605L187.906 448.565C187.013 448.844 171.356 455.607 166.702 457.66C164.158 455.841 158.634 452.08 156.591 451.801C153.891 451.477 146.257 451.801 146.257 451.801C146.257 451.801 142.608 456.086 143.4 456.566C143.4 456.566 138.635 460.059 139.271 462.28L139.907 464.512C139.6 464.442 139.28 464.446 138.974 464.526C138.669 464.605 138.387 464.757 138.153 464.968C137.919 465.179 137.739 465.444 137.628 465.74C137.518 466.035 137.48 466.353 137.519 466.666C137.519 469.278 137.206 470.382 138.635 471.13C138.541 471.982 138.651 472.844 138.956 473.646C139.26 474.447 139.751 475.165 140.387 475.739C141.716 477.071 143.149 478.295 144.672 479.4C144.434 479.682 144.268 480.017 144.186 480.378C144.104 480.738 144.11 481.112 144.203 481.47C144.296 481.827 144.473 482.157 144.72 482.432C144.967 482.707 145.276 482.918 145.621 483.049C148.315 484.329 151.227 485.086 154.203 485.281C155.498 485.281 166.144 481.71 170.073 480.382C170.073 480.382 220.002 466.51 223.216 461.533C225.973 457.258 225.973 448.565 221.542 443.922Z" fill="#FFBE9D"/>
<path d="M212.648 442.348C210.284 441.844 207.857 441.697 205.45 441.913C202.853 442.232 200.31 442.889 197.883 443.866C194.898 445.072 191.985 446.447 189.156 447.984C184.004 450.799 178.707 453.339 173.287 455.595C171.177 456.421 169.448 457.002 168.242 457.348C167.64 457.537 167.126 457.649 166.836 457.727C166.675 457.785 166.505 457.815 166.334 457.816C166.927 457.546 167.539 457.319 168.164 457.135C169.358 456.723 171.055 456.019 173.13 455.205C177.282 453.497 182.817 450.674 188.888 447.471C191.737 445.923 194.677 444.552 197.694 443.364C200.17 442.393 202.769 441.766 205.416 441.5C207.203 441.333 209.005 441.434 210.762 441.802C211.239 441.89 211.709 442.013 212.168 442.17C212.338 442.199 212.501 442.259 212.648 442.348V442.348Z" fill="#EB996E"/>
<path d="M154.951 456.12C154.951 456.198 154.315 455.852 153.277 455.551C151.924 455.188 150.516 455.086 149.125 455.249C147.717 455.432 146.326 455.723 144.963 456.12C144.401 456.333 143.81 456.461 143.21 456.499C143.703 456.148 144.255 455.887 144.84 455.729C146.197 455.206 147.614 454.854 149.058 454.68C150.527 454.5 152.017 454.665 153.411 455.16C154.471 455.573 155.04 456.064 154.951 456.12Z" fill="#EB996E"/>
<path d="M148.701 464.668C145.898 465.534 142.885 465.439 140.141 464.401C140.141 464.244 142.072 464.613 144.416 464.668C146.759 464.724 148.668 464.49 148.701 464.668Z" fill="#EB996E"/>
<path d="M149.784 471.911C147.938 472.674 145.935 472.98 143.945 472.803C141.956 472.627 140.038 471.972 138.356 470.896C140.193 471.514 142.083 471.958 144.003 472.224C145.935 472.295 147.87 472.19 149.784 471.911Z" fill="#EB996E"/>
<path d="M153.924 478.127C152.613 479.058 151.065 479.599 149.46 479.69C147.877 479.971 146.247 479.809 144.75 479.221C144.75 479.043 146.86 479.433 149.382 479.11C151.904 478.786 153.835 477.971 153.924 478.127Z" fill="#EB996E"/>
<path d="M65.9162 437.081L94.5528 476.721L103.224 480.214L101.784 470.416L73.8845 431.066C73.4031 430.37 72.7536 429.808 71.9965 429.432C71.2394 429.055 70.3993 428.876 69.5544 428.912H69.4316C68.5276 429 67.6639 429.33 66.9305 429.865C66.197 430.401 65.6208 431.124 65.2617 431.958C64.9027 432.793 64.774 433.708 64.8891 434.609C65.0043 435.51 65.3589 436.364 65.9162 437.081V437.081Z" fill="#455A64"/>
<path d="M66.0167 437.282C65.9497 437.282 66.1395 436.668 66.6751 435.842C67.4038 434.772 68.3414 433.861 69.4317 433.164C70.5272 432.476 71.7488 432.013 73.0252 431.802C73.5452 431.67 74.0899 431.67 74.6099 431.802C72.9063 432.174 71.2667 432.794 69.7441 433.644C68.3235 434.659 67.0665 435.886 66.0167 437.282Z" fill="#263238"/>
<path d="M94.5528 476.721C94.5528 476.721 94.3966 476.621 94.2515 476.353C94.0393 475.967 93.9352 475.532 93.9502 475.092C93.9577 474.93 93.9956 474.771 94.0618 474.623L94.2403 474.221C94.3729 473.914 94.5258 473.616 94.6979 473.329C95.1563 472.696 95.7323 472.158 96.3942 471.744C97.0216 471.332 97.6739 470.959 98.3472 470.628C98.9218 470.353 99.5423 470.186 100.177 470.137C101.293 470.07 101.885 470.461 101.851 470.516C101.309 470.48 100.765 470.48 100.222 470.516C99.6523 470.613 99.102 470.801 98.5927 471.074C98.0124 471.398 97.354 471.777 96.7178 472.19C96.1204 472.57 95.5889 473.045 95.1443 473.596C94.9657 473.864 94.8206 474.143 94.6756 474.4L94.4635 474.791C94.41 474.888 94.3723 474.994 94.3519 475.103C94.3611 475.648 94.4284 476.191 94.5528 476.721V476.721Z" fill="#263238"/>
<path d="M96.0594 472.648C95.9255 472.748 89.7093 464.211 82.1652 453.609C74.621 443.007 68.6058 434.313 68.7732 434.213C68.9406 434.112 75.1232 442.65 82.6674 453.263C90.2116 463.876 96.1933 472.559 96.0594 472.648Z" fill="#263238"/>
<path d="M99.4632 469.724C99.3293 469.813 93.2025 461.499 85.7699 451.165C78.3373 440.831 72.3779 432.36 72.5453 432.271C72.7127 432.182 78.8061 440.485 86.2386 450.819C93.6712 461.153 99.586 469.624 99.4632 469.724Z" fill="#263238"/>
<path d="M102.588 475.862C102.167 475.738 101.723 475.716 101.293 475.798C100.862 475.879 100.457 476.062 100.11 476.331C99.7874 476.612 99.5359 476.966 99.3768 477.364C99.2177 477.762 99.1555 478.192 99.1954 478.618L103.224 480.214L102.588 475.862Z" fill="#263238"/>
<path d="M94.5974 461.945C97.2312 460.35 94.5974 454.613 94.5974 454.613C94.5974 454.613 81.8416 447.114 79.9778 446.723C78.9288 446.5 71.8422 447.225 65.8046 447.906L45.1586 439.279L52.9706 434.257L30.5167 413.366C30.5167 413.366 10.4287 428.097 4.40233 434.112C-0.128627 438.655 0.686051 447.583 0.686051 447.583C3.73273 455.629 50.906 466.555 54.254 467.302L71.7306 477.625C71.7306 477.625 79.1966 478.607 82.3103 478.998C85.4239 479.389 85.8815 475.025 85.8815 475.025C86.5775 475.129 87.288 475.077 87.9612 474.871C88.6344 474.666 89.2534 474.313 89.773 473.839C90.2926 473.364 90.6997 472.779 90.9648 472.127C91.2299 471.475 91.3462 470.773 91.3052 470.07C91.774 470.341 92.2949 470.51 92.8337 470.566C93.3725 470.622 93.9169 470.563 94.4313 470.393C94.9457 470.223 95.4183 469.947 95.8182 469.581C96.218 469.216 96.536 468.77 96.7513 468.273C98.6374 464.512 94.5974 461.945 94.5974 461.945Z" fill="#FFBE9D"/>
<path d="M45.0471 439.536C44.9689 439.625 43.8083 438.42 41.6321 436.947C40.3618 436.069 39.0219 435.296 37.6256 434.637C35.9147 433.848 34.137 433.213 32.3135 432.74C30.4826 432.293 28.615 432.012 26.7335 431.903C25.1923 431.823 23.6472 431.868 22.1132 432.037C19.4906 432.327 17.9171 432.818 17.8836 432.717C18.2315 432.522 18.6082 432.382 18.9996 432.304C19.4314 432.163 19.8711 432.048 20.3165 431.959C20.841 431.858 21.4325 431.702 22.0909 431.624C23.6164 431.399 25.1588 431.309 26.7 431.356C28.6228 431.435 30.533 431.704 32.4028 432.159C34.2831 432.644 36.111 433.313 37.86 434.157C39.2716 434.851 40.6165 435.672 41.8776 436.612C42.4244 436.98 42.8708 437.405 43.2838 437.728C43.6343 438.015 43.9661 438.325 44.277 438.654C44.5673 438.917 44.8258 439.213 45.0471 439.536V439.536Z" fill="#EB996E"/>
<path d="M91.8186 470.103C90.6675 469.188 89.4598 468.345 88.2028 467.581C86.8519 466.989 85.4653 466.482 84.0512 466.063C85.5925 465.998 87.1243 466.336 88.4946 467.044C89.8649 467.753 91.0262 468.808 91.8633 470.103H91.8186Z" fill="#EB996E"/>
<path d="M96.0817 463.396C94.3437 462.337 92.5437 461.383 90.6914 460.539C88.7623 459.892 86.7989 459.352 84.8101 458.921C86.893 458.865 88.9657 459.232 90.9029 459.999C92.8402 460.766 94.6019 461.918 96.0817 463.385V463.396Z" fill="#EB996E"/>
<path d="M86.0154 474.534C85.9038 474.668 84.5423 473.53 82.6674 472.536C80.7925 471.543 79.0516 471.041 79.0851 470.873C81.7987 471.137 84.3018 472.45 86.0601 474.534H86.0154Z" fill="#EB996E"/>
<path d="M179.592 353.013C179.826 348.705 183.532 344.944 182.996 340.67C182.46 336.395 178.03 333.862 175.641 330.28C172.751 325.927 173.019 320.303 172.159 315.158C171.03 308.839 168.069 302.991 163.644 298.34C164.349 297.676 165.094 297.057 165.876 296.487C168.209 294.746 170.764 292.983 171.814 290.271C172.259 288.967 172.38 287.574 172.166 286.213C171.952 284.852 171.41 283.564 170.586 282.459C169.244 280.564 167.298 279.182 165.067 278.539C162.837 277.897 160.453 278.031 158.309 278.922C156.165 279.812 154.388 281.405 153.268 283.439C152.149 285.473 151.754 287.827 152.15 290.115C150.001 289.17 147.756 288.463 145.454 288.006C143.769 286.537 141.945 285.236 140.008 284.122C137.187 282.686 133.98 282.195 130.859 282.721C127.738 283.248 124.869 284.764 122.676 287.046C121.482 292.023 120.165 296.989 118.937 301.978L75.4804 330.313C71.1726 328.717 66.2511 331.173 63.3606 334.777C60.4702 338.382 59.064 342.857 57.2784 347.053C55.4928 351.249 52.9818 355.579 48.9084 357.7C46.6764 358.872 43.6744 359.698 43.0941 362.164C42.9758 363.009 43.1022 363.87 43.4582 364.645C43.8143 365.421 44.385 366.078 45.1029 366.539C46.5618 367.424 48.1813 368.012 49.8682 368.268L66.9988 372.04C69.2511 369.956 71.8795 368.32 74.7438 367.219C73.4939 369.005 74.3421 371.683 76.0049 373.056C77.7901 374.333 79.8649 375.146 82.0425 375.422L119.674 383.424C127.307 385.042 135.666 386.571 142.574 382.944C145.532 381.393 147.987 378.971 151.022 377.598C154.761 375.913 159.013 375.935 163.098 376.092C167.182 376.248 171.389 376.504 175.273 375.221C179.157 373.938 182.706 370.679 182.996 366.594C183.319 361.907 179.38 357.7 179.592 353.013Z" fill="#263238"/>
<path d="M162.852 298.552C161.404 296.801 159.802 295.183 158.064 293.72C156.207 292.419 154.23 291.298 152.161 290.372C154.466 290.779 156.625 291.783 158.421 293.284C160.326 294.631 161.852 296.445 162.852 298.552V298.552Z" fill="#5AD4FA"/>
<path d="M164.214 278.944C164.214 278.944 164.481 278.944 164.838 279.267C165.35 279.682 165.737 280.231 165.954 280.852C166.272 281.769 166.353 282.752 166.189 283.709C166.011 284.852 165.715 285.974 165.307 287.057C164.574 289.02 163.522 290.849 162.194 292.47C161.693 293.178 161.065 293.788 160.341 294.266C162.185 292.029 163.69 289.532 164.805 286.856C165.62 284.624 166.111 282.448 165.609 280.997C165.331 280.203 164.85 279.495 164.214 278.944V278.944Z" fill="#455A64"/>
<path d="M155.587 322.434C155.587 322.256 155.587 322.077 155.587 321.899C154.94 303.574 139.639 288.898 121.315 289.535C120.433 289.535 119.518 289.613 118.603 289.68C117.162 289.79 115.728 289.972 114.306 290.227C98.47 293.128 87.2877 307.469 87.522 323.573C87.6894 336.686 88.0354 354.151 88.7719 359.285C89.9995 367.9 89.821 370.98 89.821 370.98L90.3009 391.068C90.434 396.752 92.7504 402.166 96.7693 406.187C100.788 410.208 106.201 412.527 111.884 412.663V412.663C114.831 412.734 117.762 412.216 120.506 411.139C123.249 410.061 125.75 408.446 127.86 406.389C129.971 404.331 131.649 401.872 132.796 399.157C133.943 396.442 134.536 393.525 134.539 390.577V380.243C148.188 378.48 154.482 365.311 155.375 349.564C155.81 341.172 156.156 340.536 155.587 322.434Z" fill="#FFBE9D"/>
<path d="M88.3702 334.855C88.0019 334.699 73.7059 330.391 74.0631 345.033C74.4202 359.675 89.0286 356.271 89.0509 355.858C89.0733 355.446 88.3702 334.855 88.3702 334.855Z" fill="#FFBE9D"/>
<path d="M84.4418 350.424C84.3749 350.424 84.1963 350.613 83.7611 350.814C83.1642 351.089 82.4839 351.121 81.8639 350.903C80.3015 350.379 78.94 347.957 78.806 345.323C78.739 344.068 78.9525 342.814 79.431 341.652C79.5575 341.191 79.7944 340.769 80.1211 340.421C80.4478 340.073 80.8545 339.81 81.3059 339.654C81.596 339.572 81.9057 339.592 82.1823 339.712C82.459 339.832 82.6856 340.044 82.8236 340.313C83.0245 340.714 82.9464 341.016 83.0245 341.038C83.1026 341.06 83.3258 340.781 83.1919 340.179C83.1017 339.82 82.8933 339.501 82.6004 339.275C82.1874 338.988 81.6809 338.868 81.1831 338.94C80.5855 339.075 80.0321 339.36 79.5752 339.768C79.1183 340.176 78.7729 340.694 78.5717 341.272C77.9833 342.554 77.7152 343.96 77.7905 345.368C77.9579 348.314 79.5314 351.037 81.663 351.595C82.0585 351.701 82.4728 351.716 82.8748 351.638C83.2768 351.561 83.6561 351.394 83.9843 351.149C84.4307 350.781 84.4976 350.446 84.4418 350.424Z" fill="#EB996E"/>
<path d="M148.344 330.67C147.942 331.083 145.543 329.275 142.117 329.264C138.691 329.253 136.168 330.938 135.8 330.514C135.622 330.324 136.023 329.588 137.128 328.796C138.616 327.771 140.389 327.24 142.195 327.278C143.976 327.282 145.709 327.857 147.139 328.918C148.232 329.733 148.59 330.481 148.344 330.67Z" fill="#263238"/>
<path d="M117.308 331.753C116.906 332.166 114.507 330.358 111.081 330.347C107.655 330.336 105.132 332.021 104.764 331.597C104.586 331.418 104.987 330.67 106.092 329.878C107.585 328.863 109.354 328.334 111.159 328.36C112.939 328.37 114.67 328.944 116.103 330.001C117.152 330.815 117.509 331.574 117.308 331.753Z" fill="#263238"/>
<path d="M114.953 322.423C114.674 323.294 111.806 323.316 108.648 324.119C105.49 324.923 102.979 326.095 102.22 325.47C101.874 325.157 102.108 324.354 103.034 323.428C104.333 322.228 105.928 321.396 107.655 321.017C109.427 320.571 111.283 320.571 113.056 321.017C114.395 321.419 115.076 321.988 114.953 322.423Z" fill="#263238"/>
<path d="M147.552 320.437C146.793 321.441 143.501 322.099 140.197 321.887C136.894 321.675 134.818 320.693 135.577 319.655C136.336 318.618 139.628 317.993 142.931 318.205C146.235 318.417 148.344 319.421 147.552 320.437Z" fill="#263238"/>
<path d="M123.982 357.7C124.038 357.901 123.569 358.269 122.665 358.392C121.453 358.509 120.241 358.165 119.271 357.429C118.301 356.692 117.644 355.618 117.431 354.419C117.308 353.515 117.531 352.968 117.743 352.968C118.179 352.968 118.536 354.899 120.232 356.171C121.928 357.443 123.881 357.309 123.982 357.7Z" fill="#263238"/>
<path d="M134.483 380.243C134.483 380.243 116.962 380.522 112.822 377.498C112.822 377.498 115.924 385.99 134.483 385.087V380.243Z" fill="#EB996E"/>
<path d="M128.502 338.627C128.714 338.572 129.115 339.319 129.618 340.592C129.863 341.217 130.131 341.987 130.399 342.824C130.518 343.255 130.652 343.701 130.8 344.163C130.991 344.691 131.107 345.243 131.146 345.803C131.173 346.158 131.127 346.515 131.01 346.851C130.892 347.187 130.707 347.495 130.466 347.756C130.015 348.204 129.432 348.493 128.803 348.582C128.279 348.658 127.744 348.613 127.24 348.448C126.839 348.307 126.462 348.104 126.124 347.846C125.008 346.908 124.596 346.127 124.718 345.993C124.841 345.859 125.6 346.35 126.705 346.886C127.264 347.189 127.914 347.28 128.535 347.143C128.839 347.08 129.116 346.924 129.327 346.696C129.419 346.581 129.487 346.448 129.527 346.307C129.567 346.165 129.579 346.017 129.562 345.87C129.525 345.434 129.439 345.004 129.305 344.587C129.193 344.118 129.093 343.661 128.981 343.214C128.792 342.344 128.647 341.54 128.535 340.871C128.312 339.543 128.256 338.728 128.502 338.627Z" fill="#263238"/>
<path d="M105.356 346.997C105.222 346.997 105.166 346.629 105.244 346.227C105.322 345.826 105.501 345.547 105.646 345.569C105.791 345.591 105.847 345.937 105.757 346.339C105.668 346.741 105.501 347.02 105.356 346.997Z" fill="#EB996E"/>
<path d="M111.516 345.714C111.382 345.714 111.204 345.614 111.125 345.379C111.047 345.145 111.125 344.911 111.237 344.866C111.349 344.821 111.549 344.966 111.628 345.201C111.706 345.435 111.616 345.669 111.516 345.714Z" fill="#EB996E"/>
<path d="M108.38 349.408C108.235 349.408 108.079 349.118 108.045 348.727C108.012 348.337 108.045 348.002 108.235 347.991C108.425 347.979 108.525 348.281 108.57 348.671C108.614 349.062 108.525 349.397 108.38 349.408Z" fill="#EB996E"/>
<path d="M100.657 348.705C100.523 348.705 100.501 348.303 100.657 347.913C100.814 347.522 100.981 347.232 101.126 347.276C101.271 347.321 101.282 347.678 101.126 348.069C100.97 348.459 100.802 348.772 100.657 348.705Z" fill="#EB996E"/>
<path d="M141.358 345.569C141.213 345.569 141.068 345.312 141.034 344.966C141.001 344.62 141.034 344.308 141.224 344.297C141.414 344.286 141.514 344.553 141.559 344.899C141.603 345.245 141.503 345.558 141.358 345.569Z" fill="#EB996E"/>
<path d="M147.083 345.424C146.938 345.424 146.815 345.111 146.815 344.721C146.815 344.33 146.938 344.007 147.083 344.007C147.228 344.007 147.351 344.319 147.351 344.721C147.351 345.123 147.228 345.424 147.083 345.424Z" fill="#EB996E"/>
<path d="M151.815 345.134C151.67 345.134 151.491 344.866 151.413 344.475C151.335 344.085 151.413 343.739 151.536 343.716C151.659 343.694 151.848 343.984 151.938 344.375C152.027 344.765 151.96 345.111 151.815 345.134Z" fill="#EB996E"/>
<path d="M144.382 350.267C144.237 350.267 144.215 349.877 144.382 349.486C144.55 349.096 144.706 348.805 144.851 348.85C144.996 348.895 145.007 349.241 144.851 349.631C144.695 350.022 144.516 350.312 144.382 350.267Z" fill="#EB996E"/>
<path d="M149.761 349.564C149.616 349.564 149.471 349.341 149.427 349.029C149.382 348.716 149.427 348.437 149.616 348.426C149.806 348.415 149.918 348.649 149.951 348.962C149.985 349.274 149.906 349.542 149.761 349.564Z" fill="#EB996E"/>
<path d="M167.606 370.266C168.909 369.772 170.095 369.012 171.088 368.034C172.231 366.858 173.106 365.45 173.655 363.905C174.413 361.872 174.691 359.691 174.47 357.532C174.161 354.919 173.433 352.371 172.316 349.988C171.2 347.377 169.648 344.732 168.153 341.864C166.499 338.897 165.299 335.7 164.593 332.378C164.276 330.595 164.227 328.774 164.448 326.976C164.671 325.157 165.073 323.349 165.452 321.541C165.866 319.772 166.112 317.967 166.189 316.151C166.253 314.408 165.925 312.673 165.229 311.073C163.741 308.089 161.444 305.583 158.6 303.842C155.944 302.078 153.187 300.717 150.721 299.255C148.255 297.793 145.978 296.409 143.936 295.081C139.851 292.414 136.671 290.081 134.517 288.385C133.401 287.559 132.62 286.89 132.062 286.432L131.448 285.908C131.303 285.785 131.236 285.718 131.247 285.718C131.258 285.718 131.336 285.718 131.481 285.863L132.14 286.343L134.662 288.207C136.894 289.814 140.063 292.101 144.159 294.713C146.201 296.019 148.478 297.402 150.967 298.82C153.455 300.237 156.189 301.599 158.901 303.384C161.842 305.169 164.218 307.75 165.754 310.828C166.482 312.505 166.829 314.323 166.769 316.151C166.693 318.005 166.442 319.847 166.021 321.653C165.642 323.472 165.24 325.258 165.028 327.032C164.806 328.773 164.847 330.538 165.151 332.266C165.839 335.536 167.013 338.685 168.633 341.607C170.095 344.464 171.624 347.131 172.751 349.776C173.875 352.214 174.595 354.819 174.882 357.488C175.082 359.705 174.769 361.939 173.967 364.016C173.373 365.586 172.448 367.009 171.255 368.19C170.492 368.923 169.609 369.52 168.644 369.954C168.393 370.059 168.136 370.148 167.874 370.221L167.606 370.266Z" fill="#455A64"/>
<path d="M156.926 313.986C153.91 304.563 147.676 296.5 139.316 291.209L129.004 284.368C126.685 281.023 123.523 278.35 119.838 276.621C116.154 274.892 112.078 274.167 108.023 274.52C103.968 274.874 100.079 276.293 96.7489 278.634C93.4192 280.974 90.7673 284.154 89.0621 287.849C88.2809 289.546 87.6783 291.376 86.8859 293.072C87.5412 289.343 86.7725 285.504 84.732 282.314C82.0201 278.308 76.7191 276.009 72.0877 277.381C69.8368 278.146 67.8862 279.605 66.5166 281.548C65.147 283.491 64.4289 285.818 64.4655 288.195C64.5879 290.572 65.3603 292.869 66.6984 294.837C68.0366 296.805 69.8891 298.368 72.0543 299.355C72.9848 299.769 73.9578 300.08 74.9559 300.282C72.6041 300.515 70.3074 301.138 68.1594 302.123C66.1895 303.192 64.5849 304.826 63.5525 306.815C62.5201 308.804 62.1074 311.057 62.3674 313.283C62.691 315.694 63.7847 318.249 62.7245 320.437C61.8987 322.122 60.0461 322.97 58.5283 324.075C56.6257 325.514 55.1509 327.444 54.2622 329.658C53.3735 331.872 53.1045 334.286 53.484 336.641C51.0122 339.803 49.04 343.326 47.6362 347.087C44.0538 356.483 51.1069 356.919 53.3055 358.961L66.2399 345.569C67.9465 344.899 69.7536 344.522 71.5855 344.453C74.2776 344.369 76.9723 344.451 79.6542 344.698C82.7933 344.987 85.9585 344.722 89.0063 343.917C90.6689 343.42 92.2087 342.58 93.5261 341.451C94.8713 340.241 95.9636 338.777 96.7402 337.143C98.1966 333.72 99.1839 330.117 99.6753 326.43C100.389 322.758 101.327 319.131 103.336 316.285C104.316 314.895 105.602 313.749 107.097 312.937C108.562 312.199 110.131 311.687 111.75 311.419C114.931 310.828 118.078 310.694 120.957 309.946C123.684 309.327 126.117 307.795 127.854 305.605C129.188 303.764 130.116 301.66 130.577 299.434C130.941 297.777 131.172 296.094 131.269 294.4C131.269 293.809 131.336 293.284 131.347 292.804C137.283 302.014 145.338 309.668 154.839 315.124C155.553 315.537 156.681 315.828 157.071 315.124C157.17 314.74 157.118 314.333 156.926 313.986V313.986ZM130.901 294.367C130.747 296.033 130.471 297.685 130.075 299.311C129.594 301.458 128.662 303.478 127.341 305.237C125.667 307.301 123.334 308.727 120.734 309.277C117.944 309.98 114.819 310.091 111.561 310.66C109.86 310.935 108.211 311.47 106.673 312.245C105.071 313.102 103.689 314.316 102.633 315.794C100.49 318.818 99.5413 322.546 98.8159 326.251C98.3388 329.871 97.3779 333.411 95.959 336.775C95.2352 338.313 94.2151 339.694 92.9569 340.837C91.7228 341.906 90.2781 342.705 88.7162 343.181C85.7577 343.974 82.6843 344.25 79.6319 343.995C76.9254 343.783 74.2086 343.735 71.4963 343.85C69.9767 343.945 68.4761 344.238 67.0323 344.721L67.8693 344.051C72.6391 340.412 78.5518 338.595 84.5423 338.929C85.9105 338.966 87.2563 338.576 88.3925 337.813C92.8565 336.596 96.0259 330.793 97.8115 326.151C99.3405 322.178 99.0726 317.435 101.628 314.053C103.492 311.598 106.516 310.381 109.44 309.723C112.364 309.065 115.478 308.853 118.368 307.904C121.395 306.859 124.109 305.064 126.255 302.687C128.402 300.31 129.912 297.429 130.644 294.311C130.815 293.58 130.886 292.829 130.856 292.079C130.923 292.18 131.001 292.28 131.057 292.38C131.024 292.972 130.968 293.641 130.901 294.367Z" fill="#263238"/>
<path d="M53.2162 358.715C53.1437 358.638 53.0766 358.556 53.0153 358.47C52.8925 358.303 52.6916 358.057 52.4796 357.711C51.817 356.713 51.2703 355.642 50.8503 354.519C50.1884 352.729 49.8118 350.846 49.7343 348.939C49.6336 346.407 50.1066 343.886 51.1181 341.563C52.3499 338.745 54.2918 336.296 56.7539 334.454C59.3877 332.4 62.8584 331.351 66.4184 330.57C69.9785 329.789 73.8622 329.097 77.0986 326.842C78.7152 325.678 80.0343 324.149 80.9488 322.378C81.888 320.54 82.636 318.611 83.1808 316.62C84.4195 312.613 85.2789 308.44 87.6448 305.069C88.789 303.412 90.3216 302.059 92.1088 301.13C93.8289 300.304 95.6722 299.765 97.566 299.534C101.238 299.043 104.731 299.166 107.945 298.719C110.919 298.322 113.797 297.388 116.438 295.963C121.372 293.349 125.329 289.212 127.72 284.167C127.888 283.832 128.011 283.553 128.122 283.33C128.166 283.234 128.214 283.141 128.267 283.051C127.75 284.579 127.046 286.037 126.169 287.392C123.787 291.117 120.511 294.186 116.638 296.32C113.959 297.788 111.037 298.759 108.012 299.188C104.753 299.657 101.238 299.556 97.6441 300.058C95.8066 300.283 94.0191 300.811 92.3543 301.621C90.6603 302.517 89.2061 303.807 88.1135 305.382C85.8815 308.618 84.9999 312.747 83.7611 316.776C83.1858 318.806 82.4082 320.772 81.4398 322.646C80.4774 324.49 79.0932 326.081 77.3999 327.289C74.0519 329.644 70.0455 330.269 66.5189 331.083C62.9923 331.898 59.5885 332.847 57.0106 334.822C54.5932 336.608 52.6724 338.982 51.4306 341.719C50.4279 343.983 49.94 346.441 50.0021 348.917C50.0493 350.789 50.392 352.642 51.0177 354.408C51.5928 355.919 52.3299 357.363 53.2162 358.715V358.715Z" fill="#455A64"/>
<path d="M138.11 336.574C138.044 337.337 138.277 338.095 138.761 338.689C139.244 339.282 139.939 339.665 140.699 339.755C141.069 339.813 141.447 339.797 141.811 339.707C142.174 339.618 142.516 339.457 142.817 339.233C143.117 339.01 143.37 338.728 143.56 338.406C143.75 338.083 143.874 337.726 143.925 337.355C143.991 336.594 143.759 335.837 143.278 335.244C142.797 334.651 142.105 334.267 141.347 334.175C140.976 334.116 140.598 334.132 140.234 334.222C139.869 334.311 139.527 334.472 139.225 334.695C138.924 334.919 138.67 335.2 138.479 335.523C138.287 335.845 138.162 336.203 138.11 336.574Z" fill="#263238"/>
<path d="M108.168 336.574C108.102 337.337 108.335 338.095 108.818 338.689C109.302 339.282 109.997 339.665 110.757 339.755C111.127 339.813 111.505 339.797 111.868 339.707C112.232 339.618 112.574 339.457 112.874 339.233C113.175 339.01 113.427 338.728 113.618 338.406C113.808 338.083 113.932 337.726 113.982 337.355C114.049 336.594 113.817 335.837 113.336 335.244C112.855 334.651 112.163 334.267 111.404 334.175C111.034 334.116 110.656 334.132 110.291 334.222C109.927 334.311 109.584 334.472 109.283 334.695C108.982 334.919 108.728 335.2 108.536 335.523C108.345 335.845 108.22 336.203 108.168 336.574V336.574Z" fill="#263238"/>
<path d="M87.4104 290.74C87.3557 291.603 87.1159 292.444 86.7073 293.206C85.8335 295.111 84.4893 296.763 82.8013 298.005C81.1092 299.244 79.133 300.039 77.0539 300.315C76.2037 300.475 75.3296 300.456 74.4871 300.259C74.4871 300.159 75.4692 300.192 76.987 299.902C78.9598 299.526 80.8263 298.722 82.4554 297.547C84.0609 296.339 85.3857 294.797 86.3391 293.028C87.0645 291.633 87.3211 290.74 87.4104 290.74Z" fill="#5AD4FA"/>
<path d="M84.0401 296.554C83.6999 296.607 83.3536 296.607 83.0134 296.554C82.0887 296.431 81.1797 296.21 80.3015 295.896C77.3619 294.863 74.816 292.943 73.0165 290.399C71.2169 287.856 70.2528 284.816 70.2575 281.7C70.249 280.77 70.3426 279.842 70.5365 278.933C70.5825 278.591 70.6843 278.259 70.8378 277.951C70.9494 277.951 70.57 279.39 70.6704 281.689C70.7767 284.698 71.7611 287.611 73.5021 290.068C75.2431 292.525 77.6648 294.419 80.4689 295.516C82.5893 296.32 84.0512 296.443 84.0401 296.554Z" fill="#455A64"/>
<path d="M127.464 283.653C127.464 283.653 127.028 283.106 126.091 282.336C124.739 281.272 123.137 280.573 121.437 280.305C118.914 279.9 116.328 280.237 113.994 281.276C111.137 282.577 108.501 284.317 106.182 286.432C103.648 288.664 101.305 290.84 98.894 292.537C96.7979 294.098 94.4173 295.235 91.8856 295.885C90.1725 296.327 88.386 296.406 86.6404 296.119C86.1693 296.036 85.7063 295.913 85.2565 295.751C84.944 295.639 84.7878 295.572 84.7989 295.55C84.8101 295.527 85.4574 295.728 86.6738 295.896C88.3839 296.089 90.1152 295.953 91.7739 295.494C94.2339 294.817 96.5437 293.681 98.5816 292.146C100.936 290.45 103.246 288.24 105.802 286.03C108.167 283.878 110.861 282.119 113.781 280.819C116.21 279.774 118.893 279.471 121.493 279.948C123.244 280.248 124.88 281.02 126.225 282.18C126.588 282.495 126.914 282.851 127.196 283.24C127.397 283.486 127.486 283.631 127.464 283.653Z" fill="#455A64"/>
<path d="M130.544 284.624C130.71 284.966 130.859 285.316 130.99 285.673C131.422 286.664 131.938 287.616 132.53 288.519C134.823 291.797 137.735 294.594 141.101 296.755C143.177 298.195 145.565 299.646 148.032 301.297C150.735 303.01 153.226 305.036 155.453 307.335C157.958 309.893 159.687 313.109 160.441 316.609C161.133 320.303 160.241 324.164 159.058 327.836C158.466 329.688 157.785 331.474 157.361 333.282C156.884 335.036 156.858 336.882 157.283 338.65C157.823 340.328 158.658 341.896 159.75 343.281C160.776 344.687 161.87 346.027 162.774 347.455C164.505 350.21 165.288 353.454 165.006 356.695C164.812 359.49 164.053 362.216 162.774 364.708C160.848 368.249 158.369 371.459 155.431 374.217C154.415 375.21 153.6 375.958 153.042 376.449L152.406 377.018C152.265 377.144 152.187 377.2 152.172 377.185C152.23 377.11 152.293 377.039 152.362 376.973L152.964 376.371L155.263 374.06C158.114 371.265 160.522 368.051 162.406 364.53C163.643 362.078 164.375 359.402 164.559 356.662C164.804 353.523 164.021 350.389 162.327 347.734C161.435 346.339 160.341 345.022 159.292 343.594C158.161 342.159 157.296 340.534 156.736 338.795C156.284 336.937 156.307 334.995 156.803 333.148C157.239 331.273 157.919 329.487 158.5 327.646C159.683 324.008 160.542 320.247 159.883 316.698C159.15 313.299 157.476 310.174 155.051 307.681C152.868 305.402 150.422 303.39 147.764 301.688C145.297 300.025 142.943 298.552 140.867 297.079C137.485 294.865 134.585 291.992 132.341 288.631C131.761 287.705 131.271 286.726 130.879 285.707C130.745 285.35 130.678 285.071 130.611 284.892C130.575 284.807 130.552 284.716 130.544 284.624Z" fill="#455A64"/>
<path d="M18.0175 185.59C18.0175 185.59 18.0175 185.412 18.1068 185.077C18.1961 184.742 18.2854 184.218 18.4304 183.582C18.7206 182.242 19.1447 180.323 19.6915 177.857C20.8075 172.857 22.4592 165.659 24.468 156.775C28.5526 138.919 34.1995 114.367 40.4603 87.0811L40.7393 85.8535L41.0183 87.0811L41.3754 88.6324C47.5915 116.276 53.2273 141.296 57.3119 159.431C59.3207 168.482 60.95 175.803 62.0772 180.903C62.624 183.425 63.0481 185.367 63.3494 186.751C63.4833 187.398 63.5838 187.867 63.6619 188.269C63.74 188.671 63.7512 188.793 63.7512 188.793C63.7512 188.793 63.7512 188.626 63.6061 188.28L63.2378 186.773C62.9142 185.412 62.4566 183.425 61.8652 180.948C60.6822 175.87 58.997 168.549 56.9213 159.521L40.8062 88.744L40.4603 87.2039H41.0183C34.7017 114.412 28.9878 139.053 24.8586 156.82L19.9147 177.857C19.3232 180.312 18.7987 182.231 18.542 183.57C18.3746 184.195 18.2519 184.686 18.1626 185.044C18.1277 185.229 18.0792 185.412 18.0175 185.59V185.59Z" fill="#263238"/>
<path d="M18.0064 206.292V188.793H64.644V206.292C64.644 211.694 62.4982 216.874 58.6787 220.694C54.8591 224.513 49.6787 226.659 44.277 226.659H38.3734C32.9717 226.659 27.7913 224.513 23.9717 220.694C20.1522 216.874 18.0064 211.694 18.0064 206.292V206.292Z" fill="#455A64"/>
<path d="M18.0064 188.793C18.2071 189.022 18.3864 189.269 18.5421 189.53L20.004 191.695L25.1488 199.719L41.9446 226.313L42.0562 226.503H41.5651C47.9152 216.08 53.6626 206.649 57.8476 199.719C59.9345 196.371 61.6308 193.615 62.8361 191.662L64.2199 189.485C64.3692 189.225 64.541 188.979 64.7333 188.749C64.6164 189.023 64.4783 189.288 64.3204 189.541L63.0258 191.773L58.1935 199.931L42.0562 226.715L41.8218 227.117L41.5763 226.715L41.4535 226.525L24.7582 199.931C22.6824 196.583 20.9861 193.782 19.7697 191.818L18.4416 189.586C18.2782 189.332 18.1328 189.067 18.0064 188.793V188.793Z" fill="#263238"/>
<path d="M40.8843 92.025C43.7011 92.025 45.9845 89.7416 45.9845 86.9249C45.9845 84.1082 43.7011 81.8248 40.8843 81.8248C38.0676 81.8248 35.7842 84.1082 35.7842 86.9249C35.7842 89.7416 38.0676 92.025 40.8843 92.025Z" fill="#263238"/>
<path d="M40.8844 0.178223C41.0406 0.178223 41.1745 19.8087 41.1745 44.0259C41.1745 68.2431 41.0406 87.8847 40.8844 87.8847C40.7281 87.8847 40.5942 68.2542 40.5942 44.0259C40.5942 19.7975 40.7281 0.178223 40.8844 0.178223Z" fill="#263238"/>
<path d="M43.5293 228.556C43.5293 228.998 43.3984 229.429 43.1531 229.797C42.9079 230.164 42.5593 230.45 42.1514 230.619C41.7436 230.788 41.2948 230.832 40.8618 230.746C40.4289 230.659 40.0312 230.447 39.719 230.135C39.4069 229.823 39.1943 229.425 39.1082 228.992C39.022 228.559 39.0662 228.11 39.2352 227.702C39.4041 227.294 39.6902 226.946 40.0572 226.701C40.4243 226.455 40.8558 226.324 41.2973 226.324C41.8892 226.324 42.457 226.56 42.8755 226.978C43.2941 227.397 43.5293 227.965 43.5293 228.556Z" fill="#263238"/>
<path d="M40.3822 229.36L40.7281 229.181C40.1068 229.576 39.5832 230.107 39.1965 230.733C38.8099 231.359 38.5705 232.065 38.4961 232.797C38.3677 234.255 38.4923 235.723 38.8644 237.139C38.9648 237.596 39.2104 238.165 39.6679 238.132C40.1255 238.098 40.2817 237.607 40.3598 237.194C40.5048 236.331 40.5274 235.452 40.4268 234.583C40.3761 235.701 40.733 236.799 41.4312 237.674C41.5763 237.842 41.766 238.009 41.978 237.953C42.1901 237.897 42.257 237.674 42.3128 237.473C42.5022 236.743 42.6144 235.995 42.6476 235.241C42.7016 235.904 42.9414 236.539 43.3396 237.072C43.4443 237.197 43.5734 237.299 43.7189 237.373C43.8644 237.446 44.0234 237.49 44.1861 237.5C44.3489 237.511 44.5121 237.488 44.6658 237.433C44.8196 237.379 44.9606 237.294 45.0805 237.183C45.1935 236.992 45.2674 236.78 45.2981 236.559C45.3287 236.339 45.3155 236.115 45.2591 235.9C44.8919 233.285 43.8409 230.813 42.2124 228.735" fill="#263238"/>
<path d="M20.9526 188.793C20.9526 188.793 -0.028211 164.632 2.30423 163.75C4.63667 162.869 23.2739 176.272 23.2739 176.272C23.2739 176.272 7.25927 140.448 10.4622 137.848C13.6651 135.248 30.5502 169.598 30.5502 169.598C30.5502 169.598 27.9276 119.501 30.5502 118.909C33.1728 118.318 42.8262 169.007 42.8262 169.007C42.8262 169.007 57.0998 122.704 61.1732 122.704C65.2466 122.704 56.832 167.243 56.832 167.243C56.832 167.243 73.7171 138.696 76.3397 142.479C78.9623 146.263 64.3985 177.142 64.3985 177.142C64.3985 177.142 85.6025 159.376 86.5399 161.708C87.4773 164.041 63.528 188.793 63.528 188.793H20.9526Z" fill="url(#paint1_linear_2_2)"/>
<path d="M18.0175 152.356C18.1626 152.289 21.89 160.257 26.3317 170.212C30.7734 180.167 34.2553 188.191 34.1437 188.258C34.0321 188.325 30.2824 180.345 25.8407 170.402C21.399 160.458 17.8724 152.456 18.0175 152.356Z" fill="#263238"/>
<path d="M34.9584 156.82C35.1258 156.82 35.7396 163.84 36.3422 172.511C36.9449 181.182 37.3132 188.247 37.1458 188.258C36.9784 188.269 36.3757 181.238 35.7731 172.556C35.1704 163.873 34.8022 156.82 34.9584 156.82Z" fill="#263238"/>
<path d="M58.3275 134.411C58.3146 134.602 58.2732 134.79 58.2047 134.969L57.7471 136.565C57.3119 138.027 56.7093 140.002 55.995 142.401C54.5107 147.334 52.5243 154.153 50.5043 161.73C48.4843 169.308 46.788 176.227 45.672 181.238L44.2882 187.175C44.1319 187.822 43.998 188.347 43.8976 188.782C43.866 188.972 43.8058 189.157 43.719 189.329C43.7102 189.138 43.729 188.946 43.7748 188.76C43.8529 188.325 43.9534 187.778 44.065 187.119C44.3328 185.713 44.7457 183.671 45.2814 181.149C46.3974 176.116 47.9598 169.185 49.9909 161.585C52.0221 153.985 54.0643 147.178 55.6491 142.278C56.4414 139.834 57.0999 137.814 57.5797 136.498C57.8029 135.873 57.9927 135.382 58.1377 134.935C58.1781 134.753 58.2419 134.577 58.3275 134.411V134.411Z" fill="#263238"/>
<path d="M68.4384 160.224C68.5611 160.324 64.4766 166.418 59.2983 173.861C54.1201 181.305 49.8123 187.253 49.6784 187.164C49.5445 187.075 53.6402 180.97 58.8185 173.527C63.9967 166.083 68.3045 160.168 68.4384 160.224Z" fill="#263238"/>
<path d="M28.028 188.28C27.3535 187.928 26.7333 187.481 26.1866 186.952C24.8049 185.8 23.4862 184.574 22.236 183.28C20.9677 181.99 19.7718 180.63 18.6536 179.207C18.1395 178.65 17.7141 178.018 17.3926 177.332C17.5153 177.232 19.7027 179.877 22.6489 182.912C25.5952 185.948 28.1285 188.146 28.028 188.28Z" fill="#263238"/>
<path d="M40.7616 178.671C41.1959 180.301 41.4467 181.974 41.5093 183.66C41.7513 185.33 41.8075 187.022 41.6767 188.704C41.2424 187.074 40.9916 185.401 40.929 183.716C40.687 182.046 40.6308 180.354 40.7616 178.671V178.671Z" fill="#263238"/>
<path d="M64.644 199.697C64.0512 199.864 63.447 199.987 62.8361 200.065C61.7201 200.277 59.9791 200.534 57.881 200.824C52.4116 201.595 46.9062 202.087 41.3866 202.297C35.8602 202.503 30.3262 202.272 24.8363 201.605C22.727 201.337 21.0307 201.058 19.8701 200.813C19.2633 200.72 18.6658 200.574 18.0845 200.377C18.6987 200.406 19.3102 200.477 19.9147 200.59C21.0307 200.768 22.7828 200.98 24.8809 201.203C30.3574 201.748 35.8645 201.919 41.3642 201.717C47.8147 201.493 53.6402 200.902 57.8252 200.422L62.8026 199.842C63.4108 199.738 64.0271 199.689 64.644 199.697V199.697Z" fill="white"/>
<path d="M64.644 204.908C64.0512 205.076 63.447 205.199 62.8361 205.277C61.7201 205.478 59.9791 205.745 57.881 206.036C52.4116 206.807 46.9062 207.299 41.3866 207.509C35.8602 207.709 30.3266 207.478 24.8363 206.817C22.727 206.538 21.0307 206.27 19.8701 206.013C19.2632 205.927 18.6655 205.785 18.0845 205.589C18.6988 205.609 19.3106 205.677 19.9147 205.79C21.0307 205.98 22.7828 206.192 24.8809 206.404C30.3575 206.947 35.8642 207.122 41.3642 206.928C47.8147 206.705 53.6402 206.114 57.8252 205.634L62.8026 205.053C63.4108 204.95 64.0271 204.901 64.644 204.908V204.908Z" fill="white"/>
<path d="M164.199 523.006L207.958 528.107L215.569 524.468L208.181 519.458L165.048 514.045C164.293 513.937 163.524 514.024 162.813 514.298C162.102 514.571 161.473 515.022 160.985 515.607L160.918 515.697C160.427 516.351 160.119 517.125 160.028 517.938C159.937 518.751 160.066 519.574 160.401 520.32C160.736 521.067 161.265 521.709 161.933 522.182C162.601 522.654 163.384 522.939 164.199 523.006V523.006Z" fill="#5AD4FA"/>
<path d="M164.378 523.062C164.311 523.062 164.032 522.605 163.798 521.745C163.526 520.608 163.492 519.426 163.697 518.275C163.895 517.125 164.332 516.03 164.981 515.061C165.494 514.324 165.929 513.945 165.974 514.023C165.207 515.388 164.633 516.853 164.266 518.375C164.082 519.935 164.12 521.513 164.378 523.062V523.062Z" fill="#263238"/>
<path d="M207.958 528.107C207.958 528.107 207.299 528.229 206.496 527.526C206.396 527.42 206.314 527.3 206.25 527.169L206.094 526.801C205.971 526.525 205.867 526.242 205.782 525.953C205.642 525.26 205.642 524.547 205.782 523.855C205.879 523.178 206.028 522.51 206.228 521.857C206.392 521.305 206.661 520.789 207.02 520.339C207.645 519.558 208.281 519.402 208.304 519.458C208.326 519.513 207.835 519.826 207.344 520.574C207.072 521.017 206.869 521.498 206.741 522.002C206.596 522.582 206.451 523.252 206.351 523.933C206.251 524.557 206.251 525.194 206.351 525.819C206.418 526.098 206.507 526.366 206.596 526.622L206.73 527.002C206.759 527.095 206.804 527.182 206.864 527.258C207.366 527.883 208.014 528.006 207.958 528.107Z" fill="#263238"/>
<path d="M206.183 524.625C206.183 524.781 196.697 523.743 185.057 522.292C173.418 520.841 163.987 519.547 164.01 519.379C164.032 519.212 173.485 520.272 185.124 521.712C196.764 523.152 206.194 524.468 206.183 524.625Z" fill="#263238"/>
<path d="M206.295 520.574C206.295 520.73 197.021 519.759 185.627 518.397C174.232 517.036 165.014 515.808 165.025 515.652C165.036 515.496 174.299 516.467 185.705 517.828C197.11 519.19 206.317 520.429 206.295 520.574Z" fill="#263238"/>
<path d="M212.277 522.236C211.942 522.444 211.661 522.727 211.453 523.062C211.246 523.397 211.119 523.775 211.083 524.167C211.074 524.555 211.158 524.939 211.327 525.288C211.495 525.637 211.744 525.942 212.053 526.176L215.569 524.468L212.277 522.236Z" fill="#263238"/>
<defs>
<linearGradient id="paint0_linear_2_2" x1="113.097" y1="293.706" x2="46.313" y2="328.749" gradientUnits="userSpaceOnUse">
<stop stop-color="#5AD4FA"/>
<stop offset="1" stop-color="#2BB3DD"/>
</linearGradient>
<linearGradient id="paint1_linear_2_2" x1="44.0002" y1="100.5" x2="23.0729" y2="212.075" gradientUnits="userSpaceOnUse">
<stop stop-color="#A5EB78"/>
<stop offset="1" stop-color="#91D367"/>
</linearGradient>
</defs>
</svg>
