<svg width="520" height="544" viewBox="0 0 520 544" fill="none" xmlns="http://www.w3.org/2000/svg">
<path d="M181.273 51.4476C181.983 46.2933 174.709 42.0542 169.23 41.6206C166.617 41.4038 163.919 41.8013 161.45 40.9462C156.103 39.0796 153.96 32.179 148.745 29.9751C144.843 28.3253 140.315 29.7945 136.57 31.6973C132.824 33.6 129.055 35.9966 124.828 36.2615C121.155 36.5024 117.169 35.1415 113.989 36.9359C111.581 38.2727 110.376 41.0305 108.124 42.6563C105.872 44.2821 103.151 44.5952 100.465 44.7397C97.7795 44.8842 95.0096 44.9083 92.5649 46.0283C90.1202 47.1483 88.109 49.7255 88.6148 52.3629L181.273 51.4476Z" fill="#F5F5F5"/>
<path d="M519.197 113.36C519.907 108.206 512.633 103.967 507.154 103.533C504.552 103.316 501.843 103.714 499.374 102.859C494.027 100.992 491.895 94.0795 486.669 91.8877C482.767 90.2379 478.239 91.7071 474.493 93.6099C470.748 95.5126 466.979 97.9092 462.752 98.1741C459.078 98.415 455.092 97.0541 451.913 98.8485C449.504 100.185 448.3 102.943 446.048 104.569C443.796 106.195 441.074 106.496 438.389 106.652C435.703 106.809 432.933 106.821 430.501 107.941C428.068 109.061 426.033 111.638 426.539 114.275L519.197 113.36Z" fill="#F5F5F5"/>
<path d="M314.552 167.77C315.587 160.243 304.917 154.041 296.969 153.403C293.163 153.09 289.201 153.68 285.588 152.415C277.773 149.694 274.653 139.59 267.018 136.374C261.31 133.966 254.747 136.109 249.219 138.891C243.691 141.673 238.224 145.177 232.046 145.575C226.675 145.912 220.834 143.925 216.125 146.55C212.633 148.501 210.79 152.572 207.562 154.92C204.335 157.268 200.337 157.75 196.363 157.955C192.388 158.16 188.378 158.208 184.813 159.846C181.249 161.484 178.286 165.253 179.033 169.107L314.552 167.77Z" fill="#EBEBEB"/>
<path d="M118.722 122.5C119.625 115.949 110.376 110.554 103.428 110C100.116 109.723 96.6716 110.241 93.5285 109.145C86.7363 106.736 84.0146 97.9811 77.3789 95.1871C72.4173 93.0917 66.6969 94.9583 61.8918 97.3789C57.0867 99.7996 52.3297 102.87 46.9465 103.232C42.2739 103.533 37.2038 101.799 33.1093 104.087C30.0624 105.785 28.4607 109.301 25.6547 111.313C22.8487 113.324 19.3201 113.721 15.912 113.95C12.5039 114.179 8.9753 114.167 5.86823 115.588C2.76117 117.009 0.147859 120.333 0.834304 123.705L118.722 122.5Z" fill="#F5F5F5"/>
<path d="M366.42 427.691L339.962 542.581L351.138 542.544L377.668 428.775L366.42 427.691Z" fill="#E0E0E0"/>
<path d="M414.688 427.691L441.243 542.581H451.865L426.177 427.691H414.688Z" fill="#E0E0E0"/>
<path d="M348.561 341.404L363.627 420.502H380.739L364.65 341.404H348.561Z" fill="#E0E0E0"/>
<path d="M86.1583 427.691L64.5774 542.581H75.5605L98.1048 427.691H86.1583Z" fill="#E0E0E0"/>
<path d="M131.536 427.691L156.212 541.954H167.062L143.242 427.691H131.536Z" fill="#E0E0E0"/>
<path d="M68.2865 341.404L83.3522 420.502H100.477L84.3878 341.404H68.2865Z" fill="#E0E0E0"/>
<path d="M34.3978 334.215L37.4807 348.594H381.245L377.235 334.215H34.3978Z" fill="#EBEBEB"/>
<path d="M40.9612 362.142L44.5982 376.521H386.05L382.943 362.142H40.9612Z" fill="#EBEBEB"/>
<path d="M47.7533 391.057L51.1253 405.436H391.53L388.302 391.057H47.7533Z" fill="#EBEBEB"/>
<path d="M440.822 420.502H73.7662V434.881H440.822V420.502Z" fill="#EBEBEB"/>
<path d="M28.9787 479.693C30.6009 480.106 32.1235 480.842 33.4558 481.856C34.7882 482.869 35.9031 484.141 36.7343 485.594C38.3837 488.517 39.3395 491.78 39.5282 495.132C40.0702 501.575 37.77 508.644 34.9278 514.4C28.6896 510.787 25.8595 503.008 24.6673 498.949C22.7886 492.518 23.2824 479.777 28.9787 479.681" fill="#EBEBEB"/>
<path d="M43.1772 523.601C42.4537 521.874 42.1997 519.986 42.4408 518.129C42.6819 516.273 43.4096 514.512 44.5501 513.027C45.7189 511.567 47.166 510.353 48.8073 509.456C50.4487 508.559 52.2518 507.996 54.1121 507.801C54.9484 507.629 55.8117 507.641 56.6432 507.834C57.4746 508.027 58.2544 508.398 58.9293 508.921C59.478 509.514 59.8579 510.244 60.0294 511.034C60.2009 511.824 60.1579 512.645 59.9048 513.413C59.3717 514.946 58.4457 516.312 57.2192 517.375C53.2089 521.18 48.6206 524.119 43.117 523.601" fill="#EBEBEB"/>
<path d="M39.8172 539.426C39.6388 538.008 39.6025 536.575 39.7088 535.15C39.7687 533.593 40.0154 532.048 40.4435 530.55C40.9061 528.702 41.4936 526.887 42.2017 525.119C43.4915 521.88 45.5596 519.01 48.2232 516.761C49.0502 516.108 49.9373 515.536 50.8726 515.051C51.2112 514.863 51.5768 514.729 51.9565 514.653C51.9565 514.774 50.5113 515.436 48.5483 517.146C46.0502 519.44 44.0958 522.262 42.828 525.408C42.1538 527.157 41.5749 528.942 41.0938 530.755C40.6528 532.21 40.3623 533.708 40.2267 535.223C40.1831 536.631 40.0464 538.035 39.8172 539.426Z" fill="#E0E0E0"/>
<path d="M29.4602 489.436C29.7273 490.107 29.9368 490.8 30.0864 491.507C30.4477 492.844 30.9535 494.795 31.5436 497.203C32.7479 502.02 34.3015 508.716 35.8429 516.147C37.3844 523.577 38.6008 530.333 39.3715 535.247C39.7569 537.655 40.0459 539.691 40.2266 541.063C40.351 541.775 40.4154 542.496 40.4192 543.219C40.199 542.532 40.0378 541.827 39.9375 541.112L38.8657 535.331C37.9625 530.442 36.6739 523.71 35.1324 516.291C33.5909 508.873 32.1217 502.297 31.0499 497.324C30.5441 494.987 30.1346 493.06 29.8456 491.567C29.6563 490.869 29.5273 490.156 29.4602 489.436Z" fill="#E0E0E0"/>
<path d="M35.6504 527.623C33.7525 524.164 31.057 521.206 27.7877 518.997C24.5183 516.787 20.7692 515.389 16.8514 514.918C14.8643 514.701 12.4437 514.918 11.4923 516.7C10.5409 518.483 11.6368 520.626 12.9375 522.156C15.7159 525.294 19.3607 527.541 23.413 528.612C27.4653 529.684 31.744 529.532 35.7106 528.177" fill="#EBEBEB"/>
<path d="M19.9464 519.916C20.3297 519.908 20.7118 519.961 21.0784 520.073C21.789 520.217 22.8126 520.482 24.0651 520.856C27.3693 521.793 30.4721 523.332 33.2177 525.396C34.7006 526.568 35.9855 527.971 37.0232 529.551C38.3905 531.741 39.2504 534.21 39.5402 536.776C39.6033 537.151 39.6033 537.534 39.5402 537.908C39.3957 537.908 39.2271 536.319 38.4082 533.886C37.9134 532.475 37.2502 531.128 36.4331 529.876C35.4134 528.386 34.1752 527.059 32.76 525.938C30.0733 523.937 27.0855 522.376 23.9085 521.313C22.5637 520.919 21.2411 520.453 19.9464 519.916Z" fill="#E0E0E0"/>
<path d="M77.4392 15.3911C77.4392 15.3911 77.0057 15.2706 76.2349 15.1141C75.128 14.8942 73.9915 14.8657 72.8749 15.0298C71.2214 15.2566 69.6627 15.9359 68.3709 16.9928C66.7838 18.2855 65.663 20.0618 65.1795 22.0508L64.9868 22.7974L64.6978 22.0869C63.921 20.2091 62.5998 18.6068 60.9043 17.4865C59.5134 16.5754 57.9139 16.0325 56.2557 15.9089C54.716 15.8287 53.1743 16.0245 51.7035 16.487C52.0717 16.2508 52.4798 16.0835 52.9078 15.9932C54.0121 15.6422 55.1711 15.4952 56.328 15.5597C58.0404 15.6461 59.7007 16.1774 61.1452 17.1012C62.9469 18.2547 64.3476 19.9373 65.1554 21.9183H64.6737C65.1845 19.8293 66.3696 17.9669 68.0457 16.6194C69.1871 15.7235 70.5199 15.1031 71.9403 14.8065C73.3607 14.5099 74.8303 14.5451 76.2349 14.9094C76.6608 15.0003 77.0681 15.1632 77.4392 15.3911Z" fill="#E0E0E0"/>
<path d="M240.861 94.6333C240.513 95.0837 240.139 95.5139 239.741 95.9219C238.733 97.0836 237.819 98.3239 237.008 99.6311C234.324 103.971 232.917 108.98 232.949 114.083V114.263H232.443C231.67 109.262 229.35 104.63 225.808 101.016C224.331 99.5563 222.718 98.2416 220.99 97.0901C221.13 97.1338 221.263 97.1944 221.388 97.2707C221.629 97.4152 222.014 97.5959 222.472 97.8969C223.775 98.7204 224.986 99.6813 226.085 100.763C229.765 104.377 232.181 109.082 232.973 114.179H232.467V114.071C232.433 108.886 233.914 103.804 236.731 99.4505C237.577 98.1567 238.544 96.9469 239.621 95.8376C239.994 95.4281 240.331 95.1632 240.536 94.9585C240.628 94.8344 240.737 94.7248 240.861 94.6333Z" fill="#E0E0E0"/>
<path d="M508.202 542.581C508.202 542.749 396.106 542.894 257.878 542.894C119.65 542.894 7.5303 542.797 7.5303 542.581C7.5303 542.364 119.601 542.268 257.878 542.268C396.154 542.268 508.202 542.4 508.202 542.581Z" fill="#263238"/>
<path d="M205.214 68.2112C205.214 68.2112 204.347 67.9101 202.734 67.5609C200.455 67.0622 198.107 66.9685 195.797 67.2839C192.372 67.7385 189.141 69.1352 186.464 71.3183C183.173 73.9864 180.854 77.6645 179.864 81.7835V81.904L179.671 82.6506L179.382 81.9401C177.774 78.0383 175.019 74.7166 171.482 72.4142C168.599 70.5347 165.282 69.4275 161.848 69.1987C159.533 69.0327 157.206 69.2442 154.959 69.8249C153.37 70.2464 152.551 70.6198 152.551 70.5716C152.739 70.4514 152.941 70.3544 153.153 70.2826C153.737 70.0281 154.336 69.8108 154.947 69.6322C157.21 68.9738 159.568 68.705 161.92 68.8374C165.428 69.0257 168.826 70.1212 171.783 72.0167C175.426 74.3528 178.26 77.7548 179.9 81.7594H179.418V81.639C180.44 77.4157 182.828 73.648 186.211 70.9208C188.517 69.0823 191.216 67.8 194.098 67.1735C196.981 66.5469 199.968 66.5929 202.83 67.308C203.449 67.4567 204.057 67.6499 204.648 67.886C204.847 67.9754 205.037 68.0843 205.214 68.2112Z" fill="#263238"/>
<path d="M274.521 30.1796C274.521 30.1796 274.04 30.0471 273.148 29.8665C271.9 29.6124 270.617 29.5717 269.355 29.746C267.489 30.009 265.731 30.7797 264.273 31.974C262.478 33.4268 261.209 35.4276 260.66 37.6703L260.467 38.429L260.178 37.7184C259.304 35.5894 257.805 33.7755 255.879 32.5159C254.308 31.5065 252.504 30.9177 250.64 30.8058C249.376 30.6988 248.102 30.8005 246.871 31.1069C245.992 31.3237 245.522 31.5163 245.51 31.4802C245.498 31.4441 245.618 31.3959 245.835 31.2996C246.153 31.1473 246.483 31.0224 246.823 30.9262C248.064 30.5364 249.365 30.3732 250.664 30.4445C252.615 30.5313 254.509 31.1293 256.156 32.1787C258.178 33.4691 259.751 35.3538 260.66 37.5739H260.19V37.5137C260.753 35.1647 262.084 33.0708 263.972 31.5645C265.499 30.3352 267.346 29.5666 269.295 29.3486C270.597 29.1978 271.916 29.2918 273.185 29.6256C273.525 29.7135 273.86 29.8262 274.184 29.9628C274.425 30.1073 274.533 30.1675 274.521 30.1796Z" fill="#263238"/>
<path d="M229.216 14.6201C229.216 14.6201 228.734 15.162 227.879 16.1255C222.658 22.0636 219.785 29.7033 219.798 37.61V37.8268H219.292C218.801 34.5835 217.741 31.4524 216.161 28.5778C214.869 26.2166 213.247 24.0513 211.344 22.1469C210.097 20.8724 208.739 19.7116 207.286 18.6786C206.717 18.3344 206.17 17.9564 205.648 17.5465C205.799 17.5899 205.944 17.6505 206.081 17.7272C206.382 17.8958 206.828 18.1126 207.37 18.4738C208.908 19.4551 210.337 20.5976 211.633 21.882C213.575 23.7838 215.231 25.9583 216.547 28.337C218.177 31.2526 219.266 34.4391 219.762 37.7425H219.268V37.5257C219.223 31.3934 220.973 25.3819 224.302 20.2321C225.293 18.6782 226.434 17.226 227.71 15.8967C228.144 15.4149 228.541 15.0898 228.782 14.8489C228.916 14.7533 229.061 14.6763 229.216 14.6201Z" fill="#263238"/>
<path d="M376.38 440.842C381.125 474.675 385.874 508.507 390.627 542.34L394.336 542.46C391.976 507.981 389.459 472.828 376.38 440.842Z" fill="#455A64"/>
<path d="M415.965 436.085C406.006 446.996 402.007 462.002 399.478 476.55C395.865 497.179 395.576 521.542 396.648 542.46L401.851 542.581C399.795 506.51 404.584 470.376 415.965 436.085Z" fill="#455A64"/>
<path d="M378.993 500.888C377.849 495.866 376.585 490.748 373.67 486.437C369.793 480.656 363.482 476.995 357.124 474.141C350.765 471.287 344.081 469.023 338.337 465.073C344.743 475.586 359.291 478.32 366.698 488.207C370.383 493.097 371.912 499.226 373.357 505.176C376.501 518.158 378.439 529.382 381.595 542.352H385.81C384.411 528.401 382.135 514.553 378.993 500.888Z" fill="#455A64"/>
<path d="M405.656 542.46C405.656 542.46 409.269 502.153 411.871 494.746C414.472 487.34 439.569 466.903 439.292 467.854C439.015 468.806 420.529 491.194 417.88 495.83C415.23 500.467 410.654 542.52 410.654 542.52L405.656 542.46Z" fill="#455A64"/>
<path d="M94.3715 230.031C94.1427 230.694 96.3585 275.975 99.5258 280.407C102.693 284.838 134.667 299.266 134.667 299.266L143.217 282.671L115.35 267.738L106.812 227.273L94.3715 230.031Z" fill="#FFBE9D"/>
<path d="M150.082 281.334L127.176 274.06L122.01 294.196L136.919 301.711L150.082 281.334Z" fill="url(#paint0_linear_2_2312)"/>
<path d="M142.001 413.613C141.52 414.324 124.551 443.961 122.877 448.983C121.203 454.005 120.252 532.392 120.252 532.392L139.364 531.188C139.364 531.188 147.493 494.108 147.794 482.39C148.095 470.673 147.794 458.967 147.794 458.967L174.565 422.838L142.001 413.613Z" fill="#FFBE9D"/>
<path d="M182.056 426.74C182.056 426.74 191.618 461.881 196.158 466.181C200.698 470.48 261.888 497.733 261.888 496.77C261.888 495.806 267.669 479.488 267.669 479.488C267.669 479.488 232.251 453.993 228.963 452.079C225.675 450.164 215.583 445.623 215.583 445.623L211.754 421.008L182.056 426.74Z" fill="#FFBE9D"/>
<path d="M159.596 388.961C159.596 389.684 182.309 453.282 182.309 453.282L221.978 436.82C221.978 436.82 214.861 410.952 212.187 403.184C208.972 393.839 207.707 381.507 204.154 377.894C202.014 375.742 200.134 373.345 198.555 370.752L159.596 388.961Z" fill="#455A64"/>
<path d="M145.771 388.745C146.012 389.347 123.889 436.41 123.889 436.41L164.016 449.248L175.577 427.137L169.158 395.2L145.771 388.745Z" fill="#455A64"/>
<path d="M221.978 436.82C221.734 436.981 221.471 437.11 221.195 437.205L218.907 438.193L210.477 441.733L182.224 453.258L181.911 453.391L181.803 453.078C181.622 452.512 181.418 451.873 181.213 451.319C177.251 439.59 173.662 428.98 171.037 421.212L168.026 412.072C167.689 411.036 167.436 410.205 167.231 409.579C167.126 409.29 167.049 408.991 167.002 408.688C167.002 408.688 167.135 408.977 167.351 409.53L168.255 411.939L171.458 421.019C174.12 428.763 177.769 439.349 181.803 451.054L182.405 452.813L181.984 452.62L210.32 441.264L218.871 437.916L221.207 437.036C221.458 436.945 221.716 436.872 221.978 436.82Z" fill="#263238"/>
<path d="M206.419 397.56C205.536 398.192 204.538 398.642 203.48 398.885C200.95 399.624 198.275 399.719 195.699 399.162C193.122 398.604 190.726 397.412 188.728 395.694C187.869 395.035 187.145 394.217 186.596 393.285C186.68 393.213 187.463 394.164 189.005 395.356C191.009 396.922 193.341 398.013 195.827 398.549C198.313 399.085 200.888 399.052 203.36 398.452C205.274 398.006 206.37 397.464 206.419 397.56Z" fill="#263238"/>
<path d="M148.275 398.078C147.423 399.324 146.244 400.311 144.867 400.931C143.491 401.551 141.97 401.781 140.472 401.594C141.873 401.28 143.252 400.878 144.602 400.39C145.871 399.691 147.097 398.919 148.275 398.078Z" fill="#263238"/>
<path d="M136.233 212.352C138.954 204.211 148.589 203.067 156.152 202.718C159.95 202.551 163.744 203.139 167.314 204.448C170.884 205.756 174.159 207.759 176.95 210.341C187.102 219.867 189.354 235.836 199.952 244.88C203.143 247.602 207.009 249.601 209.586 252.889C212.825 256.983 213.644 262.523 213.982 267.689C214.319 272.856 214.307 278.287 216.282 283.129C218.257 287.97 222.869 292.221 228.084 291.835C229.375 291.606 230.686 291.501 231.998 291.522C233.31 291.679 234.671 292.618 234.683 293.931C234.634 294.403 234.489 294.86 234.257 295.274C234.025 295.688 233.711 296.051 233.334 296.34C231.266 298.285 228.758 299.703 226.024 300.47C224.956 300.608 223.97 301.12 223.243 301.915C222.942 302.52 222.873 303.214 223.049 303.866C223.224 304.518 223.631 305.083 224.194 305.456C225.349 306.173 226.666 306.587 228.024 306.66C217.968 313.031 204.48 315.391 194.171 309.442C187.017 305.324 182.453 297.977 176.745 291.992C165.413 280.094 141.303 284.044 131.175 271.11C120.167 257.056 117.614 216.29 136.196 212.401" fill="#263238"/>
<path d="M128.501 228.803C128.911 219.867 138.364 210.739 147.276 211.594L176.179 216.58V221.397L175.396 280.865C175.396 280.865 173.253 300.073 157.055 299.254C142.507 298.519 143.049 283.153 143.049 283.141L143.302 271.929C143.302 271.929 131.56 271.664 128.935 256.827C127.658 249.445 128.044 238.726 128.501 228.803Z" fill="#FFBE9D"/>
<path d="M135.028 241.484C135.034 241.982 135.234 242.457 135.585 242.81C135.935 243.163 136.41 243.366 136.907 243.375C137.15 243.39 137.394 243.355 137.624 243.274C137.854 243.194 138.066 243.068 138.246 242.904C138.427 242.74 138.573 242.542 138.676 242.321C138.779 242.1 138.837 241.86 138.846 241.617C138.84 241.119 138.64 240.644 138.289 240.291C137.939 239.938 137.465 239.735 136.967 239.726C136.724 239.711 136.48 239.746 136.25 239.826C136.02 239.907 135.808 240.033 135.628 240.197C135.447 240.361 135.301 240.559 135.198 240.78C135.095 241.001 135.037 241.241 135.028 241.484Z" fill="#263238"/>
<path d="M131.259 236.667C131.5 236.92 132.921 235.824 134.98 235.788C137.04 235.751 138.593 236.763 138.762 236.51C138.93 236.257 138.629 235.944 137.967 235.487C137.068 234.882 136.003 234.575 134.92 234.607C133.856 234.62 132.823 234.97 131.97 235.607C131.343 236.101 131.139 236.558 131.259 236.667Z" fill="#263238"/>
<path d="M152.888 240.713C152.891 241.211 153.087 241.688 153.436 242.043C153.784 242.398 154.257 242.604 154.755 242.616C154.998 242.632 155.243 242.599 155.474 242.519C155.704 242.439 155.916 242.313 156.097 242.149C156.278 241.985 156.424 241.786 156.527 241.564C156.629 241.342 156.686 241.102 156.693 240.858C156.693 240.361 156.498 239.883 156.148 239.529C155.799 239.176 155.324 238.974 154.827 238.967C154.584 238.953 154.341 238.986 154.112 239.067C153.883 239.147 153.672 239.272 153.492 239.434C153.311 239.597 153.165 239.794 153.061 240.013C152.958 240.233 152.899 240.471 152.888 240.713Z" fill="#263238"/>
<path d="M150.142 236.667C150.383 236.92 151.816 235.824 153.863 235.788C155.911 235.752 157.476 236.763 157.657 236.51C157.837 236.257 157.524 235.944 156.85 235.487C155.955 234.887 154.897 234.576 153.82 234.598C152.743 234.619 151.699 234.972 150.828 235.607C150.238 236.101 150.034 236.558 150.142 236.667Z" fill="#263238"/>
<path d="M144.229 251.684C143.135 251.399 142.012 251.238 140.881 251.203C140.351 251.203 139.858 251.082 139.761 250.781C139.665 250.48 139.834 249.974 140.074 249.456L141.544 246.06C142.098 244.856 144.783 237.847 144.795 237.185C144.566 237.112 142.736 240.978 140.701 245.807C140.219 247.012 139.749 248.144 139.304 249.228C139.151 249.489 139.052 249.778 139.012 250.077C138.973 250.377 138.994 250.682 139.075 250.974C139.168 251.136 139.294 251.277 139.446 251.387C139.597 251.497 139.771 251.574 139.954 251.612C140.247 251.675 140.546 251.708 140.845 251.708C141.971 251.816 143.105 251.808 144.229 251.684Z" fill="#263238"/>
<path d="M143.217 272.013C150.221 271.997 157.084 270.038 163.04 266.353C163.04 266.353 158.139 276.83 143.229 275.686L143.217 272.013Z" fill="#EB996E"/>
<path d="M150.383 251.757C150.046 251.757 150.082 253.973 148.203 255.587C146.325 257.2 143.952 256.996 143.94 257.309C143.928 257.622 144.47 257.73 145.47 257.742C146.792 257.748 148.072 257.283 149.082 256.43C150.04 255.622 150.644 254.473 150.768 253.226C150.793 252.287 150.54 251.745 150.383 251.757Z" fill="#263238"/>
<path d="M149.757 229.682C149.998 230.321 151.756 229.815 153.9 229.923C156.043 230.032 157.826 230.622 158.042 230.007C158.139 229.706 157.777 229.14 157.019 228.574C156.084 227.919 154.98 227.547 153.839 227.503C152.735 227.448 151.641 227.739 150.708 228.333C149.986 228.887 149.648 229.441 149.757 229.682Z" fill="#263238"/>
<path d="M131.271 229.887C131.62 230.453 133.125 229.971 134.884 230.044C136.642 230.116 138.147 230.598 138.497 230.044C138.665 229.767 138.497 229.201 137.822 228.647C137.006 227.96 135.975 227.581 134.908 227.575C133.842 227.543 132.798 227.874 131.945 228.514C131.415 229.044 131.114 229.598 131.271 229.887Z" fill="#263238"/>
<path d="M182.393 226.129H181.767C182 222.426 181.382 218.718 179.96 215.291C177.263 209.269 171.434 205.235 165.304 203.73C159.174 202.224 152.768 202.911 146.602 204.223C143.699 204.838 140.315 206.09 139.593 209.161C139.328 210.77 139.577 212.422 140.303 213.882C141.683 217.276 143.92 220.254 146.795 222.525C149.67 224.796 153.085 226.283 156.706 226.84C158.334 226.854 159.935 227.268 161.366 228.044C163.017 229.367 164.196 231.187 164.726 233.235C164.951 234.15 165.116 235.079 165.22 236.017C165.533 238.69 165.328 241.448 166.111 244.037C167.075 247.241 170.097 249.745 170.23 253.093C170.459 258.428 163.341 261.885 163.462 267.232C163.462 269.568 164.967 271.591 166.159 273.59C167.352 275.59 168.339 278.058 167.364 280.202C166.754 281.245 166.082 282.25 165.352 283.213C163.389 286.609 165.726 291.378 169.411 292.739C173.096 294.099 177.383 292.618 180.25 289.909C183.116 287.199 184.754 283.49 186.03 279.768C191.968 262.112 190.66 242.822 182.393 226.129Z" fill="#263238"/>
<path d="M234.599 280.407C234.599 280.407 234.599 280.515 234.515 280.696C234.432 280.983 234.31 281.259 234.153 281.514C233.569 282.516 232.696 283.318 231.648 283.815C229.984 284.628 228.085 284.824 226.289 284.369C223.95 283.636 221.97 282.055 220.738 279.937C219.247 277.415 218.357 274.584 218.136 271.663C217.751 268.556 217.787 265.22 217.173 261.812C216.882 260.072 216.347 258.381 215.583 256.79C214.777 255.151 213.597 253.724 212.139 252.624C209.164 250.335 205.299 249.24 201.818 247.072C200.102 245.98 198.604 244.579 197.398 242.941C196.262 241.345 195.32 239.618 194.592 237.799C193.135 234.186 192.256 230.669 191.1 227.382C190.566 225.784 189.918 224.226 189.161 222.721C188.405 221.325 187.509 220.01 186.488 218.795C184.629 216.596 182.565 214.579 180.322 212.774C177.101 210.132 173.565 207.899 169.796 206.126C168.769 205.662 167.716 205.26 166.641 204.922L165.798 204.657L165.521 204.548C167.029 204.838 168.496 205.307 169.892 205.945C173.731 207.639 177.331 209.829 180.599 212.461C182.881 214.263 184.986 216.28 186.885 218.482C187.947 219.713 188.875 221.054 189.655 222.48C190.432 224.013 191.1 225.598 191.654 227.225C192.858 230.525 193.725 234.09 195.158 237.582C195.87 239.356 196.792 241.038 197.904 242.592C199.059 244.172 200.501 245.52 202.155 246.566C205.515 248.674 209.381 249.781 212.512 252.166C214.046 253.321 215.284 254.824 216.125 256.55C216.909 258.19 217.456 259.934 217.751 261.728C218.353 265.22 218.293 268.556 218.654 271.627C218.83 274.473 219.653 277.241 221.063 279.72C222.225 281.767 224.104 283.312 226.338 284.056C228.054 284.516 229.877 284.363 231.492 283.622C232.519 283.168 233.39 282.423 233.997 281.478C234.466 280.804 234.551 280.394 234.599 280.407Z" fill="#263238"/>
<path d="M192.304 353.146C189.45 344.246 184.705 319.341 183.874 308.924C183.043 298.507 176.287 273.687 167.074 274.156H166.797C143.241 275.048 134.763 291.221 132.776 310.598L132.86 323.46C132.776 341.296 137.088 368.681 137.678 378.171C137.973 383.864 139.005 389.495 140.749 394.923C140.749 394.923 161.029 398.138 171.265 393.718C181.502 389.299 189.57 390.358 195.447 385.83C199.276 382.801 202.82 379.427 206.033 375.75C206.033 375.75 195.158 362.046 192.304 353.146Z" fill="url(#paint1_linear_2_2312)"/>
<g opacity="0.3">
<path opacity="0.3" d="M171.253 299.531C157.91 311.574 152.647 331.565 137.328 341.043L133.716 343.162C135.493 345.687 138.096 347.511 141.076 348.32C144.055 349.129 147.224 348.873 150.034 347.594C153.707 345.776 156.284 342.355 158.693 339.044C162.944 333.215 167.195 327.29 169.892 320.594C172.59 313.898 173.566 306.287 171.253 299.531Z" fill="black"/>
</g>
<path d="M168.965 275.06C168.435 275.06 154.586 275.06 149.155 282.454C144.337 288.969 135.378 311.67 135.378 311.67L164.582 324.134C164.582 324.134 171.338 310.586 174.216 301.711C177.335 291.655 175.011 275.228 168.965 275.06Z" fill="url(#paint2_linear_2_2312)"/>
<path d="M108.113 312.465L133.511 323.303L139.954 313.669L161.39 322.822C161.39 322.822 152.25 344.945 142.254 346.606C132.259 348.268 98.9599 321.208 98.9599 321.208L108.113 312.465Z" fill="#FFBE9D"/>
<path d="M102.513 295.641C102.019 295.459 101.488 295.405 100.968 295.483C100.448 295.56 99.9558 295.768 99.537 296.086C99.1183 296.404 98.7863 296.822 98.5718 297.302C98.3573 297.782 98.2672 298.308 98.3097 298.833C98.3097 298.833 94.1187 298.158 94.1187 302.192C94.1187 302.192 90.253 302.698 90.9274 306.227C90.0661 306.828 89.4317 307.7 89.1259 308.705C88.8202 309.71 88.8608 310.788 89.2414 311.767C90.5902 315.295 98.9961 321.208 98.9961 321.208L108.149 312.465C108.149 312.465 107.884 304.541 107.378 303.541C106.872 302.542 102.513 295.641 102.513 295.641Z" fill="#FFBE9D"/>
<path d="M175.191 299.266C175.191 299.266 175.191 299.434 175.035 299.748C174.878 300.061 174.722 300.566 174.505 301.132C173.987 302.337 173.301 304.107 172.397 306.275L164.847 324.255L164.738 324.52L164.473 324.399L147.421 317.174L135.269 311.971L134.992 311.863L135.101 311.586C138.617 302.879 141.905 295.484 144.494 290.342C145.807 287.789 146.903 285.766 147.746 284.453C148.155 283.779 148.528 283.249 148.757 282.96C148.875 282.787 149.008 282.626 149.155 282.478C149.155 282.478 148.697 283.201 147.95 284.561C147.204 285.922 146.12 287.933 144.867 290.511C142.375 295.677 139.159 303.095 135.679 311.802L135.522 311.417L147.685 316.596L164.726 323.894L164.341 324.05L172.108 306.154C173.048 304.023 173.806 302.313 174.36 301.084L174.975 299.736C175.03 299.572 175.103 299.414 175.191 299.266Z" fill="#263238"/>
<path d="M176.203 293.004C175.993 291.664 175.864 290.313 175.818 288.957C175.666 285.723 174.642 282.589 172.855 279.889C171.83 278.462 170.417 277.359 168.785 276.71C167.437 276.195 165.999 275.958 164.558 276.011C163.219 276.115 161.891 276.32 160.583 276.625C160.883 276.409 161.223 276.254 161.583 276.168C162.536 275.842 163.528 275.644 164.533 275.578C166.044 275.455 167.563 275.657 168.989 276.168C170.745 276.829 172.266 277.993 173.361 279.516C174.441 281.012 175.214 282.706 175.637 284.502C175.985 285.952 176.194 287.432 176.263 288.921C176.263 290.186 176.263 291.209 176.263 291.908C176.291 292.274 176.271 292.643 176.203 293.004Z" fill="#263238"/>
<path d="M141.483 285.404C141.568 285.465 140.46 287.066 138.978 289.824C135.114 297.041 133.025 305.074 132.885 313.259C132.824 316.391 133.017 318.33 132.885 318.342C132.751 317.904 132.674 317.45 132.656 316.993C132.504 315.754 132.424 314.508 132.415 313.259C132.325 304.959 134.476 296.788 138.641 289.607C139.26 288.525 139.935 287.475 140.664 286.464C140.891 286.077 141.166 285.721 141.483 285.404Z" fill="#263238"/>
<path d="M256.77 495.83L257.866 496.457C257.866 496.457 254.843 519.157 258.239 521.337L278.808 484.486L266.296 478.115C266.079 481.58 265.115 484.957 263.471 488.015C261.826 491.072 259.541 493.738 256.77 495.83Z" fill="url(#paint3_linear_2_2312)"/>
<g opacity="0.6">
<path opacity="0.6" d="M268.102 484.04C268.409 483.747 268.813 483.577 269.236 483.561C269.66 483.546 270.075 483.686 270.402 483.956C270.707 484.25 270.888 484.649 270.908 485.072C270.928 485.495 270.786 485.91 270.511 486.232C270.189 486.538 269.765 486.715 269.32 486.728C268.876 486.742 268.442 486.591 268.102 486.304C267.953 486.136 267.839 485.94 267.766 485.728C267.694 485.516 267.664 485.291 267.678 485.067C267.693 484.843 267.751 484.624 267.851 484.423C267.951 484.222 268.089 484.043 268.259 483.895" fill="white"/>
</g>
<g opacity="0.6">
<path opacity="0.6" d="M278.808 484.462L275.798 482.932L257.179 518.82C257.179 518.82 256.975 520.855 258.239 521.313L278.808 484.462Z" fill="white"/>
</g>
<path d="M257.866 496.613C258.047 496.709 258.637 495.854 259.709 495.288C260.78 494.722 261.804 494.686 261.828 494.469C261.852 494.252 260.624 493.963 259.419 494.662C258.215 495.36 257.709 496.564 257.866 496.613Z" fill="#263238"/>
<path d="M257.336 501.37C257.48 501.514 258.227 500.9 259.323 500.719C260.419 500.539 261.334 500.804 261.431 500.623C261.527 500.442 260.563 499.756 259.203 500.009C257.842 500.262 257.167 501.273 257.336 501.37Z" fill="#263238"/>
<path d="M260.732 506.151C260.865 506.006 260.106 505.26 258.865 505.163C257.625 505.067 256.758 505.705 256.866 505.862C256.975 506.018 257.794 505.789 258.805 505.862C259.817 505.934 260.612 506.319 260.732 506.151Z" fill="#263238"/>
<path d="M258.191 495.71C258.191 495.71 257.854 495.445 257.42 494.818C256.835 493.92 256.426 492.919 256.216 491.868C256.161 491.497 256.161 491.119 256.216 490.748C256.234 490.524 256.301 490.307 256.411 490.112C256.521 489.916 256.673 489.747 256.854 489.616C257.065 489.483 257.307 489.407 257.555 489.394C257.804 489.382 258.052 489.433 258.275 489.544C258.713 489.768 259.067 490.127 259.287 490.567C259.713 491.501 259.838 492.544 259.644 493.552C259.45 494.56 258.946 495.483 258.203 496.191C256.709 497.546 254.752 498.274 252.736 498.226C252.48 498.228 252.226 498.179 251.989 498.082C251.853 498.028 251.731 497.944 251.633 497.835C251.535 497.726 251.463 497.597 251.423 497.456C251.371 497.203 251.396 496.941 251.495 496.702C251.593 496.464 251.761 496.261 251.977 496.119C252.643 495.738 253.374 495.485 254.133 495.372C255.194 495.197 256.279 495.238 257.324 495.493C257.716 495.558 258.089 495.706 258.42 495.926C257.041 495.607 255.611 495.57 254.217 495.818C253.537 495.941 252.884 496.186 252.29 496.54C252.165 496.619 252.066 496.734 252.006 496.869C251.946 497.004 251.928 497.154 251.953 497.299C251.953 497.54 252.338 497.66 252.748 497.648C254.596 497.658 256.382 496.98 257.758 495.746C258.407 495.13 258.853 494.331 259.036 493.455C259.218 492.579 259.13 491.668 258.781 490.844C258.627 490.505 258.37 490.223 258.047 490.037C257.908 489.962 257.753 489.923 257.595 489.923C257.437 489.923 257.282 489.962 257.143 490.037C256.638 490.362 256.613 491.242 256.71 491.784C256.974 493.168 257.475 494.496 258.191 495.71Z" fill="#263238"/>
<path d="M120.18 528.526V529.73C120.18 529.73 98.7432 537.787 98.418 541.773L140.628 542.496L140.291 528.442C137.143 529.904 133.716 530.669 130.245 530.684C126.773 530.698 123.34 529.962 120.18 528.526Z" fill="url(#paint4_linear_2_2312)"/>
<g opacity="0.6">
<path opacity="0.6" d="M135.907 532.958C136.318 533.082 136.669 533.353 136.892 533.72C137.114 534.087 137.192 534.524 137.112 534.945C137.001 535.359 136.735 535.715 136.37 535.939C136.005 536.163 135.568 536.238 135.149 536.15C134.723 536.006 134.365 535.71 134.142 535.32C133.92 534.929 133.85 534.47 133.944 534.03C134.109 533.615 134.429 533.281 134.836 533.099C135.243 532.917 135.705 532.901 136.124 533.055" fill="white"/>
</g>
<g opacity="0.6">
<path opacity="0.6" d="M140.592 542.593L140.508 539.208L100.092 539.75C100.092 539.75 98.2011 540.545 98.3817 541.87L140.592 542.593Z" fill="white"/>
</g>
<path d="M119.999 529.899C119.999 530.104 121.022 530.212 122.034 530.899C123.046 531.585 123.551 532.452 123.744 532.368C123.937 532.284 123.648 531.092 122.419 530.297C121.191 529.502 119.951 529.707 119.999 529.899Z" fill="#263238"/>
<path d="M115.531 531.646C115.531 531.85 116.374 532.212 117.06 533.103C117.747 533.994 117.927 534.909 118.132 534.897C118.337 534.885 118.493 533.693 117.614 532.657C116.735 531.622 115.543 531.453 115.531 531.646Z" fill="#263238"/>
<path d="M112.93 536.908C113.122 536.908 113.423 535.933 112.93 534.789C112.436 533.645 111.46 533.187 111.364 533.356C111.268 533.524 111.87 534.138 112.267 535.078C112.665 536.017 112.725 536.884 112.93 536.908Z" fill="#263238"/>
<path d="M120.938 529.731C120.996 529.338 121.14 528.964 121.36 528.635C121.863 527.685 122.546 526.842 123.371 526.154C123.655 525.905 123.981 525.709 124.334 525.576C124.538 525.483 124.76 525.435 124.984 525.435C125.209 525.435 125.43 525.483 125.635 525.576C125.849 525.698 126.029 525.872 126.158 526.083C126.286 526.294 126.359 526.534 126.369 526.78C126.376 527.276 126.224 527.761 125.936 528.165C125.312 528.979 124.451 529.578 123.471 529.881C122.491 530.183 121.442 530.172 120.468 529.851C118.57 529.182 117.004 527.806 116.097 526.009C115.974 525.786 115.897 525.54 115.868 525.287C115.855 525.139 115.874 524.991 115.924 524.852C115.974 524.712 116.053 524.585 116.157 524.48C116.354 524.314 116.596 524.212 116.851 524.186C117.107 524.16 117.364 524.212 117.59 524.335C118.242 524.742 118.81 525.269 119.264 525.889C119.928 526.736 120.408 527.712 120.673 528.755C120.808 529.141 120.853 529.553 120.806 529.959C120.436 528.592 119.793 527.314 118.915 526.202C118.486 525.66 117.964 525.199 117.373 524.841C117.244 524.767 117.095 524.735 116.947 524.748C116.798 524.761 116.657 524.818 116.542 524.913C116.362 525.07 116.41 525.419 116.615 525.768C117.473 527.403 118.912 528.658 120.649 529.285C121.5 529.57 122.417 529.587 123.278 529.336C124.14 529.084 124.903 528.574 125.466 527.876C125.684 527.578 125.806 527.221 125.815 526.852C125.819 526.693 125.782 526.536 125.705 526.397C125.629 526.257 125.518 526.14 125.382 526.057C124.852 525.768 124.117 526.142 123.648 526.491C122.563 527.405 121.646 528.501 120.938 529.731Z" fill="#263238"/>
<path d="M106.559 209.113C105.963 209.161 105.392 209.378 104.915 209.739C104.437 210.099 104.072 210.588 103.861 211.148C103.861 211.148 100.369 208.739 98.6228 212.352C98.6228 212.352 94.9256 211.148 93.9983 214.592C92.9623 214.759 92.0123 215.268 91.3005 216.039C90.5886 216.81 90.1561 217.798 90.0723 218.843C89.7471 222.613 94.745 231.597 94.745 231.597L106.788 227.707C106.788 227.707 109.991 220.481 109.979 219.277C109.979 218.446 109.461 213.894 109.196 211.509C109.123 210.858 108.815 210.255 108.33 209.814C107.844 209.372 107.215 209.123 106.559 209.113Z" fill="#FFBE9D"/>
<path d="M108.811 218.747C108.483 217.53 108.027 216.351 107.45 215.23C107.276 214.838 107.002 214.497 106.655 214.243C106.28 214.064 105.866 213.985 105.451 214.014C103.219 214.014 100.991 214.062 98.7673 214.159C98.604 214.141 98.4389 214.165 98.2874 214.228C98.1358 214.291 98.0026 214.392 97.9002 214.52C97.7075 214.881 98.0326 215.303 98.3458 215.568C99.8128 216.8 101.609 217.574 103.512 217.796C101.561 218.699 99.4657 219.722 98.4662 221.625C97.9204 222.698 97.7226 223.915 97.9002 225.106C98.0711 226.288 98.4809 227.423 99.1045 228.442" fill="#FFBE9D"/>
<path d="M99.1046 228.406C98.8619 228.158 98.6661 227.868 98.5265 227.55C98.0621 226.691 97.7638 225.751 97.6474 224.781C97.4752 223.268 97.9081 221.748 98.8517 220.554C100.112 219.193 101.67 218.142 103.404 217.483L103.5 218.061C102.236 217.926 101.01 217.55 99.8873 216.953C99.3465 216.665 98.8344 216.326 98.3579 215.941C98.0929 215.75 97.8678 215.508 97.6955 215.231C97.5687 215.045 97.5156 214.819 97.5468 214.596C97.578 214.373 97.6911 214.17 97.8641 214.026C98.1558 213.843 98.4954 213.751 98.8396 213.761H99.6585H101.26H104.199H105.535C105.988 213.743 106.438 213.847 106.836 214.062C107.165 214.306 107.426 214.629 107.595 215.002C107.751 215.327 107.896 215.628 108.016 215.917C108.257 216.495 108.438 217.013 108.57 217.434C108.735 217.862 108.828 218.314 108.847 218.771C108.644 218.385 108.475 217.982 108.341 217.567C108.173 217.17 107.968 216.676 107.691 216.122C107.458 215.501 107.083 214.945 106.595 214.496C105.813 214.272 104.99 214.223 104.187 214.351L101.26 214.436H99.6826C99.1768 214.436 98.4783 214.436 98.2375 214.592C97.9966 214.749 98.2375 215.17 98.7433 215.496C99.1715 215.844 99.6265 216.158 100.104 216.435C101.152 216.996 102.296 217.356 103.476 217.495L104.572 217.615L103.56 218.073C101.905 218.685 100.407 219.661 99.1768 220.927C98.2883 222.005 97.8562 223.388 97.9725 224.781C98.0415 225.716 98.2696 226.632 98.6469 227.49C98.8236 227.783 98.9766 228.089 99.1046 228.406Z" fill="#EB996E"/>
<path d="M94.757 215.447C95.1215 216.087 95.3625 216.79 95.4675 217.519C95.6469 218.289 95.7836 219.069 95.877 219.855C95.9509 220.333 95.9752 220.817 95.9492 221.3C95.9236 221.875 95.6929 222.422 95.2989 222.842C95.0815 223.046 94.8182 223.195 94.5311 223.277C94.2441 223.359 93.9416 223.371 93.649 223.311C93.1274 223.227 92.6464 222.978 92.2762 222.601C91.7183 221.976 91.3434 221.209 91.1923 220.385C91.0063 219.682 90.8814 218.965 90.819 218.241C91.2192 218.856 91.4934 219.543 91.6258 220.264C91.813 220.981 92.1774 221.64 92.6856 222.179C92.9581 222.478 93.3315 222.666 93.7339 222.706C94.1364 222.746 94.5394 222.635 94.8654 222.396C95.1034 222.034 95.2648 221.627 95.3393 221.201C95.4139 220.774 95.4001 220.336 95.2989 219.915C95.2267 219.048 95.1303 218.265 95.034 217.603C94.8729 216.895 94.7802 216.173 94.757 215.447Z" fill="#EB996E"/>
<path d="M99.4777 216.146C99.6874 216.786 99.8168 217.449 99.8631 218.121C99.9753 218.891 99.8359 219.677 99.4657 220.361C99.2085 220.788 98.8068 221.108 98.3336 221.264C98.0673 221.356 97.7815 221.377 97.5047 221.324C97.2279 221.271 96.9698 221.147 96.756 220.963C96.384 220.631 96.0917 220.22 95.901 219.759C95.7083 219.361 95.5276 218.964 95.3831 218.555C95.1072 217.881 94.8778 217.189 94.6967 216.483C94.4698 215.846 94.3715 215.171 94.4076 214.496C94.7174 215.084 94.956 215.706 95.1182 216.351C95.3229 216.929 95.5878 217.555 95.913 218.326C96.1922 219.102 96.5992 219.827 97.1173 220.469C97.2631 220.57 97.4286 220.64 97.6029 220.673C97.7772 220.706 97.9566 220.702 98.1292 220.661C98.3019 220.62 98.464 220.543 98.605 220.435C98.746 220.328 98.8628 220.192 98.9478 220.036C99.2767 219.458 99.4276 218.796 99.3814 218.133C99.2866 217.471 99.3193 216.796 99.4777 216.146Z" fill="#EB996E"/>
<path d="M104.512 214.026C104.343 214.026 104.078 213.508 103.909 212.822C103.741 212.135 103.741 211.485 103.909 211.437C104.078 211.389 104.355 211.955 104.524 212.641C104.692 213.328 104.692 214.026 104.512 214.026Z" fill="#EB996E"/>
<path d="M89.2653 286.284C89.179 286.072 89.1223 285.849 89.0967 285.621C89.0124 285.116 88.9041 284.477 88.7595 283.707C88.4826 282.057 88.0972 279.648 87.6998 276.662C86.5163 268.879 86.3705 260.974 87.2662 253.154C87.8149 248.848 88.8201 244.614 90.2649 240.521C91.5655 236.751 92.9746 233.44 94.1668 230.682C95.359 227.924 96.3345 225.78 97.0571 224.167C97.3823 223.456 97.6352 222.866 97.8519 222.408C97.9357 222.198 98.0406 221.996 98.165 221.806C98.1278 222.03 98.0631 222.248 97.9724 222.456C97.7917 222.926 97.5629 223.528 97.2739 224.263C96.6115 225.901 95.6963 228.129 94.5763 230.85C93.4563 233.572 92.0834 236.944 90.8189 240.713C89.4009 244.768 88.4002 248.956 87.8322 253.214C86.9627 260.987 87.0477 268.837 88.0851 276.589C88.4464 279.504 88.7355 281.9 88.9522 283.646C89.0486 284.429 89.1208 285.067 89.181 285.573C89.235 285.806 89.2633 286.045 89.2653 286.284Z" fill="#263238"/>
<path d="M397.563 357.818L402.381 366.742C402.381 366.742 419.06 344.246 417.169 311.742C415.616 284.802 394.505 268.388 385.496 255.598C375.525 241.508 377.307 221.806 381.811 207.029C386.315 192.253 395.01 162.687 392.746 145.382H390.217C390.217 145.382 392.445 157.918 382.161 192.951C371.876 227.984 374.766 247.927 382.799 258.212C390.831 268.496 406.535 284.706 409.799 295.942C413.002 306.925 419.771 318.029 413.665 335.383C407.559 352.736 397.13 359.914 397.13 359.914" fill="#455A64"/>
<path d="M445.94 331.071L452.708 338.008C459.221 320.724 459.704 301.746 454.081 284.152C446.241 259.97 421.926 250.215 410.209 240.798C397.238 230.429 394.336 212.015 395.215 197.443C396.094 182.871 397.551 153.716 391.289 138.433L388.82 139.071C388.82 139.071 393.926 149.91 392.204 184.473C390.482 219.036 397.973 236.45 408.173 243.833C418.374 251.215 437.401 262.09 443.194 271.531C448.987 280.973 458.043 289.198 456.212 306.54C454.382 323.882 445.964 333.034 445.964 333.034" fill="#E0E0E0"/>
<path d="M340.191 0L267.211 109.891C267.211 109.891 334.519 98.535 392.096 146.791C392.096 146.791 409.534 77.0384 472.783 58.396L340.191 0Z" fill="url(#paint5_linear_2_2312)"/>
<path d="M436.582 42.439C436.435 42.5117 436.282 42.5721 436.125 42.6196L434.788 43.0772L432.608 43.7998C431.765 44.1129 430.802 44.5224 429.706 45.0041C423.542 47.567 417.807 51.0599 412.701 55.361C405.128 61.8002 398.731 69.5057 393.794 78.1341C390.819 83.2112 388.231 88.5049 386.05 93.9705C383.671 99.8252 381.782 105.867 380.402 112.035L380.282 112.577L379.872 112.191L377.091 109.602C367.578 101.206 356.539 94.717 344.575 90.4901C334.831 86.9615 324.738 84.4867 314.468 83.1078C307.558 82.1374 300.597 81.5864 293.621 81.4579C291.213 81.4579 289.238 81.4579 287.937 81.4579H286.456C286.288 81.474 286.118 81.474 285.95 81.4579C286.118 81.4402 286.288 81.4402 286.456 81.4579L287.937 81.3616C289.238 81.2893 291.152 81.2291 293.633 81.2291C300.622 81.2584 307.602 81.7411 314.528 82.6743C324.826 83.9909 334.952 86.4135 344.731 89.9C356.774 94.121 367.883 100.64 377.44 109.096L380.21 111.698L379.68 111.866C382.406 99.8713 386.963 88.3678 393.192 77.7608C398.177 69.0723 404.65 61.3273 412.316 54.8793C417.476 50.589 423.274 47.1312 429.501 44.6308C430.609 44.2093 431.585 43.8239 432.44 43.5228L434.644 42.8484L436.004 42.451L436.582 42.439Z" fill="white"/>
<g opacity="0.4">
<path opacity="0.4" d="M340.191 0L299.161 61.7801C299.161 61.7801 334.085 55.9513 369.997 81.5063C369.997 81.5063 377.067 47.6899 412.762 31.9618L340.191 0Z" fill="white"/>
</g>
<path d="M279.049 101.775C278.905 101.678 292.2 81.0007 308.747 55.5902C325.294 30.1796 338.854 9.63446 338.975 9.73081C339.095 9.82715 325.824 30.5048 309.277 55.9274C292.73 81.3499 279.194 101.871 279.049 101.775Z" fill="#263238"/>
<path d="M392.096 146.791C391.939 146.791 380.812 115.022 367.276 75.7378C353.739 36.4539 342.865 4.47998 343.033 4.47998C343.202 4.47998 354.317 36.2371 367.866 75.5331C381.414 114.829 392.264 146.731 392.096 146.791Z" fill="#263238"/>
<path d="M456.971 55.7588C456.899 55.9154 431.344 44.5589 399.876 30.3965C368.408 16.234 342.961 4.61263 343.033 4.48016C343.105 4.34768 368.661 15.656 400.141 29.7702C431.621 43.8845 457.043 55.6023 456.971 55.7588Z" fill="#263238"/>
<path d="M384.401 124.451C384.28 124.583 376.525 117.767 367.071 109.229C357.617 100.69 350.042 93.6573 350.151 93.573C350.259 93.4887 358.027 100.257 367.492 108.795C376.958 117.334 384.509 124.319 384.401 124.451Z" fill="#263238"/>
<path d="M480.286 304.348C480.286 304.348 480.407 304.18 480.683 303.867C481.073 303.412 481.439 302.938 481.779 302.445C483.094 300.545 484.023 298.405 484.513 296.147C485.32 292.558 485.167 288.819 484.068 285.308C482.589 280.699 480.038 276.506 476.625 273.073C470.249 266.456 461.809 262.208 452.696 261.03C449.259 260.632 445.788 260.632 442.351 261.03C435.282 261.692 427.972 263.619 420.132 263.728C412.019 263.745 404.101 261.244 397.47 256.569C390.839 251.895 385.822 245.277 383.112 237.631C380.847 230.442 380.225 222.836 381.293 215.375C382.213 208.67 383.606 202.038 385.46 195.529C387.086 189.399 388.7 183.715 389.88 178.464C391.004 173.751 391.773 168.961 392.18 164.133C392.478 160.485 392.389 156.815 391.915 153.186C391.61 150.896 391.127 148.633 390.47 146.418C390.241 145.683 390.049 145.117 389.928 144.696C389.808 144.274 389.76 144.105 389.76 144.105C389.76 144.105 389.844 144.298 389.988 144.684L390.591 146.382C391.301 148.591 391.829 150.854 392.168 153.15C392.673 156.796 392.794 160.485 392.53 164.157C392.163 169.024 391.422 173.855 390.314 178.608C389.109 183.883 387.568 189.579 385.954 195.709C384.139 202.204 382.771 208.815 381.859 215.496C380.828 222.867 381.454 230.375 383.69 237.474C386.364 245.012 391.309 251.535 397.844 256.146C404.379 260.757 412.182 263.229 420.18 263.222C427.912 263.125 435.234 261.223 442.363 260.56C445.842 260.182 449.354 260.202 452.828 260.62C462.049 261.846 470.578 266.174 477.01 272.892C480.446 276.394 483.001 280.662 484.465 285.345C485.541 288.895 485.662 292.667 484.814 296.279C484.288 298.556 483.314 300.706 481.948 302.602C481.454 303.238 480.897 303.823 480.286 304.348Z" fill="#263238"/>
<path d="M343.033 4.47998C343.033 4.47998 343.106 4.85331 343.226 5.58792C343.346 6.32254 343.515 7.4064 343.744 8.81542C344.189 11.6696 344.828 15.8605 345.61 21.2798C347.128 32.1184 349.452 47.7742 350.428 67.368C350.957 78.0363 350.817 88.7273 350.006 99.378C349.017 111.599 347.264 123.746 344.755 135.748C344.418 137.353 344.081 138.959 343.744 140.565C343.563 141.372 343.419 142.178 343.214 142.973C343.009 143.768 342.744 144.575 342.491 145.382C341.432 148.537 340.239 151.668 339.023 154.836L335.266 164.386C334.615 165.987 333.965 167.589 333.315 169.203L332.327 171.611L331.821 172.816L331.243 174.02C328.233 180.534 324.684 186.786 320.634 192.71C316.493 198.856 311.493 204.376 305.785 209.101L303.629 210.799L301.329 212.388L300.185 213.183L298.98 213.906L296.572 215.327C293.333 217.084 289.948 218.559 286.456 219.735C279.621 221.97 272.524 223.31 265.345 223.721C261.847 223.925 258.341 223.925 254.843 223.721C251.419 223.511 248.01 223.109 244.631 222.517C238.065 221.404 231.615 219.691 225.362 217.398C222.319 216.298 219.349 215.094 216.45 213.785C213.572 212.579 210.784 211.171 208.105 209.57C202.818 206.427 197.953 203.007 193.015 200.069C188.306 197.158 183.295 194.768 178.07 192.939C173.241 191.289 168.199 190.348 163.1 190.145C154.311 189.712 145.524 191.06 137.268 194.107C131.042 196.417 125.172 199.591 119.83 203.537C116.447 206.017 113.28 208.781 110.365 211.798C109.353 212.822 108.643 213.653 108.149 214.207L107.426 215.05C107.426 215.05 107.631 214.737 108.101 214.159C108.57 213.581 109.305 212.75 110.268 211.75C113.155 208.692 116.307 205.896 119.686 203.392C125.024 199.39 130.903 196.167 137.148 193.818C145.445 190.729 154.28 189.344 163.125 189.748C168.266 189.941 173.353 190.878 178.226 192.53C183.489 194.357 188.536 196.751 193.28 199.671C198.242 202.61 203.131 206.03 208.382 209.137C211.041 210.733 213.814 212.129 216.679 213.316C219.558 214.592 222.52 215.724 225.555 216.844C231.767 219.11 238.172 220.807 244.691 221.914C248.051 222.5 251.44 222.902 254.843 223.119C258.314 223.303 261.792 223.283 265.26 223.058C272.392 222.647 279.44 221.311 286.227 219.084C289.682 217.932 293.027 216.473 296.223 214.725L298.631 213.316L299.835 212.617L300.98 211.822L303.256 210.245L305.435 208.511C311.078 203.848 316.029 198.406 320.14 192.349C324.168 186.449 327.7 180.226 330.701 173.743L331.267 172.539L331.773 171.334L332.761 168.926C333.411 167.3 334.061 165.698 334.712 164.109C335.972 160.897 337.229 157.718 338.481 154.571C339.685 151.415 340.89 148.284 341.949 145.153C342.202 144.37 342.467 143.587 342.66 142.805C342.853 142.022 343.009 141.203 343.19 140.396C343.527 138.79 343.864 137.185 344.201 135.579C346.724 123.606 348.493 111.488 349.5 99.2937C350.331 88.6645 350.5 77.994 350.006 67.3439C349.067 47.8344 346.815 32.1786 345.37 21.34C344.611 15.9328 344.021 11.7057 343.623 8.86359C343.419 7.44253 343.274 6.35867 343.166 5.61201C343.057 4.86535 343.033 4.47998 343.033 4.47998Z" fill="#263238"/>
<defs>
<linearGradient id="paint0_linear_2_2312" x1="53.414" y1="230.703" x2="39.8599" y2="253.062" gradientUnits="userSpaceOnUse">
<stop stop-color="#5AD4FA"/>
<stop offset="1" stop-color="#2BB3DD"/>
</linearGradient>
<linearGradient id="paint1_linear_2_2312" x1="180.838" y1="-172.328" x2="73.2298" y2="-165.186" gradientUnits="userSpaceOnUse">
<stop stop-color="#5AD4FA"/>
<stop offset="1" stop-color="#2BB3DD"/>
</linearGradient>
<linearGradient id="paint2_linear_2_2312" x1="161.766" y1="95.3185" x2="106.549" y2="99.9831" gradientUnits="userSpaceOnUse">
<stop stop-color="#5AD4FA"/>
<stop offset="1" stop-color="#2BB3DD"/>
</linearGradient>
<linearGradient id="paint3_linear_2_2312" x1="243.986" y1="473.589" x2="257.88" y2="545.601" gradientUnits="userSpaceOnUse">
<stop stop-color="#F8C1C5"/>
<stop offset="1" stop-color="#E96F9B"/>
</linearGradient>
<linearGradient id="paint4_linear_2_2312" x1="126.953" y1="525.01" x2="121.47" y2="557.968" gradientUnits="userSpaceOnUse">
<stop stop-color="#F8C1C5"/>
<stop offset="1" stop-color="#E96F9B"/>
</linearGradient>
<linearGradient id="paint5_linear_2_2312" x1="459.114" y1="-63.43" x2="282.03" y2="154.551" gradientUnits="userSpaceOnUse">
<stop stop-color="#F8C1C5"/>
<stop offset="1" stop-color="#E96F9B"/>
</linearGradient>
</defs>
</svg>
