<svg width="590" height="614" fill="none" xmlns="http://www.w3.org/2000/svg"><g filter="url(#a)"><path d="M211.27 81.45c.71-5.16-6.56-9.4-12.04-9.83-2.61-.22-5.31.18-7.78-.67-5.35-1.87-7.49-8.77-12.7-10.97-3.9-1.65-8.44-.19-12.18 1.72-3.75 1.9-7.51 4.3-11.74 4.56-3.68.24-7.66-1.12-10.84.68-2.4 1.33-3.61 4.1-5.87 5.72-2.25 1.62-4.97 1.94-7.66 2.08-2.68.14-5.45.17-7.9 1.29-2.44 1.12-4.45 3.7-3.95 6.33l92.66-.91ZM549.2 143.36c.7-5.15-6.57-9.4-12.05-9.83-2.6-.21-5.3.18-7.78-.67-5.34-1.87-7.48-8.78-12.7-10.97-3.9-1.65-8.43-.18-12.18 1.72-3.74 1.9-7.51 4.3-11.74 4.56-3.67.25-7.66-1.12-10.84.68-2.4 1.34-3.61 4.1-5.86 5.72-2.25 1.63-4.98 1.93-7.66 2.08-2.69.16-5.46.17-7.89 1.3-2.43 1.11-4.47 3.69-3.96 6.33l92.66-.92Z" fill="#F5F5F5"/><path d="M344.55 197.77c1.04-7.53-9.63-13.73-17.58-14.37-3.8-.31-7.77.28-11.38-.99-7.82-2.72-10.94-12.82-18.57-16.04-5.71-2.4-12.27-.26-17.8 2.52-5.53 2.78-11 6.29-17.17 6.69-5.38.33-11.22-1.66-15.93.97-3.49 1.95-5.33 6.02-8.56 8.37-3.22 2.35-7.22 2.83-11.2 3.04-3.97.2-7.98.25-11.55 1.89-3.56 1.63-6.52 5.4-5.78 9.26l135.52-1.34Z" fill="#EBEBEB"/><path d="M148.72 152.5c.9-6.55-8.34-11.95-15.3-12.5-3.3-.28-6.75.24-9.9-.85-6.78-2.41-9.5-11.17-16.14-13.96-4.96-2.1-10.68-.23-15.49 2.19-4.8 2.42-9.56 5.49-14.94 5.85-4.68.3-9.75-1.43-13.84.86-3.05 1.7-4.65 5.21-7.46 7.22-2.8 2.01-6.33 2.41-9.74 2.64-3.4.23-6.93.22-10.04 1.64-3.1 1.42-5.72 4.74-5.04 8.12l117.9-1.21Z" fill="#F5F5F5"/><path d="m396.42 457.7-26.46 114.88 11.18-.04 26.53-113.76-11.25-1.09ZM444.69 457.7l26.55 114.88h10.63l-25.7-114.89H444.7ZM378.56 371.4l15.07 79.1h17.1l-16.08-79.1h-16.09ZM116.16 457.7 94.58 572.57h10.98L128.1 457.7h-11.94ZM161.54 457.7l24.67 114.25h10.85L173.24 457.7h-11.7ZM98.29 371.4l15.06 79.1h17.13l-16.1-79.1h-16.1Z" fill="#E0E0E0"/><path d="m64.4 364.21 3.08 14.38h343.76l-4-14.38H64.4ZM70.96 392.14l3.64 14.38h341.45l-3.1-14.38H70.95ZM77.75 421.06l3.38 14.38h340.4l-3.23-14.38H77.75ZM470.82 450.5H103.77v14.38h367.05V450.5ZM58.98 509.7a12.48 12.48 0 0 1 7.75 5.9 21.91 21.91 0 0 1 2.8 9.53c.54 6.45-1.76 13.51-4.6 19.27-6.24-3.61-9.07-11.4-10.26-15.45-1.88-6.43-1.39-19.17 4.3-19.27M73.18 553.6a10.62 10.62 0 0 1 1.37-10.57 14.14 14.14 0 0 1 9.56-5.23 5.92 5.92 0 0 1 4.82 1.12 4.53 4.53 0 0 1 .97 4.5 9.27 9.27 0 0 1-2.68 3.96c-4.01 3.8-8.6 6.74-14.1 6.22" fill="#EBEBEB"/><path d="M69.82 569.43a21.47 21.47 0 0 1-.11-4.28c.06-1.56.3-3.1.73-4.6a42.12 42.12 0 0 1 1.76-5.43 21.2 21.2 0 0 1 6.02-8.36c.83-.65 1.72-1.22 2.65-1.7.34-.2.7-.33 1.09-.4 0 .11-1.45.78-3.41 2.49a22.77 22.77 0 0 0-5.72 8.26 51.81 51.81 0 0 0-1.74 5.35 22.24 22.24 0 0 0-.86 4.46c-.05 1.41-.18 2.81-.41 4.2ZM59.46 519.44c.27.67.48 1.36.63 2.07a498.45 498.45 0 0 1 5.76 24.64 413.73 413.73 0 0 1 3.52 19.1c.39 2.4.68 4.44.86 5.81.12.72.19 1.44.19 2.16-.22-.69-.38-1.4-.48-2.1l-1.07-5.79c-.9-4.89-2.2-11.62-3.74-19.04s-3-14-4.08-18.97c-.5-2.33-.92-4.26-1.2-5.75-.2-.7-.32-1.41-.39-2.13Z" fill="#E0E0E0"/><path d="M65.65 557.62a24.82 24.82 0 0 0-18.8-12.7c-1.99-.22-4.4 0-5.36 1.78-.95 1.78.15 3.93 1.45 5.46a21.24 21.24 0 0 0 22.77 6.02" fill="#EBEBEB"/><path d="M49.95 549.92c.38-.01.76.04 1.13.15.7.15 1.73.41 2.99.79 3.3.93 6.4 2.47 9.15 4.54a17.64 17.64 0 0 1 3.8 4.15 17.31 17.31 0 0 1 2.52 7.23c.06.37.06.75 0 1.13-.14 0-.31-1.6-1.13-4.02a18.6 18.6 0 0 0-1.98-4.01 17.97 17.97 0 0 0-3.67-3.94c-2.69-2-5.67-3.56-8.85-4.63-1.35-.4-2.67-.86-3.96-1.4ZM107.44 45.4s-.43-.13-1.2-.29a9.87 9.87 0 0 0-3.36-.08c-1.66.23-3.22.9-4.5 1.96a9.38 9.38 0 0 0-3.2 5.06l-.2.75-.28-.71a10.18 10.18 0 0 0-3.8-4.6 9.82 9.82 0 0 0-4.64-1.58c-1.54-.08-3.09.11-4.56.58a9.54 9.54 0 0 1 4.62-.93c1.72.09 3.38.62 4.83 1.54 1.8 1.15 3.2 2.84 4 4.82h-.48a9.43 9.43 0 0 1 11.56-7c.43.08.84.24 1.2.47ZM270.86 124.63c-.35.45-.72.88-1.12 1.3a27.15 27.15 0 0 0-6.8 18.16v.17h-.5c-.77-5-3.09-9.63-6.63-13.24a32.48 32.48 0 0 0-4.82-3.93c.14.04.27.1.4.18.24.15.62.33 1.08.63 1.3.82 2.52 1.78 3.61 2.86a23.96 23.96 0 0 1 6.9 13.42h-.51v-.1a26.6 26.6 0 0 1 4.26-14.63 24.2 24.2 0 0 1 2.9-3.61c.36-.41.7-.68.9-.88.1-.13.2-.23.33-.33Z" fill="#E0E0E0"/><path d="M538.2 572.58c0 .17-112.1.31-250.32.31-138.23 0-250.35-.1-250.35-.3 0-.23 112.07-.32 250.35-.32 138.27 0 250.32.13 250.32.31ZM235.21 98.21s-.86-.3-2.48-.65c-2.27-.5-4.62-.6-6.93-.28a18.65 18.65 0 0 0-9.34 4.04 19.27 19.27 0 0 0-6.6 10.46v.12l-.19.75-.29-.71a20.85 20.85 0 0 0-7.9-9.53 20.09 20.09 0 0 0-9.63-3.21c-2.32-.17-4.64.04-6.9.62-1.58.43-2.4.8-2.4.75a15 15 0 0 1 2.4-.94c2.26-.66 4.62-.92 6.97-.8 3.5.2 6.9 1.3 9.86 3.19a21.05 21.05 0 0 1 8.12 9.74h-.48v-.12c1.02-4.22 3.4-8 6.8-10.72a19.19 19.19 0 0 1 18.43-3.03c.2.09.39.2.56.32ZM304.52 60.18s-.48-.13-1.37-.31c-1.25-.26-2.53-.3-3.8-.12a10.56 10.56 0 0 0-8.7 7.92l-.18.76-.3-.71a11.38 11.38 0 0 0-4.3-5.2 10.9 10.9 0 0 0-5.23-1.71c-1.26-.11-2.54-.01-3.77.3-.88.21-1.35.4-1.36.37-.01-.04.1-.08.32-.18a10.84 10.84 0 0 1 4.83-.86c1.96.1 3.85.69 5.5 1.74a11.63 11.63 0 0 1 4.5 5.4h-.47v-.07c.56-2.35 1.9-4.44 3.78-5.95a10.53 10.53 0 0 1 10.21-1.6c.25.15.35.2.34.22ZM259.22 44.62l-1.34 1.5a32.46 32.46 0 0 0-8.08 21.49v.22h-.5a28.35 28.35 0 0 0-7.95-15.68 29.98 29.98 0 0 0-4.06-3.47c-.57-.35-1.12-.72-1.64-1.13.15.04.3.1.43.18.3.17.75.38 1.29.74a28.02 28.02 0 0 1 12.4 19.27h-.5v-.21a31.43 31.43 0 0 1 8.44-21.63c.43-.49.83-.81 1.07-1.05.14-.1.28-.17.44-.23Z" fill="#263238"/><path d="m406.38 470.84 14.25 101.5 3.7.12c-2.35-34.48-4.87-69.63-17.95-101.62ZM445.96 466.08c-9.95 10.92-13.95 25.92-16.48 40.47-3.62 20.63-3.9 45-2.83 65.91l5.2.12a286.35 286.35 0 0 1 14.11-106.5ZM409 530.89c-1.15-5.02-2.42-10.14-5.33-14.45-3.88-5.78-10.19-9.45-16.55-12.3-6.36-2.85-13.04-5.12-18.78-9.07 6.4 10.52 20.95 13.25 28.36 23.14 3.68 4.89 5.21 11.02 6.66 16.97 3.14 12.98 5.08 24.2 8.24 37.17h4.21a333.56 333.56 0 0 0-6.82-41.46ZM435.66 572.46s3.6-40.3 6.21-47.71c2.6-7.41 27.7-27.85 27.42-26.9-.28.96-18.76 23.34-21.41 27.98-2.65 4.64-7.23 46.69-7.23 46.69l-5-.06Z" fill="#455A64"/><path d="M124.37 260.03c-.23.66 1.99 45.95 5.16 50.38 3.16 4.43 35.14 18.86 35.14 18.86l8.55-16.6-27.87-14.93-8.54-40.47-12.44 2.76Z" fill="#FFBE9D"/><path d="m180.08 311.33-22.9-7.27L152 324.2l14.9 7.51 13.17-20.38Z" fill="url(#b)"/><path d="M172 443.61c-.48.71-17.45 30.35-19.12 35.37-1.68 5.02-2.63 83.41-2.63 83.41l19.11-1.2s8.13-37.08 8.43-48.8c.3-11.72 0-23.42 0-23.42l26.78-36.13L172 443.6ZM212.06 456.74s9.56 35.14 14.1 39.44c4.54 4.3 65.73 31.55 65.73 30.59 0-.96 5.78-17.28 5.78-17.28s-35.42-25.5-38.7-27.41c-3.3-1.92-13.39-6.46-13.39-6.46l-3.83-24.61-29.7 5.73Z" fill="#FFBE9D"/><path d="M189.6 418.96c0 .72 22.7 64.32 22.7 64.32l39.68-16.46s-7.12-25.87-9.8-33.64c-3.2-9.34-4.47-21.67-8.03-25.29a38.6 38.6 0 0 1-5.6-7.14l-38.95 18.21Z" fill="#455A64"/><path d="M175.77 418.75c.24.6-21.88 47.66-21.88 47.66l40.13 12.84 11.56-22.11-6.42-31.94-23.39-6.45Z" fill="#455A64"/><path d="M251.98 466.82c-.25.16-.5.29-.78.38l-2.3 1-8.42 3.53-28.26 11.53-.3.13-.12-.31c-.18-.57-.38-1.2-.59-1.76l-10.17-30.1-3.01-9.15-.8-2.5c-.1-.28-.18-.58-.23-.88l.35.84.9 2.4 3.2 9.09 10.35 30.03.6 1.76-.42-.19 28.34-11.36 8.55-3.34 2.34-.88c.25-.1.5-.17.77-.22ZM236.42 427.56a8.2 8.2 0 0 1-2.94 1.32 15.83 15.83 0 0 1-14.75-3.19 8.43 8.43 0 0 1-2.13-2.4c.08-.08.86.87 2.4 2.07a16.84 16.84 0 0 0 14.36 3.1c1.91-.45 3.01-1 3.06-.9ZM178.28 428.08a8.21 8.21 0 0 1-7.8 3.51c1.4-.31 2.77-.71 4.12-1.2 1.27-.7 2.5-1.47 3.68-2.31ZM166.23 242.35c2.72-8.14 12.36-9.28 19.92-9.63a28.76 28.76 0 0 1 20.8 7.62c10.15 9.53 12.4 25.5 23 34.54 3.2 2.72 7.06 4.72 9.64 8 3.23 4.1 4.05 9.64 4.4 14.81.33 5.17.32 10.6 2.3 15.44 1.97 4.84 6.58 9.1 11.8 8.7 1.29-.22 2.6-.33 3.9-.3 1.32.15 2.68 1.09 2.7 2.4a3.48 3.48 0 0 1-1.36 2.41 17.62 17.62 0 0 1-7.3 4.13 4.56 4.56 0 0 0-2.79 1.44 2.76 2.76 0 0 0 .95 3.55 8.08 8.08 0 0 0 3.83 1.2c-10.05 6.37-23.54 8.73-33.85 2.78-7.15-4.12-11.72-11.46-17.42-17.45-11.34-11.9-35.45-7.95-45.57-20.88-11.01-14.05-13.57-54.82 5.02-58.7" fill="#263238"/><path d="M158.5 258.8c.41-8.93 9.86-18.06 18.78-17.2l28.9 4.98v4.82l-.78 59.47s-2.15 19.2-18.34 18.38c-14.55-.73-14.01-16.1-14.01-16.1l.25-11.22s-11.74-.27-14.37-15.1c-1.27-7.38-.89-18.1-.43-28.03Z" fill="#FFBE9D"/><path d="M165.03 271.48a1.91 1.91 0 0 0 1.88 1.9 1.82 1.82 0 0 0 1.94-1.76 1.91 1.91 0 0 0-1.88-1.9 1.84 1.84 0 0 0-1.94 1.76ZM161.26 266.67c.24.25 1.66-.85 3.72-.88 2.06-.04 3.61.97 3.78.72.17-.25-.13-.57-.8-1.02a5.18 5.18 0 0 0-5.99.12c-.63.5-.83.95-.71 1.06ZM182.89 270.71a1.91 1.91 0 0 0 1.87 1.9 1.83 1.83 0 0 0 1.77-1.05c.1-.22.16-.46.16-.7a1.89 1.89 0 0 0-1.86-1.9 1.83 1.83 0 0 0-1.94 1.75ZM180.14 266.67c.24.25 1.68-.85 3.72-.88 2.05-.04 3.62.97 3.8.72.18-.25-.14-.57-.81-1.02a5.25 5.25 0 0 0-6.02.12c-.6.5-.8.95-.69 1.06ZM174.23 281.68c-1.1-.28-2.22-.44-3.35-.48-.53 0-1.02-.12-1.12-.42-.1-.3.07-.8.31-1.32l1.47-3.4c.56-1.2 3.24-8.21 3.25-8.88-.22-.07-2.05 3.8-4.09 8.63-.48 1.2-.95 2.33-1.4 3.42a2.28 2.28 0 0 0-.23 1.74 1.32 1.32 0 0 0 .88.64 16.5 16.5 0 0 0 4.28.07Z" fill="#263238"/><path d="M173.22 302.01c7-.01 13.86-1.97 19.82-5.66 0 0-4.9 10.48-19.81 9.34l-.01-3.68Z" fill="#EB996E"/><path d="M180.38 281.76c-.33 0-.3 2.21-2.18 3.83-1.88 1.61-4.25 1.4-4.26 1.72-.01.31.53.42 1.53.43 1.32 0 2.6-.46 3.61-1.31a4.81 4.81 0 0 0 1.69-3.2c.02-.94-.23-1.49-.39-1.47ZM179.76 259.68c.24.64 2 .13 4.14.24 2.14.11 3.93.7 4.14.09.1-.3-.26-.87-1.02-1.44a5.94 5.94 0 0 0-3.18-1.07c-1.1-.05-2.2.24-3.13.83-.72.56-1.06 1.11-.95 1.35ZM161.27 259.89c.35.56 1.85.08 3.61.15 1.76.08 3.27.56 3.62 0 .16-.27 0-.84-.68-1.4a4.56 4.56 0 0 0-2.91-1.06 4.7 4.7 0 0 0-2.97.93c-.53.53-.83 1.09-.67 1.38Z" fill="#263238"/><path d="M212.4 256.13h-.63a24.3 24.3 0 0 0-1.81-10.84c-2.7-6.02-8.53-10.05-14.66-11.56-6.13-1.5-12.53-.82-18.7.5-2.9.6-6.28 1.86-7 4.93a7.77 7.77 0 0 0 .7 4.72 21.18 21.18 0 0 0 16.4 12.96c1.63.01 3.24.43 4.67 1.2a9.8 9.8 0 0 1 3.36 5.2c.22.91.39 1.84.49 2.78.31 2.67.1 5.43.9 8.02.95 3.2 3.98 5.7 4.11 9.05.23 5.34-6.89 8.8-6.77 14.14 0 2.34 1.5 4.36 2.7 6.36 1.2 2 2.18 4.47 1.2 6.61a30.34 30.34 0 0 1-2 3.01c-1.97 3.4.37 8.17 4.05 9.53 3.69 1.36 7.97-.12 10.84-2.83s4.5-6.42 5.78-10.14a70.34 70.34 0 0 0-3.64-53.64Z" fill="#263238"/><path d="M264.6 310.4s0 .12-.09.3c-.08.28-.2.56-.36.81-.58 1-1.45 1.8-2.5 2.3-1.67.82-3.56 1.01-5.36.56a9.82 9.82 0 0 1-5.55-4.43 19.09 19.09 0 0 1-2.6-8.28c-.39-3.1-.35-6.44-.97-9.85-.29-1.74-.82-3.43-1.59-5.02a11.67 11.67 0 0 0-3.44-4.17c-2.98-2.29-6.84-3.38-10.32-5.55a16.47 16.47 0 0 1-4.42-4.13 24.69 24.69 0 0 1-2.8-5.14c-1.47-3.61-2.34-7.13-3.5-10.42a35.2 35.2 0 0 0-1.94-4.66 23.5 23.5 0 0 0-2.67-3.93 50.48 50.48 0 0 0-16.7-12.67 28.22 28.22 0 0 0-3.15-1.2l-.84-.26-.28-.11c1.5.29 2.98.76 4.37 1.4a47.9 47.9 0 0 1 10.7 6.51 45.7 45.7 0 0 1 6.3 6.02 23.06 23.06 0 0 1 2.77 4 36.56 36.56 0 0 1 2 4.75c1.2 3.3 2.06 6.86 3.5 10.35a23.92 23.92 0 0 0 2.74 5.01 15.58 15.58 0 0 0 4.25 3.98c3.36 2.1 7.23 3.21 10.36 5.6a12.15 12.15 0 0 1 3.62 4.38 19.25 19.25 0 0 1 1.62 5.18c.6 3.49.54 6.83.9 9.9.18 2.84 1 5.61 2.41 8.09a9.53 9.53 0 0 0 5.28 4.34c1.71.46 3.54.3 5.15-.44a5.73 5.73 0 0 0 2.5-2.14c.48-.68.56-1.09.6-1.07Z" fill="#263238"/><path d="M222.3 383.15c-2.85-8.9-7.6-33.8-8.43-44.23-.83-10.41-7.58-35.23-16.8-34.76h-.27c-23.56.89-32.04 17.06-34.02 36.44l.08 12.86c-.08 17.84 4.23 45.22 4.82 54.71.3 5.7 1.32 11.32 3.07 16.75 0 0 20.28 3.22 30.51-1.2 10.24-4.42 18.31-3.36 24.19-7.89a79.83 79.83 0 0 0 10.58-10.08s-10.87-13.7-13.73-22.6Z" fill="url(#c)"/><path opacity=".3" d="M201.25 329.53c-13.34 12.04-18.6 32.04-33.92 41.51l-3.61 2.12a13.24 13.24 0 0 0 16.31 4.43c3.68-1.81 6.25-5.23 8.66-8.55 4.25-5.83 8.5-11.75 11.2-18.45 2.7-6.7 3.68-14.3 1.36-21.06Z" fill="#000"/><path d="M198.97 305.06c-.53 0-14.38 0-19.81 7.4-4.82 6.5-13.78 29.21-13.78 29.21l29.2 12.46s6.76-13.54 9.64-22.42c3.12-10.06.8-26.48-5.25-26.65Z" fill="url(#d)"/><path d="m138.11 342.46 25.4 10.84 6.44-9.63 21.44 9.15s-9.14 22.13-19.14 23.79c-10 1.66-43.29-25.4-43.29-25.4l9.15-8.75Z" fill="#FFBE9D"/><path d="M132.51 325.64a3.13 3.13 0 0 0-4.2 3.2s-4.2-.68-4.2 3.35c0 0-3.86.5-3.18 4.04a4.69 4.69 0 0 0-1.69 5.54c1.35 3.53 9.76 9.44 9.76 9.44l9.15-8.75s-.27-7.92-.77-8.92-4.87-7.9-4.87-7.9Z" fill="#FFBE9D"/><path d="M205.2 329.27s0 .16-.16.48c-.16.31-.32.82-.53 1.38-.52 1.2-1.2 2.98-2.11 5.14l-7.55 17.99-.11.26-.27-.12-17.05-7.23-12.15-5.2-.28-.1.11-.28c3.52-8.71 6.8-16.1 9.4-21.25a78.56 78.56 0 0 1 3.25-5.89 15.74 15.74 0 0 1 1.4-1.97s-.45.72-1.2 2.08-1.83 3.37-3.08 5.95c-2.5 5.17-5.71 12.59-9.2 21.3l-.15-.4 12.16 5.19 17.05 7.3-.39.15 7.77-17.9 2.25-5.07.61-1.34c.06-.17.13-.33.22-.47ZM206.2 323c-.2-1.34-.34-2.69-.38-4.04a17.96 17.96 0 0 0-2.97-9.07 9.2 9.2 0 0 0-4.06-3.18 10.74 10.74 0 0 0-4.23-.7c-1.34.1-2.67.31-3.98.62.3-.22.64-.38 1-.46a11.43 11.43 0 0 1 7.4 0 9.5 9.5 0 0 1 4.38 3.35 14 14 0 0 1 2.28 4.98c.35 1.45.55 2.93.62 4.42v2.99c.03.36.01.73-.06 1.1ZM171.48 315.4c.09.06-1.02 1.67-2.5 4.42a51.52 51.52 0 0 0-6.1 23.44c-.06 3.13.14 5.07 0 5.08-.13-.44-.2-.89-.22-1.35a32.58 32.58 0 0 1-.25-3.73 46.14 46.14 0 0 1 8.25-26.8c.23-.38.5-.74.82-1.06Z" fill="#263238"/><path d="m286.77 525.83 1.1.63s-3.03 22.7.37 24.88l20.57-36.85-12.51-6.38a24.09 24.09 0 0 1-9.53 17.72Z" fill="url(#e)"/><path opacity=".6" d="M298.1 514.04a1.74 1.74 0 0 1 2.3-.08 1.66 1.66 0 0 1 .11 2.27 1.8 1.8 0 0 1-2.4.07 1.7 1.7 0 0 1 .15-2.4M308.8 514.46l-3-1.53-18.62 35.89s-.2 2.03 1.06 2.5l20.57-36.86Z" fill="#fff"/><path d="M287.87 526.61c.18.1.77-.76 1.84-1.32 1.07-.57 2.1-.6 2.12-.82.02-.22-1.2-.5-2.41.2-1.2.69-1.71 1.9-1.55 1.94ZM287.34 531.37c.14.14.89-.47 1.98-.65 1.1-.18 2.01.08 2.11-.1.1-.18-.87-.86-2.23-.61-1.36.25-2.03 1.26-1.86 1.36ZM290.73 536.15c.13-.14-.62-.89-1.87-.99-1.24-.1-2.1.55-2 .7.12.16.93-.07 1.94 0 1.02.07 1.81.46 1.93.3Z" fill="#263238"/><path d="M288.2 525.71s-.35-.26-.78-.9c-.59-.89-1-1.9-1.2-2.94a3.82 3.82 0 0 1 0-1.12 1.55 1.55 0 0 1 .63-1.13 1.46 1.46 0 0 1 1.42-.08c.44.23.8.59 1.02 1.03a4.94 4.94 0 0 1-1.09 5.62 7.86 7.86 0 0 1-5.46 2.04c-.26 0-.51-.05-.75-.15a.95.95 0 0 1-.57-.62 1.29 1.29 0 0 1 .56-1.34c.66-.38 1.4-.63 2.15-.75a7.98 7.98 0 0 1 3.2.12c.39.07.76.22 1.09.44a10.5 10.5 0 0 0-4.2-.11c-.68.12-1.34.37-1.93.72a.75.75 0 0 0-.34.76c0 .24.39.36.8.35a7.44 7.44 0 0 0 5-1.9 4.4 4.4 0 0 0 1.03-4.9 1.78 1.78 0 0 0-.73-.81.95.95 0 0 0-.9 0c-.51.32-.54 1.2-.44 1.74.26 1.39.77 2.72 1.48 3.93Z" fill="#263238"/><path d="M150.18 558.53v1.2s-21.44 8.06-21.76 12.04l42.2.73-.33-14.06a24.1 24.1 0 0 1-20.11.09Z" fill="url(#f)"/><path opacity=".6" d="M165.9 562.96a1.74 1.74 0 0 1 1.21 1.99 1.68 1.68 0 0 1-1.96 1.2 1.84 1.84 0 0 1-1.2-2.12 1.71 1.71 0 0 1 2.17-.98M170.6 572.6l-.1-3.4-40.4.55s-1.9.8-1.72 2.12l42.21.72Z" fill="#fff"/><path d="M150 559.9c0 .2 1.02.31 2.03 1 1.02.69 1.52 1.55 1.71 1.47.2-.09-.1-1.28-1.32-2.07-1.23-.8-2.47-.6-2.42-.4ZM145.53 561.65c0 .2.84.56 1.53 1.45.69.9.87 1.8 1.07 1.8.2-.01.36-1.2-.52-2.24-.88-1.04-2.07-1.2-2.08-1.01ZM142.93 566.9c.2 0 .5-.97 0-2.11s-1.47-1.6-1.57-1.43c-.1.16.51.78.9 1.72.4.94.47 1.8.67 1.83Z" fill="#263238"/><path d="M150.94 559.73c.06-.4.2-.77.42-1.1.5-.95 1.19-1.79 2.01-2.48.28-.25.61-.44.96-.57a1.57 1.57 0 0 1 1.3 0 1.46 1.46 0 0 1 .74 1.2c0 .5-.15.98-.43 1.38a4.95 4.95 0 0 1-5.47 1.7 7.8 7.8 0 0 1-4.37-3.85c-.13-.22-.2-.47-.23-.72a1.02 1.02 0 0 1 .29-.81 1.28 1.28 0 0 1 1.43-.14 7.73 7.73 0 0 1 3.08 4.42c.14.38.18.8.14 1.2a10.48 10.48 0 0 0-1.9-3.76 5.8 5.8 0 0 0-1.54-1.36.73.73 0 0 0-.83.07c-.18.16-.13.5.08.86a7.39 7.39 0 0 0 4.03 3.51 4.4 4.4 0 0 0 4.82-1.4c.21-.3.34-.66.34-1.03a.9.9 0 0 0-.43-.8c-.53-.28-1.26.1-1.73.44-1.09.91-2 2.01-2.71 3.24Z" fill="#263238"/><path d="M136.56 239.11a3.14 3.14 0 0 0-2.7 2.04s-3.5-2.41-5.24 1.2c0 0-3.7-1.2-4.62 2.24a4.69 4.69 0 0 0-3.93 4.25c-.32 3.77 4.68 12.76 4.68 12.76l12.04-3.9s3.2-7.22 3.19-8.42c0-.83-.52-5.39-.78-7.77a2.7 2.7 0 0 0-2.64-2.4Z" fill="#FFBE9D"/><path d="M138.81 248.75c-.33-1.22-.78-2.4-1.36-3.52-.17-.4-.45-.73-.8-.99a2.4 2.4 0 0 0-1.2-.23c-2.23 0-4.46.05-6.68.15a.97.97 0 0 0-.87.36c-.2.36.13.78.45 1.05a9.8 9.8 0 0 0 5.16 2.23c-1.95.9-4.04 1.92-5.04 3.82a5.8 5.8 0 0 0-.57 3.49 8.82 8.82 0 0 0 1.2 3.33" fill="#FFBE9D"/><path d="M129.1 258.4a2.88 2.88 0 0 1-.57-.85 7.79 7.79 0 0 1-.88-2.77 5.77 5.77 0 0 1 1.2-4.23 12.02 12.02 0 0 1 4.55-3.07l.1.58a9.95 9.95 0 0 1-5.14-2.12 2.5 2.5 0 0 1-.66-.7.9.9 0 0 1 .16-1.21c.3-.19.64-.28.98-.27H135.54c.45-.02.9.09 1.3.3.32.25.59.57.75.94l.43.92c.24.58.42 1.1.55 1.51.17.43.26.88.28 1.34-.2-.39-.38-.79-.5-1.2-.18-.4-.38-.9-.66-1.45a4.22 4.22 0 0 0-1.1-1.62 5.57 5.57 0 0 0-2.4-.15l-2.93.09h-1.58c-.5 0-1.2 0-1.44.15-.24.16 0 .58.5.9.43.35.89.67 1.36.94a9.5 9.5 0 0 0 3.38 1.06l1.1.13-1.02.45a11.84 11.84 0 0 0-4.38 2.86 5.35 5.35 0 0 0-1.2 3.85c.06.94.29 1.85.67 2.71.17.3.33.6.45.92ZM124.76 245.45c.36.64.6 1.34.7 2.07.19.77.32 1.55.42 2.33.07.48.1.97.07 1.45a2.4 2.4 0 0 1-.65 1.54 1.88 1.88 0 0 1-1.65.47c-.52-.08-1-.33-1.37-.7a4.56 4.56 0 0 1-1.09-2.23c-.18-.7-.3-1.41-.37-2.14.4.62.67 1.3.8 2.02a4.4 4.4 0 0 0 1.07 1.92 1.63 1.63 0 0 0 2.17.22 3.16 3.16 0 0 0 .44-2.49 38.1 38.1 0 0 0-.27-2.3c-.16-.72-.25-1.44-.27-2.16Z" fill="#EB996E"/><path d="M129.48 246.15c.2.64.34 1.3.38 1.97.11.77-.02 1.56-.4 2.24-.25.43-.65.75-1.13.9a1.61 1.61 0 0 1-1.57-.3 3.31 3.31 0 0 1-.86-1.2c-.2-.4-.37-.8-.52-1.2-.27-.68-.5-1.37-.68-2.08a5.1 5.1 0 0 1-.3-1.98c.32.58.56 1.2.72 1.85.2.58.47 1.2.8 1.98.27.77.68 1.5 1.2 2.14a1.27 1.27 0 0 0 1.48-.03c.15-.11.26-.25.35-.4.33-.58.48-1.24.43-1.9-.1-.67-.06-1.34.1-2ZM134.51 244.03c-.17 0-.43-.52-.6-1.2-.17-.7-.17-1.34 0-1.4.17-.04.44.53.61 1.21.17.69.17 1.39 0 1.39Z" fill="#EB996E"/><path d="M119.27 316.28a2.48 2.48 0 0 1-.17-.66l-.34-1.91a207 207 0 0 1-1.06-7.05 88.97 88.97 0 0 1-.43-23.5 61.2 61.2 0 0 1 3-12.64 136.8 136.8 0 0 1 3.9-9.84c1.19-2.76 2.16-4.9 2.89-6.51l.8-1.76c.08-.21.18-.41.3-.6-.03.22-.1.44-.19.65-.18.47-.4 1.07-.7 1.8-.66 1.64-1.57 3.87-2.7 6.59-1.11 2.72-2.49 6.1-3.75 9.86a63.18 63.18 0 0 0-2.99 12.5 95.92 95.92 0 0 0 .25 23.38c.37 2.91.66 5.31.87 7.06l.23 1.92c.05.24.08.48.08.71Z" fill="#263238"/><path d="m427.56 387.82 4.82 8.92s16.68-22.5 14.79-55c-1.55-26.94-22.67-43.35-31.67-56.14-9.98-14.1-8.2-33.8-3.69-48.57 4.5-14.78 13.2-44.34 10.94-61.65h-2.53s2.22 12.54-8.06 47.57c-10.28 35.03-7.4 54.98.64 65.26 8.03 10.29 23.74 26.5 27 37.73 3.2 10.99 9.97 22.09 3.87 39.44-6.11 17.36-16.54 24.53-16.54 24.53" fill="#455A64"/><path d="m475.94 361.07 6.77 6.94a81.97 81.97 0 0 0 1.37-53.86c-7.84-24.18-32.15-33.94-43.87-43.35-12.97-10.37-15.87-28.79-15-43.36.88-14.57 2.34-43.72-3.92-59l-2.47.63s5.1 10.84 3.38 45.4c-1.72 34.57 5.77 51.98 15.97 59.36 10.2 7.38 29.23 18.26 35.02 27.7 5.8 9.44 14.85 17.67 13.02 35.01-1.83 17.34-10.25 26.5-10.25 26.5" fill="#E0E0E0"/><path d="M370.2 30 297.2 139.9s67.3-11.37 124.89 36.9c0 0 17.43-69.76 80.68-88.4L370.2 30Z" fill="url(#g)"/><path d="M466.58 72.44c-.14.07-.3.13-.45.18l-1.34.46-2.18.72c-.85.31-1.8.72-2.9 1.2a65.32 65.32 0 0 0-17 10.36 85.87 85.87 0 0 0-18.92 22.77 117.33 117.33 0 0 0-7.74 15.84 114.22 114.22 0 0 0-5.65 18.06l-.12.55-.4-.39-2.79-2.59a98.96 98.96 0 0 0-32.51-19.11 145.2 145.2 0 0 0-30.11-7.38 172.55 172.55 0 0 0-20.85-1.65h-7.67c.17-.02.34-.02.5 0l1.49-.1c1.3-.07 3.21-.13 5.7-.13 6.98.03 13.96.51 20.89 1.44a144.56 144.56 0 0 1 30.2 7.23 98.55 98.55 0 0 1 32.71 19.2l2.77 2.6-.53.17c2.73-12 7.28-23.5 13.51-34.1a85.5 85.5 0 0 1 19.13-22.9 64.43 64.43 0 0 1 17.18-10.24c1.1-.42 2.08-.8 2.94-1.1l2.2-.68 1.36-.4.58-.01Z" fill="#fff"/><path opacity=".4" d="m370.2 30-41.04 61.78s34.92-5.83 70.84 19.73c0 0 7.07-33.82 42.76-49.55L370.2 30Z" fill="#fff"/><path d="M309.05 131.78c-.15-.1 13.15-20.78 29.7-46.19 16.54-25.41 30.1-45.96 30.23-45.86.12.1-13.16 20.77-29.7 46.2-16.55 25.42-30.09 45.94-30.23 45.84ZM422.1 176.8c-.16 0-11.29-31.78-24.82-71.06-13.54-39.29-24.41-71.26-24.25-71.26.17 0 11.29 31.76 24.84 71.05 13.54 39.3 24.4 71.2 24.23 71.26Z" fill="#263238"/><path d="M486.97 85.76c-.07.16-25.63-11.2-57.1-25.36-31.46-14.17-56.9-25.79-56.84-25.92.08-.13 25.63 11.18 57.11 25.29s56.9 25.83 56.83 25.99ZM414.4 154.45c-.12.13-7.88-6.68-17.33-15.22-9.45-8.54-17.03-15.57-16.92-15.66.1-.08 7.88 6.69 17.34 15.22 9.47 8.54 17.02 15.53 16.91 15.66ZM510.29 334.35s.12-.17.4-.48a17.64 17.64 0 0 0 3.83-7.72c.8-3.6.65-7.33-.45-10.84a30.63 30.63 0 0 0-7.45-12.24 40.43 40.43 0 0 0-23.92-12.04c-3.44-.4-6.91-.4-10.35 0-7.07.66-14.38 2.59-22.22 2.7a39.19 39.19 0 0 1-37.02-26.1 50.33 50.33 0 0 1-1.82-22.25c.92-6.71 2.32-13.34 4.17-19.85 1.63-6.13 3.24-11.81 4.42-17.07 1.12-4.7 1.9-9.5 2.3-14.33.3-3.64.2-7.31-.26-10.94-.31-2.3-.8-4.56-1.45-6.77-.23-.74-.42-1.3-.54-1.72l-.17-.6.23.58.6 1.7c.71 2.21 1.24 4.47 1.58 6.77.5 3.65.62 7.34.36 11-.37 4.87-1.1 9.7-2.22 14.46-1.2 5.27-2.74 10.97-4.36 17.1a147.8 147.8 0 0 0-4.1 19.79 50.07 50.07 0 0 0 1.84 21.97 38.68 38.68 0 0 0 36.49 25.75c7.73-.1 15.05-2 22.18-2.66 3.48-.38 7-.36 10.47.06A40.95 40.95 0 0 1 507 302.89c3.44 3.5 6 7.77 7.46 12.46 1.07 3.54 1.2 7.32.34 10.93a17.59 17.59 0 0 1-2.86 6.32c-.5.64-1.05 1.22-1.66 1.75Z" fill="#263238"/><path d="M373.03 34.48s.08.37.2 1.1l.51 3.24c.45 2.85 1.09 7.04 1.87 12.46 1.52 10.84 3.84 26.5 4.82 46.09.53 10.67.39 21.36-.42 32a293.4 293.4 0 0 1-5.25 36.38l-1.02 4.81c-.18.81-.32 1.62-.53 2.41-.2.8-.47 1.6-.72 2.41a236.53 236.53 0 0 1-3.47 9.46l-3.75 9.55-1.95 4.81-1 2.41-.5 1.2-.58 1.21a128.98 128.98 0 0 1-10.6 18.69 77.48 77.48 0 0 1-14.85 16.4l-2.16 1.69-2.3 1.59-1.14.8-1.21.72-2.4 1.42a64.17 64.17 0 0 1-10.12 4.4 83.24 83.24 0 0 1-21.11 4 90.18 90.18 0 0 1-20.72-1.21 108.76 108.76 0 0 1-19.27-5.12c-3.04-1.1-6.01-2.3-8.91-3.62a65.96 65.96 0 0 1-8.34-4.21c-5.3-3.14-10.16-6.56-15.1-9.5a76.47 76.47 0 0 0-14.94-7.13 52.8 52.8 0 0 0-14.97-2.8 65.33 65.33 0 0 0-25.83 3.97 70.8 70.8 0 0 0-17.44 9.43 74 74 0 0 0-9.47 8.26c-1 1.02-1.72 1.85-2.21 2.4l-.72.85s.2-.31.67-.9a71.47 71.47 0 0 1 11.59-10.77c5.33-3.99 11.21-7.21 17.46-9.56a65.84 65.84 0 0 1 25.97-4.07c5.15.2 10.23 1.13 15.1 2.78a76.7 76.7 0 0 1 15.06 7.14c4.96 2.94 9.85 6.36 15.1 9.47 2.66 1.6 5.43 2.99 8.3 4.18 2.88 1.27 5.84 2.4 8.88 3.52a109.18 109.18 0 0 0 19.13 5.07c3.36.59 6.75 1 10.15 1.2 3.47.2 6.95.17 10.42-.05a82.47 82.47 0 0 0 20.97-3.98 61.12 61.12 0 0 0 10-4.36l2.4-1.4 1.2-.7 1.15-.8 2.28-1.57 2.18-1.74a77.22 77.22 0 0 0 14.7-16.16c4.03-5.9 7.56-12.12 10.56-18.6l.57-1.21.5-1.2 1-2.41c.64-1.63 1.3-3.23 1.94-4.82l3.77-9.54c1.2-3.16 2.41-6.29 3.47-9.42.25-.78.52-1.56.71-2.34.2-.79.35-1.6.53-2.41l1.01-4.82c2.52-11.97 4.3-24.1 5.3-36.29.83-10.62 1-21.3.5-31.95-.93-19.5-3.19-35.16-4.63-46l-1.75-12.48-.45-3.25c-.11-.74-.14-1.13-.14-1.13Z" fill="#263238"/></g><defs><linearGradient id="b" x1="83.41" y1="260.7" x2="69.86" y2="283.06" gradientUnits="userSpaceOnUse"><stop stop-color="#5AD4FA"/><stop offset="1" stop-color="#2BB3DD"/></linearGradient><linearGradient id="c" x1="210.84" y1="-142.33" x2="103.23" y2="-135.19" gradientUnits="userSpaceOnUse"><stop stop-color="#5AD4FA"/><stop offset="1" stop-color="#2BB3DD"/></linearGradient><linearGradient id="d" x1="191.77" y1="125.32" x2="136.55" y2="129.98" gradientUnits="userSpaceOnUse"><stop stop-color="#5AD4FA"/><stop offset="1" stop-color="#2BB3DD"/></linearGradient><linearGradient id="e" x1="273.99" y1="503.59" x2="287.88" y2="575.6" gradientUnits="userSpaceOnUse"><stop stop-color="#F8C1C5"/><stop offset="1" stop-color="#E96F9B"/></linearGradient><linearGradient id="f" x1="156.95" y1="555.01" x2="151.47" y2="587.97" gradientUnits="userSpaceOnUse"><stop stop-color="#F8C1C5"/><stop offset="1" stop-color="#E96F9B"/></linearGradient><linearGradient id="g" x1="489.11" y1="-33.43" x2="312.03" y2="184.55" gradientUnits="userSpaceOnUse"><stop stop-color="#F8C1C5"/><stop offset="1" stop-color="#E96F9B"/></linearGradient><filter id="a" x=".72" y="0" width="588.52" height="613.22" filterUnits="userSpaceOnUse" color-interpolation-filters="sRGB"><feFlood flood-opacity="0" result="BackgroundImageFix"/><feColorMatrix in="SourceAlpha" values="0 0 0 0 0 0 0 0 0 0 0 0 0 0 0 0 0 0 127 0" result="hardAlpha"/><feOffset dx="5" dy="5"/><feGaussianBlur stdDeviation="17.5"/><feComposite in2="hardAlpha" operator="out"/><feColorMatrix values="0 0 0 0 0.516441 0 0 0 0 0.602167 0 0 0 0 0.629167 0 0 0 0.15 0"/><feBlend in2="BackgroundImageFix" result="effect1_dropShadow_2_2312"/><feBlend in="SourceGraphic" in2="effect1_dropShadow_2_2312" result="shape"/></filter></defs></svg>