<svg width="509" height="495" viewBox="0 0 509 495" fill="none" xmlns="http://www.w3.org/2000/svg">
<g filter="url(#filter0_d_2_1290)">
<path d="M409.42 94.7801C398.5 66.7801 374.86 42.7101 344.81 33.7801C314.76 24.8501 278.91 32.7801 258.81 55.7801C241.94 75.1101 235.58 103.85 212.08 115.4C197.49 122.57 180.08 120.97 163.83 123.52C126.59 129.39 95.6199 159.76 89.0099 194.95C87.2274 204.601 87.1327 214.487 88.7299 224.17C94.2199 258.24 119.41 285.84 152.49 295.66L196.87 308.85C242.11 316.33 290.14 307.47 329.12 284.48C368.1 261.49 397.66 224.56 410.52 182.81C419.36 154.12 420.33 122.77 409.42 94.7801Z" fill="#F5F5F5"/>
<path d="M469 382.26C469 382.4 370.72 382.52 249.51 382.52C128.3 382.52 30 382.4 30 382.26C30 382.12 128.26 382 249.5 382C370.74 382 469 382.11 469 382.26Z" fill="#263238"/>
<path d="M159.99 382.59H47.62C45.73 377.59 45.54 372.95 47.62 368.7H159.99C161.265 370.793 161.939 373.195 161.939 375.645C161.939 378.095 161.265 380.498 159.99 382.59Z" fill="#455A64"/>
<path d="M85.43 372.59H86.62V376.78H89.21V377.78H85.43V372.59Z" fill="#F5F5F5"/>
<path d="M93.35 375.49V377.75H92.28V377.25C92.1476 377.444 91.9653 377.598 91.7522 377.697C91.5392 377.796 91.3034 377.835 91.07 377.81C90.14 377.81 89.59 377.29 89.59 376.61C89.59 375.93 90.08 375.42 91.29 375.42H92.2C92.2 374.93 91.91 374.64 91.29 374.64C90.8797 374.635 90.4791 374.765 90.15 375.01L89.73 374.2C90.2402 373.875 90.8351 373.708 91.44 373.72C92.65 373.72 93.35 374.28 93.35 375.49ZM92.2 376.49V376.08H91.42C90.88 376.08 90.71 376.28 90.71 376.54C90.71 376.8 90.95 377.02 91.36 377.02C91.5372 377.035 91.7145 376.992 91.8658 376.899C92.017 376.805 92.1341 376.665 92.2 376.5V376.49Z" fill="#F5F5F5"/>
<path d="M98.5 375.48V377.75H97.3V375.66C97.3 375.01 97 374.72 96.49 374.72C95.98 374.72 95.54 375.06 95.54 375.79V377.79H94.39V373.79H95.5V374.26C95.6687 374.085 95.8726 373.947 96.0984 373.855C96.3241 373.764 96.5666 373.721 96.81 373.73C97.0425 373.709 97.2768 373.74 97.4957 373.821C97.7145 373.903 97.9124 374.032 98.0746 374.2C98.2367 374.368 98.3592 374.57 98.4328 374.792C98.5064 375.013 98.5294 375.249 98.5 375.48Z" fill="#F5F5F5"/>
<path d="M103.62 373.78V377.09C103.656 377.388 103.623 377.69 103.522 377.973C103.422 378.256 103.257 378.512 103.041 378.721C102.824 378.929 102.563 379.084 102.276 379.174C101.99 379.265 101.687 379.287 101.39 379.24C100.701 379.267 100.022 379.074 99.45 378.69L99.91 377.87C100.318 378.163 100.808 378.321 101.31 378.32C102.12 378.32 102.47 377.95 102.47 377.23V377.06C102.309 377.227 102.114 377.358 101.899 377.444C101.683 377.53 101.452 377.57 101.22 377.56C100.968 377.56 100.718 377.51 100.485 377.414C100.252 377.317 100.041 377.176 99.8623 376.998C99.684 376.819 99.5426 376.608 99.4461 376.375C99.3496 376.142 99.3 375.892 99.3 375.64C99.3 375.388 99.3496 375.138 99.4461 374.905C99.5426 374.672 99.684 374.461 99.8623 374.282C100.041 374.104 100.252 373.963 100.485 373.866C100.718 373.77 100.968 373.72 101.22 373.72C101.468 373.707 101.715 373.752 101.942 373.851C102.169 373.95 102.371 374.1 102.53 374.29V373.78H103.62ZM102.5 375.64C102.5 375.442 102.441 375.249 102.331 375.084C102.222 374.92 102.065 374.792 101.883 374.716C101.7 374.64 101.499 374.621 101.305 374.659C101.111 374.698 100.933 374.793 100.793 374.933C100.653 375.073 100.558 375.251 100.519 375.445C100.481 375.639 100.5 375.84 100.576 376.023C100.652 376.205 100.78 376.362 100.944 376.471C101.109 376.581 101.302 376.64 101.5 376.64C101.765 376.64 102.02 376.535 102.207 376.347C102.395 376.16 102.5 375.905 102.5 375.64Z" fill="#F5F5F5"/>
<path d="M108.68 373.78V377.78H107.59V377.31C107.435 377.481 107.244 377.617 107.032 377.708C106.82 377.8 106.591 377.844 106.36 377.84C106.125 377.859 105.888 377.824 105.668 377.739C105.447 377.655 105.249 377.521 105.086 377.35C104.924 377.178 104.803 376.972 104.731 376.747C104.659 376.522 104.638 376.284 104.67 376.05V373.81H105.82V375.88C105.82 376.55 106.11 376.88 106.62 376.88C107.13 376.88 107.53 376.54 107.53 375.81V373.81L108.68 373.78Z" fill="#F5F5F5"/>
<path d="M113.26 375.49V377.75H112.19V377.25C112.058 377.444 111.875 377.598 111.662 377.697C111.449 377.796 111.213 377.835 110.98 377.81C110.05 377.81 109.5 377.29 109.5 376.61C109.5 375.93 109.99 375.42 111.2 375.42H112.11C112.11 374.93 111.82 374.64 111.2 374.64C110.79 374.635 110.389 374.765 110.06 375.01L109.64 374.2C110.15 373.875 110.745 373.708 111.35 373.72C112.56 373.72 113.26 374.28 113.26 375.49ZM112.11 376.49V376.08H111.32C110.79 376.08 110.62 376.28 110.62 376.54C110.62 376.8 110.86 377.02 111.26 377.02C111.439 377.035 111.617 376.993 111.77 376.9C111.923 376.806 112.042 376.666 112.11 376.5V376.49Z" fill="#F5F5F5"/>
<path d="M118.44 373.78V377.09C118.476 377.388 118.443 377.691 118.342 377.974C118.242 378.257 118.077 378.512 117.861 378.721C117.644 378.929 117.383 379.085 117.096 379.175C116.81 379.265 116.507 379.287 116.21 379.24C115.518 379.265 114.837 379.073 114.26 378.69L114.72 377.87C115.128 378.164 115.618 378.321 116.12 378.32C116.93 378.32 117.29 377.95 117.29 377.23V377.06C117.127 377.228 116.93 377.359 116.713 377.445C116.496 377.531 116.263 377.57 116.03 377.56C115.778 377.56 115.528 377.511 115.295 377.414C115.062 377.318 114.851 377.176 114.672 376.998C114.494 376.82 114.353 376.608 114.256 376.375C114.16 376.142 114.11 375.892 114.11 375.64C114.11 375.388 114.16 375.138 114.256 374.905C114.353 374.673 114.494 374.461 114.672 374.283C114.851 374.104 115.062 373.963 115.295 373.866C115.528 373.77 115.778 373.72 116.03 373.72C116.278 373.706 116.525 373.751 116.753 373.85C116.98 373.949 117.181 374.1 117.34 374.29V373.78H118.44ZM117.3 375.64C117.3 375.375 117.195 375.121 117.007 374.933C116.82 374.746 116.565 374.64 116.3 374.64C116.153 374.603 115.999 374.6 115.85 374.632C115.701 374.663 115.562 374.728 115.442 374.822C115.322 374.915 115.225 375.035 115.158 375.172C115.092 375.308 115.057 375.458 115.057 375.61C115.057 375.762 115.092 375.912 115.158 376.049C115.225 376.185 115.322 376.305 115.442 376.399C115.562 376.492 115.701 376.557 115.85 376.589C115.999 376.62 116.153 376.617 116.3 376.58C116.555 376.581 116.801 376.484 116.987 376.309C117.173 376.134 117.285 375.895 117.3 375.64Z" fill="#F5F5F5"/>
<path d="M123.37 376.09H120.37C120.431 376.337 120.579 376.553 120.786 376.7C120.994 376.847 121.247 376.914 121.5 376.89C121.684 376.896 121.868 376.865 122.04 376.798C122.212 376.731 122.368 376.63 122.5 376.5L123.11 377.17C122.798 377.466 122.411 377.669 121.99 377.758C121.57 377.846 121.133 377.816 120.729 377.671C120.325 377.526 119.968 377.271 119.7 376.936C119.432 376.6 119.262 376.197 119.21 375.77C119.209 375.497 119.265 375.227 119.373 374.976C119.481 374.725 119.639 374.499 119.838 374.312C120.036 374.124 120.271 373.98 120.528 373.887C120.784 373.793 121.057 373.754 121.33 373.77C121.603 373.762 121.874 373.81 122.128 373.91C122.382 374.011 122.612 374.162 122.805 374.355C122.998 374.548 123.15 374.778 123.25 375.032C123.351 375.286 123.398 375.557 123.39 375.83C123.39 375.87 123.37 376 123.37 376.09ZM120.37 375.42H122.37C122.33 375.185 122.207 374.973 122.023 374.821C121.84 374.668 121.608 374.587 121.37 374.59C121.125 374.568 120.881 374.642 120.691 374.797C120.5 374.952 120.378 375.176 120.35 375.42H120.37Z" fill="#F5F5F5"/>
<path d="M55.23 375.47H60.38V376.66H56.18V377.66H55.18L55.23 375.47Z" fill="#F5F5F5"/>
<path d="M63 368.7L68.33 382.59H75.32L70.88 368.7H63Z" fill="#263238"/>
<path d="M132 368.7L137.33 382.59H144.32L139.88 368.7H132Z" fill="#263238"/>
<path d="M159.99 368.58H47.62C45.73 361.58 45.54 355.04 47.62 349.08H159.99C161.276 352.17 161.938 355.483 161.938 358.83C161.938 362.177 161.276 365.49 159.99 368.58Z" fill="url(#paint0_linear_2_1290)"/>
<path d="M80.92 355.19L79.7 361.31H79.26L80.26 356.11L76.88 360.5H76.7L74.97 356.05L73.97 361.31H73.5L74.73 355.19H75.09L76.92 359.92L80.5 355.19H80.92Z" fill="#F5F5F5"/>
<path d="M86.67 356.75L85.76 361.31H85.34L85.51 360.42C85.2871 360.717 84.9966 360.956 84.6627 361.118C84.3287 361.279 83.9609 361.359 83.59 361.35C83.3291 361.378 83.0652 361.349 82.8166 361.265C82.5681 361.181 82.3408 361.043 82.1506 360.863C81.9603 360.682 81.8116 360.462 81.7148 360.218C81.618 359.974 81.5754 359.712 81.59 359.45C81.5681 359.098 81.6186 358.745 81.7385 358.414C81.8583 358.082 82.0449 357.778 82.2867 357.521C82.5284 357.265 82.8203 357.06 83.1442 356.921C83.4682 356.781 83.8173 356.709 84.17 356.71C84.5591 356.666 84.9513 356.759 85.2796 356.973C85.6079 357.186 85.8519 357.507 85.97 357.88L86.2 356.75H86.67ZM85.82 358.63C85.835 358.417 85.8027 358.204 85.7253 358.005C85.6479 357.807 85.5273 357.628 85.3723 357.481C85.2173 357.335 85.0318 357.225 84.829 357.159C84.6263 357.093 84.4114 357.073 84.2 357.1C83.9045 357.103 83.6128 357.167 83.3428 357.287C83.0727 357.407 82.8301 357.581 82.6297 357.799C82.4293 358.016 82.2755 358.272 82.1775 358.551C82.0795 358.829 82.0395 359.125 82.06 359.42C82.0369 359.637 82.0633 359.856 82.1372 360.061C82.2111 360.266 82.3305 360.451 82.4865 360.603C82.6424 360.755 82.8309 360.87 83.0376 360.939C83.2443 361.008 83.464 361.028 83.68 361C83.9805 360.999 84.2775 360.935 84.5518 360.812C84.8262 360.689 85.072 360.511 85.2734 360.288C85.4748 360.065 85.6274 359.802 85.7216 359.517C85.8157 359.231 85.8492 358.929 85.82 358.63Z" fill="#F5F5F5"/>
<path d="M88.39 360C88.3771 360.106 88.3771 360.214 88.39 360.32C88.39 360.75 88.62 360.98 89.09 360.98C89.3604 360.98 89.6236 360.892 89.84 360.73L89.97 361.05C89.6819 361.265 89.329 361.374 88.97 361.36C88.8356 361.372 88.7001 361.355 88.5732 361.309C88.4463 361.263 88.331 361.19 88.2356 361.094C88.1402 360.999 88.0669 360.884 88.021 360.757C87.9751 360.63 87.9577 360.494 87.97 360.36C87.9609 360.243 87.9609 360.127 87.97 360.01L88.56 357.11H87.71L87.78 356.74H88.63L88.83 355.74H89.27L89.07 356.74H90.5L90.43 357.11H88.96L88.39 360Z" fill="#F5F5F5"/>
<path d="M95.74 358.17C95.7539 358.336 95.7539 358.504 95.74 358.67L95.21 361.31H94.78L95.3 358.67C95.3188 358.524 95.3188 358.376 95.3 358.23C95.3 357.52 94.88 357.1 94.02 357.1C93.529 357.08 93.0488 357.247 92.6771 357.569C92.3055 357.89 92.0705 358.341 92.02 358.83L91.52 361.31H91.08L92.38 354.82H92.81L92.26 357.59C92.4758 357.301 92.7591 357.07 93.0852 356.917C93.4113 356.763 93.77 356.692 94.13 356.71C95.17 356.71 95.74 357.27 95.74 358.17Z" fill="#F5F5F5"/>
<path d="M97.34 359.12C97.34 359.22 97.34 359.32 97.34 359.41C97.34 360.41 97.92 360.95 99.03 360.95C99.3179 360.961 99.605 360.912 99.8734 360.808C100.142 360.703 100.386 360.543 100.59 360.34L100.79 360.65C100.552 360.881 100.27 361.062 99.9609 361.183C99.6517 361.303 99.3216 361.36 98.99 361.35C98.7224 361.384 98.4507 361.359 98.1939 361.277C97.9371 361.194 97.7014 361.057 97.5032 360.874C97.3051 360.691 97.1493 360.467 97.0468 360.218C96.9443 359.968 96.8976 359.7 96.91 359.43C96.8855 359.086 96.9314 358.74 97.0448 358.415C97.1583 358.089 97.337 357.789 97.5701 357.535C97.8031 357.28 98.0855 357.076 98.4001 356.934C98.7147 356.792 99.0549 356.716 99.4 356.71C99.6625 356.678 99.9288 356.705 100.18 356.789C100.431 356.872 100.66 357.01 100.851 357.193C101.042 357.375 101.191 357.598 101.286 357.845C101.381 358.092 101.42 358.357 101.4 358.62C101.397 358.788 101.376 358.956 101.34 359.12H97.34ZM97.34 358.78H100.86C100.865 358.707 100.865 358.633 100.86 358.56C100.871 358.358 100.838 358.156 100.764 357.968C100.689 357.78 100.575 357.61 100.429 357.47C100.282 357.331 100.107 357.224 99.9161 357.159C99.7246 357.093 99.5213 357.07 99.32 357.09C98.8512 357.101 98.4011 357.276 98.0483 357.585C97.6955 357.894 97.4625 358.317 97.39 358.78H97.34Z" fill="#F5F5F5"/>
<path d="M110.28 358.15C110.294 358.323 110.294 358.497 110.28 358.67L109.74 361.31H109.31L109.84 358.67C109.854 358.52 109.854 358.37 109.84 358.22C109.84 357.52 109.43 357.1 108.61 357.1C108.145 357.079 107.689 357.234 107.333 357.534C106.977 357.834 106.747 358.258 106.69 358.72L106.17 361.31H105.73L106.27 358.67C106.284 358.52 106.284 358.37 106.27 358.22C106.27 357.52 105.86 357.1 105.04 357.1C104.557 357.088 104.088 357.26 103.728 357.581C103.368 357.903 103.143 358.349 103.1 358.83L102.6 361.31H102.16L103.07 356.75H103.5L103.32 357.6C103.527 357.311 103.802 357.078 104.122 356.922C104.441 356.767 104.795 356.694 105.15 356.71C105.481 356.666 105.817 356.743 106.096 356.927C106.375 357.11 106.579 357.388 106.67 357.71C106.891 357.387 107.19 357.126 107.54 356.951C107.89 356.776 108.279 356.693 108.67 356.71C109.73 356.71 110.28 357.26 110.28 358.15Z" fill="#F5F5F5"/>
<path d="M116.5 356.75L115.59 361.31H115.17L115.34 360.42C115.116 360.716 114.825 360.954 114.492 361.115C114.158 361.277 113.791 361.357 113.42 361.35C113.159 361.378 112.895 361.349 112.647 361.265C112.398 361.181 112.171 361.043 111.981 360.863C111.79 360.682 111.642 360.462 111.545 360.218C111.448 359.974 111.405 359.712 111.42 359.45C111.398 359.098 111.449 358.745 111.568 358.414C111.688 358.082 111.875 357.778 112.117 357.521C112.358 357.265 112.65 357.06 112.974 356.921C113.298 356.781 113.647 356.709 114 356.71C114.389 356.666 114.781 356.759 115.11 356.973C115.438 357.186 115.682 357.507 115.8 357.88L116.03 356.75H116.5ZM115.65 358.63C115.665 358.417 115.633 358.204 115.555 358.005C115.478 357.807 115.357 357.628 115.202 357.481C115.047 357.335 114.862 357.225 114.659 357.159C114.456 357.093 114.241 357.073 114.03 357.1C113.734 357.103 113.443 357.167 113.173 357.287C112.903 357.407 112.66 357.581 112.46 357.799C112.259 358.016 112.105 358.272 112.007 358.551C111.91 358.829 111.87 359.125 111.89 359.42C111.867 359.636 111.893 359.854 111.967 360.058C112.04 360.262 112.159 360.447 112.313 360.599C112.468 360.751 112.655 360.866 112.861 360.935C113.066 361.005 113.285 361.027 113.5 361C113.8 360.997 114.096 360.932 114.369 360.809C114.642 360.686 114.886 360.507 115.087 360.284C115.287 360.061 115.439 359.799 115.532 359.514C115.626 359.229 115.659 358.928 115.63 358.63H115.65Z" fill="#F5F5F5"/>
<path d="M118.2 360C118.187 360.106 118.187 360.214 118.2 360.32C118.2 360.75 118.43 360.98 118.9 360.98C119.167 360.98 119.427 360.892 119.64 360.73L119.78 361.05C119.491 361.263 119.139 361.373 118.78 361.36C118.646 361.372 118.51 361.355 118.383 361.309C118.256 361.263 118.141 361.19 118.046 361.094C117.95 360.999 117.877 360.884 117.831 360.757C117.785 360.63 117.768 360.494 117.78 360.36C117.766 360.244 117.766 360.126 117.78 360.01L118.37 357.11H117.5L117.57 356.74H118.42L118.62 355.74H119.05L118.85 356.74H120.31L120.24 357.11H118.78L118.2 360Z" fill="#F5F5F5"/>
<path d="M121.79 356.75H122.23L121.32 361.31H120.88L121.79 356.75ZM121.94 355.31C121.939 355.26 121.947 355.21 121.966 355.163C121.985 355.116 122.013 355.074 122.048 355.038C122.084 355.003 122.126 354.975 122.173 354.956C122.22 354.938 122.27 354.929 122.32 354.93C122.363 354.929 122.406 354.936 122.447 354.951C122.488 354.967 122.525 354.99 122.556 355.02C122.588 355.049 122.613 355.085 122.631 355.125C122.649 355.164 122.659 355.207 122.66 355.25C122.661 355.302 122.652 355.353 122.633 355.401C122.614 355.449 122.585 355.492 122.549 355.529C122.512 355.565 122.469 355.594 122.421 355.613C122.373 355.632 122.322 355.641 122.27 355.64C122.182 355.64 122.099 355.605 122.037 355.543C121.975 355.482 121.94 355.398 121.94 355.31Z" fill="#F5F5F5"/>
<path d="M123.09 359.45C123.069 359.095 123.122 358.74 123.245 358.406C123.368 358.072 123.558 357.767 123.804 357.51C124.049 357.253 124.346 357.049 124.674 356.912C125.002 356.774 125.354 356.705 125.71 356.71C126.051 356.678 126.395 356.742 126.702 356.894C127.009 357.046 127.268 357.28 127.45 357.57L127.09 357.79C126.943 357.557 126.735 357.369 126.488 357.247C126.24 357.125 125.964 357.075 125.69 357.1C125.393 357.101 125.099 357.163 124.826 357.281C124.554 357.4 124.309 357.574 124.107 357.792C123.904 358.009 123.748 358.266 123.649 358.546C123.55 358.826 123.509 359.124 123.53 359.42C123.516 359.635 123.55 359.851 123.63 360.051C123.71 360.251 123.833 360.431 123.991 360.578C124.149 360.724 124.338 360.834 124.543 360.898C124.749 360.963 124.967 360.98 125.18 360.95C125.465 360.959 125.748 360.905 126.009 360.79C126.271 360.676 126.503 360.505 126.69 360.29L127 360.53C126.774 360.798 126.489 361.011 126.169 361.153C125.849 361.295 125.5 361.362 125.15 361.35C124.886 361.381 124.618 361.354 124.365 361.271C124.112 361.189 123.88 361.052 123.685 360.872C123.489 360.692 123.335 360.471 123.232 360.226C123.13 359.981 123.081 359.716 123.09 359.45Z" fill="#F5F5F5"/>
<path d="M132.91 356.75L132 361.31H131.58L131.76 360.42C131.535 360.717 131.243 360.956 130.907 361.118C130.572 361.279 130.202 361.359 129.83 361.35C129.569 361.378 129.305 361.349 129.057 361.265C128.808 361.18 128.581 361.043 128.391 360.863C128.2 360.682 128.052 360.462 127.955 360.218C127.858 359.974 127.815 359.712 127.83 359.45C127.808 359.098 127.859 358.745 127.978 358.414C128.098 358.082 128.285 357.778 128.527 357.521C128.768 357.265 129.06 357.06 129.384 356.921C129.708 356.781 130.057 356.709 130.41 356.71C130.8 356.666 131.194 356.758 131.524 356.972C131.854 357.185 132.1 357.506 132.22 357.88L132.44 356.75H132.91ZM132.06 358.63C132.075 358.417 132.043 358.204 131.965 358.005C131.888 357.807 131.767 357.628 131.612 357.481C131.457 357.335 131.272 357.225 131.069 357.159C130.866 357.093 130.651 357.073 130.44 357.1C130.144 357.103 129.853 357.167 129.583 357.287C129.313 357.407 129.07 357.581 128.87 357.799C128.669 358.016 128.515 358.272 128.417 358.55C128.32 358.829 128.28 359.125 128.3 359.42C128.285 359.633 128.317 359.846 128.395 360.045C128.472 360.243 128.593 360.422 128.748 360.569C128.903 360.715 129.088 360.825 129.291 360.891C129.494 360.957 129.709 360.977 129.92 360.95C130.216 360.948 130.508 360.885 130.779 360.766C131.05 360.646 131.293 360.472 131.494 360.255C131.694 360.037 131.848 359.781 131.946 359.501C132.043 359.222 132.082 358.925 132.06 358.63Z" fill="#F5F5F5"/>
<path d="M135.13 354.82H135.57L134.27 361.31H133.84L135.13 354.82Z" fill="#F5F5F5"/>
<path d="M52.33 357.08L58.5 358.3V358.75L52.78 357.6V359.1L52.38 359.02L52.33 357.08Z" fill="#F5F5F5"/>
<path d="M66.75 349.08C66.88 349.08 65.51 353.54 63.68 358.94C62.6569 362.231 61.4687 365.469 60.12 368.64C59.99 368.59 61.36 364.18 63.19 358.77C64.2099 355.481 65.3981 352.247 66.75 349.08Z" fill="white"/>
<path d="M71.33 349.08C71.46 349.08 70.09 353.54 68.26 358.94C67.2369 362.231 66.0487 365.469 64.7 368.64C64.57 368.59 65.94 364.18 67.77 358.77C68.7899 355.481 69.9781 352.247 71.33 349.08Z" fill="white"/>
<path d="M146.39 349.08C146.52 349.08 145.15 353.54 143.32 358.94C142.297 362.231 141.109 365.469 139.76 368.64C139.63 368.59 141 364.18 142.83 358.77C143.85 355.481 145.038 352.247 146.39 349.08Z" fill="white"/>
<path d="M150.97 349.08C151.1 349.08 149.73 353.54 147.9 358.94C146.877 362.231 145.689 365.469 144.34 368.64C145.196 365.3 146.221 362.006 147.41 358.77C148.43 355.481 149.618 352.247 150.97 349.08Z" fill="white"/>
<path d="M284.09 95.0001C293.44 105.68 297.53 120 299.3 134.11C301.07 148.22 300.79 162.49 302.75 176.55C303.75 183.9 305.41 191.26 304.83 198.65C304.25 206.04 300.96 213.72 294.48 217.33C290.67 219.46 285.32 219.72 282.37 216.5C280.29 214.22 279.94 210.89 279.7 207.81L270.5 91.5901" fill="#263238"/>
<path d="M230.18 195.3L237.07 193.43L279.67 191.23L289.14 193.23C289.14 193.23 272.02 212.57 257.51 212.63C230.97 212.78 230.18 195.3 230.18 195.3Z" fill="#FFBE9D"/>
<path d="M211.94 150.56C208.84 141.18 204.19 124.95 205.94 115.22C207.69 105.49 212.59 96.1601 220.45 90.2201C231.21 82.0001 245.92 80.9301 259.3 83.0001C268.47 84.4101 277.88 87.4101 284.15 94.2301C288.15 98.6101 290.61 104.23 291.97 110.04C293.174 115.863 293.88 121.778 294.08 127.72C294.3 131.3 293.37 138.84 291.35 142.35" fill="url(#paint1_linear_2_1290)"/>
<path d="M290.5 139.94C290.5 139.94 294.38 106.58 272.73 93.7203C251.54 81.1503 229.42 85.9103 221.57 96.0203C206.41 115.56 210.18 129.19 210.18 129.19L285.93 146.91L290.5 139.94Z" fill="#263238"/>
<path d="M210.26 128.45C210.26 128.27 210.26 128.08 210.26 127.89C210.44 108.61 226.12 92.7701 245.4 92.9401C246.33 92.9401 247.29 92.9401 248.26 93.0201C249.773 93.0903 251.282 93.2405 252.78 93.4701C269.52 96.0901 281.66 110.85 281.9 127.79C282.09 141.58 282.21 159.94 281.57 165.4C280.51 174.48 280.79 177.72 280.79 177.72V198.86C280.802 204.837 278.514 210.589 274.399 214.923C270.284 219.258 264.659 221.842 258.69 222.14C255.594 222.296 252.498 221.831 249.584 220.773C246.671 219.716 243.998 218.086 241.722 215.981C239.447 213.875 237.616 211.336 236.336 208.513C235.057 205.689 234.354 202.639 234.27 199.54L233.97 188.65C219.58 187.17 212.61 173.5 211.23 156.97C210.55 148.16 210.13 147.5 210.26 128.45Z" fill="#FFBE9D"/>
<path d="M281.26 139.68C281.64 139.5 296.55 134.59 296.58 149.98C296.61 165.37 281.15 162.21 281.13 161.77C281.11 161.33 281.26 139.68 281.26 139.68Z" fill="#FFBE9D"/>
<path d="M285.82 155.93C285.88 155.88 286.08 156.12 286.54 156.33C287.182 156.588 287.898 156.588 288.54 156.33C290.17 155.73 291.54 153.14 291.6 150.33C291.639 149.012 291.379 147.703 290.84 146.5C290.697 146.021 290.441 145.583 290.093 145.225C289.744 144.866 289.315 144.597 288.84 144.44C288.532 144.361 288.205 144.391 287.917 144.526C287.629 144.661 287.396 144.892 287.26 145.18C287.06 145.61 287.16 145.92 287.08 145.94C287 145.96 286.74 145.69 286.87 145.05C286.946 144.656 287.158 144.302 287.47 144.05C287.892 143.729 288.424 143.589 288.95 143.66C289.583 143.783 290.173 144.067 290.665 144.484C291.157 144.9 291.534 145.436 291.76 146.04C292.412 147.374 292.731 148.846 292.69 150.33C292.6 153.43 291.02 156.33 288.79 156.98C288.377 157.1 287.942 157.126 287.518 157.055C287.094 156.984 286.691 156.818 286.34 156.57C285.84 156.31 285.76 156 285.82 155.93Z" fill="#EB996E"/>
<path d="M217.01 133.53C217.44 133.95 219.91 131.99 223.51 131.88C227.11 131.77 229.82 133.48 230.19 133.03C230.38 132.82 229.93 132.03 228.75 131.25C227.157 130.222 225.284 129.712 223.39 129.79C221.516 129.846 219.708 130.498 218.23 131.65C217.15 132.54 216.8 133.34 217.01 133.53Z" fill="#263238"/>
<path d="M250.66 134C251.09 134.42 253.57 132.46 257.17 132.35C260.77 132.24 263.47 133.95 263.85 133.49C264.03 133.29 263.59 132.49 262.4 131.72C260.807 130.692 258.934 130.182 257.04 130.26C255.167 130.319 253.36 130.971 251.88 132.12C250.81 133 250.5 133.8 250.66 134Z" fill="#263238"/>
<path d="M251.07 122.75C251.39 123.66 254.41 123.61 257.75 124.37C261.09 125.13 263.75 126.28 264.54 125.61C264.9 125.28 264.63 124.44 263.63 123.49C262.233 122.264 260.535 121.433 258.71 121.08C256.836 120.662 254.887 120.717 253.04 121.24C251.63 121.68 250.94 122.32 251.07 122.75Z" fill="#263238"/>
<path d="M229.92 121C228.92 120.08 225.43 120 222.04 120.75C218.65 121.5 216.67 122.92 217.63 123.84C218.59 124.76 222.12 124.84 225.51 124.08C228.9 123.32 230.88 121.88 229.92 121Z" fill="#263238"/>
<path d="M244.5 164.7C244.5 164.91 244.95 165.29 245.91 165.39C247.186 165.483 248.451 165.09 249.45 164.29C250.453 163.492 251.112 162.34 251.29 161.07C251.4 160.12 251.15 159.55 250.93 159.56C250.48 159.56 250.16 161.61 248.41 162.99C246.66 164.37 244.5 164.26 244.5 164.7Z" fill="#263238"/>
<path d="M234.02 188.65C234.02 188.65 252.46 188.47 256.73 185.17C256.73 185.17 253.73 194.17 234.16 193.74L234.02 188.65Z" fill="#EB996E"/>
<path d="M226.82 141.05C226.912 141.85 226.688 142.655 226.197 143.293C225.707 143.931 224.987 144.353 224.19 144.47C223.409 144.604 222.607 144.424 221.959 143.968C221.311 143.513 220.869 142.82 220.73 142.04C220.636 141.24 220.858 140.434 221.349 139.795C221.841 139.156 222.562 138.735 223.36 138.62C224.141 138.486 224.943 138.667 225.591 139.122C226.239 139.577 226.681 140.27 226.82 141.05Z" fill="#263238"/>
<path d="M258.32 141.43C258.414 142.229 258.191 143.034 257.7 143.671C257.208 144.308 256.487 144.728 255.69 144.84C255.303 144.915 254.905 144.911 254.52 144.829C254.135 144.747 253.77 144.588 253.448 144.363C253.125 144.137 252.851 143.849 252.642 143.515C252.432 143.181 252.292 142.809 252.23 142.42C252.135 141.621 252.356 140.817 252.846 140.178C253.335 139.54 254.054 139.117 254.85 139C255.632 138.863 256.437 139.042 257.087 139.498C257.738 139.953 258.181 140.648 258.32 141.43Z" fill="#263238"/>
<path d="M240.96 153.65C240.9 153.43 239.88 153.65 238.35 153.44C237.936 153.385 237.528 153.295 237.13 153.17C236.706 153.048 236.3 152.874 235.92 152.65C235.79 152.54 235.8 152.51 235.8 152.47C235.83 152.3 235.884 152.135 235.96 151.98L236.69 150.28C238.64 145.62 239.91 141.71 239.53 141.55C239.15 141.39 237.26 145.04 235.3 149.7C235.06 150.29 234.83 150.86 234.6 151.41C234.429 151.786 234.351 152.198 234.37 152.61C234.402 152.852 234.488 153.083 234.621 153.288C234.754 153.492 234.931 153.664 235.14 153.79C235.419 153.957 235.718 154.089 236.03 154.18C236.3 154.26 236.57 154.33 236.83 154.38C237.311 154.472 237.8 154.512 238.29 154.5C240.08 154.45 241.03 153.81 240.96 153.65Z" fill="#263238"/>
<path d="M308.93 103.22C306.93 98.6101 304.12 94.0601 304.36 89.0601C304.48 86.8101 305 84.0602 303.14 82.7602C302.477 82.3753 301.735 82.1462 300.97 82.0901C290.416 80.5919 279.688 80.8284 269.21 82.7901C269.223 82.288 269.166 81.7864 269.04 81.3002C268.721 80.2645 268.117 79.3397 267.296 78.6321C266.475 77.9246 265.471 77.4629 264.4 77.3002C263.514 77.1913 262.615 77.2608 261.756 77.5047C260.898 77.7486 260.096 78.1618 259.4 78.7202C251.983 70.828 242.182 65.5867 231.5 63.8002C228.5 63.3002 225.18 63.1202 222.5 64.5502C218.3 66.7502 216.78 71.8902 215.67 76.5502C215.23 78.3502 214.82 80.3701 215.76 81.9701C217.05 84.1502 220.08 84.3601 222.61 84.3101C234.083 84.0768 245.547 83.6935 257 83.1602L257.17 83.0201C257.19 83.3137 257.251 83.6031 257.35 83.8801L257.25 82.9501C257.442 83.9808 257.873 84.952 258.509 85.7857C259.144 86.6193 259.967 87.2922 260.91 87.7501C261.893 88.1993 262.978 88.3786 264.054 88.2696C265.129 88.1607 266.157 87.7674 267.03 87.1301C267.228 86.977 267.415 86.8099 267.59 86.6301C278.38 95.3401 290.02 103.12 302.91 108.21C305.06 109.06 308.04 109.58 309.23 107.59C310.01 106.24 309.5 104.6 308.93 103.22Z" fill="url(#paint2_linear_2_1290)"/>
<path d="M220.39 94.1401C228.92 87.5801 243.93 84.4601 254.39 86.8701C264.85 89.2801 274.84 100 279.3 109.74C284.03 120.11 283.46 132.12 281.3 143.32C280.95 145.18 280.3 147.32 278.47 147.88C277.804 148.015 277.114 147.959 276.478 147.719C275.843 147.478 275.289 147.062 274.88 146.52C274.086 145.419 273.509 144.177 273.18 142.86C271.5 137.6 269.833 132.337 268.18 127.07C267.35 124.46 266.43 121.72 264.38 119.91C263.146 118.952 261.804 118.143 260.38 117.5C256.006 115.139 252.268 111.757 249.482 107.641C246.697 103.525 244.946 98.7977 244.38 93.8601C243.875 97.045 242.613 100.062 240.698 102.657C238.784 105.252 236.274 107.348 233.38 108.77C229.95 110.43 225.96 111.15 223.17 113.77C219.592 117.196 216.854 121.402 215.17 126.06C213.66 130.7 211.17 137.5 210.23 143.78C209.82 139.63 208.41 130.2 208 126.06C208.01 126 205.5 105.57 220.39 94.1401Z" fill="#263238"/>
<path d="M268.79 84.0801C268.792 84.3486 268.726 84.6133 268.6 84.8501C268.323 85.5284 267.907 86.1414 267.38 86.6501C266.598 87.4193 265.613 87.95 264.54 88.1801C263.203 88.4524 261.813 88.2285 260.63 87.5501C259.434 86.8935 258.515 85.8286 258.04 84.5501C257.668 83.5143 257.598 82.3939 257.84 81.3201C257.994 80.6006 258.294 79.9201 258.72 79.3201C259.03 78.9001 259.26 78.7301 259.28 78.7501C258.764 79.5505 258.398 80.4384 258.2 81.3701C258.025 82.3772 258.122 83.4127 258.48 84.3701C258.955 85.5216 259.808 86.4769 260.899 87.0786C261.989 87.6803 263.252 87.8924 264.48 87.6801C265.476 87.4838 266.401 87.0246 267.16 86.3501C267.836 85.6985 268.389 84.9293 268.79 84.0801Z" fill="#263238"/>
<path d="M266.81 86.2501C266.652 85.7715 266.538 85.2794 266.47 84.7801C266.183 83.6233 265.681 82.5309 264.99 81.5601C264.29 80.599 263.419 79.7752 262.42 79.1301C261.64 78.6401 261.1 78.4201 261.13 78.3401C261.652 78.3681 262.158 78.53 262.6 78.8101C263.718 79.3912 264.682 80.2312 265.41 81.2601C266.148 82.2821 266.635 83.4643 266.83 84.7101C266.952 85.217 266.945 85.7465 266.81 86.2501Z" fill="#263238"/>
<path d="M268.57 80.3501C268.57 80.5001 267.69 80.4201 266.74 80.7701C265.79 81.1201 265.18 81.7101 265.06 81.6201C264.94 81.5301 265.45 80.6801 266.56 80.2801C267.67 79.8801 268.62 80.2201 268.57 80.3501Z" fill="#263238"/>
<path d="M287.68 86.1602C286.753 86.0437 285.834 85.8667 284.93 85.6302C282.724 85.1802 280.488 84.8927 278.24 84.7702C275.996 84.6531 273.747 84.6965 271.51 84.9002C270.582 85.0328 269.647 85.1096 268.71 85.1302C269.598 84.8157 270.522 84.6142 271.46 84.5302C273.715 84.2161 275.996 84.1223 278.27 84.2502C280.544 84.3614 282.802 84.6964 285.01 85.2502C285.935 85.4377 286.833 85.7435 287.68 86.1602Z" fill="#263238"/>
<path d="M284.5 90.3202C283.709 90.0448 282.94 89.7105 282.2 89.3202C278.541 87.6422 274.678 86.4488 270.71 85.7702C269.873 85.6805 269.044 85.5267 268.23 85.3102C269.074 85.2362 269.924 85.2698 270.76 85.4102C272.794 85.6467 274.802 86.0684 276.76 86.6702C278.708 87.2696 280.597 88.0496 282.4 89.0002C283.155 89.346 283.861 89.7898 284.5 90.3202Z" fill="#263238"/>
<path d="M257.91 83.7002C257.724 83.7191 257.536 83.7191 257.35 83.7002H255.75L249.88 83.6102C244.88 83.6102 238.07 83.6102 230.52 84.0302L225 84.3502C223.281 84.5561 221.545 84.583 219.82 84.4302C219.011 84.3713 218.224 84.1433 217.509 83.7609C216.794 83.3784 216.168 82.8501 215.67 82.2102C215.261 81.5852 215.039 80.8568 215.03 80.1102C215.013 79.4383 215.077 78.7669 215.22 78.1102C215.623 76.1874 216.131 74.2879 216.74 72.4202C216.96 71.7602 217.15 71.2502 217.29 70.9202C217.349 70.7426 217.434 70.5743 217.54 70.4202C217.512 70.6024 217.462 70.7804 217.39 70.9502C217.28 71.3002 217.12 71.8202 216.94 72.4802C216.57 73.8102 216.03 75.7602 215.58 78.1802C215.228 79.4471 215.39 80.8015 216.03 81.9502C216.498 82.5321 217.082 83.0103 217.745 83.3546C218.408 83.6989 219.135 83.9017 219.88 83.9502C221.576 84.078 223.281 84.0378 224.97 83.8302C226.75 83.7102 228.6 83.6002 230.49 83.5002C238.06 83.1102 244.92 83.1002 249.88 83.2402C252.37 83.3002 254.37 83.4102 255.76 83.4902L257.35 83.6102C257.54 83.6124 257.729 83.6427 257.91 83.7002Z" fill="#263238"/>
<path d="M293.65 104.07C293.247 103.953 292.858 103.792 292.49 103.59C291.75 103.26 290.7 102.75 289.42 102.09C286.86 100.77 283.42 98.8202 279.69 96.4202C275.96 94.0202 272.8 91.6303 270.56 89.8203C269.43 88.9203 268.56 88.1702 267.94 87.6302C267.615 87.3677 267.313 87.0765 267.04 86.7603C267.4 86.9572 267.735 87.1955 268.04 87.4703L270.75 89.5303C273.05 91.2603 276.27 93.5903 279.94 95.9803C283.61 98.3703 287.05 100.37 289.57 101.77L292.57 103.41C292.956 103.585 293.319 103.806 293.65 104.07Z" fill="#263238"/>
<path d="M239.71 76.4402C240.645 76.2324 241.603 76.145 242.56 76.1802C244.872 76.178 247.176 76.4602 249.42 77.0202C251.663 77.5884 253.827 78.435 255.86 79.5402C256.724 79.9513 257.526 80.4833 258.24 81.1202C258.24 81.1902 257.24 80.6202 255.69 79.8602C253.639 78.8724 251.495 78.0919 249.29 77.5302C247.083 76.9704 244.825 76.6354 242.55 76.5302C241.602 76.5554 240.654 76.5254 239.71 76.4402Z" fill="#263238"/>
<g opacity="0.3">
<path opacity="0.3" d="M258.13 80.6202C256.59 78.5302 254.21 77.2402 251.89 76.0702C250.086 75.0896 248.173 74.3243 246.19 73.7902C244.195 73.2503 242.083 73.3376 240.14 74.0402C239.957 74.0911 239.787 74.1784 239.639 74.297C239.491 74.4156 239.369 74.563 239.28 74.7302C239.204 74.9719 239.223 75.2332 239.333 75.4615C239.442 75.6898 239.634 75.868 239.87 75.9602C240.339 76.151 240.845 76.2331 241.35 76.2002C247.193 76.3386 252.899 77.9926 257.91 81.0002" fill="black"/>
</g>
<g opacity="0.3">
<path opacity="0.3" d="M268.59 85.3101C272.606 85.0417 276.641 85.3006 280.59 86.0801C282.035 86.304 283.43 86.7813 284.71 87.4901C285.347 87.8536 285.898 88.3498 286.325 88.9451C286.753 89.5404 287.048 90.2208 287.19 90.9401C287.218 91.0448 287.22 91.1546 287.198 91.2606C287.175 91.3666 287.128 91.4657 287.06 91.5501C286.82 91.7901 286.42 91.6201 286.13 91.4601C280.795 88.36 274.91 86.3225 268.8 85.4601" fill="black"/>
</g>
<path d="M198.81 403.12L229.81 413.07C229.81 413.07 230.11 447.95 235.67 450.35L257.12 390.88L209.5 373.4L198.81 403.12Z" fill="#455A64"/>
<path d="M233.9 393.76C234.278 393.251 234.832 392.899 235.454 392.774C236.077 392.648 236.723 392.757 237.27 393.08C237.794 393.44 238.159 393.987 238.291 394.608C238.423 395.23 238.312 395.878 237.98 396.42C237.575 396.958 236.985 397.327 236.324 397.456C235.663 397.585 234.978 397.465 234.4 397.12C233.4 396.32 233.11 394.41 234.05 393.56" fill="#E0E0E0"/>
<g opacity="0.6">
<path opacity="0.6" d="M257.15 390.88L252.27 389.31L233.5 446.91C233.5 446.91 233.69 449.97 235.67 450.35L257.15 390.88Z" fill="white"/>
</g>
<path d="M229.19 413.93C229.48 414.02 230.14 412.62 231.59 411.53C233.04 410.44 234.53 410.11 234.51 409.8C234.49 409.49 232.66 409.32 230.93 410.68C229.2 412.04 228.9 413.89 229.19 413.93Z" fill="#263238"/>
<path d="M229.5 421.09C229.75 421.26 230.7 420.18 232.29 419.64C233.88 419.1 235.29 419.28 235.36 418.99C235.43 418.7 233.88 417.92 231.92 418.63C229.96 419.34 229.24 421 229.5 421.09Z" fill="#263238"/>
<path d="M235.7 427.33C235.86 427.09 234.56 426.16 232.7 426.33C230.84 426.5 229.7 427.63 229.91 427.84C230.12 428.05 231.26 427.52 232.79 427.4C234.32 427.28 235.57 427.61 235.7 427.33Z" fill="#263238"/>
<path d="M222.37 410.87C222.68 410.87 222.76 409.37 223.46 407.77C224.16 406.17 225.14 405.08 224.95 404.84C224.76 404.6 223.28 405.45 222.47 407.35C221.66 409.25 222.09 410.93 222.37 410.87Z" fill="#263238"/>
<path d="M314.5 406.94L283.5 416.89C283.5 416.89 283.19 451.77 277.64 454.17L256.14 394.7L303.85 377.22L314.5 406.94Z" fill="#455A64"/>
<path d="M279.4 397.58C279.02 397.07 278.464 396.718 277.84 396.593C277.216 396.467 276.568 396.577 276.02 396.9C275.5 397.263 275.138 397.811 275.008 398.431C274.878 399.052 274.989 399.699 275.32 400.24C275.724 400.78 276.314 401.15 276.975 401.279C277.637 401.409 278.322 401.288 278.9 400.94C279.9 400.14 280.19 398.23 279.25 397.38" fill="#E0E0E0"/>
<g opacity="0.6">
<path opacity="0.6" d="M256.14 394.7L261.02 393.13L279.77 450.73C279.77 450.73 279.57 453.79 277.6 454.17L256.14 394.7Z" fill="white"/>
</g>
<path d="M284.11 417.75C283.81 417.84 283.16 416.44 281.71 415.35C280.26 414.26 278.77 413.93 278.78 413.62C278.79 413.31 280.64 413.14 282.37 414.5C284.1 415.86 284.4 417.71 284.11 417.75Z" fill="#263238"/>
<path d="M283.78 424.91C283.52 425.08 282.57 424 280.99 423.46C279.41 422.92 277.99 423.1 277.91 422.81C277.83 422.52 279.4 421.74 281.35 422.45C283.3 423.16 284.05 424.81 283.78 424.91Z" fill="#263238"/>
<path d="M277.59 431.15C277.44 430.91 278.74 429.98 280.59 430.15C282.44 430.32 283.59 431.45 283.37 431.66C283.15 431.87 282.02 431.34 280.5 431.22C278.98 431.1 277.73 431.43 277.59 431.15Z" fill="#263238"/>
<path d="M290.93 414.69C290.62 414.69 290.54 413.19 289.84 411.59C289.14 409.99 288.15 408.9 288.35 408.66C288.55 408.42 290.02 409.27 290.82 411.17C291.62 413.07 291.21 414.75 290.93 414.69Z" fill="#263238"/>
<path d="M212.29 334.88C211.14 334.88 144.64 320.88 137.97 320.56C131.3 320.24 114.37 326.26 113.22 340.91C112.07 355.56 112.29 365.91 122.92 372.83C133.55 379.75 217.09 420.48 217.09 420.48L227.98 386.48L244.98 392.85L260.86 338.05L212.29 334.88Z" fill="#263238"/>
<path d="M206.73 371.1C206.497 370.996 206.27 370.879 206.05 370.75L204.13 369.67C202.48 368.67 200.13 367.31 197.18 365.53C189.511 360.976 182.286 355.713 175.6 349.81C171.71 346.34 167.87 343.19 164.36 340.35C162.6 338.93 160.95 337.56 159.36 336.35C157.865 335.242 156.295 334.239 154.66 333.35C152.301 332.063 149.773 331.113 147.15 330.53C146.22 330.33 145.48 330.22 144.98 330.16C144.727 330.145 144.475 330.105 144.23 330.04C144.486 330.022 144.744 330.022 145 330.04C145.732 330.082 146.46 330.172 147.18 330.31C149.85 330.82 152.429 331.726 154.83 333C156.491 333.865 158.088 334.848 159.61 335.94C161.26 337.12 162.91 338.48 164.68 339.88C168.21 342.71 172.07 345.88 175.96 349.33C182.633 355.207 189.803 360.493 197.39 365.13L204.26 369.4L206.12 370.57C206.345 370.72 206.55 370.898 206.73 371.1Z" fill="#455A64"/>
<path d="M157.5 327.71C158.283 328.093 159.009 328.581 159.66 329.16C161.315 330.47 162.764 332.021 163.96 333.76C165.154 335.509 166.028 337.456 166.54 339.51C166.791 340.35 166.913 341.224 166.9 342.1C166.71 342.16 166.3 338.1 163.53 334.1C160.76 330.1 157.37 327.86 157.5 327.71Z" fill="#455A64"/>
<path d="M285.96 335.47C287.11 335.47 353.61 321.47 360.27 321.14C366.93 320.81 383.88 326.85 385.03 341.5C386.18 356.15 385.95 366.5 375.33 373.42C364.71 380.34 281.15 421.06 281.15 421.06L270.26 387.06L253.26 393.43L237.38 338.63L285.96 335.47Z" fill="#263238"/>
<path d="M291.5 371.69C291.694 371.522 291.905 371.374 292.13 371.25L294 370.08L300.87 365.8C308.461 361.17 315.632 355.883 322.3 350C326.2 346.51 330.06 343.37 333.58 340.55C335.35 339.15 337.01 337.78 338.65 336.6C340.179 335.517 341.779 334.538 343.44 333.67C345.838 332.397 348.413 331.49 351.08 330.98C351.803 330.843 352.535 330.752 353.27 330.71C353.526 330.686 353.784 330.686 354.04 330.71C353.791 330.775 353.537 330.815 353.28 330.83C352.78 330.89 352.05 331 351.12 331.2C348.498 331.782 345.97 332.728 343.61 334.01C341.977 334.903 340.407 335.905 338.91 337.01C337.29 338.19 335.65 339.57 333.91 341.01C330.41 343.86 326.56 347.01 322.68 350.47C315.996 356.379 308.771 361.646 301.1 366.2C298.19 367.98 295.8 369.38 294.1 370.33L292.19 371.42C291.966 371.526 291.736 371.616 291.5 371.69Z" fill="#455A64"/>
<path d="M340.74 328.3C340.88 328.45 337.45 330.64 334.74 334.64C332.03 338.64 331.56 342.75 331.37 342.64C331.35 341.767 331.468 340.896 331.72 340.06C332.239 338.008 333.112 336.062 334.3 334.31C335.498 332.573 336.947 331.023 338.6 329.71C339.243 329.141 339.963 328.666 340.74 328.3Z" fill="#455A64"/>
<path d="M163.29 290.15H157.4C157.4 290.15 144.48 295.03 145.4 306.29C145.4 306.29 147.28 313.95 159.52 312.6L175.29 308.09L177.24 291.32L163.29 290.15Z" fill="#FFBE9D"/>
<path fill-rule="evenodd" clip-rule="evenodd" d="M313.919 205.674L287.5 191.23C287.5 191.23 272.78 207.23 253.37 206.77C233.96 206.31 230.2 195.3 230.2 195.3L206.4 203.214C203.731 203.965 199.817 205.714 196.09 209.79L161.17 263.61C161.17 263.61 141.91 273.47 139.56 286.61C137.21 299.75 136.74 309.16 143.32 313.39C144.514 314.108 145.803 314.653 147.15 315.01C152.62 316.536 158.435 316.264 163.739 314.235C169.043 312.206 173.555 308.527 176.61 303.74L201.56 265.28L201.6 264.974L201.58 265.29C201.58 265.29 201.7 336.84 202.63 336.84C203.56 336.84 305.33 339 305.33 339L303.95 291.2L306.427 272.538C306.422 272.723 306.42 272.82 306.42 272.82L321.73 299.82L311.15 307.57L324.55 328.74C324.55 328.74 357.94 317.16 361.12 313.74C362.61 312.11 363.38 309.51 363.76 306.74C364.52 300.709 363.476 294.588 360.76 289.15C354.03 275.32 337.6 241.35 334.52 232.78C326.65 210.86 313.92 205.67 313.92 205.67C313.92 205.67 313.92 205.671 313.919 205.674Z" fill="url(#paint3_linear_2_1290)"/>
<path d="M199.42 224.84C199.56 224.84 200.35 238.84 201.19 256.11C202.03 273.38 202.58 287.39 202.44 287.4C202.3 287.41 201.5 273.4 200.67 256.13C199.84 238.86 199.27 224.85 199.42 224.84Z" fill="#263238"/>
<path d="M313.92 222.54C314.06 222.54 311.92 237.61 309.24 256.14C306.56 274.67 304.19 289.68 304.04 289.66C303.89 289.64 306.04 274.6 308.72 256.06C311.4 237.52 313.77 222.52 313.92 222.54Z" fill="#263238"/>
<path d="M174.97 277.88C174.84 277.98 172.66 275.04 169.23 272.17C165.8 269.3 162.56 267.63 162.64 267.48C163.406 267.719 164.139 268.055 164.82 268.48C166.503 269.43 168.093 270.535 169.57 271.78C171.047 273.023 172.403 274.402 173.62 275.9C174.157 276.496 174.611 277.162 174.97 277.88Z" fill="#263238"/>
<path d="M345.3 292.79C345.3 292.88 343.87 292.66 341.58 292.65C338.592 292.631 335.616 293.031 332.74 293.84C329.871 294.671 327.132 295.896 324.6 297.48C322.66 298.7 321.6 299.63 321.51 299.56C321.42 299.49 321.74 299.28 322.23 298.85C322.913 298.24 323.638 297.679 324.4 297.17C329.456 293.735 335.483 292.021 341.59 292.28C342.506 292.306 343.418 292.4 344.32 292.56C344.657 292.585 344.987 292.663 345.3 292.79Z" fill="#263238"/>
<path d="M340.5 284C340.5 284.09 339.13 284.4 337 285.24C335.762 285.735 334.559 286.313 333.4 286.97C331.996 287.791 330.659 288.721 329.4 289.75C327.104 291.639 325.111 293.868 323.49 296.36C322.25 298.28 321.68 299.59 321.59 299.55C321.661 299.22 321.776 298.901 321.93 298.6C322.286 297.76 322.704 296.948 323.18 296.17C323.872 295.002 324.658 293.891 325.53 292.85C326.608 291.582 327.793 290.408 329.07 289.34C330.364 288.297 331.746 287.367 333.2 286.56C334.389 285.906 335.63 285.351 336.91 284.9C337.767 284.583 338.646 284.329 339.54 284.14C339.852 284.052 340.175 284.005 340.5 284Z" fill="#263238"/>
<g opacity="0.3">
<path opacity="0.3" d="M306.24 272.86C310.82 268.66 312.98 262.33 313.39 256.13C313.8 249.93 312.63 243.75 311.47 237.65" fill="black"/>
</g>
<g opacity="0.3">
<path opacity="0.3" d="M321.57 299.39C324.183 295.547 328.06 292.742 332.527 291.463C336.995 290.184 341.769 290.512 346.02 292.39C337.371 291.362 328.668 293.808 321.82 299.19" fill="black"/>
</g>
<g opacity="0.3">
<path opacity="0.3" d="M175.5 278.05C175.15 275.82 174.248 273.713 172.877 271.92C171.507 270.126 169.71 268.703 167.65 267.78C166.48 267.27 164.9 267.02 164.11 268.03C168.625 270.661 172.512 274.244 175.5 278.53" fill="black"/>
</g>
<path d="M143.94 296.28C143.962 295.985 144.04 295.696 144.17 295.43C144.468 294.685 144.88 293.99 145.39 293.37C147.135 291.342 149.507 289.955 152.13 289.43C154.716 288.953 157.364 288.922 159.96 289.34C160.96 289.48 161.75 289.62 162.3 289.73C162.589 289.768 162.872 289.845 163.14 289.96C162.062 289.943 160.986 289.857 159.92 289.7C157.362 289.402 154.774 289.482 152.24 289.94C149.72 290.447 147.423 291.73 145.67 293.61C144.999 294.436 144.419 295.331 143.94 296.28Z" fill="#263238"/>
<path d="M255.69 250.47C255.425 247.248 254.452 244.124 252.839 241.321C251.226 238.519 249.013 236.108 246.36 234.26C244.382 232.796 242.04 231.904 239.59 231.68C238.366 231.578 237.134 231.768 235.998 232.234C234.861 232.699 233.85 233.428 233.05 234.36C230.81 237.22 231.53 241.64 233.9 244.36C236.27 247.08 239.9 248.52 243.42 249.3C246.94 250.08 250.65 250.35 254.13 251.41C250.2 252.34 246.19 253.31 242.8 255.49C239.41 257.67 236.69 261.34 236.74 265.38C236.79 269.42 240.43 273.38 244.43 272.84C247.49 272.43 249.74 269.77 251.26 267.08C254.245 262.046 255.779 256.283 255.69 250.43" fill="#FAFAFA"/>
<path d="M255.69 250.47C255.822 252.111 255.761 253.763 255.51 255.39C254.861 259.854 253.313 264.141 250.96 267.99C250.183 269.284 249.204 270.446 248.06 271.43C246.794 272.533 245.169 273.138 243.49 273.13C241.688 273.024 240.001 272.208 238.8 270.86C237.482 269.482 236.68 267.691 236.53 265.79C236.439 263.801 236.944 261.83 237.98 260.13C239.034 258.365 240.452 256.845 242.14 255.67C245.59 253.26 249.85 252.19 254.07 251.19V251.7C253.5 251.53 252.88 251.35 252.24 251.21C247.93 250.21 243.47 250.01 239.47 248.43C237.487 247.696 235.684 246.547 234.18 245.06C232.753 243.586 231.835 241.693 231.56 239.66C231.401 238.693 231.444 237.704 231.685 236.754C231.926 235.804 232.36 234.915 232.96 234.14C234.166 232.733 235.845 231.816 237.68 231.56C239.366 231.329 241.084 231.518 242.68 232.11C244.142 232.646 245.52 233.39 246.77 234.32C248.924 235.881 250.775 237.823 252.23 240.05C253.323 241.731 254.188 243.55 254.8 245.46C255.183 246.666 255.454 247.904 255.61 249.16C255.66 249.59 255.68 249.92 255.69 250.16C255.705 250.269 255.705 250.381 255.69 250.49C255.656 250.383 255.635 250.272 255.63 250.16C255.63 249.92 255.55 249.6 255.5 249.16C255.295 247.925 254.994 246.708 254.6 245.52C253.958 243.645 253.077 241.86 251.98 240.21C250.521 238.026 248.678 236.125 246.54 234.6C245.314 233.707 243.967 232.994 242.54 232.48C241.003 231.915 239.35 231.744 237.73 231.98C236.003 232.229 234.425 233.096 233.29 234.42C232.736 235.149 232.337 235.984 232.117 236.873C231.897 237.762 231.86 238.687 232.01 239.59C232.281 241.517 233.161 243.307 234.52 244.7C235.975 246.135 237.721 247.24 239.64 247.94C243.54 249.49 247.96 249.69 252.34 250.69C252.99 250.84 253.62 251.01 254.21 251.19L255.15 251.46L254.15 251.69C249.93 252.69 245.74 253.75 242.39 256.08C240.77 257.213 239.407 258.675 238.39 260.37C237.402 261.985 236.918 263.858 237 265.75C237.25 269.39 240.24 272.57 243.5 272.7C245.079 272.71 246.607 272.145 247.8 271.11C248.922 270.162 249.881 269.037 250.64 267.78C252.996 263.983 254.583 259.759 255.31 255.35C255.488 254.151 255.598 252.942 255.64 251.73C255.64 251.34 255.64 251.03 255.64 250.79C255.648 250.682 255.665 250.575 255.69 250.47Z" fill="#263238"/>
<path d="M257.99 250.47C258.255 247.248 259.228 244.124 260.841 241.321C262.454 238.519 264.666 236.108 267.32 234.26C269.298 232.796 271.639 231.904 274.09 231.68C275.314 231.578 276.545 231.768 277.682 232.234C278.819 232.699 279.829 233.428 280.63 234.36C282.87 237.22 282.15 241.64 279.78 244.36C277.41 247.08 273.78 248.52 270.26 249.3C266.74 250.08 263.03 250.35 259.55 251.41C263.48 252.34 267.49 253.31 270.88 255.49C274.27 257.67 276.99 261.34 276.94 265.38C276.89 269.42 273.25 273.38 269.25 272.84C266.19 272.43 263.94 269.77 262.42 267.08C259.434 262.046 257.901 256.283 257.99 250.43" fill="#FAFAFA"/>
<path d="M257.99 250.47C257.999 250.58 257.999 250.69 257.99 250.8C257.99 251.04 257.99 251.35 257.99 251.74C258.031 252.952 258.145 254.161 258.33 255.36C259.048 259.77 260.631 263.995 262.99 267.79C263.749 269.047 264.708 270.172 265.83 271.12C267.023 272.155 268.551 272.72 270.13 272.71C273.39 272.58 276.39 269.4 276.63 265.76C276.712 263.868 276.228 261.995 275.24 260.38C274.223 258.685 272.86 257.223 271.24 256.09C267.89 253.76 263.7 252.69 259.48 251.7L258.48 251.47L259.42 251.2C260.01 251.02 260.64 250.85 261.29 250.7C265.67 249.7 270.09 249.5 273.99 247.95C275.91 247.252 277.657 246.147 279.11 244.71C280.469 243.317 281.349 241.527 281.62 239.6C281.77 238.697 281.733 237.772 281.513 236.883C281.293 235.994 280.894 235.159 280.34 234.43C279.204 233.106 277.627 232.239 275.9 231.99C274.28 231.754 272.627 231.925 271.09 232.49C269.663 233.004 268.316 233.717 267.09 234.61C264.952 236.135 263.109 238.036 261.65 240.22C260.552 241.87 259.672 243.655 259.03 245.53C258.635 246.718 258.335 247.935 258.13 249.17C258.08 249.58 258.03 249.9 258 250.17C257.994 250.282 257.974 250.393 257.94 250.5C257.924 250.391 257.924 250.28 257.94 250.17C257.94 249.95 257.94 249.62 258.02 249.17C258.176 247.914 258.447 246.676 258.83 245.47C259.442 243.56 260.306 241.741 261.4 240.06C262.856 237.83 264.71 235.888 266.87 234.33C268.115 233.399 269.49 232.655 270.95 232.12C272.546 231.528 274.263 231.339 275.95 231.57C277.785 231.826 279.464 232.743 280.67 234.15C281.27 234.925 281.704 235.814 281.945 236.764C282.186 237.714 282.228 238.703 282.07 239.67C281.795 241.703 280.877 243.596 279.45 245.07C277.946 246.557 276.143 247.706 274.16 248.44C270.16 250.02 265.7 250.22 261.39 251.22C260.75 251.36 260.13 251.54 259.56 251.71V251.2C263.78 252.2 268.04 253.27 271.49 255.68C273.178 256.857 274.599 258.377 275.66 260.14C276.688 261.843 277.19 263.813 277.1 265.8C276.95 267.701 276.148 269.492 274.83 270.87C273.629 272.218 271.942 273.034 270.14 273.14C268.461 273.147 266.837 272.542 265.57 271.44C264.426 270.458 263.45 269.296 262.68 268C260.32 264.153 258.769 259.866 258.12 255.4C257.884 253.767 257.841 252.113 257.99 250.47Z" fill="#263238"/>
<path d="M256.84 267.58C256.541 267.577 256.255 267.458 256.044 267.246C255.832 267.035 255.713 266.749 255.71 266.45V244.7C255.71 244.399 255.829 244.111 256.04 243.897C256.252 243.684 256.539 243.563 256.84 243.56C257.141 243.563 257.428 243.684 257.64 243.897C257.851 244.111 257.97 244.399 257.97 244.7V266.45C257.967 266.749 257.847 267.035 257.636 267.246C257.425 267.458 257.139 267.577 256.84 267.58Z" fill="#263238"/>
<path d="M256.84 267.6C256.534 267.6 256.24 267.479 256.023 267.264C255.806 267.048 255.683 266.756 255.68 266.45V244.7C255.68 244.392 255.802 244.097 256.02 243.88C256.237 243.662 256.532 243.54 256.84 243.54C257.148 243.54 257.443 243.662 257.66 243.88C257.878 244.097 258 244.392 258 244.7V266.45C257.997 266.756 257.874 267.048 257.657 267.264C257.439 267.479 257.146 267.6 256.84 267.6ZM256.84 243.6C256.545 243.6 256.263 243.717 256.055 243.925C255.847 244.133 255.73 244.416 255.73 244.71V266.46C255.73 266.754 255.847 267.037 256.055 267.245C256.263 267.453 256.545 267.57 256.84 267.57C257.134 267.57 257.417 267.453 257.625 267.245C257.833 267.037 257.95 266.754 257.95 266.46V244.7C257.95 244.406 257.833 244.123 257.625 243.915C257.417 243.707 257.134 243.59 256.84 243.59V243.6Z" fill="#263238"/>
<path d="M250.62 231.94C251.252 232.422 251.803 233.003 252.25 233.66C253.426 235.184 254.379 236.868 255.08 238.66C255.785 240.439 256.239 242.307 256.43 244.21C256.555 244.992 256.555 245.788 256.43 246.57C255.962 241.242 253.946 236.167 250.63 231.97L250.62 231.94Z" fill="#263238"/>
<path d="M262.99 232.05C261.571 234.05 260.32 236.164 259.25 238.37C258.347 240.64 257.634 242.982 257.12 245.37C257.049 244.641 257.097 243.905 257.26 243.19C257.847 239.695 259.297 236.402 261.48 233.61C261.895 233.011 262.405 232.484 262.99 232.05Z" fill="#263238"/>
<path d="M256.24 252.62C256.16 252.62 255.64 251.62 254.6 250.06C251.862 246.001 248.055 242.779 243.6 240.75C241.89 239.98 240.77 239.65 240.8 239.56C240.83 239.47 241.09 239.56 241.61 239.71C242.335 239.896 243.046 240.13 243.74 240.41C248.376 242.288 252.29 245.599 254.91 249.86C255.304 250.503 255.655 251.171 255.96 251.86C256.091 252.098 256.186 252.354 256.24 252.62Z" fill="#263238"/>
<path d="M256.32 250.5C255.955 251.424 255.485 252.303 254.92 253.12C253.672 255.155 252.293 257.106 250.79 258.96C249.291 260.822 247.671 262.583 245.94 264.23C245.256 264.948 244.498 265.591 243.68 266.15C244.289 265.373 244.958 264.644 245.68 263.97C246.94 262.65 248.63 260.8 250.38 258.64C252.13 256.48 253.59 254.43 254.61 252.92C255.122 252.074 255.693 251.265 256.32 250.5Z" fill="#263238"/>
<path d="M269.16 240.75C268.468 241.309 267.74 241.82 266.98 242.28C265.211 243.481 263.54 244.818 261.98 246.28C260.423 247.738 258.976 249.309 257.65 250.98C257.144 251.71 256.589 252.405 255.99 253.06C256.342 252.236 256.803 251.462 257.36 250.76C258.614 249.002 260.041 247.374 261.62 245.9C263.197 244.42 264.923 243.107 266.77 241.98C267.512 241.472 268.315 241.058 269.16 240.75Z" fill="#263238"/>
<path d="M269.03 265.7C268.193 265.297 267.413 264.786 266.71 264.18C263.187 261.397 260.374 257.82 258.5 253.74C258.067 252.918 257.75 252.04 257.56 251.13C258.032 251.921 258.456 252.739 258.83 253.58C260.87 257.507 263.64 261.009 266.99 263.9C267.705 264.46 268.386 265.061 269.03 265.7Z" fill="#263238"/>
<path d="M283.77 279.57C283.77 279.72 272.22 279.83 257.97 279.83C243.72 279.83 232.17 279.72 232.17 279.57C232.17 279.42 243.72 279.31 257.97 279.31C272.22 279.31 283.77 279.43 283.77 279.57Z" fill="#263238"/>
<path d="M210.82 151.81C205.03 162.2 215.26 176.07 209.92 186.7C208.4 189.7 205.63 192.37 205.65 195.76C205.67 199.15 208.39 201.98 207.94 205.23C207.59 207.73 205.48 209.56 204.14 211.7C201.49 215.9 201.92 221.59 204.43 225.88C206.022 228.638 208.357 230.893 211.169 232.389C213.98 233.884 217.155 234.56 220.332 234.339C223.509 234.118 226.56 233.009 229.137 231.139C231.715 229.269 233.715 226.712 234.91 223.76C237.11 218.41 235.5 212.46 235.25 206.68C235 200.74 234.16 193.74 234.02 188.68C234.02 188.68 217.81 186.97 213.3 168.38C212.287 164.299 211.581 160.147 211.19 155.96C210.85 152.74 210.82 151.81 210.82 151.81Z" fill="#263238"/>
<path d="M311.38 307.89L289.98 315.32L293.31 322.63L301.48 333.26L323.45 327.03L311.38 307.89Z" fill="#FFBE9D"/>
<path d="M264.07 323.18L238.35 290.8H166.91L229.78 370.49L296.39 364.4L264.07 323.18Z" fill="#455A64"/>
<path d="M167.36 291.37L162.88 297.3L227.26 377.83L288.57 371.91L293.08 364.7L229.78 370.49L167.36 291.37Z" fill="#E0E0E0"/>
<path d="M246.18 300.07C246.543 299.477 246.825 298.838 247.02 298.17C247.204 297.448 247.204 296.692 247.02 295.97C246.753 295.113 246.223 294.362 245.505 293.823C244.787 293.285 243.917 292.986 243.02 292.97C242.276 292.969 241.543 293.154 240.89 293.51C240.301 293.886 239.76 294.332 239.28 294.84C239.23 294.84 239.53 293.97 240.71 293.2C241.479 292.701 242.384 292.454 243.3 292.494C244.216 292.533 245.097 292.857 245.82 293.42C246.634 294.03 247.219 294.897 247.48 295.88C247.672 296.675 247.648 297.507 247.41 298.29C247.236 299.016 246.797 299.65 246.18 300.07Z" fill="#263238"/>
<path d="M249.71 303.61C250.073 303.012 250.358 302.37 250.56 301.7C250.744 300.982 250.744 300.228 250.56 299.51C250.304 298.645 249.778 297.885 249.06 297.34C248.339 296.793 247.464 296.489 246.56 296.47C245.819 296.476 245.091 296.665 244.44 297.02C243.848 297.392 243.307 297.839 242.83 298.35C243.08 297.642 243.587 297.053 244.25 296.7C244.928 296.28 245.703 296.039 246.5 296C247.211 295.985 247.915 296.139 248.555 296.448C249.196 296.758 249.753 297.215 250.182 297.782C250.612 298.349 250.901 299.01 251.025 299.71C251.15 300.41 251.107 301.13 250.9 301.81C250.74 302.537 250.316 303.178 249.71 303.61Z" fill="#263238"/>
<path d="M253.25 307.15C253.61 306.551 253.895 305.909 254.1 305.24C254.279 304.521 254.279 303.769 254.1 303.05C253.832 302.194 253.301 301.444 252.583 300.905C251.866 300.367 250.997 300.068 250.1 300.05C249.359 300.055 248.63 300.244 247.98 300.6C247.386 300.969 246.844 301.416 246.37 301.93C246.32 301.93 246.62 301.05 247.79 300.28C248.39 299.904 249.071 299.674 249.777 299.61C250.483 299.545 251.194 299.648 251.853 299.908C252.511 300.169 253.1 300.581 253.57 301.111C254.04 301.642 254.379 302.275 254.56 302.96C254.757 303.758 254.732 304.595 254.49 305.38C254.311 306.104 253.869 306.735 253.25 307.15Z" fill="#263238"/>
<path d="M256.79 310.68C257.154 310.086 257.44 309.448 257.64 308.78C257.824 308.058 257.824 307.302 257.64 306.58C257.373 305.723 256.843 304.972 256.125 304.434C255.407 303.895 254.537 303.596 253.64 303.58C252.896 303.579 252.163 303.765 251.51 304.12C250.921 304.496 250.38 304.943 249.9 305.45C249.85 305.45 250.15 304.58 251.33 303.81C251.931 303.436 252.611 303.208 253.317 303.145C254.022 303.081 254.732 303.184 255.39 303.445C256.048 303.705 256.636 304.117 257.107 304.645C257.577 305.174 257.918 305.806 258.1 306.49C258.292 307.285 258.268 308.117 258.03 308.9C257.853 309.627 257.411 310.262 256.79 310.68Z" fill="#263238"/>
<path d="M243.31 380.07C243.31 379.42 203.85 331.35 190.6 313L192.68 307.89L256.78 301.89L262.3 303.59L309.08 372.49L243.31 380.07Z" fill="#263238"/>
<path d="M162.35 294.43C162.35 294.43 162.41 294.16 162.5 293.71C163.05 291.12 164.96 282.4 166.11 281.51C167.46 280.46 172.27 278.96 172.27 278.96H174.67C174.67 278.96 182.78 273.1 184.43 273.1C186.08 273.1 189.85 273.98 190.15 275.93C190.339 276.837 190.38 277.77 190.27 278.69C190.27 278.69 195.55 277.75 196.6 280.31C196.6 280.31 200.67 281.36 201.6 284.81C202.53 288.26 202.65 297.43 202.65 297.43C202.65 297.43 200.65 299.38 199.19 298.33C199.116 298.589 198.99 298.831 198.821 299.04C198.651 299.249 198.441 299.422 198.203 299.548C197.964 299.675 197.703 299.751 197.435 299.774C197.166 299.796 196.896 299.765 196.64 299.68C195.501 299.359 194.474 298.725 193.677 297.85C192.88 296.975 192.344 295.894 192.13 294.73C191.98 292.62 191.38 289.02 191.38 289.02L190.18 289.77C190.18 289.77 190.48 292.92 187.63 293.07C184.78 293.22 184.69 291.36 184.69 291.36L167.35 291.27L164.93 294.27L162.35 294.43Z" fill="#FFBE9D"/>
<path d="M190.38 277.12C190.6 279.353 190.65 281.6 190.53 283.84C190.578 286.083 190.451 288.327 190.15 290.55C189.93 288.317 189.879 286.071 190 283.83C189.952 281.587 190.079 279.343 190.38 277.12Z" fill="#EB996E"/>
<path d="M196.09 279.57C196.09 279.57 196.3 279.76 196.58 280.17C196.972 280.75 197.307 281.366 197.58 282.01C198.438 284.14 199 286.377 199.25 288.66C199.53 290.932 199.597 293.225 199.45 295.51C199.43 296.461 199.289 297.405 199.03 298.32C198.99 297.377 199.007 296.432 199.08 295.49C199.121 293.231 199.005 290.972 198.73 288.73C198.484 286.484 197.984 284.273 197.24 282.14C196.63 280.52 196.02 279.63 196.09 279.57Z" fill="#EB996E"/>
<path d="M180.9 283.86C181.81 282.75 182.814 281.719 183.9 280.78L184.36 280.35L184.29 280.98C184.2 281.92 184.13 282.98 184.1 284.14C183.98 288.26 184.6 291.58 184.44 291.6C184.154 290.916 183.978 290.19 183.92 289.45C183.642 287.688 183.528 285.903 183.58 284.12C183.606 283.05 183.69 281.982 183.83 280.92L184.22 281.12C183.194 282.127 182.083 283.044 180.9 283.86Z" fill="#EB996E"/>
<path d="M170.5 285.4C170.5 285.4 170.5 285.3 170.59 285.13C170.673 285.016 170.779 284.92 170.901 284.849C171.023 284.778 171.159 284.734 171.3 284.72C171.523 284.69 171.751 284.713 171.964 284.786C172.178 284.859 172.371 284.98 172.53 285.14C172.902 285.592 173.109 286.156 173.12 286.74C173.17 287.36 173.12 288.02 173.12 288.74C173.114 289.451 173.319 290.147 173.71 290.74C173.939 291.036 174.254 291.255 174.611 291.368C174.969 291.481 175.352 291.481 175.71 291.37C176.103 291.286 176.46 291.083 176.733 290.787C177.005 290.492 177.179 290.119 177.23 289.72C177.47 286.16 178.35 282.59 176.81 280.67C176.55 280.296 176.203 279.991 175.799 279.78C175.395 279.569 174.946 279.459 174.49 279.46C174.15 279.481 173.814 279.545 173.49 279.65C173.49 279.65 173.55 279.56 173.71 279.48C173.948 279.354 174.211 279.279 174.48 279.26C174.982 279.22 175.486 279.307 175.946 279.514C176.406 279.72 176.806 280.038 177.11 280.44C177.955 281.653 178.331 283.131 178.17 284.6C178.07 286.23 177.94 287.93 177.74 289.81C177.674 290.316 177.45 290.789 177.1 291.16C176.759 291.502 176.331 291.745 175.863 291.863C175.394 291.981 174.902 291.97 174.44 291.83C173.999 291.684 173.615 291.404 173.34 291.03C172.905 290.351 172.685 289.556 172.71 288.75C172.71 288.02 172.77 287.36 172.71 286.75C172.72 286.239 172.566 285.737 172.27 285.32C172.145 285.181 171.99 285.073 171.816 285.004C171.643 284.934 171.456 284.906 171.27 284.92C171.113 284.934 170.961 284.984 170.827 285.068C170.693 285.151 170.581 285.265 170.5 285.4Z" fill="#EB996E"/>
<path d="M224.6 416.84C221.6 414.57 218.87 411.69 215.34 410.28C211.54 408.76 199.45 408.39 195.61 406.97C188.49 404.34 190.31 397.8 193.79 389.04C196.59 381.99 200.42 375.3 206.73 371.1L197.88 358C191.151 368.741 185.433 380.083 180.8 391.88C178.71 397.17 176.8 402.88 178.14 408.43C178.87 411.279 180.4 413.86 182.549 415.868C184.699 417.876 187.378 419.226 190.27 419.76C196.5 420.76 203.14 417.9 209.08 420.03C212.01 421.03 214.38 423.22 216.92 425.03C224.186 430.096 233.05 432.336 241.85 431.33C245.13 430.94 249.03 429.38 249.34 426.09C240.67 424.15 231.7 422.15 224.6 416.84Z" fill="url(#paint4_linear_2_1290)"/>
<g opacity="0.3">
<path opacity="0.3" d="M206.5 408.7C205.24 408.64 202.93 408.24 200.41 407.95C195.41 407.39 191.75 405.95 190.95 402.09C189.67 395.81 196.95 382.28 196.95 382.28C196.95 382.28 204.18 371.92 206.95 371.28L199.43 363C194.053 370.871 189.808 379.458 186.82 388.51C185.709 391.529 185.036 394.691 184.82 397.9C184.618 401.132 185.502 404.338 187.33 407.01C190.55 411.37 196.57 411.67 201.89 412.64C206.38 413.46 208.19 413.08 213.55 415.37C218.67 417.56 223.05 421.51 227.95 424.07C227.95 424.07 238.86 430.49 247.5 429.21C247.5 429.21 249.43 427.55 249.31 426.07C249.31 426.07 236.09 423.07 233.26 421.63C230.43 420.19 226.26 418.31 222.98 415.63C219.7 412.95 217.38 409.18 206.5 408.7Z" fill="black"/>
</g>
<path d="M247.5 429.16C247.146 429.279 246.781 429.363 246.41 429.41C245.351 429.541 244.279 429.541 243.22 429.41C239.343 428.809 235.557 427.724 231.95 426.18C229.439 425.144 227.045 423.843 224.81 422.3C222.34 420.73 219.75 418.99 216.95 417.3C216.25 416.87 215.53 416.45 214.8 416.05C214.049 415.681 213.27 415.373 212.47 415.13C210.84 414.62 209.13 414.21 207.38 413.84C203.88 413.11 200.21 412.5 196.45 411.97L194.66 411.54C192.737 411.131 190.895 410.404 189.21 409.39C188.386 408.856 187.665 408.179 187.08 407.39C186.521 406.617 186.055 405.782 185.69 404.9C184.387 401.514 184.17 397.806 185.07 394.29C186.353 388.395 188.296 382.662 190.86 377.2C192.597 373.521 194.603 369.975 196.86 366.59C197.67 365.4 198.3 364.49 198.76 363.88L199.28 363.2C199.331 363.114 199.395 363.036 199.47 362.97L199.32 363.23L198.85 363.94C198.42 364.57 197.85 365.5 197.03 366.7C194.859 370.118 192.925 373.679 191.24 377.36C188.735 382.802 186.837 388.503 185.58 394.36C184.712 397.778 184.929 401.381 186.2 404.67C186.548 405.513 186.994 406.312 187.53 407.05C188.081 407.784 188.759 408.413 189.53 408.91C191.168 409.887 192.955 410.59 194.82 410.99L196.6 411.41C200.39 411.94 204.06 412.56 207.6 413.31C209.35 413.68 211.07 414.1 212.73 414.62C213.561 414.882 214.368 415.217 215.14 415.62C215.89 416.02 216.61 416.45 217.31 416.88C220.11 418.62 222.69 420.37 225.15 421.95C227.355 423.497 229.718 424.805 232.2 425.85C235.772 427.416 239.519 428.547 243.36 429.22C244.402 429.375 245.459 429.416 246.51 429.34C247.15 429.23 247.5 429.13 247.5 429.16Z" fill="#263238"/>
<path d="M268.2 314.55C268.2 314.55 256.06 306.8 246.75 309.64C236.53 312.76 226.32 320.57 224.82 338.23C223.64 352.23 228.47 365.84 228.47 365.84L197.06 340.29C197.06 340.29 195.33 355.24 199.61 363.21C200.61 365.12 206.91 371.44 215.5 378.74C233.5 394.03 259.81 414.81 259.81 414.81C259.81 414.81 306.94 442.99 316.68 444.57C326.42 446.15 377.77 424.57 377.77 424.57C377.77 424.57 386.99 405.08 386.2 399.29C385.41 393.5 316.66 342.54 309.74 338.65C302.82 334.76 268.2 314.55 268.2 314.55Z" fill="url(#paint5_linear_2_1290)"/>
<path d="M321.02 420.48C321.09 420.48 320.32 421.63 319.31 423.48C317.997 425.955 317.034 428.6 316.45 431.34C316.146 432.847 315.959 434.375 315.89 435.91C315.852 437.165 315.895 438.421 316.02 439.67C316.24 441.81 316.58 443.11 316.49 443.13C316.338 442.853 316.233 442.552 316.18 442.24C315.943 441.411 315.769 440.565 315.66 439.71C315.474 438.446 315.391 437.168 315.41 435.89C315.454 434.325 315.631 432.766 315.94 431.23C316.528 428.444 317.558 425.771 318.99 423.31C319.414 422.564 319.885 421.846 320.4 421.16C320.77 420.71 320.99 420.45 321.02 420.48Z" fill="#263238"/>
<path d="M259.82 394.41C259.335 394.118 258.876 393.783 258.45 393.41C257.59 392.76 256.37 391.8 254.88 390.58C251.88 388.15 247.88 384.66 243.64 380.63C239.4 376.6 235.64 372.89 232.85 370.2L229.61 367.01C229.202 366.634 228.821 366.23 228.47 365.8C228.93 366.115 229.358 366.473 229.75 366.87C230.56 367.58 231.7 368.63 233.11 369.94L244 380.25C248.26 384.25 252.21 387.8 255.12 390.25L258.58 393.25C259.023 393.604 259.437 393.992 259.82 394.41Z" fill="#263238"/>
<path d="M272.14 380.69C271.837 381.034 271.502 381.349 271.14 381.63C270.8 381.91 270.41 382.27 269.95 382.7C269.49 383.13 268.95 383.6 268.4 384.15C265.453 387.005 262.79 390.14 260.45 393.51C258.094 396.865 256.15 400.491 254.66 404.31C253.55 407.26 253.17 409.18 253.06 409.16C253.096 408.701 253.173 408.246 253.29 407.8C253.386 407.269 253.517 406.745 253.68 406.23C253.86 405.553 254.073 404.886 254.32 404.23C255.714 400.323 257.631 396.622 260.02 393.23C262.373 389.833 265.097 386.707 268.14 383.91C268.72 383.36 269.27 382.91 269.75 382.5C270.23 382.09 270.66 381.75 271.02 381.5C271.366 381.194 271.741 380.923 272.14 380.69Z" fill="#263238"/>
<path d="M384.34 398.25C384.39 398.39 370.25 403.47 352.77 409.61C335.29 415.75 321.06 420.61 321.02 420.48C320.98 420.35 335.1 415.26 352.59 409.12C370.08 402.98 384.29 398.12 384.34 398.25Z" fill="#263238"/>
<path d="M315.21 347.27C315.072 347.216 314.941 347.146 314.82 347.06L313.73 346.42L309.5 343.9L294.14 334.54L289.06 331.43C287.29 330.35 285.44 329.23 283.58 327.98C279.86 325.52 276.01 322.68 271.75 320.05C267.396 317.145 262.474 315.202 257.31 314.35C254.584 313.962 251.811 314.061 249.12 314.64C246.365 315.292 243.778 316.519 241.53 318.24C237.14 321.763 234.053 326.652 232.76 332.13C231.602 337.237 231.83 342.561 233.42 347.55C234.836 352.07 237.003 356.32 239.83 360.12C241.14 361.91 242.55 363.53 243.93 365.12C245.31 366.71 246.65 368.12 247.93 369.53C253.08 375.11 257.5 379.38 260.65 382.21C262.23 383.63 263.48 384.71 264.33 385.43L265.33 386.26C265.446 386.346 265.553 386.443 265.65 386.55C265.525 386.48 265.407 386.396 265.3 386.3L264.3 385.51C263.43 384.82 262.16 383.76 260.56 382.37C257.36 379.57 252.89 375.37 247.7 369.78C246.41 368.39 245.06 366.93 243.7 365.39C242.233 363.795 240.848 362.126 239.55 360.39C236.677 356.562 234.472 352.274 233.03 347.71C231.405 342.639 231.164 337.226 232.33 332.03C233.646 326.434 236.797 321.439 241.28 317.84C243.593 316.077 246.25 314.82 249.08 314.15C251.831 313.559 254.665 313.464 257.45 313.87C262.685 314.729 267.675 316.704 272.08 319.66C276.35 322.32 280.19 325.17 283.89 327.66C285.74 328.92 287.57 330.03 289.34 331.12L294.4 334.26L309.67 343.76L313.81 346.37L314.88 347.06L315.21 347.27Z" fill="#263238"/>
<path d="M315.21 342.42C314.962 342.3 314.725 342.159 314.5 342L312.5 340.75C310.78 339.66 308.28 338.1 305.17 336.23C298.94 332.46 290.17 327.51 280.65 321.84C278.27 320.4 275.96 318.99 273.71 317.64C271.46 316.29 269.26 315.08 267.13 313.99C265 312.9 262.92 311.93 260.95 311.11C259.153 310.302 257.262 309.724 255.32 309.39C252.503 308.881 249.609 308.994 246.84 309.72C245.821 310.021 244.819 310.379 243.84 310.79C244.745 310.238 245.72 309.811 246.74 309.52C249.533 308.71 252.473 308.543 255.34 309.03C257.316 309.348 259.244 309.912 261.08 310.71C263.08 311.52 265.15 312.48 267.3 313.56C269.45 314.64 271.68 315.86 273.94 317.2L280.88 321.39C290.42 327.06 299.14 332.07 305.32 335.91C308.41 337.83 310.89 339.43 312.57 340.58C313.42 341.14 314.06 341.58 314.5 341.92C314.752 342.064 314.99 342.231 315.21 342.42Z" fill="#263238"/>
<path d="M279.92 311.42L264.38 317.42C264.38 317.42 263.71 318.89 265.98 320.37C268.25 321.85 272.1 320.9 272.1 320.9L269.1 332.42C269.1 332.42 269.15 335.5 272.1 335.5C272.928 335.53 273.751 335.364 274.504 335.017C275.256 334.669 275.916 334.15 276.43 333.5C276.269 334.509 276.428 335.542 276.886 336.456C277.343 337.369 278.076 338.115 278.98 338.59C279.34 338.842 279.758 339.001 280.194 339.054C280.631 339.107 281.074 339.051 281.484 338.892C281.894 338.733 282.259 338.475 282.546 338.142C282.833 337.808 283.034 337.409 283.13 336.98C283.13 336.98 285.13 339.31 286.48 339.08C287.83 338.85 294.48 329.21 294.48 329.21L296.75 330.55L301.44 333.23C302.59 330.728 303.098 327.978 302.92 325.23C302.51 321.03 298.63 316.87 294.07 317.54C294.07 317.54 290.73 314.46 288.31 314.06C285.89 313.66 284.83 314.73 284.83 314.73C284.43 313.755 283.751 312.92 282.877 312.331C282.003 311.741 280.974 311.425 279.92 311.42Z" fill="#FFBE9D"/>
<path d="M286.5 339.11H286.23C285.963 339.099 285.701 339.034 285.46 338.92C284.55 338.452 283.739 337.814 283.07 337.04H283.25C283.033 337.781 282.571 338.426 281.94 338.87C281.535 339.097 281.079 339.216 280.615 339.216C280.151 339.216 279.695 339.097 279.29 338.87C278.317 338.465 277.495 337.766 276.94 336.87C276.33 335.841 276.093 334.633 276.27 333.45L276.61 333.59C276.109 334.224 275.475 334.741 274.753 335.104C274.031 335.467 273.238 335.667 272.43 335.69C271.985 335.74 271.534 335.699 271.106 335.568C270.678 335.437 270.281 335.22 269.94 334.93C269.273 334.262 268.886 333.364 268.86 332.42V332.36C269.78 328.84 270.79 324.94 271.86 320.83L272.16 321.14C270.515 321.524 268.804 321.524 267.16 321.14C266.312 320.903 265.538 320.456 264.91 319.84C264.542 319.535 264.269 319.131 264.123 318.675C263.978 318.22 263.966 317.732 264.09 317.27V317.18H264.2L267.79 315.79L279.74 311.16H279.79H279.84C280.975 311.156 282.083 311.506 283.01 312.16C283.901 312.803 284.594 313.683 285.01 314.7L284.61 314.61C285.401 314.006 286.387 313.714 287.38 313.79C287.849 313.807 288.315 313.874 288.77 313.99C289.205 314.121 289.626 314.292 290.03 314.5C291.53 315.299 292.921 316.287 294.17 317.44L293.99 317.38C295.575 317.173 297.185 317.504 298.56 318.32C299.777 319.033 300.806 320.028 301.56 321.22C302.236 322.254 302.696 323.414 302.91 324.63C303.061 325.653 303.085 326.691 302.98 327.72C302.827 329.147 302.491 330.549 301.98 331.89C301.8 332.36 301.65 332.7 301.54 332.89C301.491 333.011 301.427 333.125 301.35 333.23C301.382 333.106 301.425 332.986 301.48 332.87C301.57 332.63 301.7 332.28 301.86 331.81C302.302 330.464 302.587 329.072 302.71 327.66C302.79 326.659 302.75 325.652 302.59 324.66C302.343 323.416 301.835 322.239 301.101 321.205C300.367 320.171 299.423 319.304 298.33 318.66C297.027 317.906 295.511 317.607 294.02 317.81H293.92L293.84 317.74C292.615 316.624 291.254 315.666 289.79 314.89C289.031 314.488 288.188 314.269 287.33 314.25C286.467 314.19 285.611 314.434 284.91 314.94L284.65 315.16L284.51 314.85C284.128 313.929 283.494 313.135 282.68 312.56C281.831 311.972 280.822 311.661 279.79 311.67H279.88L267.93 316.31L264.5 317.69L264.64 317.56C264.559 317.927 264.582 318.308 264.708 318.662C264.833 319.016 265.056 319.327 265.35 319.56C265.908 320.112 266.596 320.514 267.35 320.73C268.893 321.09 270.497 321.09 272.04 320.73L272.45 320.65L272.34 321.04C271.25 325.14 270.22 329.04 269.28 332.55V332.49C269.3 333.316 269.628 334.104 270.2 334.7C270.812 335.198 271.595 335.435 272.38 335.36C273.127 335.344 273.862 335.166 274.534 334.838C275.205 334.51 275.798 334.04 276.27 333.46L276.71 332.88L276.6 333.6C276.439 334.696 276.646 335.815 277.19 336.78C277.707 337.624 278.472 338.287 279.38 338.68C279.746 338.887 280.159 338.996 280.58 338.996C281 338.996 281.414 338.887 281.78 338.68C282.371 338.276 282.807 337.684 283.02 337L283.08 336.83L283.2 336.96C283.834 337.733 284.603 338.383 285.47 338.88C285.788 339.043 286.143 339.122 286.5 339.11Z" fill="#EB996E"/>
<path d="M283.5 316.05C281.416 316.984 279.263 317.756 277.06 318.36L274.52 319.14C273.845 319.279 273.211 319.573 272.67 320C272.402 320.378 272.205 320.801 272.09 321.25C271.98 321.58 271.9 321.76 271.86 321.75C271.82 321.74 271.86 321.55 271.86 321.21C271.911 320.694 272.082 320.198 272.36 319.76C272.918 319.229 273.609 318.859 274.36 318.69L276.9 317.86C279.05 317.088 281.257 316.482 283.5 316.05Z" fill="#EB996E"/>
<path d="M287.81 319.89C286.909 320.204 285.991 320.464 285.06 320.67C284.079 320.94 283.13 321.315 282.23 321.79C281.148 322.371 280.219 323.2 279.52 324.21C279.2 324.752 278.974 325.343 278.85 325.96L278.39 327.73C278.1 328.86 277.82 329.88 277.57 330.73C277.349 331.661 277.013 332.562 276.57 333.41C276.741 332.473 276.961 331.545 277.23 330.63C277.45 329.72 277.68 328.71 277.94 327.63C278.08 327.05 278.22 326.45 278.37 325.84C278.507 325.171 278.754 324.529 279.1 323.94C279.845 322.857 280.849 321.978 282.02 321.38C282.971 320.902 283.979 320.545 285.02 320.32C285.929 320.066 286.866 319.922 287.81 319.89Z" fill="#EB996E"/>
<path d="M292.5 323.8C292.5 323.88 291.5 324.06 289.99 324.53C289.104 324.798 288.272 325.218 287.53 325.77C286.644 326.477 285.955 327.4 285.53 328.45C284.61 330.69 284.45 332.97 283.98 334.53C283.826 335.403 283.485 336.232 282.98 336.96C282.9 336.96 283.34 336.02 283.66 334.45C283.83 333.66 283.97 332.71 284.16 331.65C284.344 330.486 284.656 329.346 285.09 328.25C285.537 327.121 286.279 326.133 287.24 325.39C288.036 324.818 288.936 324.407 289.89 324.18C290.735 323.917 291.615 323.789 292.5 323.8Z" fill="#EB996E"/>
<path d="M330.25 348.84C326.75 346.22 321.91 344.65 317.43 346.36C307.11 350.3 285.12 363.58 276.43 369.97C273.939 371.802 272.17 374.448 271.43 377.45L270.87 379.77C270.87 379.77 316.75 412.66 322.87 413.21C328.99 413.76 376.22 393.06 376.22 393.06C376.22 393.06 379.08 385.77 374.6 381.92C355.7 365.71 343.43 358.71 330.25 348.84Z" fill="#E0E0E0"/>
<path d="M321.91 403C321.838 403.538 321.701 404.066 321.5 404.57C321.111 405.787 320.896 407.053 320.86 408.33C320.865 409.598 321.211 410.841 321.86 411.93C322.177 412.365 322.461 412.823 322.71 413.3C322.71 413.3 322.16 412.96 321.55 412.13C320.767 411.018 320.348 409.69 320.35 408.33C320.374 406.997 320.648 405.681 321.16 404.45C321.312 403.922 321.567 403.43 321.91 403Z" fill="#263238"/>
<path d="M321.91 403C322.073 402.902 322.248 402.825 322.43 402.77L323.96 402.21L329.59 400.21C334.35 398.48 340.89 396.01 348.09 393.21L366.5 386.06L372.1 383.91L373.63 383.35C373.803 383.275 373.984 383.221 374.17 383.19C374.014 383.296 373.846 383.383 373.67 383.45L372.17 384.1L366.64 386.4C361.95 388.32 355.45 390.91 348.24 393.68C341.03 396.45 334.47 398.86 329.68 400.51C327.28 401.33 325.34 401.98 323.98 402.39L322.42 402.86C322.256 402.926 322.085 402.973 321.91 403Z" fill="#263238"/>
<path d="M321.12 403C320.927 402.979 320.738 402.928 320.56 402.85C320.21 402.72 319.67 402.57 319.01 402.29C317.133 401.536 315.301 400.678 313.52 399.72C308.98 397.34 303.05 393.49 296.52 389.22C289.99 384.95 283.87 381.45 279.65 378.54C277.54 377.08 275.91 375.8 274.82 374.88C274.26 374.43 273.82 374.06 273.57 373.81C273.32 373.56 273.14 373.42 273.16 373.41C273.18 373.4 273.33 373.5 273.63 373.73L274.94 374.73C276.08 375.6 277.73 376.83 279.86 378.24C284.1 381.06 290.29 384.48 296.8 388.79C303.31 393.1 309.2 396.95 313.68 399.4C315.91 400.64 317.76 401.54 319.07 402.11C320.38 402.68 321.13 403 321.12 403Z" fill="#263238"/>
<path d="M291.89 375.12C291.507 374.621 291.032 374.2 290.49 373.88L286.68 371.3L285.31 372.3C286.308 373.785 287.454 375.166 288.73 376.42C289.165 376.88 289.708 377.224 290.31 377.42C290.61 377.507 290.929 377.504 291.228 377.412C291.526 377.319 291.791 377.141 291.99 376.9C292.148 376.626 292.223 376.311 292.205 375.995C292.187 375.679 292.078 375.375 291.89 375.12Z" fill="url(#paint6_linear_2_1290)"/>
<path d="M329.23 348.13C329.07 348.255 328.895 348.359 328.71 348.44L327.17 349.21L321.5 352C316.72 354.36 310.11 357.64 302.99 361.58C299.44 363.58 296.1 365.58 293.1 367.38C290.1 369.18 287.45 370.98 285.27 372.51C284.16 373.26 283.19 373.98 282.33 374.6C281.47 375.22 280.73 375.75 280.14 376.2L278.76 377.2C278.44 377.42 278.27 377.54 278.25 377.52C278.383 377.37 278.531 377.233 278.69 377.11L280.02 376.01C280.59 375.54 281.31 375.01 282.16 374.33C283.01 373.65 283.96 372.95 285.05 372.18C287.21 370.61 289.86 368.84 292.84 366.94C295.82 365.04 299.18 363.08 302.74 361.09C309.88 357.15 316.51 353.91 321.34 351.63C323.76 350.5 325.72 349.63 327.09 348.99L328.66 348.3C328.845 348.228 329.036 348.171 329.23 348.13Z" fill="#263238"/>
<path d="M318.5 420.76C318.294 420.789 318.086 420.789 317.88 420.76C317.293 420.715 316.709 420.638 316.13 420.53C313.991 420.139 311.913 419.467 309.95 418.53C307.044 417.132 304.292 415.433 301.74 413.46C298.82 411.3 295.74 408.72 292.39 406.3C289.155 404.097 285.789 402.094 282.31 400.3C279.454 398.805 276.745 397.044 274.22 395.04C272.524 393.674 271.029 392.075 269.78 390.29C269.439 389.807 269.129 389.302 268.85 388.78C268.743 388.605 268.659 388.417 268.6 388.22C268.6 388.22 269.03 388.95 269.94 390.17C271.241 391.884 272.757 393.423 274.45 394.75C276.987 396.7 279.694 398.417 282.54 399.88C286.054 401.656 289.448 403.661 292.7 405.88C296.11 408.32 299.14 410.88 302.02 413.08C304.539 415.047 307.245 416.762 310.1 418.2C312.029 419.159 314.067 419.881 316.17 420.35C317.68 420.65 318.5 420.71 318.5 420.76Z" fill="#263238"/>
<path d="M214.43 377.83C214.107 377.664 213.807 377.456 213.54 377.21L211.25 375.39C208.703 373.397 206.269 371.264 203.96 369C201.57 366.778 199.661 364.089 198.35 361.1C198.132 360.581 197.965 360.042 197.85 359.49C197.731 359.082 197.654 358.663 197.62 358.24C197.578 357.881 197.578 357.519 197.62 357.16C197.88 358.456 198.252 359.728 198.73 360.96C200.117 363.848 202.03 366.452 204.37 368.64C207.02 371.3 209.67 373.48 211.52 375.11C212.46 375.92 213.21 376.58 213.72 377.06C213.985 377.289 214.223 377.547 214.43 377.83Z" fill="#263238"/>
<path d="M328.74 367.43C328.452 367.177 328.112 366.991 327.743 366.886C327.375 366.78 326.988 366.758 326.61 366.82C325.78 366.82 325.07 368.1 325.01 368.93C324.891 370.295 325.165 371.666 325.8 372.88C324.832 372.218 323.765 371.711 322.64 371.38C321.69 371.056 320.67 370.997 319.69 371.21C319.199 371.326 318.749 371.574 318.388 371.926C318.026 372.278 317.768 372.722 317.64 373.21C317.577 373.709 317.643 374.216 317.832 374.682C318.021 375.147 318.327 375.557 318.72 375.87C319.517 376.485 320.418 376.953 321.38 377.25C325.94 378.95 330.57 380.46 335.2 381.97C334.5 376.48 332.58 371.39 328.74 367.43Z" fill="url(#paint7_linear_2_1290)"/>
<path d="M242.62 424.55C242.62 424.55 261.87 427.25 266.26 424.55C270.35 422.04 270.65 421.17 270.65 421.17L275.06 423.71C272.512 426.745 268.967 428.772 265.06 429.43C255.06 431.02 241.32 428.83 241.32 428.83L242.62 424.55Z" fill="#263238"/>
<path d="M258.07 428.06C258.07 428.06 258.19 428.3 258.25 428.78C258.286 429.078 258.266 429.38 258.19 429.67C258.081 430.089 257.811 430.448 257.44 430.67C257.017 430.904 256.557 431.063 256.08 431.14C255.53 431.294 254.949 431.294 254.4 431.14C254.086 431.027 253.814 430.821 253.62 430.55C253.425 430.252 253.318 429.906 253.31 429.55C253.31 428.91 253.31 428.31 253.31 427.66C253.265 427.012 253.319 426.362 253.47 425.73C253.581 425.418 253.769 425.139 254.015 424.917C254.261 424.696 254.558 424.539 254.88 424.46C255.433 424.316 256.016 424.334 256.56 424.51C256.812 424.57 257.054 424.664 257.28 424.79C257.491 424.927 257.663 425.117 257.78 425.34C257.908 425.718 257.982 426.112 258 426.51C258 426.81 258.05 427.09 258.08 427.36C258.121 427.605 258.121 427.855 258.08 428.1C258.08 428.1 257.97 427.85 257.87 427.39C257.81 427.13 257.76 426.85 257.7 426.55C257.651 426.208 257.564 425.873 257.44 425.55C257.331 425.38 257.184 425.239 257.01 425.136C256.836 425.034 256.641 424.973 256.44 424.96C255.973 424.82 255.476 424.82 255.01 424.96C254.762 425.023 254.534 425.148 254.347 425.323C254.159 425.498 254.02 425.717 253.94 425.96C253.82 426.542 253.78 427.137 253.82 427.73C253.88 428.98 253.54 430.42 254.59 430.73C255.052 430.88 255.547 430.901 256.02 430.79C256.451 430.744 256.871 430.622 257.26 430.43C257.525 430.28 257.741 430.057 257.883 429.787C258.025 429.518 258.086 429.214 258.06 428.91C258.017 428.628 258.021 428.341 258.07 428.06Z" fill="#263238"/>
<g opacity="0.3">
<path opacity="0.3" d="M371.82 414.64C371.067 414.224 370.181 414.116 369.35 414.34C355.15 416.44 336.19 421.27 329.23 430.08C341.124 423.835 354.18 420.117 367.58 419.16C368.942 419.203 370.288 418.856 371.46 418.16C372.5 417.31 372.91 415.45 371.82 414.64Z" fill="black"/>
</g>
</g>
<defs>
<filter id="filter0_d_2_1290" x="0" y="0.19873" width="509" height="493.971" filterUnits="userSpaceOnUse" color-interpolation-filters="sRGB">
<feFlood flood-opacity="0" result="BackgroundImageFix"/>
<feColorMatrix in="SourceAlpha" type="matrix" values="0 0 0 0 0 0 0 0 0 0 0 0 0 0 0 0 0 0 127 0" result="hardAlpha"/>
<feOffset dx="5" dy="5"/>
<feGaussianBlur stdDeviation="17.5"/>
<feComposite in2="hardAlpha" operator="out"/>
<feColorMatrix type="matrix" values="0 0 0 0 0.641667 0 0 0 0 0.542743 0 0 0 0 0.578715 0 0 0 0.15 0"/>
<feBlend mode="normal" in2="BackgroundImageFix" result="effect1_dropShadow_2_1290"/>
<feBlend mode="normal" in="SourceGraphic" in2="effect1_dropShadow_2_1290" result="shape"/>
</filter>
<linearGradient id="paint0_linear_2_1290" x1="68" y1="342" x2="64.4124" y2="372.171" gradientUnits="userSpaceOnUse">
<stop stop-color="#5AD4FA"/>
<stop offset="1" stop-color="#2BB3DD"/>
</linearGradient>
<linearGradient id="paint1_linear_2_1290" x1="265.5" y1="56.0001" x2="241.541" y2="119.497" gradientUnits="userSpaceOnUse">
<stop stop-color="#F8C1C5"/>
<stop offset="1" stop-color="#E96F9B"/>
</linearGradient>
<linearGradient id="paint2_linear_2_1290" x1="279.031" y1="52.3159" x2="254.155" y2="107.546" gradientUnits="userSpaceOnUse">
<stop stop-color="#F8C1C5"/>
<stop offset="1" stop-color="#E96F9B"/>
</linearGradient>
<linearGradient id="paint3_linear_2_1290" x1="250.5" y1="12.5" x2="145.018" y2="45.0369" gradientUnits="userSpaceOnUse">
<stop stop-color="#5AD4FA"/>
<stop offset="1" stop-color="#2BB3DD"/>
</linearGradient>
<linearGradient id="paint4_linear_2_1290" x1="206" y1="462.5" x2="246.271" y2="410.785" gradientUnits="userSpaceOnUse">
<stop stop-color="#F8C1C5"/>
<stop offset="1" stop-color="#E96F9B"/>
</linearGradient>
<linearGradient id="paint5_linear_2_1290" x1="324.841" y1="275.89" x2="233.395" y2="412.666" gradientUnits="userSpaceOnUse">
<stop stop-color="#F8C1C5"/>
<stop offset="1" stop-color="#E96F9B"/>
</linearGradient>
<linearGradient id="paint6_linear_2_1290" x1="289.835" y1="348.654" x2="280.74" y2="350.235" gradientUnits="userSpaceOnUse">
<stop stop-color="#5AD4FA"/>
<stop offset="1" stop-color="#2BB3DD"/>
</linearGradient>
<linearGradient id="paint7_linear_2_1290" x1="363" y1="315" x2="336.829" y2="303.674" gradientUnits="userSpaceOnUse">
<stop stop-color="#5AD4FA"/>
<stop offset="1" stop-color="#2BB3DD"/>
</linearGradient>
</defs>
</svg>
