<svg width="694" height="396" viewBox="0 0 694 396" xmlns="http://www.w3.org/2000/svg">
  <g filter="url(#filter0_d_2_1578)">
    <g opacity="0.6">
      <path d="M50.6197 72.1667L50.7032 76.6025C50.7065 76.769 50.7505 76.9322 50.8314 77.0778C50.9123 77.2234 51.0276 77.3469 51.1672 77.4377L54.8792 79.8784C55.0497 79.9799 55.187 80.1289 55.2742 80.3072C55.3614 80.4855 55.3947 80.6853 55.3701 80.8823C55.3455 81.0792 55.264 81.2647 55.1356 81.416C55.0072 81.5674 54.8375 81.678 54.6472 81.7344L50.4619 83.1913C50.3039 83.2453 50.1614 83.3368 50.0466 83.458C49.9318 83.5793 49.8482 83.7266 49.803 83.8873L48.6245 88.1562C48.5751 88.3409 48.4749 88.5081 48.3353 88.6386C48.1956 88.7692 48.022 88.8579 47.8344 88.8946C47.6468 88.9314 47.4526 88.9147 47.274 88.8465C47.0954 88.7783 46.9395 88.6613 46.8241 88.5088L44.1515 84.9731C44.0518 84.8399 43.9211 84.733 43.7707 84.6618C43.6202 84.5907 43.4547 84.5574 43.2885 84.5648L38.8526 84.7689C38.6622 84.7774 38.4732 84.7325 38.307 84.6391C38.1408 84.5457 38.0041 84.4076 37.9123 84.2405C37.8206 84.0734 37.7774 83.884 37.7878 83.6936C37.7982 83.5033 37.8616 83.3196 37.971 83.1635L40.4952 79.4979C40.5885 79.3644 40.6483 79.2103 40.6693 79.0487C40.6903 78.8871 40.6719 78.7229 40.6158 78.5699L39.0568 74.4125C38.9896 74.234 38.9737 74.0404 39.0109 73.8534C39.0481 73.6664 39.1369 73.4935 39.2673 73.3544C39.3977 73.2153 39.5645 73.1156 39.7487 73.0664C39.9329 73.0172 40.1272 73.0206 40.3096 73.0761L44.5505 74.3661C44.7088 74.4115 44.8756 74.4184 45.0371 74.3861C45.1986 74.3538 45.3499 74.2833 45.4785 74.1805L48.9493 71.3965C49.0975 71.2742 49.2772 71.1961 49.4677 71.1714C49.6583 71.1467 49.8519 71.1763 50.0264 71.2568C50.2009 71.3372 50.3492 71.4653 50.4541 71.6263C50.5591 71.7872 50.6164 71.9746 50.6197 72.1667Z" fill="#EBEBEB" />
      <path d="M251.597 187.647L253.935 191.248C254.024 191.381 254.144 191.491 254.285 191.569C254.425 191.646 254.582 191.689 254.743 191.693L259.03 191.814C259.214 191.817 259.394 191.873 259.548 191.974C259.703 192.075 259.826 192.217 259.903 192.384C259.98 192.552 260.009 192.738 259.986 192.921C259.963 193.104 259.889 193.276 259.772 193.419L257.072 196.751C256.968 196.879 256.896 197.03 256.864 197.192C256.831 197.353 256.839 197.521 256.886 197.679L258.102 201.79C258.154 201.966 258.156 202.154 258.107 202.331C258.059 202.509 257.961 202.669 257.826 202.793C257.69 202.918 257.523 203.002 257.342 203.037C257.161 203.071 256.974 203.054 256.803 202.987L252.803 201.456C252.652 201.397 252.488 201.376 252.327 201.393C252.165 201.411 252.01 201.468 251.875 201.558L248.339 203.989C248.188 204.094 248.01 204.153 247.827 204.162C247.643 204.17 247.461 204.127 247.3 204.037C247.14 203.948 247.008 203.815 246.919 203.653C246.831 203.492 246.789 203.31 246.799 203.126L247.022 198.839C247.03 198.678 246.999 198.518 246.931 198.373C246.863 198.227 246.76 198.1 246.632 198.004L243.235 195.396C243.089 195.283 242.977 195.132 242.912 194.959C242.847 194.786 242.831 194.598 242.867 194.417C242.902 194.236 242.988 194.068 243.114 193.933C243.239 193.798 243.401 193.7 243.579 193.651L247.727 192.528C247.883 192.487 248.026 192.408 248.144 192.298C248.263 192.187 248.352 192.05 248.404 191.897L249.843 187.861C249.903 187.687 250.011 187.533 250.154 187.418C250.298 187.302 250.47 187.229 250.653 187.207C250.836 187.185 251.021 187.214 251.188 187.292C251.355 187.37 251.496 187.493 251.597 187.647V187.647Z" fill="#EBEBEB" />
      <path d="M55.5288 305.271L57.8673 308.862C57.9548 308.998 58.074 309.11 58.2147 309.19C58.3554 309.269 58.5133 309.313 58.6747 309.317L62.962 309.428C63.1458 309.436 63.3238 309.494 63.4763 309.597C63.6288 309.7 63.7498 309.843 63.8258 310.01C63.9018 310.178 63.9298 310.363 63.9068 310.545C63.8837 310.728 63.8104 310.9 63.6952 311.043L61.004 314.375C60.8975 314.501 60.8247 314.653 60.7922 314.815C60.7598 314.977 60.7688 315.145 60.8184 315.303L62.0341 319.414C62.0888 319.591 62.0925 319.78 62.0446 319.959C61.9968 320.137 61.8994 320.299 61.7637 320.425C61.6279 320.551 61.4593 320.637 61.2773 320.671C61.0953 320.705 60.9073 320.688 60.7348 320.62L56.7352 319.08C56.5829 319.022 56.4191 319.002 56.2575 319.022C56.096 319.041 55.9415 319.099 55.8072 319.191L52.2715 321.613C52.1201 321.717 51.9425 321.777 51.7589 321.786C51.5752 321.794 51.3929 321.751 51.2325 321.661C51.0721 321.572 50.9401 321.438 50.8514 321.277C50.7628 321.116 50.7211 320.934 50.731 320.75L50.9537 316.472C50.9619 316.312 50.9307 316.152 50.8627 316.006C50.7948 315.86 50.6922 315.734 50.564 315.637L47.1675 313.02C47.0204 312.908 46.9077 312.758 46.8421 312.586C46.7765 312.413 46.7607 312.226 46.7965 312.045C46.8323 311.864 46.9182 311.697 47.0446 311.562C47.1709 311.428 47.3325 311.331 47.5109 311.284L51.6497 310.171C51.8069 310.135 51.9521 310.059 52.0709 309.95C52.1897 309.841 52.278 309.703 52.3272 309.549L53.7749 305.475C53.8363 305.302 53.9451 305.149 54.0888 305.035C54.2326 304.92 54.4056 304.848 54.5882 304.827C54.7708 304.806 54.9558 304.836 55.122 304.915C55.2883 304.993 55.4292 305.117 55.5288 305.271V305.271Z" fill="#EBEBEB" />
      <path d="M517.84 306.31L520.169 309.902C520.257 310.038 520.376 310.15 520.517 310.229C520.657 310.308 520.815 310.352 520.977 310.356L525.264 310.468C525.448 310.474 525.628 310.531 525.781 310.633C525.935 310.735 526.058 310.878 526.135 311.046C526.212 311.213 526.241 311.399 526.218 311.582C526.195 311.765 526.122 311.939 526.006 312.083L523.343 315.414C523.238 315.542 523.167 315.693 523.136 315.856C523.105 316.018 523.116 316.185 523.167 316.342L524.382 320.453C524.434 320.631 524.436 320.819 524.386 320.998C524.337 321.176 524.239 321.337 524.102 321.462C523.966 321.588 523.798 321.673 523.616 321.708C523.434 321.742 523.247 321.726 523.074 321.66L519.074 320.119C518.922 320.059 518.758 320.038 518.596 320.057C518.434 320.077 518.279 320.136 518.146 320.23L514.592 322.634C514.44 322.737 514.262 322.796 514.078 322.804C513.894 322.812 513.712 322.769 513.551 322.68C513.39 322.59 513.258 322.458 513.168 322.297C513.078 322.137 513.034 321.955 513.042 321.771L513.265 317.493C513.273 317.333 513.243 317.174 513.177 317.029C513.111 316.883 513.01 316.756 512.884 316.658L509.479 314.041C509.332 313.929 509.219 313.779 509.153 313.606C509.088 313.434 509.072 313.247 509.108 313.066C509.143 312.885 509.229 312.717 509.356 312.583C509.482 312.449 509.644 312.352 509.822 312.305L513.97 311.192C514.126 311.154 514.269 311.078 514.386 310.969C514.503 310.86 514.59 310.722 514.638 310.57L516.077 306.524C516.139 306.35 516.248 306.197 516.392 306.082C516.536 305.967 516.709 305.895 516.892 305.872C517.075 305.85 517.261 305.879 517.428 305.957C517.596 306.034 517.738 306.157 517.84 306.31V306.31Z" fill="#EBEBEB" />
      <path d="M645.124 88.3974L647.454 91.9888C647.541 92.1234 647.661 92.2343 647.802 92.312C647.943 92.3897 648.1 92.4316 648.261 92.4343L652.548 92.5549C652.733 92.5586 652.912 92.614 653.067 92.7149C653.221 92.8158 653.344 92.9581 653.421 93.1255C653.499 93.2929 653.528 93.4787 653.504 93.6617C653.481 93.8447 653.407 94.0175 653.291 94.1603L650.59 97.4919C650.487 97.6201 650.417 97.7719 650.386 97.9338C650.355 98.0957 650.365 98.2626 650.414 98.4199L651.629 102.531C651.679 102.708 651.679 102.895 651.629 103.072C651.578 103.249 651.48 103.408 651.344 103.532C651.208 103.657 651.041 103.741 650.86 103.775C650.68 103.81 650.493 103.793 650.321 103.728L646.321 102.197C646.17 102.138 646.006 102.117 645.845 102.134C645.683 102.152 645.529 102.209 645.393 102.299L641.867 104.73C641.715 104.834 641.537 104.893 641.353 104.901C641.169 104.909 640.987 104.866 640.826 104.776C640.666 104.687 640.533 104.554 640.443 104.394C640.353 104.233 640.31 104.051 640.317 103.867L640.54 99.5799C640.547 99.4195 640.516 99.2598 640.448 99.1143C640.38 98.9688 640.278 98.842 640.15 98.7447L636.754 96.137C636.607 96.0243 636.495 95.873 636.43 95.7001C636.365 95.5272 636.349 95.3396 636.385 95.1583C636.421 94.977 636.506 94.8093 636.632 94.674C636.758 94.5387 636.919 94.4411 637.097 94.3923L641.245 93.288C641.399 93.2445 641.54 93.1643 641.657 93.0544C641.773 92.9446 641.861 92.8082 641.913 92.657L643.352 88.6202C643.412 88.4437 643.52 88.2876 643.664 88.1698C643.809 88.052 643.983 87.9772 644.168 87.954C644.353 87.9307 644.541 87.96 644.71 88.0384C644.879 88.1169 645.023 88.2413 645.124 88.3974V88.3974Z" fill="#EBEBEB" />
      <path d="M573.845 98.986C572.357 97.7301 570.621 96.8024 568.75 96.2635C566.879 95.7246 564.915 95.5866 562.987 95.8586C563.915 90.968 559.683 86.2445 554.849 85.0103C550.014 83.776 544.928 85.1309 540.205 86.7178C539.629 77.5584 531.138 69.6147 521.96 69.6519C512.782 69.689 504.328 77.6976 503.846 86.8663C495.893 84.7783 484.172 87.5994 482.502 97.7517C479.393 96.137 475.226 97.6404 473.407 100.638C472.567 102.18 472.167 103.924 472.251 105.678C472.334 107.433 472.898 109.13 473.881 110.586C477.908 116.794 486.529 117.565 493.925 117.676L556.408 118.678C560.491 118.743 564.667 118.789 568.555 117.537C572.443 116.284 576.072 113.463 577.176 109.528C577.638 107.634 577.571 105.65 576.984 103.791C576.396 101.933 575.311 100.271 573.845 98.986V98.986Z" fill="#EBEBEB" />
      <path d="M633.775 325.279C632.847 324.494 631.764 323.915 630.596 323.579C629.429 323.244 628.203 323.159 627 323.33C627.613 320.277 624.95 317.335 621.934 316.565C618.918 315.795 615.744 316.639 612.802 317.632C612.607 314.751 611.323 312.053 609.21 310.086C607.097 308.118 604.314 307.029 601.427 307.04C598.54 307.05 595.766 308.16 593.667 310.143C591.569 312.126 590.305 314.834 590.131 317.716C585.176 316.416 577.872 318.179 576.824 324.508C575.821 324.071 574.693 324.013 573.651 324.344C572.608 324.675 571.721 325.373 571.154 326.309C570.63 327.272 570.381 328.36 570.433 329.455C570.485 330.549 570.837 331.609 571.45 332.517C573.956 336.387 579.329 336.86 583.941 336.934L622.917 337.556C625.464 337.734 628.022 337.493 630.49 336.842C632.912 336.062 635.176 334.299 635.863 331.849C636.148 330.668 636.104 329.431 635.736 328.272C635.368 327.114 634.69 326.079 633.775 325.279V325.279Z" fill="#F5F5F5" />
      <path d="M373.443 322.55C372.379 321.655 371.138 320.993 369.801 320.61C368.465 320.226 367.062 320.128 365.685 320.323C366.381 316.834 363.328 313.456 359.876 312.574C356.423 311.693 352.786 312.658 349.417 313.799C349.405 310.354 348.024 307.054 345.579 304.626C343.134 302.199 339.824 300.842 336.379 300.854C332.933 300.866 329.633 302.247 327.206 304.692C324.778 307.137 323.421 310.447 323.433 313.892C317.763 312.407 309.392 314.421 308.195 321.678C307.048 321.177 305.757 321.108 304.563 321.485C303.368 321.862 302.351 322.659 301.699 323.729C301.101 324.834 300.817 326.081 300.877 327.336C300.938 328.591 301.341 329.805 302.043 330.847C304.919 335.273 311.072 335.821 316.362 335.904L360.98 336.619C363.894 336.665 366.882 336.702 369.657 335.802C372.432 334.902 375.021 332.898 375.819 330.086C376.145 328.732 376.097 327.316 375.678 325.988C375.259 324.66 374.487 323.472 373.443 322.55V322.55Z" fill="#EBEBEB" />
      <path d="M102.532 142.602C101.468 141.706 100.227 141.045 98.8904 140.661C97.5536 140.277 96.151 140.18 94.7739 140.375C95.4792 136.876 92.4168 133.508 88.9646 132.626C85.5125 131.744 81.884 132.709 78.5061 133.842C78.1919 130.578 76.6996 127.541 74.3083 125.299C71.9171 123.056 68.7907 121.761 65.5141 121.657C62.2305 121.776 59.1035 123.09 56.7211 125.353C54.3388 127.615 52.8652 130.671 52.5777 133.944C46.8984 132.459 38.5278 134.473 37.3307 141.73C36.1833 141.226 34.892 141.156 33.6971 141.534C32.5021 141.911 31.4849 142.709 30.8347 143.781C30.2348 144.883 29.9487 146.128 30.0076 147.381C30.0665 148.635 30.4681 149.848 31.1688 150.889C34.0456 155.325 40.2075 155.872 45.4878 155.956L90.1061 156.67C93.0293 156.717 96.0081 156.754 98.7829 155.854C101.558 154.954 104.156 152.949 104.945 150.137C105.269 148.781 105.216 147.361 104.79 146.033C104.365 144.704 103.584 143.518 102.532 142.602V142.602Z" fill="#EBEBEB" />
    </g>
    <g opacity="0.6">
      <path d="M225.306 230.864C219.812 225.955 212.017 224.025 204.714 224.934C206.57 215.654 198.45 206.708 189.29 204.36C180.131 202.013 170.471 204.583 161.506 207.599C160.411 190.227 144.301 175.119 126.892 175.221C109.482 175.323 93.4836 190.487 92.5556 207.868C77.4849 203.915 55.2593 209.269 52.067 228.535C46.1742 225.472 38.2584 228.312 34.8155 233.991C31.3726 239.671 32.1057 247.299 35.7435 252.876C43.3716 264.653 59.7323 266.1 73.7915 266.323L192.288 268.179C200.037 268.3 207.962 268.402 215.339 266.017C222.717 263.632 229.593 258.286 231.691 250.825C233.612 243.754 230.8 235.773 225.306 230.864Z" fill="#F5F5F5" />
      <path opacity="0.2" d="M225.306 230.864C225.306 230.864 225.631 231.152 226.234 231.746C227.131 232.645 227.942 233.627 228.656 234.678C229.828 236.392 230.744 238.268 231.375 240.246C231.767 241.508 232.043 242.804 232.201 244.116C232.363 245.616 232.344 247.13 232.145 248.626C231.632 252.156 230.104 255.461 227.747 258.138C224.964 261.321 221.465 263.798 217.539 265.367C213.016 267.106 208.238 268.087 203.396 268.272C198.273 268.587 192.863 268.383 187.184 268.318L107.376 267.102L84.3985 266.722C76.5476 266.527 68.4926 266.722 60.3448 265.72C56.2223 265.245 52.1719 264.276 48.2808 262.834C47.2878 262.49 46.3598 262.008 45.404 261.572C44.4481 261.135 43.548 260.56 42.62 260.022L41.3208 259.094L40.6712 258.63L40.0772 258.11L38.8708 257.061C38.4904 256.69 38.147 256.282 37.7758 255.901C37.0529 255.116 36.3891 254.279 35.7899 253.396C35.1711 252.519 34.6337 251.587 34.1844 250.612C33.266 248.658 32.6735 246.567 32.4305 244.422C32.1738 242.248 32.3217 240.046 32.8667 237.926C33.4056 235.789 34.4243 233.802 35.8456 232.117C37.8348 229.835 40.4737 228.216 43.4088 227.477C46.3257 226.69 49.4292 226.99 52.1412 228.321L51.7979 228.488C52.4879 224.104 54.3836 219.998 57.2731 216.628C60.1547 213.355 63.7705 210.811 67.8244 209.204C71.7718 207.616 75.9547 206.691 80.204 206.467C84.3653 206.199 88.5428 206.587 92.5835 207.618L92.2865 207.831C92.6195 202.911 94.0462 198.127 96.4625 193.828C98.7869 189.649 101.886 185.952 105.594 182.933C112.842 176.966 122.298 174.08 130.956 175.277C135.217 175.853 139.33 177.232 143.076 179.341C146.666 181.352 149.907 183.931 152.671 186.979C157.864 192.658 161.032 199.895 161.682 207.562L161.45 207.413C166.81 205.456 172.378 204.127 178.043 203.451C183.398 202.94 188.641 203.451 192.975 205.511C197.036 207.354 200.446 210.382 202.756 214.197C203.764 215.874 204.47 217.715 204.844 219.635C205.151 221.385 205.151 223.175 204.844 224.925L204.732 224.813C207.892 224.428 211.095 224.572 214.207 225.24C216.466 225.733 218.651 226.523 220.703 227.588C221.955 228.251 223.144 229.024 224.257 229.899C224.991 230.511 225.343 230.827 225.343 230.827C225.343 230.827 224.963 230.53 224.23 229.899C223.102 229.051 221.907 228.297 220.657 227.644C218.601 226.598 216.417 225.828 214.161 225.352C211.067 224.706 207.887 224.577 204.751 224.971H204.621V224.832C204.923 223.107 204.923 221.342 204.621 219.617C204.242 217.725 203.539 215.914 202.542 214.262C200.244 210.503 196.868 207.522 192.854 205.706C188.567 203.729 183.379 203.191 178.062 203.711C172.425 204.399 166.885 205.732 161.552 207.683L161.339 207.757V207.534C160.685 199.953 157.547 192.799 152.412 187.183C146.827 180.934 139.222 176.847 130.928 175.639C122.344 174.46 113.064 177.318 105.872 183.22C102.211 186.206 99.1522 189.862 96.8616 193.995C94.4713 198.26 93.0666 203.007 92.7505 207.887V208.165L92.4814 208.1C88.4892 207.082 84.362 206.697 80.2504 206.959C76.0548 207.188 71.9256 208.106 68.0286 209.678C64.0471 211.246 60.4922 213.732 57.6536 216.935C54.8262 220.245 52.9697 224.272 52.2897 228.572L52.234 228.897L51.9371 228.748C49.341 227.483 46.3755 227.196 43.5851 227.941C40.7422 228.657 38.1889 230.232 36.2724 232.451C34.8926 234.075 33.9079 235.997 33.3956 238.065C32.862 240.121 32.7141 242.257 32.9595 244.366C33.1955 246.465 33.7689 248.511 34.6577 250.426C35.0966 251.378 35.6216 252.289 36.226 253.145C36.8129 254.01 37.4644 254.829 38.1748 255.595C38.5275 255.976 38.8708 256.375 39.242 256.737L40.4206 257.757L41.0052 258.268L41.6456 258.723L42.9169 259.651C43.8449 260.17 44.6987 260.718 45.6267 261.172C46.5519 261.634 47.4996 262.049 48.4664 262.416C52.3167 263.841 56.3228 264.804 60.4004 265.284C68.4926 266.295 76.5384 266.082 84.3985 266.286L107.459 266.666L187.267 267.993C192.947 268.058 198.403 268.281 203.452 267.993C208.246 267.798 212.976 266.82 217.455 265.098C221.352 263.558 224.828 261.115 227.598 257.971C229.925 255.326 231.436 252.064 231.951 248.58C232.15 247.1 232.175 245.601 232.025 244.116C231.476 239.478 229.426 235.147 226.188 231.783L225.306 230.864Z" fill="#263238" />
      <path d="M300.4 103.004C298.913 101.747 297.176 100.82 295.305 100.282C293.434 99.7449 291.47 99.6098 289.542 99.8861C290.517 94.9955 286.238 90.272 281.413 89.0285C276.587 87.7849 271.483 89.1491 266.76 90.7453C266.184 81.5859 257.693 73.6329 248.515 73.6701C239.337 73.7072 230.883 81.7158 230.401 90.8845C222.457 88.7965 210.736 91.6176 209.057 101.779C205.948 100.164 201.772 101.659 199.953 104.656C199.115 106.201 198.716 107.945 198.8 109.701C198.883 111.456 199.446 113.155 200.426 114.613C204.454 120.822 213.075 121.583 220.471 121.703L282.99 122.696C287.074 122.761 291.25 122.817 295.138 121.564C299.026 120.311 302.655 117.481 303.768 113.546C304.221 111.649 304.147 109.664 303.553 107.806C302.959 105.948 301.869 104.287 300.4 103.004Z" fill="#F5F5F5" />
      <path opacity="0.2" d="M300.4 103.004L300.91 103.459C301.388 103.933 301.82 104.452 302.2 105.009C302.824 105.907 303.311 106.892 303.648 107.932C304.116 109.361 304.259 110.876 304.065 112.368C303.798 114.24 302.992 115.994 301.745 117.416C300.268 119.101 298.414 120.414 296.335 121.249C293.947 122.172 291.423 122.692 288.865 122.789C286.164 122.966 283.297 122.854 280.309 122.789L238.242 122.186L226.086 122C221.848 122.042 217.611 121.868 213.391 121.481C211.212 121.226 209.072 120.712 207.015 119.95C204.888 119.177 202.978 117.904 201.447 116.238C200.673 115.411 200.029 114.472 199.535 113.454C199.047 112.407 198.734 111.288 198.607 110.141C198.454 108.978 198.54 107.797 198.859 106.669C199.178 105.541 199.724 104.49 200.463 103.58C201.526 102.354 202.938 101.483 204.51 101.083C206.078 100.659 207.747 100.82 209.205 101.538L208.853 101.705C209.229 99.3748 210.237 97.1924 211.767 95.3946C213.29 93.6687 215.197 92.3242 217.335 91.4692C221.512 89.8206 226.103 89.5284 230.456 90.634L230.169 90.8474C230.381 88.2806 231.117 85.7845 232.332 83.5132C233.547 81.242 235.214 79.2438 237.231 77.642C239.077 76.0846 241.222 74.9214 243.535 74.224C245.847 73.5266 248.278 73.3097 250.678 73.5866C255.124 74.2392 259.198 76.4373 262.185 79.7949C264.931 82.8078 266.602 86.6454 266.936 90.7082L266.704 90.5505C269.538 89.522 272.48 88.8214 275.474 88.4625C278.16 88.132 280.887 88.5128 283.38 89.5668C285.536 90.5536 287.342 92.1716 288.559 94.2068C289.094 95.0964 289.467 96.0734 289.663 97.0929C289.823 98.014 289.823 98.9557 289.663 99.8769L289.561 99.7562C292.459 99.3853 295.402 99.9065 297.996 101.25C298.652 101.6 299.273 102.01 299.852 102.475C300.233 102.8 300.418 102.976 300.418 102.976C300.418 102.976 300.214 102.828 299.824 102.512C299.237 102.072 298.616 101.678 297.968 101.334C295.384 100.053 292.476 99.5712 289.616 99.9511H289.477V99.8119C290.266 96.3597 287.816 91.8497 283.297 89.7988C280.842 88.7832 278.165 88.4249 275.529 88.7594C272.563 89.1276 269.649 89.8344 266.843 90.866L266.63 90.9309V90.7082C266.287 86.7314 264.64 82.9793 261.943 80.0362C259.012 76.758 255.021 74.6161 250.668 73.9857C248.318 73.7233 245.938 73.9453 243.676 74.638C241.415 75.3307 239.319 76.4794 237.519 78.0132C235.555 79.5778 233.931 81.5276 232.749 83.7427C231.566 85.9578 230.849 88.3914 230.642 90.8938V91.1815L230.373 91.1073C226.116 90.0335 221.63 90.3257 217.548 91.9425C215.466 92.7598 213.608 94.0608 212.128 95.738C210.662 97.4712 209.699 99.5737 209.344 101.816L209.289 102.141L209.001 101.993C206.328 100.619 202.802 101.622 200.853 103.923C200.162 104.786 199.653 105.78 199.358 106.846C199.063 107.912 198.987 109.026 199.136 110.122C199.271 111.217 199.584 112.283 200.064 113.277C200.541 114.264 201.167 115.172 201.92 115.968C203.408 117.563 205.252 118.781 207.303 119.523C209.327 120.27 211.433 120.775 213.576 121.026C217.777 121.418 221.996 121.594 226.215 121.555L238.372 121.759L280.439 122.483C283.436 122.529 286.285 122.641 288.967 122.483C291.507 122.401 294.015 121.899 296.391 120.998C298.435 120.195 300.263 118.923 301.727 117.286C302.953 115.898 303.755 114.188 304.038 112.358C304.234 110.895 304.107 109.406 303.666 107.997C303.343 106.962 302.874 105.977 302.274 105.074C301.908 104.517 301.492 103.995 301.031 103.515C300.558 103.181 300.4 103.004 300.4 103.004Z" fill="#263238" />
      <path d="M442.783 65.9492C441.806 65.1248 440.667 64.516 439.438 64.1625C438.21 63.8091 436.921 63.7191 435.656 63.8983C436.296 60.6874 433.494 57.5879 430.32 56.7712C427.146 55.9546 423.824 56.8455 420.696 57.8941C420.496 54.8569 419.144 52.0105 416.918 49.9348C414.692 47.859 411.758 46.7101 408.714 46.7219C405.67 46.7337 402.745 47.9055 400.535 49.9985C398.325 52.0915 396.996 54.9483 396.819 57.9869C391.604 56.6228 383.91 58.4695 382.806 65.1418C381.754 64.6769 380.569 64.6087 379.47 64.9499C378.372 65.2911 377.434 66.0186 376.83 66.9978C376.287 68.0069 376.029 69.145 376.085 70.2897C376.14 71.4343 376.507 72.5421 377.145 73.4938C379.781 77.577 385.497 78.0688 390.304 78.1338L431.331 78.7834C434.014 78.9756 436.711 78.7247 439.312 78.041C441.864 77.2151 444.249 75.3591 444.973 72.7792C445.256 71.5491 445.202 70.2653 444.817 69.0632C444.431 67.8611 443.729 66.7853 442.783 65.9492Z" fill="#F5F5F5" />
      <path d="M442.783 65.9491C443.254 66.3093 443.66 66.749 443.98 67.2483C444.381 67.8435 444.694 68.4937 444.908 69.1786C445.217 70.1201 445.312 71.1188 445.186 72.1018C444.954 74.3475 443.043 76.7418 440.101 77.9668C438.529 78.5788 436.868 78.9268 435.183 78.9968C433.401 79.1082 431.526 78.9968 429.559 78.9968L401.932 78.6071L393.951 78.4864C391.163 78.5135 388.376 78.3989 385.599 78.1431C384.16 77.9747 382.745 77.6351 381.386 77.1315C379.972 76.6312 378.698 75.7972 377.674 74.7002C376.634 73.5804 375.983 72.1549 375.818 70.6355C375.711 69.8626 375.764 69.0759 375.973 68.3241C376.182 67.5723 376.543 66.8714 377.034 66.2647C377.724 65.431 378.669 64.8463 379.723 64.5999C380.777 64.3536 381.883 64.4592 382.871 64.9005L382.519 65.0768C382.769 63.5302 383.44 62.0822 384.458 60.8915C385.469 59.7407 386.742 58.8496 388.17 58.2931C390.929 57.2018 393.962 57.007 396.838 57.7363L396.541 57.9498C396.679 56.2563 397.161 54.6088 397.959 53.1087C398.757 51.6086 399.853 50.2875 401.181 49.2266C402.402 48.1982 403.82 47.4306 405.349 46.971C406.878 46.5113 408.485 46.3694 410.071 46.5539C413.043 46.9836 415.763 48.4653 417.736 50.7299C419.551 52.7164 420.654 55.2495 420.873 57.9312L420.641 57.7735C422.506 57.0976 424.443 56.6399 426.413 56.4093C428.189 56.1938 429.99 56.4466 431.638 57.1424C434.672 58.5437 436.278 61.6154 435.749 63.9632L435.647 63.8426C437.561 63.5982 439.505 63.9481 441.215 64.8448C441.802 65.1406 442.338 65.5291 442.801 65.9955C442.801 65.9955 442.662 65.9027 442.412 65.6986C442.016 65.4131 441.6 65.1557 441.168 64.9283C439.472 64.0822 437.563 63.7591 435.684 64.0003H435.544V63.8704C436.055 61.6154 434.449 58.6736 431.498 57.3744C429.896 56.7044 428.144 56.4707 426.422 56.697C424.479 56.9378 422.57 57.4018 420.734 58.0797L420.52 58.1539V57.9219C420.292 55.3267 419.212 52.8798 417.448 50.9619C415.544 48.8318 412.953 47.4363 410.127 47.0179C408.598 46.8503 407.052 46.9951 405.581 47.4433C404.11 47.8916 402.746 48.634 401.57 49.6256C400.289 50.6471 399.231 51.92 398.46 53.3659C397.689 54.8118 397.222 56.4002 397.088 58.0333V58.3117L396.819 58.2375C394.046 57.5459 391.126 57.7373 388.467 58.785C387.111 59.318 385.902 60.1676 384.941 61.2628C383.972 62.3821 383.329 63.7466 383.085 65.2068L383.038 65.5315L382.741 65.3831C381.849 64.9946 380.855 64.9059 379.908 65.1301C378.961 65.3543 378.112 65.8793 377.489 66.6266C377.044 67.1858 376.717 67.8293 376.527 68.5182C376.337 69.2072 376.289 69.9274 376.384 70.6355C376.545 72.0585 377.164 73.3907 378.148 74.4311C379.115 75.4707 380.318 76.2631 381.655 76.7418C382.975 77.2338 384.349 77.5641 385.748 77.7255C388.506 77.9853 391.275 78.103 394.044 78.0781L402.025 78.2173L429.642 78.7091C431.61 78.7091 433.484 78.8205 435.21 78.7091C436.862 78.6651 438.495 78.3516 440.045 77.7811C442.922 76.649 444.797 74.3104 445.047 72.1389C445.262 70.4642 444.859 68.7687 443.915 67.369C443.581 66.863 443.202 66.3878 442.783 65.9491V65.9491Z" fill="#263238" fill-opacity="0.1" />
      <path d="M573.52 199.479C568.694 195.164 561.827 193.456 555.396 194.264C557.029 186.097 549.893 178.219 541.828 176.158C533.764 174.098 525.264 176.353 517.376 179.007C516.448 163.723 502.24 150.453 486.919 150.518C471.597 150.583 457.529 163.946 456.684 179.286C443.423 175.796 423.861 180.511 421.058 197.465C415.871 194.765 408.902 197.27 405.876 202.272C402.851 207.274 403.482 213.984 406.665 218.884C413.375 229.249 427.777 230.521 440.119 230.716L544.399 232.386C551.22 232.488 558.189 232.581 564.685 230.53C571.181 228.479 577.232 223.728 579.078 217.157C580.879 210.838 578.354 203.85 573.52 199.479Z" fill="#F5F5F5" />
      <path opacity="0.2" d="M573.519 199.479C573.519 199.479 573.816 199.739 574.364 200.249C575.151 201.043 575.866 201.907 576.498 202.829C577.527 204.336 578.333 205.983 578.893 207.72C579.242 208.83 579.487 209.97 579.626 211.125C579.783 212.445 579.783 213.778 579.626 215.097C579.168 218.196 577.824 221.096 575.756 223.449C573.3 226.252 570.215 228.434 566.754 229.815C562.774 231.344 558.57 232.209 554.31 232.377C549.8 232.655 545.03 232.469 540.037 232.423L469.825 231.347L449.529 231.031C442.616 230.864 435.526 231.031 428.362 230.159C424.734 229.735 421.17 228.878 417.745 227.607C416.017 226.947 414.357 226.121 412.79 225.138L411.648 224.331L411.073 223.923L410.544 223.468L409.486 222.54C409.152 222.215 408.846 221.862 408.558 221.519C407.92 220.827 407.334 220.088 406.804 219.31C406.259 218.536 405.787 217.713 405.394 216.851C404.587 215.125 404.07 213.279 403.863 211.385C403.601 209.469 403.733 207.52 404.25 205.656C404.767 203.793 405.658 202.054 406.869 200.546C408.624 198.53 410.951 197.096 413.542 196.435C416.119 195.749 418.857 196.016 421.253 197.187L420.901 197.363C421.514 193.499 423.184 189.879 425.726 186.905C428.267 184.041 431.446 181.816 435.006 180.409C438.483 179.01 442.168 178.195 445.91 177.996C449.575 177.766 453.254 178.107 456.814 179.007L456.517 179.221C456.824 174.885 458.092 170.672 460.229 166.888C462.281 163.209 465.011 159.953 468.275 157.292C474.66 152.04 482.947 149.497 490.612 150.555C498.001 151.637 504.773 155.287 509.738 160.865C514.308 165.865 517.092 172.238 517.654 178.989L517.422 178.831C522.141 177.114 527.042 175.947 532.029 175.351C536.502 174.805 541.04 175.445 545.188 177.207C548.76 178.832 551.758 181.497 553.79 184.854C554.682 186.33 555.31 187.95 555.646 189.642C555.913 191.177 555.913 192.747 555.646 194.282L555.535 194.162C558.321 193.828 561.144 193.96 563.887 194.551C565.88 194.98 567.806 195.676 569.613 196.621C570.714 197.202 571.761 197.883 572.74 198.653C573.38 199.191 573.668 199.479 573.668 199.479L572.684 198.69C571.696 197.942 570.647 197.277 569.548 196.704C567.74 195.791 565.821 195.114 563.84 194.691C561.118 194.126 558.321 194.016 555.563 194.366H555.423V194.236C555.684 192.719 555.684 191.169 555.423 189.652C555.085 187.984 554.457 186.388 553.567 184.937C551.547 181.633 548.578 179.014 545.048 177.42C540.945 175.712 536.466 175.107 532.056 175.667C527.097 176.272 522.224 177.446 517.533 179.165L517.32 179.239V179.007C516.707 172.342 513.904 166.067 509.348 161.162C504.447 155.647 497.762 152.033 490.463 150.954C482.91 149.924 474.752 152.439 468.451 157.626C465.232 160.252 462.542 163.468 460.526 167.101C458.436 170.829 457.203 174.975 456.916 179.239V179.527L456.647 179.453C453.136 178.56 449.507 178.222 445.892 178.451C442.203 178.656 438.572 179.465 435.145 180.845C431.644 182.224 428.518 184.412 426.023 187.229C423.539 190.13 421.91 193.665 421.318 197.437L421.263 197.762L420.966 197.614C418.675 196.497 416.058 196.247 413.597 196.908C411.103 197.539 408.862 198.919 407.175 200.862C406.006 202.318 405.146 203.997 404.647 205.797C404.147 207.597 404.019 209.479 404.271 211.33C404.48 213.171 404.985 214.966 405.765 216.647C406.146 217.487 406.606 218.289 407.138 219.041C407.653 219.801 408.224 220.52 408.846 221.194C409.161 221.528 409.468 221.881 409.774 222.196L410.804 223.124L411.324 223.579L411.88 223.969L413.003 224.758C414.544 225.726 416.176 226.54 417.875 227.189C421.261 228.444 424.785 229.292 428.371 229.713C435.489 230.641 442.579 230.419 449.483 230.595L469.778 230.929L540.047 232.108C545.039 232.163 549.8 232.358 554.291 232.108C558.521 231.962 562.698 231.118 566.652 229.611C570.079 228.253 573.137 226.107 575.58 223.347C577.635 221.023 578.975 218.155 579.44 215.088C579.614 213.786 579.635 212.469 579.505 211.163C579.172 208.204 578.127 205.371 576.461 202.903C575.841 201.979 575.143 201.109 574.373 200.305L573.519 199.479Z" fill="#263238" />
    </g>
    <path d="M252.96 155.984C252.96 155.984 252.172 150.258 251.503 147.817C250.835 145.377 251.503 140.189 251.503 140.189C250.979 140.142 250.452 140.237 249.978 140.466C249.504 140.695 249.101 141.048 248.812 141.488C248.023 142.973 247.262 148.393 246.539 148.801C245.446 149.044 244.302 148.855 243.346 148.272C243.059 147.892 236.061 139.215 234.939 139.475C233.816 139.734 232.804 140.941 233.417 141.943C234.029 142.945 238.456 147.251 237.806 147.752C237.157 148.253 231.431 143.01 230.512 143.549C230.276 143.665 230.069 143.833 229.906 144.04C229.743 144.246 229.627 144.486 229.568 144.743C229.508 144.999 229.506 145.265 229.562 145.523C229.618 145.78 229.73 146.022 229.89 146.23C230.688 147.093 234.994 151.047 234.53 151.557C234.066 152.068 229.63 147.613 228.962 147.845C228.618 148.087 228.383 148.455 228.31 148.869C228.237 149.283 228.332 149.709 228.573 150.054C229.092 150.546 234.651 155.761 234.141 156.605C233.63 157.45 229.677 155.566 229.046 155.613C228.22 155.677 228.313 157.413 230.132 158.118C230.707 158.341 243.467 163.176 244.98 163.686C246.492 164.197 252.96 155.984 252.96 155.984Z" fill="#FFBE9D" />
    <path d="M307.954 151.715C307.425 151.715 290.368 154.722 275.223 155.557L249.462 152.68L244.887 163.649L273.404 169.356H298.831L307.954 151.715Z" fill="#FFBE9D" />
    <path d="M238.446 157.45C238.917 156.986 239.509 156.665 240.154 156.522C241.696 156.044 243.358 156.132 244.84 156.772L245.184 156.93L244.831 157.172C244.672 155.682 244.782 154.177 245.156 152.726C245.27 152.093 245.514 151.49 245.87 150.954C245.375 152.943 245.2 154.998 245.351 157.042L245.397 157.468L244.998 157.283L244.683 157.134C243.294 156.542 241.752 156.412 240.284 156.763C239.115 157.079 238.446 157.45 238.446 157.45Z" fill="#EB996E" />
    <path d="M430.283 160.986C430.283 160.986 431.081 155.269 431.749 152.828C432.417 150.388 431.749 145.2 431.749 145.2C432.274 145.153 432.803 145.249 433.278 145.478C433.754 145.706 434.158 146.059 434.449 146.5C435.238 147.984 435.999 153.404 436.723 153.803C437.815 154.054 438.962 153.864 439.915 153.274C440.194 152.903 447.2 144.226 448.323 144.486C449.446 144.746 450.457 145.943 449.836 146.954C449.214 147.966 444.797 152.262 445.455 152.754C446.114 153.246 451.831 148.012 452.74 148.56C452.978 148.673 453.187 148.839 453.352 149.044C453.517 149.249 453.635 149.489 453.695 149.745C453.756 150.001 453.758 150.268 453.702 150.525C453.646 150.783 453.533 151.024 453.371 151.232C452.564 152.105 448.258 156.049 448.731 156.568C449.205 157.088 453.631 152.624 454.299 152.856C454.47 152.975 454.617 153.127 454.729 153.302C454.842 153.477 454.919 153.673 454.956 153.878C454.993 154.083 454.99 154.293 454.945 154.497C454.901 154.701 454.817 154.894 454.698 155.065C454.179 155.557 448.62 160.772 449.13 161.617C449.641 162.461 453.594 160.577 454.225 160.624C455.051 160.679 454.958 162.424 453.139 163.12C452.555 163.352 439.804 168.187 438.291 168.688C436.779 169.189 430.283 160.986 430.283 160.986Z" fill="#FFBE9D" />
    <path d="M375.289 156.726C375.818 156.726 392.921 159.733 408.029 160.568L433.79 157.682L438.365 168.651L409.848 174.367H384.412L375.289 156.726Z" fill="#FFBE9D" />
    <path d="M444.806 162.424C444.806 162.498 444.138 162.09 443.005 161.812C441.534 161.46 439.989 161.59 438.597 162.183L438.291 162.322L437.892 162.508L437.966 162.09C438.105 160.046 437.929 157.993 437.447 156.002C437.776 156.521 438.002 157.097 438.115 157.7C438.493 159.15 438.607 160.656 438.449 162.146L438.096 161.904L438.43 161.747C439.915 161.102 441.582 161.013 443.126 161.496C443.76 161.647 444.341 161.968 444.806 162.424V162.424Z" fill="#EB996E" />
    <path d="M464.702 293.411L448.174 282.015L437.586 297.179L456.508 306.561L464.702 293.411Z" fill="#FFBE9D" />
    <path d="M462.67 290.154L463.644 290.794C463.644 290.794 481.276 278.73 484.506 280.642L462.503 313.252L451.951 305.494C454.732 303.853 457.128 301.635 458.977 298.988C460.826 296.342 462.085 293.329 462.67 290.154V290.154Z" fill="url(#paint0_linear_2_1578)" />
    <path d="M462.503 313.289L459.96 311.433L481.981 280.874C481.981 280.874 483.596 279.844 484.506 280.698L462.503 313.289Z" fill="#E0E0E0" />
    <path d="M467.384 293.717C467.384 293.764 467.069 293.717 466.688 293.383C466.197 293 465.806 292.503 465.547 291.936C465.289 291.369 465.171 290.748 465.203 290.126C465.203 289.653 465.352 289.374 465.407 289.384C465.477 290.196 465.655 290.995 465.936 291.759C466.328 292.475 466.815 293.134 467.384 293.717Z" fill="#263238" />
    <path d="M465.853 295.184C465.104 294.741 464.509 294.08 464.148 293.288C463.788 292.496 463.68 291.612 463.839 290.757C464.086 292.391 464.784 293.924 465.853 295.184V295.184Z" fill="#263238" />
    <path d="M469.862 291.722C469.494 291.679 469.14 291.56 468.82 291.374C468.501 291.187 468.223 290.936 468.006 290.636C467.738 290.385 467.525 290.08 467.383 289.741C467.241 289.402 467.172 289.037 467.18 288.669C467.3 288.669 467.579 289.532 468.321 290.358C469.064 291.184 469.908 291.602 469.862 291.722Z" fill="#263238" />
    <path d="M465.751 289.532C465.259 289.615 464.753 289.544 464.303 289.328C463.808 289.135 463.335 288.889 462.892 288.595C462.642 288.437 462.382 288.261 462.122 288.075C461.972 287.982 461.832 287.874 461.705 287.75C461.622 287.667 461.56 287.566 461.523 287.455C461.486 287.344 461.475 287.226 461.491 287.11C461.518 286.984 461.584 286.871 461.682 286.787C461.779 286.703 461.901 286.654 462.029 286.646C462.224 286.626 462.421 286.651 462.605 286.72C462.908 286.825 463.2 286.959 463.477 287.119C463.941 287.395 464.355 287.746 464.702 288.159C465.054 288.511 465.293 288.96 465.389 289.449C465.333 289.449 465.092 288.975 464.461 288.363C464.11 287.996 463.707 287.683 463.264 287.435C463.007 287.291 462.736 287.173 462.456 287.082C462.178 286.989 461.881 287.017 461.89 287.157C461.9 287.296 462.067 287.528 462.345 287.713C462.623 287.899 462.837 288.075 463.087 288.242C463.503 288.541 463.944 288.801 464.405 289.022C465.203 289.421 465.806 289.458 465.751 289.532Z" fill="#263238" />
    <path d="M465.806 289.226C465.806 289.226 465.806 289.319 465.806 289.477V289.606L465.714 289.495C465.35 289.076 465.063 288.595 464.869 288.075C464.704 287.672 464.586 287.252 464.517 286.822C464.477 286.58 464.452 286.335 464.442 286.089C464.431 285.942 464.447 285.795 464.489 285.653C464.515 285.561 464.562 285.476 464.627 285.406C464.691 285.335 464.771 285.28 464.86 285.245C464.977 285.206 465.104 285.207 465.221 285.249C465.337 285.291 465.435 285.372 465.5 285.477C465.596 285.62 465.671 285.777 465.723 285.941C466.009 286.695 466.108 287.507 466.011 288.307C466.003 288.775 465.858 289.23 465.593 289.616C465.528 289.616 465.686 289.096 465.714 288.289C465.725 287.815 465.682 287.342 465.584 286.878C465.52 286.61 465.44 286.347 465.342 286.089C465.25 285.802 465.073 285.57 465.008 285.635C464.776 285.7 464.878 286.368 464.916 286.767C464.97 287.173 465.06 287.574 465.185 287.964C465.357 288.465 465.568 288.952 465.816 289.421H465.704C465.751 289.3 465.806 289.226 465.806 289.226Z" fill="#263238" />
    <path d="M350.391 111.635C349.3 105.126 345.773 99.277 340.526 95.274L341.065 94.9677C338.528 93.9387 335.698 93.902 333.136 94.8649C330.574 95.8279 328.468 97.7198 327.237 100.165C326.309 102.197 326.05 104.47 325.511 106.661C324.973 108.851 324.027 111.069 322.171 112.331C321.187 112.999 320.008 113.342 318.988 113.964C318.455 114.231 318.003 114.635 317.677 115.134C317.351 115.633 317.163 116.209 317.132 116.804C317.224 118.335 318.848 119.291 320.342 119.588C321.837 119.885 323.47 119.894 324.76 120.72C324.21 121.066 323.737 121.52 323.369 122.055C323.001 122.59 322.745 123.194 322.618 123.83C322.49 124.467 322.494 125.123 322.628 125.758C322.761 126.393 323.023 126.995 323.397 127.526C323.77 128.057 324.248 128.506 324.8 128.847C325.353 129.188 325.969 129.412 326.611 129.507C327.254 129.603 327.909 129.566 328.536 129.4C329.164 129.234 329.751 128.943 330.263 128.543C329.149 130.993 330.393 134.111 332.676 135.521C333.852 136.178 335.172 136.537 336.519 136.568C337.866 136.598 339.2 136.3 340.406 135.698C342.813 134.47 344.845 132.617 346.289 130.334C349.982 124.848 351.449 118.162 350.391 111.635Z" fill="#263238" />
    <path d="M385.664 101.046C385.508 100.134 385.095 99.2857 384.474 98.6003C383.853 97.9148 383.049 97.4209 382.157 97.1763C380.363 96.7179 378.497 96.6108 376.663 96.8608C377.498 94.5501 378.333 92.1559 378.194 89.6967C378.055 87.2375 376.672 84.6855 374.333 83.9338C372.32 83.2842 370.12 84.0823 368.292 85.168C366.464 86.2538 364.794 87.6272 362.78 88.2768C357.537 89.9936 351.987 86.3744 346.493 86.792C340.851 87.2189 335.441 92.9632 335.552 98.624C344.155 103.143 352.832 107.718 360.219 114.02C364.209 117.425 368.441 121.583 373.684 121.379C375.325 121.316 376.918 120.812 378.296 119.918C379.674 119.025 380.785 117.776 381.511 116.303C382.237 114.831 382.552 113.189 382.423 111.552C382.293 109.915 381.723 108.344 380.774 107.004C383.159 105.686 385.896 103.756 385.664 101.046Z" fill="#263238" />
    <path d="M375.169 112.498C375.503 105.166 368.441 97.0371 361.1 97.0278L337.074 98.9859L336.731 102.911L332.945 151.594C332.945 151.594 333.279 167.463 346.586 167.992C358.53 168.475 359.235 155.872 359.235 155.863L359.857 146.676C359.857 146.676 369.48 147.325 372.719 135.391C374.333 129.434 374.807 120.645 375.169 112.498Z" fill="#FFBE9D" />
    <path d="M369.294 122.965C369.254 123.372 369.057 123.746 368.746 124.01C368.434 124.273 368.031 124.405 367.624 124.376C367.425 124.37 367.228 124.324 367.047 124.241C366.865 124.158 366.702 124.04 366.567 123.893C366.432 123.746 366.328 123.573 366.261 123.385C366.194 123.197 366.165 122.998 366.176 122.798C366.216 122.392 366.413 122.018 366.725 121.754C367.037 121.491 367.44 121.359 367.847 121.388C368.047 121.392 368.244 121.437 368.426 121.52C368.608 121.603 368.771 121.721 368.907 121.868C369.042 122.016 369.146 122.189 369.212 122.377C369.279 122.566 369.307 122.766 369.294 122.965V122.965Z" fill="#263238" />
    <path d="M372.338 118.724C372.116 118.901 371.03 117.908 369.359 117.732C367.689 117.555 366.362 118.251 366.204 118.028C366.046 117.806 366.362 117.583 366.937 117.249C367.719 116.832 368.608 116.66 369.489 116.757C370.36 116.85 371.179 117.218 371.828 117.806C372.301 118.251 372.44 118.641 372.338 118.724Z" fill="#263238" />
    <path d="M355.625 121.471C355.585 121.878 355.388 122.252 355.076 122.516C354.764 122.779 354.362 122.91 353.955 122.882C353.755 122.877 353.558 122.832 353.376 122.75C353.194 122.667 353.03 122.549 352.895 122.401C352.76 122.254 352.656 122.081 352.589 121.892C352.522 121.704 352.494 121.504 352.507 121.304C352.547 120.898 352.744 120.523 353.056 120.26C353.368 119.997 353.77 119.865 354.177 119.894C354.377 119.898 354.574 119.943 354.756 120.026C354.938 120.108 355.102 120.227 355.237 120.374C355.372 120.522 355.476 120.695 355.543 120.883C355.61 121.072 355.638 121.272 355.625 121.471V121.471Z" fill="#263238" />
    <path d="M356.887 117.323C356.674 117.5 355.588 116.497 353.908 116.321C352.229 116.145 350.92 116.85 350.762 116.627C350.605 116.405 350.911 116.182 351.495 115.848C352.275 115.425 353.166 115.253 354.047 115.356C354.919 115.447 355.738 115.814 356.386 116.405C356.859 116.85 356.989 117.24 356.887 117.323Z" fill="#263238" />
    <path d="M360.683 128.951C361.605 128.822 362.537 128.785 363.467 128.84C363.903 128.84 364.32 128.84 364.395 128.598C364.469 128.357 364.395 128.004 364.228 127.596L363.3 124.97C362.493 122.732 361.808 120.452 361.249 118.14C361.444 118.14 362.678 121.1 364.033 124.84C364.348 125.768 364.654 126.64 364.961 127.485C365.07 127.684 365.133 127.905 365.144 128.132C365.155 128.358 365.115 128.585 365.026 128.793C364.934 128.911 364.82 129.01 364.689 129.081C364.558 129.153 364.413 129.197 364.265 129.211C364.021 129.239 363.775 129.239 363.532 129.211C362.576 129.22 361.621 129.133 360.683 128.951V128.951Z" fill="#263238" />
    <path d="M359.931 146.732C354.21 146.195 348.75 144.085 344.155 140.635C344.155 140.635 347.394 149.562 359.662 149.738L359.931 146.732Z" fill="#EB996E" />
    <path d="M356.934 111.672C356.692 112.164 355.291 111.672 353.528 111.56C351.765 111.449 350.27 111.829 350.141 111.31C350.085 111.068 350.419 110.623 351.069 110.224C351.879 109.749 352.812 109.523 353.75 109.574C354.659 109.617 355.531 109.941 356.247 110.502C356.813 110.957 357.045 111.43 356.934 111.672Z" fill="#263238" />
    <path d="M373.006 112.971C372.672 113.416 371.475 112.897 370.009 112.832C368.543 112.767 367.29 113.036 367.021 112.553C366.909 112.321 367.114 111.876 367.67 111.468C368.389 110.97 369.258 110.737 370.13 110.809C371.009 110.859 371.844 111.21 372.496 111.802C373.006 112.284 373.155 112.757 373.006 112.971Z" fill="#263238" />
    <path d="M374.862 105.482C373.917 103.312 372.549 101.353 370.838 99.7179C369.126 98.0831 367.106 96.8058 364.896 95.9607C360.454 94.3054 355.678 93.7513 350.976 94.3459C346.293 94.9386 341.665 95.91 337.139 97.2506C336.651 97.2543 336.168 97.3603 335.723 97.5617C335.278 97.7631 334.88 98.0555 334.555 98.4201C334.23 98.7846 333.985 99.2132 333.835 99.6783C333.686 100.143 333.635 100.635 333.687 101.12C333.297 107.653 332.901 114.19 332.499 120.729L333.798 124.914C335.896 125.183 337.854 123.847 339.413 122.409C344.904 117.318 348.227 110.311 348.693 102.837C349.123 103.771 349.405 104.767 349.528 105.788C349.589 106.3 349.771 106.789 350.06 107.215C350.349 107.642 350.737 107.992 351.189 108.238C352.785 108.878 354.381 107.171 354.836 105.51C355.291 103.849 355.207 101.983 356.21 100.591C357.608 103.211 359.581 105.479 361.982 107.227C363.105 108.043 364.645 108.748 365.824 108.015C366.223 107.721 366.531 107.32 366.715 106.86C366.898 106.399 366.95 105.896 366.863 105.408C366.671 104.44 366.296 103.517 365.759 102.689C367.523 105.108 369.95 106.965 372.747 108.034C373.031 108.184 373.346 108.268 373.668 108.277C373.99 108.287 374.31 108.223 374.603 108.09C375.391 107.588 375.215 106.41 374.862 105.482Z" fill="#263238" />
    <path d="M337.789 116.831C337.613 116.729 330.55 113.871 330.04 121.314C329.53 128.756 337.111 127.735 337.139 127.522C337.167 127.308 337.789 116.831 337.789 116.831Z" fill="#FFBE9D" />
    <path d="M335.061 124.552C335.061 124.552 334.921 124.636 334.699 124.719C334.386 124.843 334.037 124.843 333.724 124.719C332.954 124.376 332.379 123.077 332.434 121.741C332.455 121.093 332.624 120.458 332.926 119.885C333.013 119.657 333.154 119.453 333.337 119.292C333.519 119.13 333.738 119.015 333.975 118.957C334.126 118.927 334.282 118.952 334.416 119.026C334.55 119.101 334.654 119.221 334.708 119.365C334.801 119.578 334.708 119.727 334.782 119.745C334.856 119.764 334.949 119.625 334.912 119.318C334.878 119.132 334.787 118.96 334.652 118.827C334.557 118.741 334.445 118.677 334.324 118.637C334.202 118.597 334.074 118.583 333.947 118.595C333.638 118.636 333.344 118.754 333.092 118.939C332.841 119.124 332.64 119.369 332.509 119.653C332.15 120.276 331.946 120.976 331.915 121.694C331.859 123.197 332.536 124.654 333.585 125.044C333.783 125.114 333.993 125.139 334.202 125.118C334.41 125.097 334.611 125.031 334.791 124.924C335.033 124.729 335.079 124.562 335.061 124.552Z" fill="#EB996E" />
    <path d="M347.227 101.77C347.179 101.916 347.113 102.057 347.032 102.188C346.893 102.457 346.67 102.846 346.354 103.338C345.478 104.709 344.464 105.987 343.329 107.152C342.547 107.964 341.71 108.72 340.823 109.417C340.332 109.779 339.84 110.159 339.292 110.512C338.721 110.918 338.044 111.15 337.343 111.18C336.963 111.164 336.594 111.051 336.269 110.853C335.945 110.655 335.676 110.378 335.487 110.048C335.106 109.382 334.917 108.624 334.94 107.858C335.014 106.289 335.868 104.916 336.156 103.431C336.156 103.236 336.221 103.041 336.248 102.856L336.573 103.013L333.223 105.983L331.627 107.394C331.116 107.911 330.475 108.279 329.771 108.461C329.402 108.53 329.021 108.457 328.704 108.257C328.409 108.064 328.184 107.78 328.063 107.449C327.843 106.857 327.758 106.223 327.813 105.593C327.879 102.889 328.776 100.271 330.383 98.095C330.651 97.7561 330.939 97.4338 331.246 97.1299C331.341 97.0146 331.451 96.9117 331.571 96.8237C331.571 96.8237 331.172 97.2877 330.532 98.1971C329.024 100.383 328.198 102.966 328.156 105.621C328.14 106.208 328.244 106.793 328.462 107.338C328.553 107.608 328.738 107.837 328.983 107.984C329.228 108.13 329.517 108.184 329.799 108.136C330.421 107.944 330.986 107.6 331.441 107.134L333.019 105.723L336.35 102.763L336.74 102.41L336.685 102.921C336.685 103.125 336.629 103.329 336.582 103.542C336.239 105.111 335.432 106.475 335.376 107.895C335.347 108.586 335.514 109.271 335.859 109.871C336.01 110.153 336.231 110.39 336.501 110.561C336.771 110.731 337.08 110.83 337.399 110.846C338.029 110.82 338.637 110.614 339.153 110.252C339.682 109.918 340.192 109.537 340.666 109.185C341.551 108.507 342.391 107.773 343.181 106.985C344.325 105.845 345.363 104.603 346.28 103.273C346.605 102.809 346.846 102.438 347.004 102.178C347.069 102.037 347.143 101.901 347.227 101.77Z" fill="#455A64" />
    <path d="M355.625 129.731C354.999 130.72 354.641 131.855 354.586 133.025C354.591 133.507 354.721 133.979 354.963 134.395C355.206 134.812 355.552 135.158 355.968 135.401C356.446 135.616 356.971 135.706 357.493 135.664C358.016 135.622 358.519 135.448 358.957 135.159C359.828 134.579 360.594 133.854 361.221 133.016C359.504 131.986 357.342 130.77 355.625 129.731Z" fill="#EB996E" />
    <path d="M358.01 136.106C357.63 136.161 357.242 136.137 356.871 136.034C356.501 135.932 356.155 135.754 355.857 135.512C355.154 135.028 354.64 134.317 354.4 133.498C354.263 132.995 354.228 132.47 354.298 131.953C354.368 131.437 354.542 130.94 354.808 130.492C355.025 130.111 355.308 129.771 355.644 129.489L355.764 129.387L355.903 129.461C357.26 130.132 358.555 130.92 359.773 131.819C360.285 132.147 360.748 132.547 361.147 133.006C361.063 133.118 358.901 131.438 355.69 129.888H355.95C355.658 130.133 355.413 130.429 355.226 130.761C354.755 131.561 354.612 132.512 354.827 133.415C355.026 134.151 355.459 134.803 356.061 135.271C356.652 135.67 357.313 135.953 358.01 136.106V136.106Z" fill="#263238" />
    <path d="M222.717 295.917L238.381 283.352L250.037 297.708L231.839 308.426L222.717 295.917Z" fill="#FFBE9D" />
    <path d="M224.526 292.557L223.598 293.263C223.598 293.263 205.159 282.507 202.06 284.651L226.382 315.581L236.34 307.071C233.445 305.641 230.891 303.605 228.853 301.101C226.815 298.596 225.339 295.683 224.526 292.557V292.557Z" fill="url(#paint1_linear_2_1578)" />
    <path d="M226.382 315.581L228.777 313.539L204.574 284.642C204.574 284.642 202.895 283.714 202.041 284.642L226.382 315.581Z" fill="#E0E0E0" />
    <path d="M220.063 296.409C220.063 296.455 220.369 296.344 220.731 296.037C221.198 295.622 221.552 295.095 221.761 294.506C221.986 293.915 222.063 293.278 221.984 292.65C221.909 292.186 221.77 291.917 221.724 291.936C221.711 292.749 221.592 293.557 221.371 294.339C221.032 295.086 220.592 295.782 220.063 296.409Z" fill="#263238" />
    <path d="M221.742 297.764C222.506 297.322 223.065 296.599 223.301 295.75C223.489 295.353 223.596 294.924 223.617 294.486C223.638 294.048 223.571 293.61 223.422 293.198C223.301 294.009 223.131 294.811 222.912 295.601C222.559 296.342 222.169 297.063 221.742 297.764V297.764Z" fill="#263238" />
    <path d="M217.446 294.599C217.446 294.71 218.467 294.376 219.209 293.393C219.459 293.122 219.649 292.803 219.767 292.454C219.886 292.106 219.929 291.736 219.896 291.37C219.766 291.37 219.552 292.251 218.875 293.133C218.198 294.014 217.39 294.488 217.446 294.599Z" fill="#263238" />
    <path d="M221.381 292.121C221.88 292.172 222.383 292.065 222.819 291.815C223.299 291.586 223.753 291.306 224.174 290.98C224.415 290.804 224.656 290.609 224.907 290.405C225.051 290.303 225.181 290.185 225.297 290.052C225.374 289.964 225.429 289.86 225.458 289.747C225.487 289.634 225.489 289.516 225.464 289.402C225.429 289.276 225.354 289.166 225.25 289.087C225.146 289.008 225.019 288.966 224.888 288.966C224.694 288.97 224.502 289.011 224.322 289.087C224.028 289.211 223.748 289.367 223.487 289.551C223.045 289.86 222.656 290.239 222.336 290.674C222.008 291.049 221.801 291.515 221.742 292.01C221.807 292.01 222.012 291.509 222.568 290.85C222.897 290.47 223.278 290.139 223.701 289.866C223.949 289.711 224.209 289.578 224.48 289.467C224.749 289.347 225.046 289.356 225.055 289.467C225.065 289.579 224.898 289.848 224.638 290.052L223.942 290.637C223.545 290.96 223.123 291.252 222.68 291.509C221.928 292.01 221.371 292.01 221.381 292.121Z" fill="#263238" />
    <path d="M221.306 291.834C221.306 291.834 221.306 291.917 221.306 292.084V292.205L221.399 292.093C221.725 291.645 221.976 291.147 222.141 290.618C222.338 289.965 222.432 289.286 222.42 288.604C222.417 288.455 222.388 288.308 222.336 288.168C222.304 288.079 222.252 287.999 222.185 287.934C222.117 287.868 222.036 287.818 221.947 287.788C221.825 287.758 221.698 287.769 221.584 287.82C221.47 287.87 221.375 287.956 221.316 288.066C221.23 288.217 221.168 288.379 221.13 288.548C221.042 288.833 220.983 289.125 220.954 289.421C220.899 289.922 220.918 290.428 221.009 290.924C221.055 291.388 221.232 291.829 221.52 292.196C221.585 292.196 221.39 291.685 221.306 290.878C221.247 290.409 221.247 289.936 221.306 289.467C221.345 289.194 221.404 288.924 221.483 288.66C221.557 288.372 221.715 288.131 221.78 288.196C222.021 288.196 221.965 288.91 221.956 289.309C221.932 289.72 221.87 290.127 221.77 290.525C221.639 291.04 221.465 291.543 221.251 292.028H221.362C221.371 291.889 221.334 291.824 221.306 291.834Z" fill="#263238" />
    <path d="M306.794 225.268L232.656 282.646C232.656 282.646 247.012 304.918 247.931 303.712C248.849 302.506 328.37 252.032 329.39 252.032H342.503L441.595 300.965L455.032 283.862L367.689 228.525L363.16 216.406L315.396 211.515L306.794 225.268Z" fill="#455A64" />
    <g opacity="0.3">
      <path opacity="0.3" d="M312.779 215.728C315.886 220.544 320.062 224.577 324.982 227.514L324.286 227.041C329.084 230.001 334.281 233.073 339.914 232.804C343.839 232.609 347.477 230.808 351.171 229.453C353.955 228.423 356.924 227.597 359.523 226.178C362.121 224.758 364.497 222.466 365.202 219.524L312.779 215.728Z" fill="black" />
    </g>
    <path d="M327.618 246.668C327.534 246.668 327.377 245.536 326.913 243.754C326.301 241.434 325.427 239.193 324.305 237.072C323.176 234.955 321.799 232.98 320.203 231.189C318.988 229.815 318.134 229.045 318.18 228.98C318.422 229.105 318.644 229.264 318.839 229.453C319.408 229.924 319.951 230.425 320.463 230.957C323.848 234.492 326.195 238.89 327.247 243.67C327.404 244.39 327.518 245.118 327.59 245.851C327.636 246.121 327.645 246.396 327.618 246.668V246.668Z" fill="#263238" />
    <path d="M356.776 232.126C356.776 232.2 355.848 232.618 354.465 233.462C352.633 234.56 350.951 235.892 349.463 237.425C347.987 238.963 346.714 240.685 345.677 242.548C344.879 243.986 344.498 244.942 344.424 244.905C344.35 244.868 344.424 244.645 344.61 244.209C344.82 243.573 345.075 242.953 345.371 242.353C347.326 238.432 350.444 235.211 354.298 233.128C354.871 232.81 355.466 232.534 356.08 232.302C356.301 232.207 356.536 232.147 356.776 232.126V232.126Z" fill="#263238" />
    <path d="M335.181 252.032C335.065 251.734 334.99 251.422 334.958 251.104C334.847 250.482 334.726 249.572 334.606 248.45C334.319 245.51 334.276 242.552 334.476 239.606C334.695 236.667 335.073 233.743 335.608 230.845C335.803 229.732 335.979 228.832 336.118 228.219C336.167 227.901 336.251 227.59 336.369 227.291C336.393 227.621 336.371 227.952 336.304 228.275C336.202 229.008 336.081 229.89 335.942 230.929C335.636 233.156 335.2 236.246 334.958 239.671C334.767 242.594 334.767 245.526 334.958 248.45C335.088 250.64 335.255 252.022 335.181 252.032Z" fill="#263238" />
    <path d="M338.967 228.999C338.967 228.999 338.967 228.859 339.172 228.748C339.308 228.683 339.457 228.649 339.608 228.649C339.759 228.649 339.908 228.683 340.044 228.748C340.269 228.833 340.459 228.99 340.585 229.195C340.711 229.4 340.766 229.641 340.74 229.88C340.705 230.169 340.582 230.439 340.388 230.655C340.194 230.871 339.937 231.022 339.654 231.087C339.376 231.131 339.09 231.1 338.828 230.997C338.565 230.894 338.335 230.723 338.16 230.502C338.022 230.33 337.919 230.133 337.859 229.921C337.798 229.709 337.781 229.487 337.807 229.268C337.909 228.525 338.299 228.228 338.327 228.266C338.355 228.303 338.151 228.665 338.151 229.277C338.151 229.617 338.273 229.947 338.494 230.205C338.625 230.354 338.791 230.469 338.978 230.539C339.164 230.608 339.364 230.631 339.561 230.604C339.747 230.558 339.915 230.459 340.045 230.319C340.176 230.179 340.262 230.004 340.294 229.815C340.322 229.663 340.298 229.507 340.228 229.369C340.158 229.232 340.044 229.121 339.905 229.054C339.761 228.981 339.603 228.939 339.442 228.929C339.281 228.92 339.119 228.943 338.967 228.999V228.999Z" fill="#263238" />
    <path d="M333.399 145.711H328.462C326.207 145.708 323.96 145.982 321.772 146.527L296.168 152.866V172.957L315.656 173.671L314.654 193.772L312.148 214.791C312.148 214.791 326.421 226.957 337.974 227.236C349.528 227.514 369.369 219.7 369.369 219.7L373.173 175.732L385.07 177.086L393.051 156.438C393.051 156.438 374.176 149.497 371.707 149.219C370.779 149.116 359.922 149.089 359.922 149.089C357.258 155.863 351.217 156.355 346.002 156.058C337.742 155.594 333.167 145.711 333.399 145.711Z" fill="url(#paint2_linear_2_1578)" />
    <path d="M315.86 163.092C315.882 163.259 315.882 163.427 315.86 163.593C315.86 163.964 315.86 164.438 315.86 165.004C315.86 166.303 315.86 168.066 315.86 170.21C315.805 174.609 315.684 180.687 315.285 187.396C314.886 194.106 314.245 200.138 313.614 204.5C313.29 206.68 313.002 208.434 312.779 209.641L312.501 211.033C312.481 211.198 312.44 211.36 312.38 211.515C312.356 211.352 312.356 211.186 312.38 211.023C312.427 210.643 312.492 210.179 312.566 209.613C312.733 208.323 312.965 206.578 313.243 204.453C313.791 200.101 314.413 194.06 314.812 187.359C315.211 180.659 315.378 174.599 315.526 170.21C315.6 168.066 315.656 166.303 315.702 165.004C315.702 164.438 315.758 163.964 315.777 163.584C315.781 163.417 315.81 163.251 315.86 163.092V163.092Z" fill="#263238" />
    <path d="M376.895 163.018C376.969 163.018 376.357 164.429 375.623 166.73C374.701 169.745 374.006 172.826 373.545 175.945C372.979 179.601 372.672 182.942 372.44 185.355C372.329 186.478 372.245 187.434 372.162 188.213C372.156 188.568 372.103 188.921 372.004 189.262C371.969 188.91 371.969 188.556 372.004 188.204C372.004 187.526 372.06 186.543 372.125 185.327C372.273 182.905 372.533 179.546 373.099 175.871C373.55 172.715 374.296 169.608 375.326 166.591C375.744 165.44 376.125 164.531 376.412 163.918C376.545 163.604 376.707 163.303 376.895 163.018V163.018Z" fill="#263238" />
    <path d="M354.122 198.282C353.839 198.548 353.528 198.781 353.194 198.978C352.609 199.405 351.737 199.98 350.623 200.658C344.816 204.155 338.404 206.531 331.72 207.664C330.439 207.877 329.4 208.007 328.676 208.063C328.304 208.119 327.928 208.137 327.553 208.119C327.91 207.992 328.281 207.911 328.657 207.877C329.363 207.766 330.393 207.581 331.655 207.33C338.252 206.018 344.598 203.666 350.456 200.361C351.579 199.73 352.479 199.201 353.092 198.82C353.414 198.603 353.759 198.422 354.122 198.282Z" fill="#263238" />
    <path d="M372.403 179.722C372.214 179.759 372.021 179.781 371.828 179.787L370.176 179.87C368.738 179.945 366.659 180.019 364.098 180.084C358.957 180.214 351.857 180.269 344.025 180.084C336.193 179.898 329.093 179.583 323.962 179.249C321.4 179.082 319.322 178.924 317.893 178.794L316.25 178.636C316.055 178.632 315.862 178.604 315.675 178.553C315.869 178.53 316.065 178.53 316.259 178.553L317.911 178.618L323.98 178.915C329.112 179.165 336.202 179.453 344.034 179.611C351.867 179.768 358.957 179.759 364.088 179.722L370.167 179.666H371.828C372.021 179.663 372.214 179.682 372.403 179.722V179.722Z" fill="white" />
    <path d="M306.589 172.929C306.443 171.847 306.378 170.755 306.395 169.662C306.311 167.519 306.209 164.809 306.088 161.802C305.968 158.796 305.782 156.086 305.671 153.942C305.559 152.86 305.522 151.772 305.559 150.685C305.663 150.962 305.722 151.253 305.736 151.548C305.81 152.105 305.912 152.912 306.014 153.914C306.218 155.928 306.432 158.703 306.571 161.784C306.71 164.865 306.757 167.649 306.738 169.662C306.738 170.674 306.738 171.518 306.682 172.047C306.69 172.344 306.658 172.64 306.589 172.929V172.929Z" fill="white" />
    <path d="M388.124 154.527C388.107 154.843 388.045 155.156 387.938 155.455C387.789 156.03 387.557 156.856 387.242 157.877C386.629 159.909 385.701 162.702 384.56 165.746C383.419 168.79 382.277 171.5 381.405 173.439C380.969 174.367 380.607 175.184 380.338 175.713C380.069 176.242 379.911 176.539 379.874 176.52C380.218 175.425 380.624 174.35 381.089 173.3C381.887 171.333 382.945 168.604 384.105 165.57C385.265 162.535 386.221 159.77 386.889 157.765C387.232 156.661 387.644 155.579 388.124 154.527Z" fill="white" />
    <path d="M76.4087 337.519L76.4365 315.525L93.2704 315.618L90.3101 334.614L76.4087 337.519Z" fill="#FFBE9D" />
    <path d="M75.9354 336.554L76.4087 337.482C76.4087 337.482 63.5188 352.07 64.9108 355.216L96.8711 339.032L91.0525 328.61C89.2531 330.944 86.9709 332.863 84.3618 334.234C81.7528 335.605 78.8785 336.396 75.9354 336.554V336.554Z" fill="url(#paint3_linear_2_1578)" />
    <path d="M96.834 339.032L95.4327 336.526L65.3191 352.961C65.3191 352.961 64.2055 354.297 64.8737 355.216L96.834 339.032Z" fill="#E0E0E0" />
    <path d="M78.5895 341.194C78.6359 341.194 78.5895 340.906 78.376 340.535C78.084 340.046 77.6785 339.635 77.1939 339.336C76.7093 339.038 76.1598 338.86 75.592 338.818C75.1652 338.818 74.9053 338.874 74.9053 338.92C75.6314 339.073 76.3337 339.323 76.9933 339.663C78.042 340.322 78.4874 341.277 78.5895 341.194Z" fill="#263238" />
    <path d="M80.0928 340.006C79.8337 339.245 79.2876 338.616 78.5709 338.252C77.9199 337.781 77.1124 337.578 76.3159 337.686C77.0157 337.958 77.7003 338.268 78.3668 338.614C79.4154 339.217 79.9908 340.071 80.0928 340.006Z" fill="#263238" />
    <path d="M76.5108 343.236C76.5118 342.9 76.444 342.568 76.3115 342.26C76.179 341.952 75.9847 341.674 75.7405 341.444C75.5417 341.18 75.2893 340.961 74.9998 340.801C74.7104 340.641 74.3904 340.544 74.0609 340.516C74.0609 340.619 74.7847 340.971 75.4529 341.741C76.121 342.512 76.3994 343.263 76.5108 343.236Z" fill="#263238" />
    <path d="M74.9981 339.273C75.1348 338.841 75.1348 338.378 74.9981 337.946C74.8831 337.475 74.7182 337.018 74.5063 336.582C74.3856 336.341 74.265 336.09 74.1258 335.83C74.052 335.685 73.9682 335.546 73.8752 335.413C73.8076 335.331 73.7225 335.265 73.6262 335.22C73.5299 335.175 73.4247 335.152 73.3184 335.153C73.2009 335.161 73.0896 335.209 73.0022 335.288C72.9148 335.367 72.8562 335.473 72.8359 335.589C72.7938 335.759 72.7938 335.938 72.8359 336.108C72.8916 336.396 72.9787 336.676 73.0957 336.944C73.2911 337.394 73.5609 337.808 73.8938 338.169C74.1731 338.526 74.5504 338.793 74.9796 338.939C74.9796 338.883 74.5898 338.614 74.0516 338.011C73.7711 337.649 73.5431 337.249 73.3741 336.823C73.2767 336.574 73.2021 336.316 73.1514 336.053C73.0957 335.793 73.1514 335.533 73.2813 335.552C73.4112 335.57 73.5968 335.756 73.736 336.025L74.1351 336.758C74.3517 337.17 74.5348 337.598 74.6826 338.039C74.961 338.772 74.9332 339.273 74.9981 339.273Z" fill="#263238" />
    <path d="M74.729 339.338C74.729 339.338 74.8033 339.338 74.9517 339.338H75.1188L75.026 339.236C74.6858 338.861 74.284 338.547 73.8381 338.308C73.4907 338.117 73.1235 337.965 72.7431 337.853C72.5292 337.793 72.3124 337.743 72.0935 337.705C71.9584 337.681 71.8202 337.681 71.6852 337.705C71.6003 337.72 71.5198 337.754 71.4493 337.803C71.3788 337.853 71.3199 337.918 71.2769 337.992C71.2301 338.096 71.2183 338.211 71.2435 338.322C71.2686 338.433 71.3292 338.532 71.4161 338.605C71.5355 338.704 71.6664 338.788 71.8058 338.855C72.0516 338.979 72.3059 339.084 72.5668 339.171C73.0039 339.301 73.4564 339.373 73.9124 339.384C74.3376 339.429 74.7667 339.348 75.1466 339.152C75.1466 339.097 74.6641 339.152 73.9309 339.152C73.5027 339.117 73.0812 339.023 72.6781 338.874C72.4388 338.797 72.2085 338.694 71.9914 338.568C71.7409 338.456 71.5553 338.271 71.6202 338.215C71.7037 338.011 72.2884 338.215 72.6503 338.261C73.01 338.358 73.3609 338.485 73.6989 338.642C74.1368 338.853 74.5559 339.102 74.9517 339.384V339.282C74.794 339.245 74.7197 339.273 74.729 339.338Z" fill="#263238" />
    <path d="M137.035 322.884L127.17 303.229L142.26 295.74L148.152 314.05L137.035 322.884Z" fill="#FFBE9D" />
    <path d="M136.181 322.244L137.035 322.884C137.035 322.884 132.042 341.676 134.678 343.876L155.957 315.061L146.083 308.371C145.527 311.259 144.354 313.993 142.645 316.387C140.937 318.782 138.732 320.779 136.181 322.244V322.244Z" fill="url(#paint4_linear_2_1578)" />
    <path d="M155.957 315.061L153.581 313.456L134.093 341.658C134.093 341.658 133.703 343.356 134.715 343.876L155.957 315.061Z" fill="#E0E0E0" />
    <path d="M140.645 325.214C140.645 325.214 140.515 324.963 140.153 324.722C139.674 324.413 139.125 324.228 138.557 324.184C137.991 324.132 137.421 324.218 136.896 324.434C136.497 324.611 136.302 324.796 136.33 324.833C137.048 324.649 137.787 324.558 138.529 324.564C139.26 324.688 139.971 324.906 140.645 325.214V325.214Z" fill="#263238" />
    <path d="M141.434 323.451C140.86 322.891 140.092 322.575 139.29 322.569C138.497 322.434 137.684 322.618 137.026 323.079C137.765 322.995 138.509 322.952 139.253 322.949C139.988 323.08 140.716 323.247 141.434 323.451V323.451Z" fill="#263238" />
    <path d="M139.689 327.951C139.773 327.896 139.244 327.107 138.204 326.699C137.906 326.542 137.578 326.451 137.242 326.432C136.906 326.412 136.569 326.465 136.255 326.587C136.255 326.699 137.118 326.671 138.056 327.051C138.993 327.432 139.605 328.026 139.689 327.951Z" fill="#263238" />
    <path d="M136.552 325.093C136.483 324.644 136.267 324.23 135.94 323.915C135.626 323.542 135.271 323.206 134.882 322.912C134.668 322.745 134.446 322.578 134.204 322.411C134.075 322.317 133.938 322.234 133.796 322.161C133.701 322.113 133.596 322.087 133.49 322.087C133.384 322.087 133.279 322.113 133.184 322.161C133.083 322.221 133.005 322.313 132.962 322.422C132.918 322.531 132.911 322.651 132.942 322.764C132.988 322.934 133.071 323.093 133.184 323.228C133.366 323.458 133.571 323.669 133.796 323.859C134.172 324.176 134.598 324.427 135.058 324.601C135.471 324.789 135.927 324.856 136.376 324.796C136.376 324.731 135.884 324.676 135.17 324.351C134.755 324.153 134.37 323.897 134.028 323.59C133.827 323.413 133.644 323.217 133.481 323.005C133.314 322.801 133.249 322.532 133.379 322.495C133.508 322.458 133.75 322.495 133.991 322.717L134.668 323.191C135.051 323.468 135.408 323.779 135.736 324.119C136.293 324.657 136.497 325.121 136.552 325.093Z" fill="#263238" />
    <path d="M136.367 325.232C136.367 325.232 136.45 325.232 136.589 325.149L136.692 325.093H136.571C136.096 324.911 135.594 324.81 135.086 324.796C134.691 324.785 134.297 324.813 133.908 324.88C133.694 324.926 133.471 324.972 133.258 325.037C133.126 325.077 133.001 325.136 132.887 325.214C132.82 325.266 132.765 325.332 132.725 325.407C132.685 325.483 132.661 325.565 132.655 325.65C132.656 325.765 132.696 325.876 132.769 325.965C132.841 326.055 132.942 326.117 133.054 326.142C133.208 326.158 133.364 326.158 133.518 326.142C134.249 326.143 134.972 325.982 135.634 325.668C136.339 325.316 136.654 324.945 136.627 324.908C136.599 324.87 136.209 325.149 135.522 325.418C135.121 325.57 134.704 325.676 134.279 325.733C134.029 325.752 133.777 325.752 133.527 325.733C133.249 325.733 132.998 325.668 133.035 325.585C133.072 325.501 133.62 325.251 133.963 325.167C134.33 325.091 134.703 325.048 135.077 325.037C135.561 325.025 136.046 325.056 136.525 325.13V325.028C136.367 325.158 136.311 325.214 136.367 325.232Z" fill="#263238" />
    <path d="M81.0672 194.338L72.3997 263.131L73.4391 326.513L92.9271 325.78L97.1402 266.852L104.861 220.35L111.153 275.807L129.481 312.101C129.481 312.101 141.666 312.417 145.628 304.909L133.397 268.337L136.107 207.488L132.497 192.955C118.419 201.753 99.952 198.616 81.0672 194.338Z" fill="#263238" />
    <path d="M89.5584 53.5139L90.5514 79.1546L91.8228 89.0934L92.5837 118.854L106.717 118.26C106.717 118.26 103.933 87.6365 103.868 78.6627C103.803 69.689 100.286 51.992 100.286 51.992L89.5584 53.5139Z" fill="#FFBE9D" />
    <path d="M100.611 53.5139C100.611 53.5139 102.764 48.1501 103.395 45.7002C104.026 43.2502 107.163 39.0742 107.163 39.0742C106.731 38.7705 106.225 38.5902 105.698 38.5526C105.172 38.515 104.645 38.6215 104.174 38.8608C102.755 39.7888 99.4045 44.0854 98.6065 44.0762C97.5337 43.7449 96.6319 43.0094 96.0916 42.0253C96.0359 41.5613 94.2356 30.5552 93.1591 30.2211C92.0826 29.887 90.5885 30.4346 90.6164 31.6131C90.6442 32.7917 92.361 38.7216 91.5444 38.8237C90.7277 38.9258 88.3613 31.5389 87.3034 31.5574C87.0424 31.5443 86.7817 31.5887 86.5398 31.6875C86.2979 31.7864 86.0807 31.9372 85.9035 32.1294C85.7264 32.3216 85.5938 32.5503 85.5149 32.7995C85.4361 33.0487 85.4131 33.3121 85.4474 33.5712C85.7165 34.7219 87.489 40.2899 86.8116 40.4941C86.1341 40.6982 84.5194 34.6384 83.7956 34.4992C83.0717 34.36 82.153 35.5386 82.3572 36.216C82.5613 36.8934 84.7978 44.1875 83.9069 44.6515C83.0161 45.1155 80.5476 41.5334 79.9815 41.2643C79.2391 40.9024 78.4503 42.4614 79.6845 43.9741C80.0743 44.4566 88.7418 54.9894 89.8369 56.1494C90.9319 57.3094 100.611 53.5139 100.611 53.5139Z" fill="#FFBE9D" />
    <path d="M87.2941 47.5283C87.9312 47.3482 88.6058 47.3482 89.2429 47.5283C90.8229 47.8746 92.2259 48.7769 93.1962 50.071L93.4096 50.3772H92.9828C93.577 48.9978 94.4201 47.7395 95.4698 46.6652C95.8733 46.2015 96.3575 45.8148 96.8989 45.5238C95.4891 47.011 94.3183 48.7077 93.4282 50.5536L93.2612 50.9433L93.0013 50.5907L92.8064 50.303C91.8915 49.0977 90.6127 48.2191 89.1594 47.7974C88.0458 47.5654 87.2941 47.6118 87.2941 47.5283Z" fill="#EB996E" />
    <path d="M165.422 95.144C163.121 90.5597 159.242 90.8752 156.755 86.393C154.268 81.9107 154.788 78.969 148.087 76.185C146.119 75.5665 144.085 75.1772 142.028 75.025C142.028 75.025 137.23 69.1136 132.84 68.529C127.681 67.8515 123.05 68.2134 118.8 71.2202C114.549 74.2269 111.376 78.4586 107.914 82.3562C104.453 86.2538 100.49 89.9658 95.4605 91.4134C95.3842 92.0292 95.4543 92.6543 95.665 93.2379C95.8757 93.8215 96.2212 94.3472 96.6733 94.7721C97.1254 95.1971 97.6714 95.5094 98.2669 95.6837C98.8624 95.858 99.4906 95.8892 100.101 95.775L97.0567 97.631C99.5028 102.612 103.313 106.795 108.044 109.695L136.979 112.711C143.905 116.69 151.996 118.143 159.873 116.822C161.729 116.507 163.631 115.968 164.81 114.53C166.666 112.247 165.821 108.888 164.884 106.094L168.318 110.734C171.497 109.463 174.326 107.449 176.568 104.86C171.529 104.044 167.733 99.7283 165.422 95.144Z" fill="#263238" />
    <path d="M116.396 86.9962C119.078 80.1661 128.831 75.6096 135.541 78.5792L148.533 85.6413C150.823 86.8871 152.594 88.9079 153.53 91.3414C154.465 93.7749 154.503 96.462 153.637 98.9209L150.964 106.503L139.151 139.818C139.151 139.818 132.395 154.183 120.025 149.265C108.889 144.848 113.389 133.043 113.399 133.034L116.554 124.385C116.554 124.385 107.497 121.072 109.39 108.851C110.281 102.809 113.417 94.5872 116.396 86.9962Z" fill="#FFBE9D" />
    <path d="M118.113 98.9859C117.983 99.3702 118.007 99.7898 118.181 100.157C118.354 100.523 118.662 100.809 119.041 100.953C119.225 101.03 119.423 101.069 119.623 101.067C119.822 101.066 120.02 101.025 120.203 100.946C120.386 100.867 120.552 100.753 120.69 100.609C120.829 100.465 120.937 100.295 121.008 100.109C121.141 99.7246 121.117 99.304 120.944 98.9365C120.771 98.569 120.461 98.2838 120.08 98.1414C119.896 98.0675 119.698 98.0307 119.5 98.0332C119.301 98.0357 119.104 98.0773 118.922 98.1557C118.739 98.2342 118.573 98.3479 118.435 98.4903C118.296 98.6328 118.187 98.8012 118.113 98.9859Z" fill="#263238" />
    <path d="M117.092 94.448C117.176 94.6707 118.429 94.9212 119.793 95.9049C121.157 96.8886 121.89 98.0208 122.113 98.03C122.335 98.0393 122.168 97.7331 121.853 97.232C121.391 96.5016 120.789 95.8706 120.08 95.376C119.417 94.8827 118.659 94.532 117.853 94.3459C117.296 94.2716 117.037 94.3459 117.092 94.448Z" fill="#263238" />
    <path d="M131.801 103.088C131.671 103.472 131.695 103.892 131.868 104.258C132.042 104.625 132.35 104.911 132.729 105.055C132.914 105.131 133.112 105.17 133.312 105.168C133.512 105.166 133.71 105.124 133.893 105.044C134.077 104.965 134.242 104.849 134.38 104.704C134.518 104.559 134.626 104.388 134.696 104.201C134.826 103.818 134.801 103.4 134.628 103.035C134.455 102.669 134.147 102.386 133.768 102.243C133.584 102.167 133.386 102.128 133.187 102.129C132.987 102.13 132.79 102.172 132.606 102.25C132.423 102.329 132.257 102.444 132.119 102.587C131.981 102.731 131.873 102.901 131.801 103.088V103.088Z" fill="#263238" />
    <path d="M131.634 100.044C131.857 100.174 133.156 99.6634 135.03 99.6912C136.905 99.719 138.297 100.257 138.501 100.127C138.705 99.9974 138.362 99.849 137.759 99.6077C136.87 99.2689 135.926 99.0959 134.975 99.0973C134.058 99.0658 133.144 99.214 132.284 99.5335C131.727 99.7654 131.532 99.9882 131.634 100.044Z" fill="#263238" />
    <path d="M122.948 107.913C122.16 107.426 121.327 107.016 120.461 106.688C120.062 106.521 119.7 106.326 119.7 106.094C119.7 105.862 119.95 105.547 120.257 105.241L122.206 103.227C123.85 101.51 125.399 99.7035 126.846 97.8167C126.688 97.7053 124.34 99.951 121.612 102.828L119.756 104.869C119.496 105.185 119.106 105.5 119.162 106.048C119.198 106.193 119.264 106.328 119.355 106.446C119.446 106.565 119.56 106.663 119.691 106.735C119.906 106.859 120.133 106.961 120.368 107.041C121.197 107.417 122.061 107.71 122.948 107.913Z" fill="#263238" />
    <path d="M116.415 124.469C121.863 126.311 127.716 126.607 133.323 125.323C133.323 125.323 126.734 132.162 115.45 127.336L116.415 124.469Z" fill="#EB996E" />
    <path d="M133.388 93.6499C133.388 94.2067 134.919 94.2809 136.552 94.9305C138.186 95.5801 139.42 96.5081 139.754 96.0905C139.902 95.8864 139.754 95.3388 139.336 94.7078C138.782 93.95 138.022 93.367 137.146 93.0281C136.302 92.692 135.373 92.6303 134.492 92.8518C133.796 93.0467 133.388 93.4179 133.388 93.6499Z" fill="#263238" />
    <path d="M118.178 88.3046C118.299 88.8429 119.598 88.8614 120.962 89.3904C122.326 89.9193 123.356 90.6896 123.802 90.3184C123.997 90.1513 123.987 89.6595 123.644 89.0563C123.189 88.3125 122.49 87.7487 121.667 87.4601C120.844 87.1557 119.942 87.1361 119.106 87.4045C118.466 87.6829 118.132 88.0541 118.178 88.3046Z" fill="#263238" />
    <path d="M127.254 110.688C127.424 111.847 127.289 113.03 126.864 114.122C126.663 114.559 126.352 114.937 125.962 115.218C125.572 115.499 125.115 115.675 124.637 115.727C124.113 115.729 123.597 115.6 123.136 115.35C122.675 115.1 122.285 114.738 122.001 114.298C121.44 113.415 121.035 112.442 120.804 111.421C122.79 111.171 125.231 110.939 127.254 110.688Z" fill="#EB996E" />
    <path d="M122.493 115.514C123.198 115.651 123.923 115.651 124.628 115.514C125.358 115.327 126.009 114.911 126.484 114.326C127.052 113.593 127.312 112.667 127.207 111.746C127.167 111.362 127.061 110.989 126.892 110.642L127.115 110.781C123.56 110.892 120.897 111.551 120.869 111.412C121.423 111.154 122.01 110.976 122.614 110.883C124.088 110.56 125.588 110.364 127.096 110.298H127.254L127.319 110.437C127.516 110.83 127.641 111.254 127.69 111.69C127.748 112.209 127.701 112.734 127.553 113.234C127.404 113.735 127.158 114.2 126.827 114.604C126.276 115.252 125.519 115.691 124.683 115.848C124.315 115.945 123.93 115.965 123.554 115.908C123.177 115.85 122.816 115.716 122.493 115.514V115.514Z" fill="#263238" />
    <path d="M154.518 86.2166C153.177 84.2607 151.401 82.641 149.331 81.4838C144.813 78.6976 139.75 76.9128 134.483 76.2499L131.411 74.7001C131.467 80.2681 135.968 89.9286 140.645 92.991C142.12 93.9654 143.819 94.7542 144.812 96.2205C145.767 97.9104 146.052 99.8981 145.61 101.788C145.17 103.649 144.835 105.533 144.607 107.431C144.512 108.26 144.698 109.096 145.136 109.806C145.468 110.205 145.904 110.503 146.396 110.667C146.888 110.831 147.416 110.854 147.92 110.734C148.937 110.471 149.847 109.9 150.528 109.101C151.9 107.382 152.93 105.417 153.563 103.31C154.695 100.575 155.513 97.7202 156.003 94.8006C156.501 91.8537 155.977 88.8251 154.518 86.2166V86.2166Z" fill="#263238" />
    <path d="M148.793 106.15C148.997 106.15 156.606 106.382 154.045 113.398C151.484 120.413 144.979 116.386 145.044 116.182C145.109 115.978 148.793 106.15 148.793 106.15Z" fill="#FFBE9D" />
    <path d="M148.152 114.307C148.152 114.307 148.245 114.437 148.412 114.613C148.666 114.844 148.997 114.97 149.34 114.966C150.175 114.966 151.196 114.038 151.725 112.757C151.958 112.168 152.06 111.534 152.022 110.901C152.036 110.659 151.991 110.416 151.891 110.195C151.791 109.974 151.638 109.78 151.447 109.63C151.321 109.54 151.167 109.497 151.013 109.509C150.858 109.521 150.713 109.587 150.602 109.695C150.435 109.862 150.426 110.02 150.389 110.011C150.352 110.001 150.277 109.844 150.445 109.574C150.545 109.412 150.699 109.29 150.881 109.231C151.003 109.191 151.132 109.177 151.26 109.19C151.387 109.203 151.511 109.242 151.623 109.305C151.887 109.47 152.105 109.698 152.257 109.969C152.409 110.24 152.491 110.544 152.495 110.855C152.571 111.57 152.472 112.293 152.208 112.962C151.651 114.354 150.445 115.412 149.322 115.337C149.114 115.323 148.911 115.262 148.73 115.16C148.548 115.057 148.392 114.915 148.273 114.743C148.106 114.484 148.125 114.316 148.152 114.307Z" fill="#EB996E" />
    <path d="M151.883 102.874C152.719 102.733 153.539 102.512 154.333 102.215C155.247 101.841 156.091 101.314 156.829 100.656C157.801 99.8051 158.563 98.7412 159.056 97.5475L159.279 97.798C157.624 98.2671 155.867 98.2348 154.231 97.7052L153.813 97.566L154.175 97.3155C154.931 96.7972 155.574 96.1312 156.065 95.3576C156.556 94.5841 156.886 93.719 157.033 92.8147L157.302 93.0838C154.605 93.492 151.854 93.3505 149.213 92.668C146.572 91.9854 144.096 90.7758 141.935 89.1119C139.727 87.3785 137.909 85.2 136.599 82.718C135.728 81.0535 135.103 79.2719 134.743 77.4284C134.646 76.9282 134.575 76.4233 134.529 75.9158C134.505 75.7403 134.505 75.5623 134.529 75.3868C134.576 75.3868 134.659 76.1107 134.956 77.3913C135.395 79.1961 136.072 80.9344 136.97 82.5603C138.922 86.1136 141.918 88.9825 145.552 90.7797C149.186 92.5769 153.284 93.2159 157.293 92.6105H157.618L157.562 92.926C157.402 93.8932 157.046 94.8175 156.516 95.6424C155.986 96.4673 155.294 97.1755 154.481 97.7238V97.3433C156.036 97.8566 157.705 97.9082 159.288 97.4918L159.669 97.3897L159.511 97.7331C158.981 98.9719 158.168 100.069 157.135 100.935C156.356 101.582 155.475 102.097 154.528 102.457C153.928 102.676 153.305 102.825 152.672 102.902C152.409 102.924 152.144 102.915 151.883 102.874Z" fill="#455A64" />
    <path d="M111.84 84.4627C111.877 84.2667 111.939 84.0764 112.025 83.8966C112.244 83.3766 112.508 82.8766 112.814 82.4026C113.903 80.6764 115.422 79.263 117.222 78.3008L117.315 78.6906H112.768H112.09L112.619 78.2729C113.782 77.3731 115.025 76.5811 116.331 75.9066C119.987 74.0314 124.068 73.1391 128.173 73.3174C129.406 73.375 130.632 73.5364 131.838 73.8C132.284 73.8872 132.719 74.021 133.137 74.199C131.492 73.9161 129.831 73.7364 128.163 73.6608C122.663 73.5245 117.283 75.284 112.925 78.6442L112.786 78.2266L117.343 78.2915H118.169L117.436 78.6627C115.675 79.5769 114.162 80.9049 113.028 82.5325C112.239 83.711 111.895 84.4906 111.84 84.4627Z" fill="#455A64" />
    <path d="M136.599 106.299C135.169 105.898 133.661 105.873 132.219 106.224C131.818 106.28 131.437 106.43 131.106 106.662C130.775 106.895 130.504 107.203 130.316 107.561C130.232 107.827 130.21 108.109 130.25 108.385C130.29 108.662 130.392 108.925 130.548 109.157C130.864 109.618 131.279 110.002 131.764 110.28C132.73 110.943 133.902 111.239 135.068 111.115C136.218 110.929 137.731 110.187 137.907 109.018C138.008 108.484 137.935 107.932 137.7 107.443C137.464 106.954 137.079 106.553 136.599 106.299" fill="#FFAE8A" />
    <path d="M116.805 102.624C115.703 102.218 114.497 102.195 113.38 102.559C113.041 102.64 112.728 102.805 112.468 103.039C112.209 103.272 112.012 103.566 111.895 103.895C111.761 104.431 111.824 104.997 112.072 105.491C112.294 105.93 112.611 106.313 113 106.614C113.344 106.931 113.753 107.168 114.199 107.309C114.645 107.45 115.116 107.492 115.58 107.431C116.102 107.349 116.589 107.116 116.979 106.759C117.369 106.403 117.646 105.939 117.775 105.427C117.904 104.914 117.878 104.375 117.703 103.876C117.527 103.378 117.208 102.942 116.786 102.624" fill="#FFAE8A" />
    <path d="M181.291 74.0691C180.948 74.9136 165.562 98.4477 163.056 101.334C160.55 104.22 147.28 123.55 147.28 123.55L156.95 134.129C156.95 134.129 167 118.353 173.821 111.133C182.108 102.308 192.566 76.9181 192.566 76.9181L181.291 74.0691Z" fill="#FFBE9D" />
    <path d="M181.597 74.7558C181.597 74.7558 179.213 69.4941 178.47 67.0813C177.728 64.6685 174.424 60.5853 174.424 60.5853C174.841 60.2633 175.338 60.0612 175.861 60.0007C176.384 59.9402 176.914 60.0236 177.394 60.2419C178.851 61.0678 182.386 65.2531 183.221 65.1974C184.277 64.8239 185.143 64.0508 185.634 63.0445C185.634 62.5805 186.952 51.5001 188.047 51.1197C189.142 50.7392 190.627 51.2217 190.645 52.4003C190.664 53.5789 189.226 59.5737 190.042 59.648C190.859 59.7222 192.891 52.224 193.958 52.224C194.219 52.1954 194.483 52.2252 194.731 52.3111C194.979 52.397 195.205 52.5369 195.392 52.7207C195.58 52.9045 195.724 53.1276 195.815 53.3739C195.905 53.6202 195.94 53.8835 195.917 54.1449C195.703 55.3049 194.172 60.9472 194.868 61.1235C195.564 61.2998 196.891 55.175 197.652 54.9987C198.413 54.8224 199.332 55.9267 199.155 56.6505C198.979 57.3744 197.077 64.7241 197.977 65.151C198.877 65.5779 201.197 61.8845 201.754 61.5875C202.487 61.1977 203.331 62.7197 202.171 64.2787C201.8 64.7798 193.606 75.6931 192.566 76.8995C191.527 78.1059 181.597 74.7558 181.597 74.7558Z" fill="#FFBE9D" />
    <path d="M194.645 68.2042C194.645 68.2877 193.893 68.2784 192.789 68.6589C191.357 69.1436 190.121 70.0778 189.263 71.3223L189.077 71.6099L188.845 71.9811L188.65 71.5914C187.677 69.7851 186.424 68.144 184.938 66.7286C185.499 66.9824 186.004 67.3451 186.423 67.7958C187.51 68.8236 188.406 70.0365 189.068 71.3779H188.641L188.845 71.0624C189.76 69.7258 191.128 68.7663 192.696 68.3619C193.319 68.1315 193.993 68.077 194.645 68.2042V68.2042Z" fill="#EB996E" />
    <path fill-rule="evenodd" clip-rule="evenodd" d="M114.243 130.399L113.074 130.482C113.063 130.426 109.901 114.241 110.077 113.175C110.253 112.108 90.9505 111.505 90.9505 111.505L94.4973 134.914C93.4046 139.541 82.7366 184.443 78.3016 192.38C77.8867 193.122 77.4941 193.8 77.134 194.421C73.4342 200.802 73.1624 201.271 87.3868 205.947C89.4596 206.629 91.2781 207.249 92.8998 207.802C103.49 211.414 105.686 212.163 115.496 208.397C122.621 205.742 130.164 204.384 137.768 204.388L137.295 171.778L150.461 147.462L164.207 131.104L147.744 121.156C147.744 121.156 136.636 133.767 136.367 133.767L136.405 133.807C127.099 137.297 116.876 135.811 114.243 130.399Z" fill="url(#paint5_linear_2_1578)" />
    <path d="M114.03 180.65C113.687 180.304 113.377 179.928 113.102 179.527C112.508 178.785 111.701 177.671 110.735 176.288C108.225 172.653 105.985 168.838 104.035 164.874C102.09 160.904 100.437 156.798 99.089 152.587C98.5786 150.972 98.161 149.655 97.9754 148.736C97.8275 148.267 97.725 147.786 97.6692 147.298C97.8685 147.744 98.0299 148.207 98.1517 148.68C98.4394 149.608 98.857 150.88 99.4138 152.485C102.274 160.813 106.172 168.748 111.014 176.103C111.942 177.513 112.712 178.645 113.26 179.416C113.545 179.808 113.803 180.221 114.03 180.65Z" fill="#263238" />
    <path d="M144.979 144.087C144.709 143.556 144.539 142.981 144.477 142.388C143.997 139.537 144.453 136.607 145.777 134.036C146.008 133.487 146.345 132.989 146.77 132.57C145.924 134.343 145.301 136.213 144.914 138.138C144.694 140.116 144.716 142.114 144.979 144.087V144.087Z" fill="#263238" />
    <path d="M113.38 130.473C113.38 130.621 110.151 130.352 106.216 130.724C102.281 131.095 99.154 131.921 99.1169 131.772C99.7548 131.459 100.432 131.235 101.131 131.104C102.785 130.682 104.47 130.394 106.17 130.241C107.87 130.088 109.579 130.066 111.283 130.176C111.992 130.184 112.697 130.283 113.38 130.473V130.473Z" fill="#263238" />
    <g opacity="0.3">
      <path opacity="0.3" d="M98.5229 165.356C98.5585 173.759 101.094 181.962 105.808 188.918C107.794 191.823 110.698 194.728 114.206 194.486C107.534 185.626 102.246 175.804 98.5229 165.356V165.356Z" fill="black" />
    </g>
  </g>
  <defs>
    <filter id="filter0_d_2_1578" x="0" y="0.12439" width="693.512" height="395.092" filterUnits="userSpaceOnUse" color-interpolation-filters="sRGB">
      <feFlood flood-opacity="0" result="BackgroundImageFix" />
      <feColorMatrix in="SourceAlpha" type="matrix" values="0 0 0 0 0 0 0 0 0 0 0 0 0 0 0 0 0 0 127 0" result="hardAlpha" />
      <feOffset dx="5" dy="5" />
      <feGaussianBlur stdDeviation="17.5" />
      <feComposite in2="hardAlpha" operator="out" />
      <feColorMatrix type="matrix" values="0 0 0 0 0.516441 0 0 0 0 0.602167 0 0 0 0 0.629167 0 0 0 0.15 0" />
      <feBlend mode="normal" in2="BackgroundImageFix" result="effect1_dropShadow_2_1578" />
      <feBlend mode="normal" in="SourceGraphic" in2="effect1_dropShadow_2_1578" result="shape" />
    </filter>
    <linearGradient id="paint0_linear_2_1578" x1="473.309" y1="160.248" x2="430.117" y2="166.926" gradientUnits="userSpaceOnUse">
      <stop stop-color="#5AD4FA" />
      <stop offset="1" stop-color="#2BB3DD" />
    </linearGradient>
    <linearGradient id="paint1_linear_2_1578" x1="224.55" y1="170.048" x2="179.306" y2="177.793" gradientUnits="userSpaceOnUse">
      <stop stop-color="#5AD4FA" />
      <stop offset="1" stop-color="#2BB3DD" />
    </linearGradient>
    <linearGradient id="paint2_linear_2_1578" x1="402.702" y1="105.482" x2="281.212" y2="178.268" gradientUnits="userSpaceOnUse">
      <stop stop-color="#F8C1C5" />
      <stop offset="1" stop-color="#E96F9B" />
    </linearGradient>
    <linearGradient id="paint3_linear_2_1578" x1="59.8068" y1="316.602" x2="89.4044" y2="353.774" gradientUnits="userSpaceOnUse">
      <stop stop-color="#F8C1C5" />
      <stop offset="1" stop-color="#E96F9B" />
    </linearGradient>
    <linearGradient id="paint4_linear_2_1578" x1="115.023" y1="326.346" x2="132.082" y2="349.413" gradientUnits="userSpaceOnUse">
      <stop stop-color="#F8C1C5" />
      <stop offset="1" stop-color="#E96F9B" />
    </linearGradient>
    <linearGradient id="paint5_linear_2_1578" x1="18.5107" y1="97.1301" x2="-4.25095" y2="141.782" gradientUnits="userSpaceOnUse">
      <stop offset="0.0530865" stop-color="#5AD4FA" />
      <stop offset="1" stop-color="#2BB3DD" />
    </linearGradient>
  </defs>
</svg>