<svg class="logo" width="55" height="68" xmlns="http://www.w3.org/2000/svg">
  <path class="puzzle" d="M33.72 39.86a6.11 6.11 0 0 1-5.22 5.94v6.58h19.27c1.8 0 3.54-.7 4.82-1.92a6.42 6.42 0 0 0 2-4.62v-18.5h-8.88v-1.01c0-1.06-.44-2.08-1.22-2.83a4.26 4.26 0 0 0-5.9 0 3.92 3.92 0 0 0-1.21 2.83v1.01H28.5v6.58c1.45.24 2.78.97 3.73 2.06a5.9 5.9 0 0 1 1.49 3.88Z" fill="#566586" stroke="#222" stroke-width=".5" />
  <path class="puzzle" d="M41.54 20.3c3.1 0 5.7 2.17 6.2 5.01h6.85V6.81c0-1.73-.72-3.4-2-4.62A6.98 6.98 0 0 0 47.77.27H28.5V8.8h-1.06c-1.1 0-2.16.42-2.94 1.17a3.92 3.92 0 0 0-1.23 2.82c0 1.06.44 2.08 1.22 2.83a4.26 4.26 0 0 0 2.95 1.17h1.06v8.52h6.85a5.98 5.98 0 0 1 2.15-3.59 6.45 6.45 0 0 1 4.04-1.42Z" fill="#FECFD1" stroke="#222" stroke-width=".5" />
  <path class="puzzle" d="M21.16 12.8a6.11 6.11 0 0 1 5.22-5.95V.27H7.1c-1.8 0-3.54.7-4.82 1.92a6.42 6.42 0 0 0-2 4.63v18.5h8.89v1c0 1.07.44 2.08 1.22 2.83a4.26 4.26 0 0 0 5.89 0 3.92 3.92 0 0 0 1.22-2.82V25.3h8.88v-6.58a6.36 6.36 0 0 1-3.74-2.05 5.9 5.9 0 0 1-1.48-3.89Z" fill="#C1F4FD" stroke="#222" stroke-width=".5" />
  <path class="puzzle" d="M13.33 32.35a6.21 6.21 0 0 1-6.19-5H.28v18.49c0 1.73.73 3.4 2 4.62a6.98 6.98 0 0 0 4.83 1.92h19.27v-8.52h1.06c1.1 0 2.16-.43 2.94-1.18a3.92 3.92 0 0 0 1.22-2.82c0-1.06-.44-2.07-1.22-2.82a4.26 4.26 0 0 0-2.94-1.18h-1.06v-8.52h-6.86a5.98 5.98 0 0 1-2.14 3.59 6.45 6.45 0 0 1-4.05 1.42Z" fill="#7BDDFB" stroke="#222" stroke-width=".5" />
  <path d="M4.22 58.25c.97 0 1.8.32 2.47.96a3.07 3.07 0 0 1 1.01 2.32c0 .9-.34 1.68-1 2.32-.68.63-1.5.95-2.48.95h-1.5v3H.45v-9.55h3.77Zm0 4.5a1.17 1.17 0 0 0 .86-.35c.23-.24.35-.53.35-.87a1.21 1.21 0 0 0-.74-1.14c-.15-.07-.31-.1-.47-.09h-1.5v2.46h1.5Zm11.14 4.36a4.2 4.2 0 0 1-2.76.88 4.2 4.2 0 0 1-2.75-.88 2.93 2.93 0 0 1-1.09-2.39v-6.47h2.28v6.28c0 .9.52 1.34 1.56 1.34 1.05 0 1.57-.45 1.57-1.34v-6.28h2.27v6.47c0 1-.36 1.8-1.08 2.39Zm5.31-1.4h3.88v2.1h-6.82v-1.7l3.8-5.76H17.8v-2.1h6.68v1.7l-3.8 5.75Zm7.68 0h3.88v2.1h-6.82v-1.7l3.8-5.76h-3.73v-2.1h6.68v1.7l-3.8 5.75Zm7.37 0h3.55v2.1h-5.83v-9.56h2.28v7.45Zm6.83 0h3.98v2.1h-6.26v-9.56h6.19v2.1h-3.91v1.59h3.55V64h-3.55v1.7Zm8.75 2.28a4.8 4.8 0 0 1-2.55-.62 3.53 3.53 0 0 1-1.43-1.74l1.96-1.09c.4.89 1.1 1.33 2.09 1.33.9 0 1.35-.26 1.35-.78 0-.28-.15-.5-.44-.66a7.57 7.57 0 0 0-1.62-.56 7.5 7.5 0 0 1-1.1-.36 5.02 5.02 0 0 1-.92-.54 2.32 2.32 0 0 1-.91-2c0-.88.33-1.59.98-2.12.66-.52 1.45-.79 2.36-.79.82 0 1.54.19 2.16.56.63.37 1.12.9 1.48 1.6L52.8 61.3c-.18-.37-.4-.64-.67-.82-.26-.2-.61-.29-1.05-.29-.34 0-.6.07-.8.22a.63.63 0 0 0-.2.22.6.6 0 0 0-.07.28c0 .24.12.45.35.62.23.17.72.36 1.45.57.4.12.7.21.92.29.22.07.5.2.83.37.34.16.6.34.76.53.18.18.34.42.47.73.14.3.22.65.22 1.04 0 .91-.35 1.63-1.03 2.16a4.3 4.3 0 0 1-2.67.77Z" fill="#2C3F68" />
</svg>