<svg width="47" height="39" viewBox="0 0 47 39" xmlns="http://www.w3.org/2000/svg">
  <path d="M39.666 0L18.4342 23.9341C17.8619 24.5792 16.934 24.5792 16.3617 23.9341L7.22199 13.6311L6.10352e-05 21.7722L13.7868 37.3139C14.7446 38.3935 16.0435 39 17.3979 39C18.7521 39 20.0511 38.3934 21.0088 37.3139L46.888 8.14098L39.666 0Z" fill="#A5EB78" />
  <g opacity="0.1">
    <path opacity="0.4" d="M44.4995 5.44873L17.1789 36.2465C16.4231 37.0985 15.4726 37.6796 14.4456 37.9386C15.3031 38.6236 16.3329 38.9999 17.3976 38.9999C18.7519 38.9999 20.0509 38.3933 21.0086 37.3138L46.8877 8.14085L44.4995 5.44873Z" fill="black" />
  </g>
</svg>