<svg width="151" height="25" xmlns="http://www.w3.org/2000/svg">
  <path d="M150.677 12.6768C150.774 12.5791 150.774 12.4209 150.677 12.3232L149.086 10.7322C148.988 10.6346 148.83 10.6346 148.732 10.7322C148.635 10.8299 148.635 10.9882 148.732 11.0858L150.146 12.5L148.732 13.9142C148.635 14.0118 148.635 14.1701 148.732 14.2678C148.83 14.3654 148.988 14.3654 149.086 14.2678L150.677 12.6768ZM0 12.75H150.5V12.25H0V12.75ZM149.177 10.8232L146.177 7.82322L145.823 8.17678L148.823 11.1768L149.177 10.8232ZM146.177 7.82322L139.177 0.823223L138.823 1.17678L145.823 8.17678L146.177 7.82322ZM148.823 13.8232L138.823 23.8232L139.177 24.1768L149.177 14.1768L148.823 13.8232Z" fill="#222222" />
</svg>