<svg width="49" height="39" xmlns="http://www.w3.org/2000/svg">
  <path d="M41.28 9.14v-.08c0-.9.3-1.77.82-2.55.41-.63.65-1.36.65-2.13 0-2.47-2.46-4.47-5.44-4.38-2.68.09-4.87 1.89-5.03 4.12-.06.88.19 1.7.66 2.4.53.8.8 1.7.8 2.62 0 .54-.52.99-1.18.99H22.8l1.71 22.56v3.43c0 1.16 1.13 2.1 2.52 2.1h19.46c1.4 0 2.52-.94 2.52-2.1V12.24c0-1.17-1.13-2.11-2.52-2.11h-4.02c-.65 0-1.18-.45-1.18-1Z" fill="#F8C1D5" />
  <path d="M40.49 4.38c0 .77-.24 1.5-.66 2.13a4.62 4.62 0 0 0-.82 2.55v.08c0 .54.53.99 1.19.99h2.26c-.65 0-1.18-.45-1.18-1v-.07c0-.9.3-1.77.82-2.55.41-.63.65-1.36.65-2.13 0-2.47-2.46-4.47-5.44-4.38-.32.01-.63.05-.93.1 2.35.44 4.1 2.19 4.1 4.28ZM46.48 10.13H44.2c1.4 0 2.52.94 2.52 2.1v23.89c0 1.16-1.12 2.1-2.52 2.1h2.27c1.4 0 2.52-.94 2.52-2.1V12.24c0-1.17-1.13-2.11-2.52-2.11Z" fill-opacity=".1" />
  <path d="M16.02 5.76c0 .92.27 1.82.8 2.62.48.7.72 1.52.66 2.4-.15 2.23-2.35 4.03-5.03 4.12-2.98.1-5.44-1.9-5.44-4.38 0-.77.24-1.5.65-2.13.52-.78.82-1.65.82-2.55v-.08c0-.9-.86-1.62-1.93-1.62H2.52C1.12 4.14 0 5.1 0 6.25v24.33c0 1.17 1.13 2.11 2.52 2.11H24.5V6.25c0-1.16-1.13-2.1-2.52-2.1h-4.03c-1.07 0-1.93.72-1.93 1.61Z" fill="#5AD4FA" />
  <path d="M6.22 5.76v.08c0 .9-.3 1.77-.82 2.55a3.82 3.82 0 0 0-.66 2.13c0 2.47 2.46 4.47 5.45 4.38.31-.01.62-.05.92-.1-2.34-.44-4.1-2.19-4.1-4.28 0-.77.24-1.5.65-2.13.52-.78.82-1.65.82-2.55v-.08c0-.9-.86-1.62-1.93-1.62H4.28c1.07 0 1.94.73 1.94 1.62ZM22.23 6.25V18.9c0 .38.37.69.82.69h1.45V6.25c0-1.16-1.13-2.1-2.52-2.1H19.7c1.4 0 2.52.94 2.52 2.1ZM22.23 26.56v6.13h2.27v-6.81h-1.45c-.45 0-.82.3-.82.68Z" fill-opacity=".1" />
  <path d="M30.82 18.35c-1-.04-1.95.17-2.77.55a7.4 7.4 0 0 1-3.12.68h-4.84v6.3h4.84a7.3 7.3 0 0 1 3.1.67c.76.36 1.64.56 2.58.56 2.92 0 5.28-2 5.24-4.45-.04-2.31-2.27-4.22-5.03-4.31Z" fill="#E5646E" />
  <path d="M30.82 18.35c-1-.04-1.95.17-2.77.55a7.4 7.4 0 0 1-3.12.68h-4.84v6.3h4.84a7.3 7.3 0 0 1 3.1.67c.76.36 1.64.56 2.58.56 2.92 0 5.28-2 5.24-4.45-.04-2.31-2.27-4.22-5.03-4.31Z" fill="#5AD4FA" />
  <path d="M30.82 18.35c-.46-.02-.92.02-1.35.1 2.32.43 4.07 2.16 4.11 4.21.04 2.13-1.73 3.91-4.1 4.35.36.07.74.1 1.13.1 2.92 0 5.28-2 5.24-4.45-.04-2.31-2.27-4.22-5.03-4.31Z" fill-opacity=".1" />
</svg>