<svg width="96" height="96" xmlns="http://www.w3.org/2000/svg">
  <g clip-path="url(#a)">
    <path d="M79.54 10.96c0 1.94-.48 3.76-1.3 5.34-1 1.96-1.6 4.16-1.6 6.4v.2c0 1.36 1.04 2.48 2.32 2.48h4.44c-1.28 0-2.32-1.12-2.32-2.48v-.2c0-2.24.6-4.44 1.6-6.4.82-1.58 1.3-3.4 1.3-5.32C83.98 4.76 79.16-.24 73.3 0c-.6 0-1.22.1-1.8.24a10.88 10.88 0 0 1 8.04 10.74v-.02Zm11.08 15h-4.84a5.32 5.32 0 0 1 5.4 5.24v59.4a5.34 5.34 0 0 1-5.4 5.26h4.84A5.32 5.32 0 0 0 96 90.6V31.2c0-2.9-2.4-5.26-5.38-5.26v.02ZM14.2 14.42v.2c0 2.24-.6 4.44-1.6 6.4a11.3 11.3 0 0 0-1.3 5.3c0 6.24 4.8 11.24 10.66 11 .62 0 1.24-.1 1.82-.24a10.88 10.88 0 0 1-8.04-10.76c0-1.92.46-3.72 1.28-5.3a13.92 13.92 0 0 0 1.6-6.4v-.2c0-2.26-1.7-4.08-3.8-4.08H10.4c2.08 0 3.8 1.82 3.8 4.08Zm31.4 1.22v31.7c0 .96.7 1.74 1.6 1.74H50V15.66c0-2.92-2.2-5.3-4.94-5.3h-4.44c2.72 0 4.94 2.4 4.94 5.3h.04v-.02Zm0 50.96V82H50V64.9h-2.8c-.88 0-1.6.76-1.6 1.72v-.02Z" fill="#000" fill-opacity=".1" />
    <path d="M62.28 10.5c.28-5.1 4.22-9.18 8.9-9.38 5.2-.2 9.62 4.28 9.62 10 0 1.8-.42 3.42-1.16 4.86a14.92 14.92 0 0 0-1.72 6.86v.2c0 1.86 1.4 3.48 3.32 3.48h7.86c2.12 0 3.96 1.86 3.96 4.3V90.7c0 2.44-1.84 4.3-3.96 4.3H50.98c-2.12 0-3.96-1.86-3.96-4.3V26.52h14.8c1.9 0 3.34-1.62 3.34-3.48 0-2.44-.58-4.86-1.7-7a11.76 11.76 0 0 1-1.16-5.86l-.02.32v0Z" fill="#F8C1D5" stroke="#566586" stroke-width="2" stroke-linecap="round" />
    <path d="M58.66 45.92c-.9 0-1.8.06-2.64.26 4.56 1.08 8 5.44 8.06 10.6A10.86 10.86 0 0 1 56 67.62c.72.18 1.46.26 2.24.26 5.72 0 10.34-5 10.26-11.18-.08-5.8-4.44-10.58-9.86-10.8h.02v.02Z" fill="#000" fill-opacity=".1" />
    <path d="M12.84 26.4c0-2.1.5-4.08 1.4-5.8a13.12 13.12 0 0 0 1.48-5.94v-.2c0-1.78-1.3-3.08-2.8-3.08H5.04c-2.12 0-3.94 1.86-3.94 4.3V76.7c0 2.44 1.82 4.3 3.94 4.3h42.08V64.36c1.8.13 3.55.72 5.08 1.7a8.56 8.56 0 0 0 4.52 1.28c5.1 0 9.34-4.5 9.28-10.16-.1-5.32-4.08-9.64-8.9-9.84-1.7-.07-3.4.37-4.86 1.26a11 11 0 0 1-5.12 1.7V15.68c0-2.44-1.82-4.3-3.94-4.3H35.3c-1.5 0-2.8 1.3-2.8 3.08-.01 2.12.49 4.21 1.46 6.1 1.04 2 1.53 4.26 1.4 6.52-.32 6.08-5 11.06-10.82 11.3-6.5.26-11.7-5.3-11.7-11.98Z" fill="#5AD4FA" stroke="#566586" stroke-width="2" stroke-linecap="round" />
  </g>
  <defs>
    <clipPath id="a">
      <path fill="#fff" d="M0 0h96v96H0z" />
    </clipPath>
  </defs>
</svg>