<svg width="48" height="48" fill="none" xmlns="http://www.w3.org/2000/svg"><g clip-path="url(#a)"><path d="M31.14 5.25C31.28 2.7 33.25.66 35.59.56c2.6-.1 4.81 2.14 4.81 5 0 .9-.21 1.71-.58 2.43a7.46 7.46 0 0 0-.86 3.43v.1c0 .93.7 1.74 1.66 1.74h3.93c1.06 0 1.98.93 1.98 2.15v29.94c0 1.22-.92 2.15-1.98 2.15H25.49c-1.06 0-1.98-.93-1.98-2.15V13.26h7.4c.95 0 1.67-.81 1.67-1.74 0-1.22-.29-2.43-.85-3.5a5.88 5.88 0 0 1-.58-2.93l-.01.16Z" fill="#F8C1D5" stroke="#566586" stroke-linecap="round"/><path d="M39.77 5.48c0 .97-.24 1.88-.65 2.67-.5.98-.8 2.08-.8 3.2v.1c0 .68.52 1.24 1.16 1.24h2.22c-.64 0-1.16-.56-1.16-1.24v-.1c0-1.12.3-2.22.8-3.2.41-.79.65-1.7.65-2.66 0-3.11-2.41-5.61-5.34-5.49-.3 0-.61.05-.9.12a5.44 5.44 0 0 1 4.02 5.37Zm5.54 7.5h-2.42a2.66 2.66 0 0 1 2.7 2.62v29.7a2.67 2.67 0 0 1-2.7 2.63h2.42A2.66 2.66 0 0 0 48 45.3V15.6c0-1.45-1.2-2.63-2.69-2.63ZM7.1 7.21v.1c0 1.12-.3 2.22-.8 3.2-.42.79-.65 1.7-.65 2.65 0 3.12 2.4 5.62 5.33 5.5.31 0 .62-.05.91-.12a5.44 5.44 0 0 1-4.02-5.38c0-.96.23-1.86.64-2.65.51-.98.8-2.08.8-3.2v-.1c0-1.13-.85-2.04-1.9-2.04H5.2c1.04 0 1.9.91 1.9 2.04Zm15.7.61v15.85c0 .48.35.87.8.87H25V7.83c0-1.46-1.1-2.65-2.47-2.65h-2.22c1.36 0 2.47 1.2 2.47 2.65h.02Zm0 25.48V41H25v-8.55h-1.4c-.44 0-.8.38-.8.86Z" fill="#000" fill-opacity=".1"/><path d="M7.07 10.09c-.45.86-.7 1.85-.7 2.9 0 3.34 2.6 6.12 5.85 5.99 2.91-.12 5.25-2.61 5.41-5.65a6.29 6.29 0 0 0-.7-3.26 6.58 6.58 0 0 1-.73-3.05c0-.89.65-1.54 1.4-1.54h3.94c1.06 0 1.97.93 1.97 2.15v32.66H2.47c-1.06 0-1.97-.93-1.97-2.15V7.63c0-1.22.91-2.15 1.97-2.15h3.94c.75 0 1.4.65 1.4 1.54v.1c0 1.03-.27 2.05-.74 2.97ZM28.5 23.46c2.41.1 4.4 2.26 4.45 4.92.03 2.83-2.09 5.08-4.64 5.08-.82 0-1.6-.23-2.26-.64a5.44 5.44 0 0 0-2.54-.85v-7.03a5.5 5.5 0 0 0 2.56-.85 4.34 4.34 0 0 1 2.43-.63Z" fill="#5AD4FA" stroke="#566586" stroke-linecap="round"/><path d="M23.01 25.4h1v6.11h-1v-6.1Z" fill="#5AD4FA"/><path d="M29.33 22.96c-.45 0-.9.03-1.32.13 2.28.54 4 2.72 4.03 5.3A5.43 5.43 0 0 1 28 33.81c.36.09.73.13 1.12.13 2.86 0 5.17-2.5 5.13-5.59-.04-2.9-2.22-5.29-4.93-5.4h.01Z" fill="#000" fill-opacity=".1"/></g><defs><clipPath id="a"><path fill="#fff" d="M0 0h48v48H0z"/></clipPath></defs></svg>